<svg version="1.2" xmlns="http://www.w3.org/2000/svg" viewBox="0 0 1491 412" width="1491" height="412">
	<title>brave-logo-text-only</title>
	<style>
		.s0 { fill: #222121 } 
	</style>
	<g id="Folder 1">
		<path id="iBrowe" class="s0" aria-label="iBrowe"  d="m99.2 397h-37.3v-235.5h37.3zm-18.4-289.5q-10.4 0-18.2-5.8-7.5-6-7.5-16.2 0-9.9 7.5-15.7 7.8-6 18.2-6 10.4 0 17.9 6 7.6 5.8 7.6 15.7 0 10.2-7.6 16.2-7.5 5.8-17.9 5.8zm86-37.5h108.6q30.4 0 51.5 8.4 21.3 8.2 32.3 25.5 11.4 17.3 11.4 43.9 0 25.3-10.5 42.4-10.2 16.8-26.4 25.7-15.9 8.7-33.2 9.5 18.8 0.5 36.6 8.7 17.7 8 29 25.7 11.5 17.5 11.5 46.8 0 28.6-11.5 49-11.3 20.2-34.3 30.8-23.1 10.6-58.1 10.6h-106.9zm36.6 11.8v141.2l-12.9-12.8h67.2q35.5 0 55.2-14.2 19.7-14.4 19.7-42.4 0-18.6-8.2-29.5-8.2-11-23.2-15.9-14.9-4.9-34.9-4.9h-80zm-17.1 282h80.1q33.7 0 53.2-14.8 19.5-14.9 19.5-44.4 0-17.9-6.4-29.7-6.5-12-17.5-18.8-11.1-6.9-25.5-9.8-14.2-3.1-30-3.1h-69.1l12.8-12.9v155zm290 33.3h-37.7v-235.5h37.7v72.3l-12.4-4.4q1.3-13.1 6.6-25.8 5.4-12.8 14.7-23 9.5-10.4 23.7-16.4 14.2-6.2 33.3-6.2 14.1 0 23 2.4 9.1 2.2 11.3 3.6l-9.7 37q-2.2-1.6-9.1-4-6.7-2.4-19.1-2.4-18.4 0-30.6 6.6-12 6.7-19.1 17.7-6.8 10.9-9.7 23.8-2.9 12.8-2.9 25.5zm247.9 4.2q-35.5 0-62.8-15.8-27-15.9-42.5-43.4-15.3-27.7-15.3-63 0-35.2 15.3-62.5 15.5-27.3 42.5-42.8 27.3-15.5 62.8-15.5 35.5 0 62.5 15.5 27.3 15.5 42.6 42.8 15.5 27.3 15.5 62.5 0 35.3-15.5 63-15.3 27.5-42.6 43.4-27 15.8-62.5 15.8zm0-34.6q24.4 0 43-10.9 18.6-10.8 29-30.6 10.7-19.7 10.7-46.1 0-26.4-10.7-45.7-10.4-19.5-29-29.9-18.6-10.6-43-10.6-24.2 0-43 10.6-18.7 10.4-29.3 29.9-10.4 19.3-10.4 45.7 0 26.4 10.4 46.1 10.6 19.8 29.3 30.6 18.8 10.9 43 10.9zm415 30.4h-52.7l-65.9-235.5h33.5l62.3 218.8h-6.9l41.3-218.8h39.2zm-159 0h-53l-51.2-235.5h39.3l41.7 218.9h-6.9l61.6-218.9h33.5zm479.6-102.6h-214.9v-33.7h182l-6.6 11.1q0-1.3 0-2.5 0-1.3 0-2.4 0-20.4-8.7-37.2-8.4-17.1-25.2-27.3-16.9-10.2-41.7-10.2-25.1 0-44.1 10.6-19.1 10.7-29.7 30.2-10.7 19.3-10.7 46.1 0 27.3 10.2 47 10.4 19.7 29.5 30.4 19.1 10.6 45.2 10.6 18.7 0 32.4-3.8 13.7-3.9 22.6-10.4 9.1-6.6 13.8-14.4 4.6-7.7 5.5-15.5h37.7q-1.1 14.2-8.9 28.2-7.7 13.9-21.9 25.5-14.2 11.3-34.8 18.1-20.7 6.9-47.5 6.9-35.5 0-62.5-15.5-27-15.5-42.6-43-15.3-27.5-15.3-63.2 0-36.2 15.6-63.4 15.5-27.5 42.7-43 27.3-15.6 62.3-15.6 35.7 0 61.9 15.6 26.2 15.5 40.4 42.5 14.1 26.9 14.1 61.2 0 3.6-0.2 9.3-0.2 5.8-0.6 7.8z"/>
	</g>
</svg>