<svg width="260" height="156" viewBox="0 0 260 156" fill="none" xmlns="http://www.w3.org/2000/svg"><path fill-rule="evenodd" clip-rule="evenodd" d="M90.3 11.2c-1.41-5.66-6.5-9.62-12.33-9.62S67.06 5.55 65.64 11.2l-4.39 17.54A44.478 44.478 0 0 1 28.89 61.1l-17.54 4.39c-5.66 1.41-9.62 6.5-9.62 12.33s3.97 10.91 9.62 12.33l17.54 4.39a44.478 44.478 0 0 1 32.36 32.36l4.39 17.54c1.41 5.65 6.5 9.62 12.33 9.62s10.91-3.97 12.33-9.62l4.39-17.54a44.462 44.462 0 0 1 32.36-32.36l17.54-4.39c5.65-1.41 9.62-6.5 9.62-12.33s-3.97-10.91-9.62-12.33l-17.54-4.39a44.462 44.462 0 0 1-32.36-32.36L90.3 11.2Z" fill="#FDF3E0"/><path d="M248.65 60.39H72.06a7.78 7.78 0 0 0-7.78 7.78v25.36a7.78 7.78 0 0 0 7.78 7.78h176.59a7.78 7.78 0 0 0 7.78-7.78V68.17a7.78 7.78 0 0 0-7.78-7.78Z" fill="#fff"/><path d="M248.65 102.82H72.06c-5.12 0-9.28-4.17-9.28-9.28V68.19c0-5.12 4.16-9.28 9.28-9.28h176.58c5.12 0 9.28 4.16 9.28 9.28v25.35c0 5.12-4.17 9.28-9.28 9.28h.01ZM72.06 61.89a6.29 6.29 0 0 0-6.28 6.28v25.35a6.29 6.29 0 0 0 6.28 6.28h176.58a6.29 6.29 0 0 0 6.28-6.28V68.17a6.29 6.29 0 0 0-6.28-6.28H72.06Z" fill="#000"/><path d="M86.9 84.52h-4.74l-.78 2.27h-2.5l4.28-11.91h2.78l4.28 11.91H87.7l-.78-2.27h-.02Zm-.65-1.91-1.72-4.97-1.72 4.97h3.44Zm7.09 3.91c-.61-.28-1.1-.66-1.46-1.13-.36-.48-.55-1.01-.59-1.58h2.4c.04.36.22.67.54.9.31.24.7.36 1.17.36s.81-.09 1.07-.27c.25-.18.38-.41.38-.7 0-.31-.16-.54-.47-.69-.31-.15-.81-.32-1.49-.5-.7-.17-1.28-.35-1.73-.53-.45-.18-.83-.46-1.16-.83-.32-.38-.49-.88-.49-1.52 0-.52.15-1 .45-1.43.3-.43.73-.77 1.29-1.02s1.22-.37 1.98-.37c1.12 0 2.02.28 2.69.84.67.56 1.04 1.32 1.11 2.27h-2.28c-.03-.38-.19-.67-.47-.89-.28-.22-.65-.33-1.12-.33-.43 0-.76.08-1 .24a.77.77 0 0 0-.35.67c0 .32.16.56.48.72.32.17.81.33 1.48.5.68.17 1.24.35 1.69.53.44.18.83.46 1.15.84.32.38.49.88.5 1.51 0 .54-.15 1.03-.45 1.46-.3.43-.73.77-1.29 1.01s-1.22.37-1.97.37-1.46-.14-2.08-.42l.02-.01Zm13.34.26-3.2-4.02v4.02h-2.38V74.17h2.38v7.17l3.17-4h3.1l-4.16 4.74 4.19 4.7h-3.1Zm10.8-1.89h3.92v1.89h-6.3V74.89h2.38v10Zm14.14-2.11h-6.9c.06.68.29 1.21.71 1.6.42.39.94.58 1.55.58.89 0 1.52-.38 1.89-1.14h2.57c-.27.91-.79 1.66-1.57 2.24-.78.58-1.72.88-2.84.88-.91 0-1.72-.2-2.44-.6a4.28 4.28 0 0 1-1.69-1.71c-.41-.74-.6-1.59-.6-2.56s.2-1.83.6-2.57c.4-.74.95-1.31 1.67-1.7.71-.4 1.54-.6 2.47-.6.93 0 1.7.19 2.41.58.71.39 1.26.93 1.65 1.64.39.71.59 1.53.59 2.45 0 .34-.02.65-.07.92v-.01Zm-2.4-1.6c-.01-.61-.23-1.1-.66-1.47-.43-.37-.96-.55-1.58-.55-.59 0-1.09.18-1.49.54-.4.36-.65.86-.74 1.49h4.48l-.01-.01Zm5.95 5.15c-.73-.4-1.3-.97-1.71-1.71-.42-.74-.62-1.59-.62-2.56s.21-1.82.64-2.56c.43-.74 1.01-1.31 1.75-1.71.74-.4 1.56-.6 2.47-.6.91 0 1.73.2 2.47.6.74.4 1.32.97 1.75 1.71.43.74.64 1.59.64 2.56s-.22 1.82-.66 2.56c-.44.74-1.03 1.31-1.77 1.71-.74.4-1.58.6-2.5.6-.92 0-1.73-.2-2.45-.6h-.01Zm3.67-1.79c.38-.21.68-.53.91-.95.23-.42.34-.93.34-1.53 0-.9-.24-1.59-.71-2.07-.47-.48-1.05-.72-1.73-.72-.68 0-1.25.24-1.71.72-.46.48-.69 1.17-.69 2.07 0 .9.22 1.59.67 2.07.45.48 1.01.72 1.7.72.43 0 .84-.11 1.22-.32v.01Z" fill="#000"/><path d="m231.09 75.1 11.19 5.75-11.19 5.76 2.09-5.89-2.09-5.62Z" fill="#fff"/><path d="M231.09 88.11c-.36 0-.71-.13-.99-.37-.46-.41-.63-1.05-.43-1.63l1.91-5.37-1.9-5.11a1.51 1.51 0 0 1 .41-1.65c.46-.41 1.13-.49 1.68-.21l11.19 5.76c.5.26.81.77.81 1.33s-.31 1.08-.81 1.33l-11.19 5.76c-.22.11-.45.17-.69.17l.01-.01Zm2.76-9.91.74 2c.12.33.12.69 0 1.03l-.82 2.32 5.23-2.69-5.16-2.65.01-.01Zm-89.25-8.96h-1v23.24h1V69.24Z" fill="#000"/><mask id="a" style="mask-type:luminance" maskUnits="userSpaceOnUse" x="62" y="27" width="169" height="112"><path d="M77.92 138.48H66.57a3.73 3.73 0 0 1-3.73-3.73V120.1a3.73 3.73 0 0 1 3.73-3.73h11.35a3.73 3.73 0 0 1 3.73 3.73v14.65a3.73 3.73 0 0 1-3.73 3.73Zm28.48-3.73V120.1a3.73 3.73 0 0 0-3.73-3.73H91.32a3.73 3.73 0 0 0-3.73 3.73v14.65a3.73 3.73 0 0 0 3.73 3.73h11.35a3.73 3.73 0 0 0 3.73-3.73Zm24.75 0V120.1a3.73 3.73 0 0 0-3.73-3.73h-11.35a3.73 3.73 0 0 0-3.73 3.73v14.65a3.73 3.73 0 0 0 3.73 3.73h11.35a3.73 3.73 0 0 0 3.73-3.73Zm24.75 0V120.1a3.73 3.73 0 0 0-3.73-3.73h-11.35a3.73 3.73 0 0 0-3.73 3.73v14.65a3.73 3.73 0 0 0 3.73 3.73h11.35a3.73 3.73 0 0 0 3.73-3.73Zm49.5 0V120.1a3.73 3.73 0 0 0-3.73-3.73h-11.35a3.73 3.73 0 0 0-3.73 3.73v14.65a3.73 3.73 0 0 0 3.73 3.73h11.35a3.73 3.73 0 0 0 3.73-3.73Zm24.75 0V120.1a3.73 3.73 0 0 0-3.73-3.73h-11.35a3.73 3.73 0 0 0-3.73 3.73v14.65a3.73 3.73 0 0 0 3.73 3.73h11.35a3.73 3.73 0 0 0 3.73-3.73Zm-74.25-89.1V31a3.73 3.73 0 0 0-3.73-3.73h-11.35a3.73 3.73 0 0 0-3.73 3.73v14.65a3.73 3.73 0 0 0 3.73 3.73h11.35a3.73 3.73 0 0 0 3.73-3.73Zm24.75 0V31a3.73 3.73 0 0 0-3.73-3.73h-11.35a3.73 3.73 0 0 0-3.73 3.73v14.65a3.73 3.73 0 0 0 3.73 3.73h11.35a3.73 3.73 0 0 0 3.73-3.73Zm24.75 0V31a3.73 3.73 0 0 0-3.73-3.73h-11.35a3.73 3.73 0 0 0-3.73 3.73v14.65a3.73 3.73 0 0 0 3.73 3.73h11.35a3.73 3.73 0 0 0 3.73-3.73Zm24.75 0V31a3.73 3.73 0 0 0-3.73-3.73h-11.35a3.73 3.73 0 0 0-3.73 3.73v14.65a3.73 3.73 0 0 0 3.73 3.73h11.35a3.73 3.73 0 0 0 3.73-3.73Z" fill="#fff"/></mask><g mask="url(#a)"><path d="m229.92 49.38.23-.23v.23h-.23Z" fill="#FB079A"/><path d="m229.04 49.38 1.11-1.11v.88l-.23.23h-.88Z" fill="#FA089A"/><path d="m228.17 49.38 1.98-1.98v.87l-1.11 1.11h-.87Z" fill="#F9099B"/><path d="m227.3 49.38 2.85-2.85v.87l-1.98 1.98h-.87Z" fill="#F90A9C"/><path d="m226.43 49.38 3.72-3.73v.88l-2.85 2.85h-.87Z" fill="#F80B9D"/><path d="m225.55 49.38 4.6-4.6v.87l-3.72 3.73h-.88Z" fill="#F80C9E"/><path d="m224.68 49.38 5.47-5.47v.87l-4.6 4.6h-.87Z" fill="#F70D9E"/><path d="m223.81 49.38 6.34-6.34v.87l-5.47 5.47h-.87Z" fill="#F60E9F"/><path d="m222.93 49.38 7.22-7.22v.88l-6.34 6.34h-.88Z" fill="#F60FA0"/><path d="m222.06 49.38 8.09-8.09v.87l-7.22 7.22h-.87Z" fill="#F510A1"/><path d="m221.19 49.38 8.96-8.96v.87l-8.09 8.09h-.87Z" fill="#F511A1"/><path d="m220.32 49.38 9.83-9.83v.87l-8.96 8.96h-.87Z" fill="#F412A2"/><path d="m219.44 49.38 10.71-10.71v.88l-9.83 9.83h-.88Z" fill="#F313A3"/><path d="m218.57 49.38 11.58-11.58v.87l-10.71 10.71h-.87Z" fill="#F314A4"/><path d="m217.7 49.38 12.45-12.45v.87l-11.58 11.58h-.87Z" fill="#F215A5"/><path d="m216.83 49.38 13.32-13.33v.88L217.7 49.38h-.87Z" fill="#F116A5"/><path d="m215.95 49.38 14.2-14.2v.87l-13.32 13.33h-.88Z" fill="#F117A6"/><path d="m215.08 49.38 15.07-15.07v.87l-14.2 14.2h-.87Z" fill="#F018A7"/><path d="m214.21 49.38 15.94-15.94v.87l-15.07 15.07h-.87Z" fill="#F019A8"/><path d="m213.33 49.38 16.82-16.82v.88l-15.94 15.94h-.88Z" fill="#EF1AA9"/><path d="m212.46 49.38 17.69-17.69v.87l-16.82 16.82h-.87Z" fill="#EE1BA9"/><path d="m211.59 49.38 18.56-18.56v.87l-17.69 17.69h-.87Z" fill="#EE1CAA"/><path d="m211.34 48.76 18.81-18.82v.88l-18.56 18.56h-.25v-.62Z" fill="#ED1DAB"/><path d="m211.34 47.88 18.81-18.81v.87l-18.81 18.82v-.88Z" fill="#ED1EAC"/><path d="m211.34 47.01 18.81-18.81v.87l-18.81 18.81v-.87Z" fill="#EC1FAD"/><path d="m211.34 46.14 18.81-18.81v.87l-18.81 18.81v-.87Z" fill="#EB20AD"/><path d="m211.34 45.26 18-17.99h.81v.06l-18.81 18.81v-.88Z" fill="#EB21AE"/><path d="m211.34 44.39 17.12-17.12h.88l-18 17.99v-.87Z" fill="#EA22AF"/><path d="m211.34 43.52 16.25-16.25h.87l-17.12 17.12v-.87Z" fill="#E923B0"/><path d="m211.34 42.65 15.38-15.38h.87l-16.25 16.25v-.87Z" fill="#E924B1"/><path d="m211.34 41.77 14.5-14.5h.88l-15.38 15.38v-.88Z" fill="#E825B1"/><path d="m211.34 40.9 13.63-13.63h.87l-14.5 14.5v-.87Z" fill="#E826B2"/><path d="m211.34 40.03 12.76-12.76h.87L211.34 40.9v-.87Z" fill="#E727B3"/><path d="m211.34 39.15 11.89-11.88h.87l-12.76 12.76v-.88Z" fill="#E628B4"/><path d="m211.34 38.28 11.01-11.01h.88l-11.89 11.88v-.87Z" fill="#E629B4"/><path d="m211.34 37.41 10.14-10.14h.87l-11.01 11.01v-.87Z" fill="#E52AB5"/><path d="m211.34 36.54 9.27-9.27h.87l-10.14 10.14v-.87Z" fill="#E52BB6"/><path d="m211.34 35.66 8.4-8.39h.87l-9.27 9.27v-.88Z" fill="#E42CB7"/><path d="m211.34 34.79 7.52-7.52h.88l-8.4 8.39v-.87Z" fill="#E32DB8"/><path d="m211.34 33.92 6.65-6.65h.87l-7.52 7.52v-.87Z" fill="#E32EB8"/><path d="m211.34 33.05 5.78-5.78h.87l-6.65 6.65v-.87Z" fill="#E22FB9"/><path d="m211.34 32.17 4.9-4.9h.88l-5.78 5.78v-.88Z" fill="#E130BA"/><path d="m211.34 31.3 4.03-4.03h.87l-4.9 4.9v-.87Z" fill="#E131BB"/><path d="m211.34 30.43 3.16-3.16h.87l-4.03 4.03v-.87Z" fill="#E032BC"/><path d="m211.34 29.55 2.29-2.28h.87l-3.16 3.16v-.88Z" fill="#E033BC"/><path d="m211.34 28.68 1.41-1.41h.88l-2.29 2.28v-.87Z" fill="#DF34BD"/><path d="m211.34 27.81.54-.54h.87l-1.41 1.41v-.87Z" fill="#DE35BE"/><path d="m211.88 27.27-.54.54v-.54h.54Z" fill="#DE36BF"/><path d="m204.61 49.38.79-.79v.79h-.79Z" fill="#E924B1"/><path d="m203.73 49.38 1.67-1.67v.88l-.79.79h-.88Z" fill="#E825B1"/><path d="m202.86 49.38 2.54-2.54v.87l-1.67 1.67h-.87Z" fill="#E826B2"/><path d="m201.99 49.38 3.41-3.41v.87l-2.54 2.54h-.87Z" fill="#E727B3"/><path d="m201.12 49.38 4.28-4.28v.87l-3.41 3.41h-.87Z" fill="#E628B4"/><path d="m200.24 49.38 5.16-5.16v.88l-4.28 4.28h-.88Z" fill="#E629B4"/><path d="m199.37 49.38 6.03-6.03v.87l-5.16 5.16h-.87Z" fill="#E52AB5"/><path d="m198.5 49.38 6.9-6.9v.87l-6.03 6.03h-.87Z" fill="#E52BB6"/><path d="m197.62 49.38 7.78-7.78v.88l-6.9 6.9h-.88Z" fill="#E42CB7"/><path d="m196.75 49.38 8.65-8.65v.87l-7.78 7.78h-.87Z" fill="#E32DB8"/><path d="m195.88 49.38 9.52-9.52v.87l-8.65 8.65h-.87Z" fill="#E32EB8"/><path d="m195.01 49.38 10.39-10.39v.87l-9.52 9.52h-.87Z" fill="#E22FB9"/><path d="m194.13 49.38 11.27-11.27v.88l-10.39 10.39h-.88Z" fill="#E130BA"/><path d="m193.26 49.38 12.14-12.14v.87l-11.27 11.27h-.87Z" fill="#E131BB"/><path d="m192.39 49.38 13.01-13.01v.87l-12.14 12.14h-.87Z" fill="#E032BC"/><path d="m191.51 49.38 13.89-13.89v.88l-13.01 13.01h-.88Z" fill="#E033BC"/><path d="m190.64 49.38 14.76-14.76v.87l-13.89 13.89h-.87Z" fill="#DF34BD"/><path d="m189.77 49.38 15.63-15.63v.87l-14.76 14.76h-.87Z" fill="#DE35BE"/><path d="m188.9 49.38 16.5-16.5v.87l-15.63 15.63h-.87Z" fill="#DE36BF"/><path d="M188.02 49.38 205.4 32v.88l-16.5 16.5h-.88Z" fill="#DD37C0"/><path d="m187.15 49.38 18.25-18.25V32l-17.38 17.38h-.87Z" fill="#DD38C0"/><path d="m186.59 49.07 18.81-18.81v.87l-18.25 18.25h-.56v-.31Z" fill="#DC39C1"/><path d="m186.59 48.2 18.81-18.81v.87l-18.81 18.81v-.87Z" fill="#DB3AC2"/><path d="m186.59 47.32 18.81-18.81v.88L186.59 48.2v-.88Z" fill="#DB3BC3"/><path d="m186.59 46.45 18.81-18.81v.87l-18.81 18.81v-.87Z" fill="#DA3CC4"/><path d="m186.59 45.58 18.31-18.31h.5v.37l-18.81 18.81v-.87Z" fill="#D93DC4"/><path d="m186.59 44.7 17.44-17.43h.87l-18.31 18.31v-.88Z" fill="#D93EC5"/><path d="m186.59 43.83 16.56-16.56h.88L186.59 44.7v-.87Z" fill="#D83FC6"/><path d="m186.59 42.96 15.69-15.69h.87l-16.56 16.56v-.87Z" fill="#D840C7"/><path d="m186.59 42.09 14.82-14.82h.87l-15.69 15.69v-.87Z" fill="#D741C8"/><path d="m186.59 41.21 13.94-13.94h.88l-14.82 14.82v-.88Z" fill="#D642C8"/><path d="m186.59 40.34 13.07-13.07h.87l-13.94 13.94v-.87Z" fill="#D643C9"/><path d="m186.59 39.47 12.2-12.2h.87l-13.07 13.07v-.87Z" fill="#D545CA"/><path d="m186.59 38.6 11.33-11.33h.87l-12.2 12.2v-.87Z" fill="#D546CB"/><path d="m186.59 37.72 10.45-10.45h.88L186.59 38.6v-.88Z" fill="#D447CB"/><path d="m186.59 36.85 9.58-9.58h.87l-10.45 10.45v-.87Z" fill="#D348CC"/><path d="m186.59 35.98 8.71-8.71h.87l-9.58 9.58v-.87Z" fill="#D349CD"/><path d="m186.59 35.1 7.83-7.83h.88l-8.71 8.71v-.88Z" fill="#D24ACE"/><path d="m186.59 34.23 6.96-6.96h.87l-7.83 7.83v-.87Z" fill="#D24BCF"/><path d="m186.59 33.36 6.09-6.09h.87l-6.96 6.96v-.87Z" fill="#D14CCF"/><path d="m186.59 32.49 5.22-5.22h.87l-6.09 6.09v-.87Z" fill="#D04DD0"/><path d="m186.59 31.61 4.34-4.34h.88l-5.22 5.22v-.88Z" fill="#D04ED1"/><path d="m186.59 30.74 3.47-3.47h.87l-4.34 4.34v-.87Z" fill="#CF4FD2"/><path d="m186.59 29.87 2.6-2.6h.87l-3.47 3.47v-.87Z" fill="#CE50D3"/><path d="m186.59 29 1.73-1.73h.87l-2.6 2.6V29Z" fill="#CE51D3"/><path d="m186.59 28.12.85-.85h.88L186.59 29v-.88Z" fill="#CD52D4"/><path d="m187.44 27.27-.85.85v-.85h.85Z" fill="#CD53D5"/><path d="m180.17 49.38.48-.48v.48h-.48Z" fill="#D840C7"/><path d="m179.3 49.38 1.35-1.35v.87l-.48.48h-.87Z" fill="#D741C8"/><path d="m178.42 49.38 2.23-2.23v.88l-1.35 1.35h-.88Z" fill="#D642C8"/><path d="m177.55 49.38 3.1-3.1v.87l-2.23 2.23h-.87Z" fill="#D643C9"/><path d="m176.68 49.38 3.97-3.97v.87l-3.1 3.1h-.87Z" fill="#D545CA"/><path d="m175.8 49.38 4.85-4.84v.87l-3.97 3.97h-.88Z" fill="#D546CB"/><path d="m174.93 49.38 5.72-5.72v.88l-4.85 4.84h-.87Z" fill="#D447CB"/><path d="m174.06 49.38 6.59-6.59v.87l-5.72 5.72h-.87Z" fill="#D348CC"/><path d="m173.19 49.38 7.46-7.46v.87l-6.59 6.59h-.87Z" fill="#D349CD"/><path d="m172.31 49.38 8.34-8.34v.88l-7.46 7.46h-.88Z" fill="#D24ACE"/><path d="m171.44 49.38 9.21-9.21v.87l-8.34 8.34h-.87Z" fill="#D24BCF"/><path d="m170.57 49.38 10.08-10.08v.87l-9.21 9.21h-.87Z" fill="#D14CCF"/><path d="m169.7 49.38 10.95-10.95v.87l-10.08 10.08h-.87Z" fill="#D04DD0"/><path d="m168.82 49.38 11.83-11.83v.88L169.7 49.38h-.88Z" fill="#D04ED1"/><path d="m167.95 49.38 12.7-12.7v.87l-11.83 11.83h-.87Z" fill="#CF4FD2"/><path d="m167.08 49.38 13.57-13.57v.87l-12.7 12.7h-.87Z" fill="#CE50D3"/><path d="m166.2 49.38 14.45-14.44v.87l-13.57 13.57h-.88Z" fill="#CE51D3"/><path d="m165.33 49.38 15.32-15.32v.88L166.2 49.38h-.87Z" fill="#CD52D4"/><path d="m164.46 49.38 16.19-16.19v.87l-15.32 15.32h-.87Z" fill="#CD53D5"/><path d="m163.59 49.38 17.06-17.06v.87l-16.19 16.19h-.87Z" fill="#CC54D6"/><path d="m162.71 49.38 17.94-17.94v.88l-17.06 17.06h-.88Z" fill="#CB55D7"/><path d="m161.84 49.38 18.81-18.81v.87l-17.94 17.94h-.87Z" fill="#CB56D7"/><path d="m161.84 48.51 18.81-18.81v.87l-18.81 18.81v-.87Z" fill="#CA57D8"/><path d="m161.84 47.64 18.81-18.81v.87l-18.81 18.81v-.87Z" fill="#CA58D9"/><path d="m161.84 46.76 18.81-18.81v.88l-18.81 18.81v-.88Z" fill="#C959DA"/><path d="m161.84 45.89 18.62-18.62h.19v.68l-18.81 18.81v-.87Z" fill="#C85ADB"/><path d="m161.84 45.02 17.75-17.75h.87l-18.62 18.62v-.87Z" fill="#C85BDB"/><path d="m161.84 44.15 16.87-16.88h.88l-17.75 17.75v-.87Z" fill="#C75CDC"/><path d="m161.84 43.27 16-16h.87l-16.87 16.88v-.88Z" fill="#C65DDD"/><path d="m161.84 42.4 15.13-15.13h.87l-16 16v-.87Z" fill="#C65EDE"/><path d="m161.84 41.53 14.26-14.26h.87L161.84 42.4v-.87Z" fill="#C55FDF"/><path d="m161.84 40.65 13.38-13.38h.88l-14.26 14.26v-.88Z" fill="#C560DF"/><path d="m161.84 39.78 12.51-12.51h.87l-13.38 13.38v-.87Z" fill="#C461E0"/><path d="m161.84 38.91 11.64-11.64h.87l-12.51 12.51v-.87Z" fill="#C362E1"/><path d="m161.84 38.04 10.77-10.77h.87l-11.64 11.64v-.87Z" fill="#C363E2"/><path d="m161.84 37.16 9.89-9.89h.88l-10.77 10.77v-.88Z" fill="#C264E2"/><path d="m161.84 36.29 9.02-9.02h.87l-9.89 9.89v-.87Z" fill="#C265E3"/><path d="m161.84 35.42 8.15-8.15h.87l-9.02 9.02v-.87Z" fill="#C166E4"/><path d="m161.84 34.55 7.27-7.28h.88l-8.15 8.15v-.87Z" fill="#C067E5"/><path d="m161.84 33.67 6.4-6.4h.87l-7.27 7.28v-.88Z" fill="#C068E6"/><path d="m161.84 32.8 5.53-5.53h.87l-6.4 6.4v-.87Z" fill="#BF69E6"/><path d="m161.84 31.93 4.66-4.66h.87l-5.53 5.53v-.87Z" fill="#BE6AE7"/><path d="m161.84 31.05 3.78-3.78h.88l-4.66 4.66v-.88Z" fill="#BE6BE8"/><path d="m161.84 30.18 2.91-2.91h.87l-3.78 3.78v-.87Z" fill="#BD6CE9"/><path d="m161.84 29.31 2.04-2.04h.87l-2.91 2.91v-.87Z" fill="#BD6DEA"/><path d="m161.84 28.44 1.16-1.17h.88l-2.04 2.04v-.87Z" fill="#BC6EEA"/><path d="m161.84 27.56.29-.29h.87l-1.16 1.17v-.88Z" fill="#BB6FEB"/><path d="m162.13 27.27-.29.29v-.29h.29Z" fill="#BB70EC"/><path d="m155.73 49.38.17-.17v.17h-.17Z" fill="#C65DDD"/><path d="m154.86 49.38 1.04-1.04v.87l-.17.17h-.87Z" fill="#C65EDE"/><path d="m153.99 49.38 1.91-1.91v.87l-1.04 1.04h-.87Z" fill="#C55FDF"/><path d="m153.11 49.38 2.79-2.79v.88l-1.91 1.91h-.88Z" fill="#C560DF"/><path d="m152.24 49.38 3.66-3.66v.87l-2.79 2.79h-.87Z" fill="#C461E0"/><path d="m151.37 49.38 4.53-4.53v.87l-3.66 3.66h-.87Z" fill="#C362E1"/><path d="m150.49 49.38 5.41-5.4v.87l-4.53 4.53h-.88Z" fill="#C363E2"/><path d="m149.62 49.38 6.28-6.28v.88l-5.41 5.4h-.87Z" fill="#C264E2"/><path d="m148.75 49.38 7.15-7.15v.87l-6.28 6.28h-.87Z" fill="#C265E3"/><path d="m147.88 49.38 8.02-8.02v.87l-7.15 7.15h-.87Z" fill="#C166E4"/><path d="m147 49.38 8.9-8.89v.87l-8.02 8.02H147Z" fill="#C067E5"/><path d="m146.13 49.38 9.77-9.77v.88l-8.9 8.89h-.87Z" fill="#C068E6"/><path d="m145.26 49.38 10.64-10.64v.87l-9.77 9.77h-.87Z" fill="#BF69E6"/><path d="m144.38 49.38 11.52-11.51v.87l-10.64 10.64h-.88Z" fill="#BE6AE7"/><path d="m143.51 49.38 12.39-12.39v.88l-11.52 11.51h-.87Z" fill="#BE6BE8"/><path d="m142.64 49.38 13.26-13.26v.87l-12.39 12.39h-.87Z" fill="#BD6CE9"/><path d="m141.77 49.38 14.13-14.13v.87l-13.26 13.26h-.87Z" fill="#BD6DEA"/><path d="m140.89 49.38 15.01-15v.87l-14.13 14.13h-.88Z" fill="#BC6EEA"/><path d="M140.02 49.38 155.9 33.5v.88l-15.01 15h-.87Z" fill="#BB6FEB"/><path d="m139.15 49.38 16.75-16.75v.87l-15.88 15.88h-.87Z" fill="#BB70EC"/><path d="m138.28 49.38 17.62-17.62v.87l-16.75 16.75h-.87Z" fill="#BA71ED"/><path d="m137.4 49.38 18.5-18.5v.88l-17.62 17.62h-.88Z" fill="#BA72EE"/><path d="m137.09 48.82 18.81-18.81v.87l-18.5 18.5h-.31v-.56Z" fill="#B973EE"/><path d="m137.09 47.95 18.81-18.81v.87l-18.81 18.81v-.87Z" fill="#B874EF"/><path d="m137.09 47.08 18.81-18.81v.87l-18.81 18.81v-.87Z" fill="#B875F0"/><path d="m137.09 46.2 18.81-18.81v.88l-18.81 18.81v-.88Z" fill="#B776F1"/><path d="m137.09 45.33 18.06-18.06h.75v.12L137.09 46.2v-.87Z" fill="#B677F2"/><path d="m137.09 44.46 17.19-17.19h.87l-18.06 18.06v-.87Z" fill="#B678F2"/><path d="m137.09 43.59 16.31-16.32h.88l-17.19 17.19v-.87Z" fill="#B579F3"/><path d="m137.09 42.71 15.44-15.44h.87l-16.31 16.32v-.88Z" fill="#B57AF4"/><path d="m137.09 41.84 14.57-14.57h.87l-15.44 15.44v-.87Z" fill="#B47BF5"/><path d="m137.09 40.97 13.7-13.7h.87l-14.57 14.57v-.87Z" fill="#B37CF5"/><path d="m137.09 40.1 12.82-12.83h.88l-13.7 13.7v-.87Z" fill="#B37DF6"/><path d="m137.09 39.22 11.95-11.95h.87L137.09 40.1v-.88Z" fill="#B27EF7"/><path d="m137.09 38.35 11.08-11.08h.87l-11.95 11.95v-.87Z" fill="#B27FF8"/><path d="m137.09 37.48 10.2-10.21h.88l-11.08 11.08v-.87Z" fill="#B180F9"/><path d="m137.09 36.6 9.33-9.33h.87l-10.2 10.21v-.88Z" fill="#B081F9"/><path d="m137.09 35.73 8.46-8.46h.87l-9.33 9.33v-.87Z" fill="#B082FA"/><path d="m137.09 34.86 7.59-7.59h.87l-8.46 8.46v-.87Z" fill="#AF83FB"/><path d="m137.09 33.99 6.71-6.72h.88l-7.59 7.59v-.87Z" fill="#AE84FC"/><path d="m137.09 33.11 5.84-5.84h.87l-6.71 6.72v-.88Z" fill="#AE85FD"/><path d="m137.09 32.24 4.97-4.97h.87l-5.84 5.84v-.87Z" fill="#AD86FD"/><path d="m137.09 31.37 4.1-4.1h.87l-4.97 4.97v-.87Z" fill="#AD87FE"/><path d="m137.09 30.49 3.22-3.22h.88l-4.1 4.1v-.88Z" fill="#AC88FF"/><path d="m140.31 27.27-3.22 3.22v-3.22h3.22Z" fill="#AC88FF"/><path d="m222.76 138.48 7.39-7.39v7.39h-7.39Z" fill="#FF6743"/><path d="m222.03 138.48 8.12-8.11v.72l-7.39 7.39h-.73Z" fill="#FF6743"/><path d="m221.31 138.48 8.84-8.84v.73l-8.12 8.11h-.72Z" fill="#F64"/><path d="m220.58 138.48 9.57-9.57v.73l-8.84 8.84h-.73Z" fill="#FF6545"/><path d="m219.85 138.48 10.3-10.3v.73l-9.57 9.57h-.73Z" fill="#FF6445"/><path d="m219.12 138.48 11.03-11.02v.72l-10.3 10.3h-.73Z" fill="#FF6346"/><path d="m218.4 138.48 11.75-11.75v.73l-11.03 11.02h-.72Z" fill="#FF6247"/><path d="M217.67 138.48 230.15 126v.73l-11.75 11.75h-.73Z" fill="#FF6148"/><path d="m216.94 138.48 13.21-13.21v.73l-12.48 12.48h-.73Z" fill="#FF6049"/><path d="m216.21 138.48 13.94-13.94v.73l-13.21 13.21h-.73Z" fill="#FF5F49"/><path d="m215.48 138.48 14.67-14.66v.72l-13.94 13.94h-.73Z" fill="#FF5E4A"/><path d="m214.76 138.48 15.39-15.39v.73l-14.67 14.66h-.72Z" fill="#FF5D4B"/><path d="m214.03 138.48 16.12-16.12v.73l-15.39 15.39h-.73Z" fill="#FF5C4C"/><path d="m213.3 138.48 16.85-16.85v.73l-16.12 16.12h-.73Z" fill="#FF5B4D"/><path d="m212.57 138.48 17.58-17.57v.72l-16.85 16.85h-.73Z" fill="#FF5A4D"/><path d="m211.84 138.48 18.31-18.3v.73l-17.58 17.57h-.73Z" fill="#FF594E"/><path d="m211.34 138.26 18.81-18.81v.73l-18.31 18.3h-.5v-.22Z" fill="#FF584F"/><path d="m211.34 137.53 18.81-18.81v.73l-18.81 18.81v-.73Z" fill="#FF5750"/><path d="m211.34 136.8 18.81-18.81v.73l-18.81 18.81v-.73Z" fill="#FF5651"/><path d="m211.34 136.08 18.81-18.81v.72l-18.81 18.81v-.72Z" fill="#FF5551"/><path d="m211.34 135.35 18.81-18.81v.73l-18.81 18.81v-.73Z" fill="#FF5452"/><path d="m211.34 134.62 18.25-18.25h.56v.17l-18.81 18.81v-.73Z" fill="#FF5353"/><path d="m211.34 133.89 17.52-17.52h.73l-18.25 18.25v-.73Z" fill="#FF5254"/><path d="m211.34 133.17 16.79-16.8h.73l-17.52 17.52v-.72Z" fill="#FF5154"/><path d="m211.34 132.44 16.07-16.07h.72l-16.79 16.8v-.73Z" fill="#FF5055"/><path d="m211.34 131.71 15.34-15.34h.73l-16.07 16.07v-.73Z" fill="#FF4F56"/><path d="m211.34 130.98 14.61-14.61h.73l-15.34 15.34v-.73Z" fill="#FF4E57"/><path d="m211.34 130.25 13.88-13.88h.73l-14.61 14.61v-.73Z" fill="#FF4D58"/><path d="m211.34 129.53 13.15-13.16h.73l-13.88 13.88v-.72Z" fill="#FF4C58"/><path d="m211.34 128.8 12.43-12.43h.72l-13.15 13.16v-.73Z" fill="#FF4B59"/><path d="m211.34 128.07 11.7-11.7h.73l-12.43 12.43v-.73Z" fill="#FF4A5A"/><path d="m211.34 127.34 10.97-10.97h.73l-11.7 11.7v-.73Z" fill="#FF495B"/><path d="m211.34 126.62 10.24-10.25h.73l-10.97 10.97v-.72Z" fill="#FF485C"/><path d="m211.34 125.89 9.51-9.52h.73l-10.24 10.25v-.73Z" fill="#FF475C"/><path d="m211.34 125.16 8.79-8.79h.72l-9.51 9.52v-.73Z" fill="#FF465D"/><path d="m211.34 124.43 8.06-8.06h.73l-8.79 8.79v-.73Z" fill="#FF455E"/><path d="m211.34 123.7 7.33-7.33h.73l-8.06 8.06v-.73Z" fill="#FF445F"/><path d="m211.34 122.98 6.6-6.61h.73l-7.33 7.33v-.72Z" fill="#FF4360"/><path d="m211.34 122.25 5.88-5.88h.72l-6.6 6.61v-.73Z" fill="#FF4260"/><path d="m211.34 121.52 5.15-5.15h.73l-5.88 5.88v-.73Z" fill="#FF4161"/><path d="m211.34 120.79 4.42-4.42h.73l-5.15 5.15v-.73Z" fill="#FF4062"/><path d="m211.34 120.06 3.69-3.69h.73l-4.42 4.42v-.73Z" fill="#FF3F63"/><path d="m211.34 119.34 2.96-2.97h.73l-3.69 3.69v-.72Z" fill="#FF3E64"/><path d="m211.34 118.61 2.24-2.24h.72l-2.96 2.97v-.73Z" fill="#FF3D64"/><path d="m211.34 117.88 1.51-1.51h.73l-2.24 2.24v-.73Z" fill="#FF3C65"/><path d="m211.34 117.15.78-.78h.73l-1.51 1.51v-.73Z" fill="#FF3B66"/><path d="m211.34 116.43.05-.06h.73l-.78.78v-.72Z" fill="#FF3A67"/><path d="m211.39 116.37-.05.06v-.06h.05Z" fill="#FF3968"/><path d="m205.29 138.48.11-.1v.1h-.11Z" fill="#FF5055"/><path d="m204.57 138.48.83-.83v.73l-.11.1h-.72Z" fill="#FF4F56"/><path d="m203.84 138.48 1.56-1.56v.73l-.83.83h-.73Z" fill="#FF4E57"/><path d="m203.11 138.48 2.29-2.29v.73l-1.56 1.56h-.73Z" fill="#FF4D58"/><path d="m202.38 138.48 3.02-3.01v.72l-2.29 2.29h-.73Z" fill="#FF4C58"/><path d="m201.65 138.48 3.75-3.74v.73l-3.02 3.01h-.73Z" fill="#FF4B59"/><path d="m200.93 138.48 4.47-4.47v.73l-3.75 3.74h-.72Z" fill="#FF4A5A"/><path d="m200.2 138.48 5.2-5.2v.73l-4.47 4.47h-.73Z" fill="#FF495B"/><path d="m199.47 138.48 5.93-5.92v.72l-5.2 5.2h-.73Z" fill="#FF485C"/><path d="m198.74 138.48 6.66-6.65v.73l-5.93 5.92h-.73Z" fill="#FF475C"/><path d="m198.02 138.48 7.38-7.38v.73l-6.66 6.65h-.72Z" fill="#FF465D"/><path d="m197.29 138.48 8.11-8.11v.73l-7.38 7.38h-.73Z" fill="#FF455E"/><path d="m196.56 138.48 8.84-8.84v.73l-8.11 8.11h-.73Z" fill="#FF445F"/><path d="m195.83 138.48 9.57-9.56v.72l-8.84 8.84h-.73Z" fill="#FF4360"/><path d="m195.1 138.48 10.3-10.29v.73l-9.57 9.56h-.73Z" fill="#FF4260"/><path d="m194.38 138.48 11.02-11.02v.73l-10.3 10.29h-.72Z" fill="#FF4161"/><path d="m193.65 138.48 11.75-11.75v.73l-11.02 11.02h-.73Z" fill="#FF4062"/><path d="M192.92 138.48 205.4 126v.73l-11.75 11.75h-.73Z" fill="#FF3F63"/><path d="m192.19 138.48 13.21-13.2v.72l-12.48 12.48h-.73Z" fill="#FF3E64"/><path d="m191.47 138.48 13.93-13.93v.73l-13.21 13.2h-.72Z" fill="#FF3D64"/><path d="m190.74 138.48 14.66-14.66v.73l-13.93 13.93h-.73Z" fill="#FF3C65"/><path d="m190.01 138.48 15.39-15.39v.73l-14.66 14.66h-.73Z" fill="#FF3B66"/><path d="m189.28 138.48 16.12-16.11v.72l-15.39 15.39h-.73Z" fill="#FF3A67"/><path d="m188.55 138.48 16.85-16.84v.73l-16.12 16.11h-.73Z" fill="#FF3968"/><path d="m187.83 138.48 17.57-17.57v.73l-16.85 16.84h-.72Z" fill="#FF3868"/><path d="m187.1 138.48 18.3-18.3v.73l-17.57 17.57h-.73Z" fill="#FF3769"/><path d="m186.59 138.27 18.81-18.82v.73l-18.3 18.3h-.51v-.21Z" fill="#FF366A"/><path d="m186.59 137.54 18.81-18.81v.72l-18.81 18.82v-.73Z" fill="#FF356B"/><path d="M186.59 136.81 205.4 118v.73l-18.81 18.81v-.73Z" fill="#FF346C"/><path d="m186.59 136.08 18.81-18.81v.73l-18.81 18.81v-.73Z" fill="#FF326C"/><path d="m186.59 135.35 18.81-18.81v.73l-18.81 18.81v-.73Z" fill="#FF316D"/><path d="m186.59 134.63 18.25-18.26h.56v.17l-18.81 18.81v-.72Z" fill="#FF306E"/><path d="m186.59 133.9 17.52-17.53h.73l-18.25 18.26v-.73Z" fill="#FF2F6F"/><path d="m186.59 133.17 16.8-16.8h.72l-17.52 17.53v-.73Z" fill="#FF2E6F"/><path d="m186.59 132.44 16.07-16.07h.73l-16.8 16.8v-.73Z" fill="#FF2D70"/><path d="m186.59 131.71 15.34-15.34h.73l-16.07 16.07v-.73Z" fill="#FF2C71"/><path d="m186.59 130.99 14.61-14.62h.73l-15.34 15.34v-.72Z" fill="#FF2B72"/><path d="m186.59 130.26 13.89-13.89h.72l-14.61 14.62v-.73Z" fill="#FF2A73"/><path d="m186.59 129.53 13.16-13.16h.73l-13.89 13.89v-.73Z" fill="#FF2973"/><path d="m186.59 128.8 12.43-12.43h.73l-13.16 13.16v-.73Z" fill="#FF2874"/><path d="m186.59 128.08 11.7-11.71h.73l-12.43 12.43v-.72Z" fill="#FF2775"/><path d="m186.59 127.35 10.97-10.98h.73l-11.7 11.71v-.73Z" fill="#FF2676"/><path d="m186.59 126.62 10.25-10.25h.72l-10.97 10.98v-.73Z" fill="#FF2577"/><path d="m186.59 125.89 9.52-9.52h.73l-10.25 10.25v-.73Z" fill="#FF2477"/><path d="m186.59 125.16 8.79-8.79h.73l-9.52 9.52v-.73Z" fill="#FF2378"/><path d="m186.59 124.44 8.06-8.07h.73l-8.79 8.79v-.72Z" fill="#FF2279"/><path d="m186.59 123.71 7.33-7.34h.73l-8.06 8.07v-.73Z" fill="#FF217A"/><path d="m186.59 122.98 6.61-6.61h.72l-7.33 7.34v-.73Z" fill="#FF207B"/><path d="m186.59 122.25 5.88-5.88h.73l-6.61 6.61v-.73Z" fill="#FF1F7B"/><path d="m186.59 121.53 5.15-5.16h.73l-5.88 5.88v-.72Z" fill="#FF1E7C"/><path d="m186.59 120.8 4.42-4.43h.73l-5.15 5.16v-.73Z" fill="#FF1D7D"/><path d="m186.59 120.07 3.7-3.7h.72l-4.42 4.43v-.73Z" fill="#FF1C7E"/><path d="m186.59 119.34 2.97-2.97h.73l-3.7 3.7v-.73Z" fill="#FF1B7F"/><path d="m186.59 118.61 2.24-2.24h.73l-2.97 2.97v-.73Z" fill="#FF1A7F"/><path d="m186.59 117.89 1.51-1.52h.73l-2.24 2.24v-.72Z" fill="#FF1980"/><path d="m186.59 117.16.78-.79h.73l-1.51 1.52v-.73Z" fill="#FF1881"/><path d="m186.59 116.43.06-.06h.72l-.78.79v-.73Z" fill="#FF1782"/><path d="m186.65 116.37-.06.06v-.06h.06Z" fill="#FF1683"/><path d="m155.8 138.48.1-.09v.09h-.1Z" fill="#FF0B8B"/><path d="m155.07 138.48.83-.82v.73l-.1.09h-.73Z" fill="#FF0A8C"/><path d="m154.35 138.48 1.55-1.55v.73l-.83.82h-.72Z" fill="#FF098D"/><path d="m153.62 138.48 2.28-2.28v.73l-1.55 1.55h-.73Z" fill="#FF088E"/><path d="m152.89 138.48 3.01-3v.72l-2.28 2.28h-.73Z" fill="#FF078E"/><path d="m152.16 138.48 3.74-3.73v.73l-3.01 3h-.73Z" fill="#FF068F"/><path d="m151.43 138.48 4.47-4.46v.73l-3.74 3.73h-.73Z" fill="#FF0590"/><path d="m150.71 138.48 5.19-5.19v.73l-4.47 4.46h-.72Z" fill="#FF0491"/><path d="m149.98 138.48 5.92-5.92v.73l-5.19 5.19h-.73Z" fill="#FF0392"/><path d="m149.25 138.48 6.65-6.64v.72l-5.92 5.92h-.73Z" fill="#FF0292"/><path d="m148.52 138.48 7.38-7.37v.73l-6.65 6.64h-.73Z" fill="#FF0193"/><path d="m147.79 138.48 8.11-8.1v.73l-7.38 7.37h-.73Zm-.87 0 8.98-8.97v.87l-8.11 8.1h-.87Z" fill="#FF0094"/><path d="m146.05 138.48 9.85-9.84v.87l-8.98 8.97h-.87Z" fill="#FE0195"/><path d="m145.18 138.48 10.72-10.72v.88l-9.85 9.84h-.87Z" fill="#FE0296"/><path d="m144.3 138.48 11.6-11.59v.87l-10.72 10.72h-.88Z" fill="#FD0396"/><path d="m143.43 138.48 12.47-12.46v.87l-11.6 11.59h-.87Z" fill="#FD0497"/><path d="m142.56 138.48 13.34-13.34v.88l-12.47 12.46h-.87Z" fill="#FC0598"/><path d="m141.69 138.48 14.21-14.21v.87l-13.34 13.34h-.87Z" fill="#FB0699"/><path d="m140.81 138.48 15.09-15.08v.87l-14.21 14.21h-.88Z" fill="#FB079A"/><path d="m139.94 138.48 15.96-15.95v.87l-15.09 15.08h-.87Z" fill="#FA089A"/><path d="m139.07 138.48 16.83-16.83v.88l-15.96 15.95h-.87Z" fill="#F9099B"/><path d="m138.19 138.48 17.71-17.7v.87l-16.83 16.83h-.88Z" fill="#F90A9C"/><path d="m137.32 138.48 18.58-18.57v.87l-17.71 17.7h-.87Z" fill="#F80B9D"/><path d="m137.09 137.85 18.81-18.81v.87l-18.58 18.57h-.23v-.63Z" fill="#F80C9E"/><path d="m137.09 136.97 18.81-18.81v.88l-18.81 18.81v-.88Z" fill="#F70D9E"/><path d="m137.09 136.1 18.81-18.81v.87l-18.81 18.81v-.87Z" fill="#F60E9F"/><path d="m137.09 135.23 18.81-18.81v.87l-18.81 18.81v-.87Z" fill="#F60FA0"/><path d="m137.09 134.36 17.98-17.99h.83v.05l-18.81 18.81v-.87Z" fill="#F510A1"/><path d="m137.09 133.48 17.11-17.11h.87l-17.98 17.99v-.88Z" fill="#F511A1"/><path d="m137.09 132.61 16.23-16.24h.88l-17.11 17.11v-.87Z" fill="#F412A2"/><path d="m137.09 131.74 15.36-15.37h.87l-16.23 16.24v-.87Z" fill="#F313A3"/><path d="m137.09 130.86 14.49-14.49h.87l-15.36 15.37v-.88Z" fill="#F314A4"/><path d="m137.09 129.99 13.61-13.62h.88l-14.49 14.49v-.87Z" fill="#F215A5"/><path d="m137.09 129.12 12.74-12.75h.87l-13.61 13.62v-.87Z" fill="#F116A5"/><path d="m137.09 128.25 11.87-11.88h.87l-12.74 12.75v-.87Z" fill="#F117A6"/><path d="m137.09 127.37 11-11h.87l-11.87 11.88v-.88Z" fill="#F018A7"/><path d="m137.09 126.5 10.12-10.13h.88l-11 11v-.87Z" fill="#F019A8"/><path d="m137.09 125.63 9.25-9.26h.87l-10.12 10.13v-.87Z" fill="#EF1AA9"/><path d="m137.09 124.75 8.38-8.38h.87l-9.25 9.26v-.88Z" fill="#EE1BA9"/><path d="m137.09 123.88 7.51-7.51h.87l-8.38 8.38v-.87Z" fill="#EE1CAA"/><path d="m137.09 123.01 6.63-6.64h.88l-7.51 7.51v-.87Z" fill="#ED1DAB"/><path d="m137.09 122.14 5.76-5.77h.87l-6.63 6.64v-.87Z" fill="#ED1EAC"/><path d="m137.09 121.26 4.89-4.89h.87l-5.76 5.77v-.88Z" fill="#EC1FAD"/><path d="m137.09 120.39 4.01-4.02h.88l-4.89 4.89v-.87Z" fill="#EB20AD"/><path d="m137.09 119.52 3.14-3.15h.87l-4.01 4.02v-.87Z" fill="#EB21AE"/><path d="m137.09 118.65 2.27-2.28h.87l-3.14 3.15v-.87Z" fill="#EA22AF"/><path d="m137.09 117.77 1.4-1.4h.87l-2.27 2.28v-.88Z" fill="#E923B0"/><path d="m137.09 116.9.52-.53h.88l-1.4 1.4v-.87Z" fill="#E924B1"/><path d="m137.61 116.37-.52.53v-.53h.52Z" fill="#E825B1"/><path d="m130.34 138.48.81-.8v.8h-.81Z" fill="#F313A3"/><path d="m129.47 138.48 1.68-1.68v.88l-.81.8h-.87Z" fill="#F314A4"/><path d="m128.59 138.48 2.56-2.55v.87l-1.68 1.68h-.88Z" fill="#F215A5"/><path d="m127.72 138.48 3.43-3.42v.87l-2.56 2.55h-.87Z" fill="#F116A5"/><path d="m126.85 138.48 4.3-4.29v.87l-3.43 3.42h-.87Z" fill="#F117A6"/><path d="m125.98 138.48 5.17-5.17v.88l-4.3 4.29h-.87Z" fill="#F018A7"/><path d="m125.1 138.48 6.05-6.04v.87l-5.17 5.17h-.88Z" fill="#F019A8"/><path d="m124.23 138.48 6.92-6.91v.87l-6.05 6.04h-.87Z" fill="#EF1AA9"/><path d="m123.36 138.48 7.79-7.79v.88l-6.92 6.91h-.87Z" fill="#EE1BA9"/><path d="m122.48 138.48 8.67-8.66v.87l-7.79 7.79h-.88Z" fill="#EE1CAA"/><path d="m121.61 138.48 9.54-9.53v.87l-8.67 8.66h-.87Z" fill="#ED1DAB"/><path d="m120.74 138.48 10.41-10.4v.87l-9.54 9.53h-.87Z" fill="#ED1EAC"/><path d="m119.87 138.48 11.28-11.28v.88l-10.41 10.4h-.87Z" fill="#EC1FAD"/><path d="m118.99 138.48 12.16-12.15v.87l-11.28 11.28h-.88Z" fill="#EB20AD"/><path d="m118.12 138.48 13.03-13.02v.87l-12.16 12.15h-.87Z" fill="#EB21AE"/><path d="m117.25 138.48 13.9-13.89v.87l-13.03 13.02h-.87Z" fill="#EA22AF"/><path d="m116.37 138.48 14.78-14.77v.88l-13.9 13.89h-.88Z" fill="#E923B0"/><path d="m115.5 138.48 15.65-15.64v.87l-14.78 14.77h-.87Z" fill="#E924B1"/><path d="m114.63 138.48 16.52-16.51v.87l-15.65 15.64h-.87Z" fill="#E825B1"/><path d="m113.76 138.48 17.39-17.39v.88l-16.52 16.51h-.87Z" fill="#E826B2"/><path d="m112.88 138.48 18.27-18.26v.87l-17.39 17.39h-.88Z" fill="#E727B3"/><path d="m112.34 138.16 18.81-18.81v.87l-18.27 18.26h-.54v-.32Z" fill="#E628B4"/><path d="m112.34 137.29 18.81-18.81v.87l-18.81 18.81v-.87Z" fill="#E629B4"/><path d="m112.34 136.41 18.81-18.81v.88l-18.81 18.81v-.88Z" fill="#E52AB5"/><path d="m112.34 135.54 18.81-18.81v.87l-18.81 18.81v-.87Z" fill="#E52BB6"/><path d="m112.34 134.67 18.29-18.3h.52v.36l-18.81 18.81v-.87Z" fill="#E42CB7"/><path d="m112.34 133.8 17.42-17.43h.87l-18.29 18.3v-.87Z" fill="#E32DB8"/><path d="m112.34 132.92 16.55-16.55h.87l-17.42 17.43v-.88Z" fill="#E32EB8"/><path d="m112.34 132.05 15.67-15.68h.88l-16.55 16.55v-.87Z" fill="#E22FB9"/><path d="m112.34 131.18 14.8-14.81h.87l-15.67 15.68v-.87Z" fill="#E130BA"/><path d="m112.34 130.3 13.93-13.93h.87l-14.8 14.81v-.88Z" fill="#E131BB"/><path d="m112.34 129.43 13.05-13.06h.88l-13.93 13.93v-.87Z" fill="#E032BC"/><path d="m112.34 128.56 12.18-12.19h.87l-13.05 13.06v-.87Z" fill="#E033BC"/><path d="m112.34 127.69 11.31-11.32h.87l-12.18 12.19v-.87Z" fill="#DF34BD"/><path d="m112.34 126.81 10.44-10.44h.87l-11.31 11.32v-.88Z" fill="#DE35BE"/><path d="m112.34 125.94 9.56-9.57h.88l-10.44 10.44v-.87Z" fill="#DE36BF"/><path d="m112.34 125.07 8.69-8.7h.87l-9.56 9.57v-.87Z" fill="#DD37C0"/><path d="m112.34 124.2 7.82-7.83h.87l-8.69 8.7v-.87Z" fill="#DD38C0"/><path d="m112.34 123.32 6.94-6.95h.88l-7.82 7.83v-.88Z" fill="#DC39C1"/><path d="m112.34 122.45 6.07-6.08h.87l-6.94 6.95v-.87Z" fill="#DB3AC2"/><path d="m112.34 121.58 5.2-5.21h.87l-6.07 6.08v-.87Z" fill="#DB3BC3"/><path d="m112.34 120.7 4.33-4.33h.87l-5.2 5.21v-.88Z" fill="#DA3CC4"/><path d="m112.34 119.83 3.45-3.46h.88l-4.33 4.33v-.87Z" fill="#D93DC4"/><path d="m112.34 118.96 2.58-2.59h.87l-3.45 3.46v-.87Z" fill="#D93EC5"/><path d="m112.34 118.09 1.71-1.72h.87l-2.58 2.59v-.87Z" fill="#D83FC6"/><path d="m112.34 117.21.84-.84h.87l-1.71 1.72v-.88Z" fill="#D840C7"/><path d="m113.18 116.37-.84.84v-.84h.84Z" fill="#D741C8"/><path d="m105.9 138.48.5-.49v.49h-.5Z" fill="#E22FB9"/><path d="m105.03 138.48 1.37-1.36v.87l-.5.49h-.87Z" fill="#E130BA"/><path d="m104.16 138.48 2.24-2.24v.88l-1.37 1.36h-.87Z" fill="#E131BB"/><path d="m103.28 138.48 3.12-3.11v.87l-2.24 2.24h-.88Z" fill="#E032BC"/><path d="m102.41 138.48 3.99-3.98v.87l-3.12 3.11h-.87Z" fill="#E033BC"/><path d="m101.54 138.48 4.86-4.85v.87l-3.99 3.98h-.87Z" fill="#DF34BD"/><path d="m100.66 138.48 5.74-5.73v.88l-4.86 4.85h-.88Z" fill="#DE35BE"/><path d="m99.79 138.48 6.61-6.6v.87l-5.74 5.73h-.87Z" fill="#DE36BF"/><path d="m98.92 138.48 7.48-7.47v.87l-6.61 6.6h-.87Z" fill="#DD37C0"/><path d="m98.05 138.48 8.35-8.34v.87l-7.48 7.47h-.87Z" fill="#DD38C0"/><path d="m97.17 138.48 9.23-9.22v.88l-8.35 8.34h-.88Z" fill="#DC39C1"/><path d="m96.3 138.48 10.1-10.09v.87l-9.23 9.22h-.87Z" fill="#DB3AC2"/><path d="m95.43 138.48 10.97-10.96v.87l-10.1 10.09h-.87Z" fill="#DB3BC3"/><path d="m94.56 138.48 11.84-11.84v.88l-10.97 10.96h-.87Z" fill="#DA3CC4"/><path d="m93.68 138.48 12.72-12.71v.87l-11.84 11.84h-.88Z" fill="#D93DC4"/><path d="m92.81 138.48 13.59-13.58v.87l-12.72 12.71h-.87Z" fill="#D93EC5"/><path d="m91.94 138.48 14.46-14.45v.87l-13.59 13.58h-.87Z" fill="#D83FC6"/><path d="m91.06 138.48 15.34-15.33v.88l-14.46 14.45h-.88Z" fill="#D840C7"/><path d="m90.19 138.48 16.21-16.2v.87l-15.34 15.33h-.87Z" fill="#D741C8"/><path d="m89.32 138.48 17.08-17.07v.87l-16.21 16.2h-.87Z" fill="#D642C8"/><path d="m88.45 138.48 17.95-17.95v.88l-17.08 17.07h-.87Z" fill="#D643C9"/><path d="m87.59 138.47 18.81-18.81v.87l-17.95 17.95h-.86v-.01Z" fill="#D545CA"/><path d="m87.59 137.6 18.81-18.81v.87l-18.81 18.81v-.87Z" fill="#D546CB"/><path d="m87.59 136.73 18.81-18.81v.87L87.59 137.6v-.87Z" fill="#D447CB"/><path d="m87.59 135.85 18.81-18.81v.88l-18.81 18.81v-.88Z" fill="#D348CC"/><path d="m87.59 134.98 18.6-18.61h.21v.67l-18.81 18.81v-.87Z" fill="#D349CD"/><path d="m87.59 134.11 17.73-17.74h.87l-18.6 18.61v-.87Z" fill="#D24ACE"/><path d="m87.59 133.24 16.86-16.87h.87l-17.73 17.74v-.87Z" fill="#D24BCF"/><path d="m87.59 132.36 15.98-15.99h.88l-16.86 16.87v-.88Z" fill="#D14CCF"/><path d="m87.59 131.49 15.11-15.12h.87l-15.98 15.99v-.87Z" fill="#D04DD0"/><path d="m87.59 130.62 14.24-14.25h.87l-15.11 15.12v-.87Z" fill="#D04ED1"/><path d="m87.59 129.75 13.37-13.38h.87l-14.24 14.25v-.87Z" fill="#CF4FD2"/><path d="m87.59 128.87 12.49-12.5h.88l-13.37 13.38v-.88Z" fill="#CE50D3"/><path d="m87.59 128 11.62-11.63h.87l-12.49 12.5V128Z" fill="#CE51D3"/><path d="m87.59 127.13 10.75-10.76h.87L87.59 128v-.87Z" fill="#CD52D4"/><path d="m87.59 126.25 9.88-9.88h.87l-10.75 10.76v-.88Z" fill="#CD53D5"/><path d="m87.59 125.38 9-9.01h.88l-9.88 9.88v-.87Z" fill="#CC54D6"/><path d="m87.59 124.51 8.13-8.14h.87l-9 9.01v-.87Z" fill="#CB55D7"/><path d="m87.59 123.64 7.26-7.27h.87l-8.13 8.14v-.87Z" fill="#CB56D7"/><path d="m87.59 122.76 6.38-6.39h.88l-7.26 7.27v-.88Z" fill="#CA57D8"/><path d="m87.59 121.89 5.51-5.52h.87l-6.38 6.39v-.87Z" fill="#CA58D9"/><path d="m87.59 121.02 4.64-4.65h.87l-5.51 5.52v-.87Z" fill="#C959DA"/><path d="m87.59 120.14 3.77-3.77h.87l-4.64 4.65v-.88Z" fill="#C85ADB"/><path d="m87.59 119.27 2.89-2.9h.88l-3.77 3.77v-.87Z" fill="#C85BDB"/><path d="m87.59 118.4 2.02-2.03h.87l-2.89 2.9v-.87Z" fill="#C75CDC"/><path d="m87.59 117.53 1.15-1.16h.87l-2.02 2.03v-.87Z" fill="#C65DDD"/><path d="m87.59 116.65.27-.28h.88l-1.15 1.16v-.88Z" fill="#C65EDE"/><path d="m87.86 116.37-.27.28v-.28h.27Z" fill="#C55FDF"/><path d="m81.46 138.48.18-.18v.18h-.18Z" fill="#D14CCF"/><path d="m80.59 138.48 1.05-1.05v.87l-.18.18h-.87Z" fill="#D04DD0"/><path d="m79.72 138.48 1.92-1.92v.87l-1.05 1.05h-.87Z" fill="#D04ED1"/><path d="m78.85 138.48 2.79-2.79v.87l-1.92 1.92h-.87Z" fill="#CF4FD2"/><path d="m77.97 138.48 3.67-3.67v.88l-2.79 2.79h-.88Z" fill="#CE50D3"/><path d="m77.1 138.48 4.54-4.54v.87l-3.67 3.67h-.87Z" fill="#CE51D3"/><path d="m76.23 138.48 5.41-5.41v.87l-4.54 4.54h-.87Z" fill="#CD52D4"/><path d="m75.35 138.48 6.29-6.29v.88l-5.41 5.41h-.88Z" fill="#CD53D5"/><path d="m74.48 138.48 7.16-7.16v.87l-6.29 6.29h-.87Z" fill="#CC54D6"/><path d="m73.61 138.48 8.03-8.03v.87l-7.16 7.16h-.87Z" fill="#CB55D7"/><path d="m72.74 138.48 8.9-8.9v.87l-8.03 8.03h-.87Z" fill="#CB56D7"/><path d="m71.86 138.48 9.78-9.78v.88l-8.9 8.9h-.88Z" fill="#CA57D8"/><path d="m70.99 138.48 10.65-10.65v.87l-9.78 9.78h-.87Z" fill="#CA58D9"/><path d="m70.12 138.48 11.52-11.52v.87l-10.65 10.65h-.87Z" fill="#C959DA"/><path d="m69.24 138.48 12.4-12.39v.87l-11.52 11.52h-.88Z" fill="#C85ADB"/><path d="m68.37 138.48 13.27-13.27v.88l-12.4 12.39h-.87Z" fill="#C85BDB"/><path d="m67.5 138.48 14.14-14.14v.87l-13.27 13.27h-.87Z" fill="#C75CDC"/><path d="m66.63 138.48 15.01-15.01v.87L67.5 138.48h-.87Z" fill="#C65DDD"/><path d="m65.75 138.48 15.89-15.89v.88l-15.01 15.01h-.88Z" fill="#C65EDE"/><path d="m64.88 138.48 16.76-16.76v.87l-15.89 15.89h-.87Z" fill="#C55FDF"/><path d="m64.01 138.48 17.63-17.63v.87l-16.76 16.76h-.87Z" fill="#C560DF"/><path d="m63.14 138.48 18.5-18.5v.87l-17.63 17.63h-.87Z" fill="#C461E0"/><path d="m62.83 137.91 18.81-18.81v.88l-18.5 18.5h-.31v-.57Z" fill="#C362E1"/><path d="m62.83 137.04 18.81-18.81v.87l-18.81 18.81v-.87Z" fill="#C363E2"/><path d="m62.83 136.17 18.81-18.81v.87l-18.81 18.81v-.87Z" fill="#C264E2"/><path d="m62.83 135.3 18.81-18.82v.88l-18.81 18.81v-.87Z" fill="#C265E3"/><path d="m62.83 134.42 18.05-18.05h.76v.11L62.83 135.3v-.88Z" fill="#C166E4"/><path d="m62.83 133.55 17.18-17.18h.87l-18.05 18.05v-.87Z" fill="#C067E5"/><path d="m62.83 132.68 16.31-16.31h.87l-17.18 17.18v-.87Z" fill="#C068E6"/><path d="m62.83 131.8 15.43-15.43h.88l-16.31 16.31v-.88Z" fill="#BF69E6"/><path d="m62.83 130.93 14.56-14.56h.87L62.83 131.8v-.87Z" fill="#BE6AE7"/><path d="m62.83 130.06 13.69-13.69h.87l-14.56 14.56v-.87Z" fill="#BE6BE8"/><path d="m62.83 129.19 12.82-12.82h.87l-13.69 13.69v-.87Z" fill="#BD6CE9"/><path d="m62.83 128.31 11.94-11.94h.88l-12.82 12.82v-.88Z" fill="#BD6DEA"/><path d="m62.83 127.44 11.07-11.07h.87l-11.94 11.94v-.87Z" fill="#BC6EEA"/><path d="m62.83 126.57 10.2-10.2h.87l-11.07 11.07v-.87Z" fill="#BB6FEB"/><path d="m62.83 125.69 9.32-9.32h.88l-10.2 10.2v-.88Z" fill="#BB70EC"/><path d="m62.83 124.82 8.45-8.45h.87l-9.32 9.32v-.87Z" fill="#BA71ED"/><path d="m62.83 123.95 7.58-7.58h.87l-8.45 8.45v-.87Z" fill="#BA72EE"/><path d="m62.83 123.08 6.71-6.71h.87l-7.58 7.58v-.87Z" fill="#B973EE"/><path d="m62.83 122.2 5.83-5.83h.88l-6.71 6.71v-.88Z" fill="#B874EF"/><path d="m62.83 121.33 4.96-4.96h.87l-5.83 5.83v-.87Z" fill="#B875F0"/><path d="m62.83 120.46 4.09-4.09h.87l-4.96 4.96v-.87Z" fill="#B776F1"/><path d="m62.83 119.59 3.22-3.22h.87l-4.09 4.09v-.87Z" fill="#B677F2"/><path d="m62.83 118.71 2.34-2.34h.88l-3.22 3.22v-.88Z" fill="#B678F2"/><path d="m62.83 117.84 1.47-1.47h.87l-2.34 2.34v-.87Z" fill="#B579F3"/><path d="m62.83 116.97.6-.6h.87l-1.47 1.47v-.87Z" fill="#B57AF4"/><path d="m63.43 116.37-.6.6v-.6h.6Z" fill="#B47BF5"/></g><path d="M58.44 74.16c10.206 0 18.48-8.274 18.48-18.48 0-10.206-8.274-18.48-18.48-18.48-10.206 0-18.48 8.274-18.48 18.48 0 10.206 8.274 18.48 18.48 18.48Z" fill="#000"/><path d="M65.04 66.31H51.83c-2.1 0-3.81-1.71-3.81-3.81v-9.19c0-2.1 1.71-3.81 3.81-3.81h13.21c2.1 0 3.81 1.71 3.81 3.81v9.19c0 2.1-1.71 3.81-3.81 3.81ZM51.83 52.5c-.45 0-.81.36-.81.81v9.19c0 .45.36.81.81.81h13.21c.45 0 .81-.36.81-.81v-9.19c0-.45-.36-.81-.81-.81H51.83Z" fill="#fff"/><path d="M66.07 49.78h-3v-2.24c0-1.47-1.2-2.67-2.67-2.67h-3.9c-1.47 0-2.67 1.2-2.67 2.67v2.24h-3v-2.24c0-3.13 2.55-5.67 5.67-5.67h3.9c3.13 0 5.67 2.54 5.67 5.67v2.24Zm-7.63 10.27a2.19 2.19 0 1 0 0-4.38 2.19 2.19 0 0 0 0 4.38Z" fill="#fff"/></svg>