<svg width="15" height="62" fill="none" xmlns="http://www.w3.org/2000/svg"><path d="M7.3 61.84a3.08 3.08 0 1 0 0-6.16 3.08 3.08 0 0 0 0 6.16Zm0-21.56a5.3 5.3 0 1 0 0-10.6 5.3 5.3 0 0 0 0 10.6Z" fill="#000"/><g clip-path="url(#a)"><path fill-rule="evenodd" clip-rule="evenodd" d="M8.713.938a1.25 1.25 0 0 0-2.427 0l-.428 1.721A4.38 4.38 0 0 1 2.67 5.85l-1.721.427a1.25 1.25 0 0 0 0 2.426l1.721.428a4.38 4.38 0 0 1 3.19 3.19l.427 1.72a1.25 1.25 0 0 0 2.427 0l.427-1.72a4.38 4.38 0 0 1 3.19-3.19l1.72-.428a1.25 1.25 0 0 0 0-2.426l-1.72-.428A4.38 4.38 0 0 1 9.14 2.66L8.712.938Z" fill="#000"/></g><defs><clipPath id="a"><path fill="#fff" d="M0-.01h15.01V15H0z"/></clipPath></defs></svg>