<svg xmlns="http://www.w3.org/2000/svg" width="246" height="257" fill="none"><path fill="#C8A385" stroke="#000" stroke-miterlimit="10" stroke-width="2" d="m133.96 92.79-80.68 48.38-22.04-19.36a2.4 2.4 0 0 0-3.83.93l-23.73 60.7A33.74 33.74 0 0 0 3.67 208l24.46 62.75a67.96 67.96 0 0 1-.53 50.7L16.98 347.1l99.38 47.05 68.68-159.72-51.09-141.65.01.01ZM210.18 61.02 200.12 73.1a13.95 13.95 0 1 1-21.45-17.86l10.06-12.08a13.95 13.95 0 0 1 19.65-1.8v.01a13.95 13.95 0 0 1 1.8 19.65Z"/><path fill="#fff" stroke="#000" stroke-miterlimit="10" stroke-width="2" d="m23.96 60.94 159.16-14.51-.65-7.14A17.66 17.66 0 0 0 163.3 23.3l-124 11.3A17.66 17.66 0 0 0 23.3 53.8l.65 7.14Z"/><path stroke="#000" stroke-linecap="round" stroke-linejoin="round" stroke-width="2" d="M35.09 45.09a2.34 2.34 0 1 1 0-4.68 2.34 2.34 0 0 1 0 4.68ZM42.29 44.43a2.34 2.34 0 1 1 0-4.68 2.34 2.34 0 0 1 0 4.68ZM49.48 43.77a2.34 2.34 0 1 1 0-4.68 2.34 2.34 0 0 1 0 4.68ZM65.53 48.57l-4.37-3.64 3.64-4.37M71.45 39.95l4.37 3.64-3.64 4.37M143.23 42.26l-14.56 1.33a4.82 4.82 0 0 1-.87-9.6l14.56-1.33a4.82 4.82 0 1 1 .87 9.6Z"/><path fill="#000" d="m135.57 37.23-.93 3.65-1.08.1-1.57-3.42.91-.08 1.12 2.58.64-2.74.91-.09Zm3.15.86a1.04 1.04 0 0 1-.48 1.02c-.19.13-.42.2-.71.23l-.53.05.11 1.26-.86.08-.32-3.53 1.4-.12c.27-.03.52 0 .72.08.2.08.36.2.47.36.12.16.18.35.2.57Zm-1.32.57c.17-.01.28-.06.36-.15.07-.08.1-.2.09-.34-.01-.14-.06-.24-.15-.31s-.21-.1-.38-.09l-.47.05.08.88.47-.04Zm5.15 1.5-.86.08-1.64-2.05.2 2.18-.86.08-.32-3.53.86-.08 1.64 2.05-.2-2.18.86-.08.32 3.53Z"/><path fill="#221F20" stroke="#000" stroke-miterlimit="10" stroke-width="2" d="M104.7 37.43v-.04c0-.52.4-.97.92-1.02l6.73-.61c.56-.05 1.05.36 1.1.93l.04.4.23-.02a1.1 1.1 0 0 1 1.2 1l.49 5.32c.05.56-.36 1.06-.92 1.11l-8.06.74a1.01 1.01 0 0 1-1.1-.93l-.62-6.82v-.05l-.01-.01Zm9.83 2.1-3.14.29a.56.56 0 0 0-.51.61l.11 1.24c.03.31.3.54.61.51l3.14-.29-.22-2.36h.01Zm-9.31-2.15v.02c.06.24.29.41.53.39l7.22-.66-.04-.4a.5.5 0 0 0-.54-.46l-6.73.61a.5.5 0 0 0-.45.47v.02l.01.01Zm.62 6.87a.5.5 0 0 0 .54.46l8.06-.74c.27-.02.47-.27.45-.55l-.09-.99-3.14.29a1.1 1.1 0 0 1-1.2-1l-.11-1.24a1.1 1.1 0 0 1 1-1.2l3.14-.29-.08-.89a.6.6 0 0 0-.64-.53l-7.96.73c-.11 0-.21 0-.32-.02l-.19-.04.55 6.01h-.01Z"/><path stroke="#000" stroke-linecap="round" stroke-linejoin="round" stroke-width="2" d="m94.82 46.55-5.96.54a2.22 2.22 0 0 1-2.4-2.01L86 40.16a2.22 2.22 0 0 1 2.01-2.41l5.96-.55c1.22-.1 2.3.8 2.41 2.01l.45 4.92a2.22 2.22 0 0 1-2.01 2.42Z"/><path stroke="#000" stroke-linecap="round" stroke-linejoin="round" stroke-width="2" d="m96.33 40.13-3.76.34c-.7.06-1.21.68-1.15 1.38l.43 4.68"/><mask id="mask0_956_7895" width="181" height="251" x="24" y="46" maskUnits="userSpaceOnUse" style="mask-type:luminance"><path fill="#fff" d="m204.57 281.93-159.08 14.5L24 60.93 183.1 46.41l21.48 235.5Z"/></mask><g mask="url(#mask0_956_7895)"><path fill="#000" d="M139.04 89.33c.3-.3.74.15.48.4-5.91 6-7.4 8.64-11.17 16.11l-1.09 2.16c-6.66 13.03-13.63 17.84-23.74 18.76-1.82.17-6.09.39-7.94-2.23-.7-.93-1.09-2.12-.72-3 .28-.63.73-1.17 1.5-1.35.6-.12 1.22 0 1.65.51.38.47.55 1.07.43 1.58-.12.57-.62 1.17-1.17 1.28-.71.12-1.59-.36-1.59-.36 1.1 3.57 6.9 3.05 7.84 2.96 9-.82 11.81-4.87 16.02-11.82l5.14-8.43c3.48-5.78 8.69-10.93 14.36-16.57Zm19.95-6.6c-3.89 5.02-9.66 5.27-14.63 5.72-9.72.9-16.47.11-18.52.3-7.95.73-14.86 2.53-18.62 8.88-.93 1.48-.88 3.87-.28 4.87.9 1.37 2.43 2.29 5.15 2.2 5.83-.2 9.52-3.14 11.86-5.59.97-.97 1.65-2.65 1.34-3.63a3.07 3.07 0 0 0-2.98-2.06c-5 .06-10.5 3.96-14.11 8.86-.15.23-.63-.11-.38-.41 3.5-5.11 9.76-9.02 14.44-9.06 1.22 0 3.12.6 3.62 2.45.42 1.52-.64 3.4-1.5 4.32a17.54 17.54 0 0 1-12.23 5.79c-1.72.05-4.25-.23-5.69-2.55-.91-1.47-.74-3.88.22-5.53 4-6.77 12.19-8.68 18.56-9.6 2.04-.3 22.42-2.1 26.46-2.41 2.38-.16 4.64-.42 6.8-3.02.3-.41.74.16.49.46Zm-33.6 40.31c-.16.63.08.83.39 1.08.54.45 1.62.07 2.64-.35 2.14-.98 6.42-4.7 7.22-7.57.24-.97-.2-1.43-.49-1.62-.53-.4-1.42-.37-2.22.03-2.66 1.36-6.85 6.08-7.53 8.43Zm7.5-1.57c-2.1 1.97-4.95 3.79-6.98 3.53-1.07-.13-1.5-.53-1.87-1.61a4.9 4.9 0 0 1 1.13-4.73c2.26-2.66 6.98-5.2 9.17-5.07.77-.07 1.7.35 2 1.21.22.6.03 1.56.03 1.56.5-.6 2.38-3.22 2.38-3.22l2.93-.27-6.84 9.25c-.65.9-.63 1.62.82 1.04.97-.36 3.31-2.14 6.5-5.1.25-.25.69.27.53.45-3.84 3.64-6.64 5.95-8.6 5.74-.8-.1-1.04-.35-1.21-1a3 3 0 0 1 0-1.78Zm18.43-9.93c-.23 2.36 1.47 3.99-.08 7.14.71-.18 2.1-.8 3.07-1.78.37-.26.74.15.55.5a8.4 8.4 0 0 1-4.15 2.16c-.81.86-2.15 2.1-4 3.1-.75.4-2.67 1.3-4.12.65-.75-.32-1.06-1.18-1.05-1.69 0-.66.27-1.36.85-1.74.68-.46 1.71-.16 1.84.6.02.23.09 1.61-1.74 1.73.16.54.4.8 1.38.54 1.53-.36 2.75-1.7 3.78-3.13 1.58-2.26 2.08-4.7 2.67-7.37-2.84 2.43-6.1 5.12-7.4 6.24-.35.31-.8-.32-.54-.5 1.66-1.33 9.63-8.01 10.5-8.87.3-.3.8.2.55.5l-2.11 1.92Zm8.72 1.83s-3.37 2.7-4.98 4.01c-.36.32-.7-.32-.39-.57 3.32-2.7 6.08-4.84 7.78-6.95l.65-.78 1.3-1.68-1.33.12c-.6.06-.62-.67-.06-.72l1.93-.17 3.97-5.32 2.98-.27-4.02 5.32 3.2-.3c.44-.03.5.69.07.72l-3.7.34-9.52 12.9c-.84 1.19-.65 1.45.76 1.04 1.52-.41 4.63-2.42 7.38-5.23.25-.3.63.27.43.46-3.19 3.52-7.4 6.13-9.32 5.86-.8-.1-1.04-.35-1.26-1-.22-.6-.26-2.15.89-3.65l3.24-4.13Zm22.74-3.53.65-.78 2.87-.26-8.57 11.7c1.88-.84 5.95-3.83 8.43-6.5.25-.31.64.27.44.45-2.88 3.27-6.77 5.8-9.8 7.47l-3.8 4.13c-2.52 2.8-5.73 6.76-8.5 8.02-1.35.56-3.49.93-4.09-.13-.46-.85-.57-2.07.55-3.78 1.88-2.63 7.6-5.32 8.87-5.94l3.42-1.64 4.14-5.84c-2.01 1.74-5.7 4.7-7.86 4.17a2.25 2.25 0 0 1-1.55-1.7c-.47-2.07 3.2-5.91 4.7-7.72.3-.36.32-.8-.18-.76-1.27.11-3.38 2.64-5.95 5.6-.25.3-.78-.03-.53-.33 2.45-3.07 5.1-6.26 7.03-5.94.5.07.92.36 1.16 1.07.3.92.15 1.65-.24 2.3-1.35 2.24-3.84 5.48-3.84 5.48-.93 1.42-.16 1.35.12 1.32 3.46-.54 8.21-5.2 12.53-10.39Zm-21.28 20.77c-.92 1.47-.83 2.41-.57 2.89.47.9 2.2.36 3.28-.08 2.47-1 4.75-4.66 6.48-7.16l1.81-2.67c-2.93 1.44-9.03 4.11-11 7.02Zm25.43-10.28c1.8-2.17 2.78-4.94 3.58-5.29.48-.2.82-.18 1.13.18.44.52.3.92.03 1.5-.28.7-2.19 2.31-4.33 3.9-.26.2-.56-.11-.41-.3Zm23.11-11.52s-3.37 2.7-4.98 4.02c-.36.3-.7-.33-.39-.58 3.32-2.7 6.08-4.84 7.78-6.95l.65-.78 1.3-1.68-1.33.12c-.6.06-.62-.67-.06-.72l1.93-.17 3.97-5.32 2.98-.27-4.02 5.32 3.2-.3c.44-.03.5.69.06.73l-3.7.33-9.51 12.9c-.84 1.2-.65 1.45.76 1.05 1.52-.42 4.63-2.43 7.38-5.24.25-.3.63.27.43.46-3.19 3.52-7.4 6.13-9.33 5.86-.78-.1-1.03-.35-1.25-1-.23-.6-.26-2.15.89-3.65l3.24-4.13Zm6.94 5.88c-.16.63.08.83.38 1.08.54.45 1.62.07 2.64-.35 2.14-.98 6.42-4.71 7.22-7.57.24-.97-.19-1.43-.48-1.62-.54-.4-1.43-.38-2.23.03-2.66 1.36-6.85 6.08-7.53 8.43Zm7.49-1.57c-2.1 1.97-4.95 3.79-6.97 3.53-1.07-.13-1.5-.53-1.88-1.61a4.9 4.9 0 0 1 1.13-4.73c2.26-2.66 6.99-5.2 9.17-5.07.78-.07 1.7.35 2 1.21.23.6.04 1.56.04 1.56.5-.6 2.38-3.23 2.38-3.23l2.92-.26-6.84 9.25c-.64.9-.63 1.62.82 1.04.97-.37 3.31-2.14 6.5-5.1.25-.25.69.27.54.45-3.85 3.64-6.64 5.95-8.61 5.74-.79-.1-1.03-.35-1.2-1a3 3 0 0 1 0-1.78Zm18.43-9.93c-.23 2.36 1.48 3.99-.07 7.14.7-.18 2.1-.8 3.07-1.78.36-.26.73.15.54.5a8.4 8.4 0 0 1-4.14 2.16c-.82.86-2.15 2.1-4.01 3.1-.74.4-2.67 1.3-4.12.65-.75-.32-1.05-1.18-1.04-1.69 0-.66.26-1.36.84-1.74.68-.46 1.71-.16 1.84.6.02.23.09 1.61-1.74 1.73.16.54.4.8 1.39.54 1.53-.37 2.74-1.7 3.78-3.13 1.57-2.26 2.08-4.7 2.67-7.37-2.84 2.43-6.1 5.12-7.4 6.24-.36.31-.8-.32-.54-.5 1.66-1.33 9.62-8.01 10.5-8.87.3-.3.8.2.54.5l-2.1 1.92Zm8.72 1.83s-3.37 2.7-4.97 4.01c-.37.31-.7-.32-.4-.57 3.33-2.7 6.08-4.85 7.78-6.95l.66-.78 1.3-1.68-1.33.12c-.61.05-.62-.67-.07-.72l1.93-.17 3.97-5.32 2.99-.27-4.03 5.32 3.2-.3c.45-.03.51.68.07.72l-3.7.34-9.52 12.9c-.84 1.19-.64 1.45.77 1.04 1.52-.41 4.62-2.42 7.37-5.24.25-.3.64.28.43.47-3.19 3.52-7.4 6.13-9.32 5.86-.79-.1-1.03-.35-1.26-1-.22-.6-.25-2.15.9-3.65l3.24-4.14Zm22.74-3.53.65-.78 2.88-.26-8.57 11.7c1.87-.84 5.94-3.83 8.43-6.51.25-.3.63.28.43.46-2.88 3.27-6.77 5.8-9.8 7.47l-3.79 4.13c-2.53 2.8-5.73 6.76-8.51 8.02-1.34.56-3.48.93-4.08-.13-.47-.85-.58-2.07.54-3.78 1.88-2.63 7.6-5.32 8.88-5.94l3.41-1.65 4.15-5.83c-2.02 1.74-5.7 4.7-7.87 4.17a2.25 2.25 0 0 1-1.54-1.7c-.47-2.07 3.19-5.91 4.7-7.72.3-.36.31-.81-.19-.77-1.27.12-3.38 2.65-5.94 5.62-.26.3-.79-.04-.54-.35 2.45-3.06 5.11-6.25 7.03-5.93.51.07.93.36 1.16 1.07.3.91.15 1.65-.24 2.3-1.35 2.24-3.84 5.48-3.84 5.48-.93 1.42-.15 1.35.12 1.32 3.46-.54 8.22-5.2 12.53-10.39Zm-21.27 20.77c-.93 1.47-.84 2.41-.57 2.89.47.9 2.2.35 3.27-.08 2.47-1 4.76-4.66 6.48-7.16l1.82-2.67c-2.94 1.44-9.04 4.1-11 7.02Zm34.44-14c-.17.57.09.94.38 1.08.7.32 1.67.07 2.64-.36 1.99-.79 5.32-2.7 7.93-5.23.26-.25.7.27.44.52-2.71 2.64-8.38 6.39-10.88 5.95-1.07-.19-1.5-.54-1.87-1.62a4.9 4.9 0 0 1 1.13-4.72c2.26-2.66 5.68-4.92 7.96-4.96.88-.03 1.58.25 1.96.77.2.37.36.91.03 1.56-.18.46-.59.88-1.3 1.06-.7.17-1.64-.3-1.34-1.33.21-.68 1.12-1.16 2.05-.68-.82-1.1-2.11-.6-2.64-.27-3.55 2-5.71 5.76-6.49 8.23Zm21.16-4.83a6.08 6.08 0 0 0 3.02-1.05c.43-.27.75.26.44.51-1.24 1-2.72 1.25-4.1 1.38-2.13 2.31-5.87 5.32-8.3 4.88-1.08-.24-1.5-.53-1.88-1.61a4.9 4.9 0 0 1 1.13-4.73c2.26-2.66 7.04-5.2 9.17-5.07.8.1 1.54.42 1.95 1.22.6 1.11-.59 3.28-1.43 4.47Zm-9.46 3.76c-.16.63.08.83.38 1.08.54.45 1.62.07 2.64-.35 2.14-.98 6.42-4.71 7.22-7.57.24-.97-.19-1.43-.48-1.62-.54-.4-1.43-.37-2.23.03-2.66 1.36-6.85 6.08-7.53 8.43Zm22.78-4.97a6.08 6.08 0 0 0 3.03-1.06c.42-.26.75.27.43.52-1.24 1-2.72 1.25-4.1 1.38-2.13 2.3-5.87 5.32-8.3 4.87-1.08-.23-1.5-.53-1.88-1.6a4.9 4.9 0 0 1 1.13-4.73c2.27-2.66 7.05-5.21 9.18-5.07.78.1 1.54.41 1.94 1.21.6 1.12-.59 3.29-1.43 4.48Zm-9.45 3.75c-.17.63.07.83.37 1.08.54.46 1.62.08 2.64-.35 2.14-.97 6.42-4.7 7.22-7.56.25-.97-.19-1.43-.48-1.63-.54-.4-1.43-.37-2.23.04-2.66 1.35-6.85 6.08-7.52 8.42Zm39.66-30.51c-2.67.63-6.57 4.33-8.82 7.76l-5.01 7.87 4.1-2.6c3.96-2.42 11.87-8.55 11.44-12.02-.13-.82-1-1.19-1.71-1.01Zm-8.88 24.2c.32-.25.64.28.44.46-3.13 2.96-7.35 6.13-9.33 5.86-.78-.1-.97-.35-1.2-1-.21-.48.05-1.84 1.13-3.5.49-.71.6-1.4-.95-1.25l-1.6.14-4.6 6.38-3.1.23 7.01-9.83s-4.25 3.4-5.75 4.65c-.32.25-.6-.4-.34-.58 3.53-2.83 7.48-5.98 8.53-7.3l.66-.73 7.44-9.97c3.22-4.36 7.58-7.82 10.48-8.42 1.31-.29 2.27.46 2.43 1.61.58 3.96-7.81 10.24-11.5 12.52l-5.21 3.32-5.25 7.16c2.15-.2 2.89-.7 4.84-2.45a14.14 14.14 0 0 1 3.12-2.45 3.44 3.44 0 0 1 1.63-.48c.5-.05 1 .02 1.5.53.43.46.46 1.4-.43 1.48-.66.06-1-.68-.68-1.33-1.5-.53-2.74 1.65-4.18 2.95a12.6 12.6 0 0 1-3.22 2.02c2.86 1.35.6 4.17-.07 5.3 1.6.4 5.48-2.84 8.2-5.32Zm12.5-13.78c.4.13 1.5 1.09 1.75 1.4a6.13 6.13 0 0 1-1.5 1.86 8.32 8.32 0 0 1-1.64-1.46 7.33 7.33 0 0 1 1.4-1.8Zm-5.95 8 2.87-.26-6.78 9.25c-.7 1.01-.65 1.45.82 1.04 1.46-.41 4.75-2.88 7.31-5.23.32-.25.64.27.44.46-3.38 3.26-7.4 6.13-9.33 5.86-.78-.1-1.03-.35-1.26-1-.22-.59-.27-1.75.9-3.64l1.37-2.08s-1.3 1.01-2.4 1.9c-.3.24-.8-.27-.38-.59 2.18-1.75 4.15-3.33 5.73-4.97l.71-.74Zm7.49 9.23c2.44-.67 4.16-2.05 8.24-5.54.3-.25.75.32.44.57-4.23 3.68-7.59 6.54-10.78 5.78-1.02-.24-1.45-.7-1.76-1.57-.52-1.45.19-3.47 1.75-5.28 1.8-2.23 5.6-4.58 7.29-4.34.62.05 1 .02 1.36.88.14.37.05 1.16-.76 2.07a9.44 9.44 0 0 1-3.26 2.13c-.96.37-2.36.94-3.32 1.98-.67.67-1.2 1.5-1.3 2.18-.25 1.58 1.34 1.32 2.1 1.14Zm2.81-8.22c-1.32 1.35-1.56 1.76-2.4 3 1.93-.84 3.02-1.16 4.26-2.22.41-.32 1.4-1.13 1.1-1.88-.35-.92-2.14.25-2.96 1.1Zm14.42-3.7c-.23 2.35 1.48 3.98-.07 7.13.7-.18 2.1-.8 3.07-1.79.37-.25.74.16.55.51A8.4 8.4 0 0 1 374 99.2c-.81.86-2.15 2.1-4 3.1-.75.4-2.67 1.3-4.12.65-.76-.32-1.06-1.19-1.05-1.69 0-.67.27-1.36.84-1.74.69-.46 1.72-.16 1.84.6.02.23.1 1.61-1.73 1.72.16.55.4.8 1.38.55 1.53-.36 2.74-1.7 3.78-3.13 1.58-2.26 2.08-4.7 2.67-7.37-2.84 2.43-6.1 5.12-7.4 6.24-.36.31-.8-.32-.54-.5 1.66-1.33 9.63-8.01 10.5-8.87.3-.3.8.2.54.5l-2.1 1.92Z"/><path fill="#EFE4C9" stroke="#000" stroke-miterlimit="10" stroke-width="2" d="M6.43 274.18a40.56 40.56 0 1 1 0-81.12 40.56 40.56 0 0 1 0 81.12Z"/><path fill="#684B32" stroke="#000" stroke-miterlimit="10" stroke-width="2" d="M118.79 244.52a2.18 2.18 0 1 1 0-4.36 2.18 2.18 0 0 1 0 4.36ZM104.39 229.05a2.18 2.18 0 1 1 0-4.36 2.18 2.18 0 0 1 0 4.36ZM101.18 241.75a2.18 2.18 0 1 1 0-4.36 2.18 2.18 0 0 1 0 4.36ZM92.24 251.92a2.18 2.18 0 1 1 0-4.36 2.18 2.18 0 0 1 0 4.36ZM74.64 250.74a2.18 2.18 0 1 1 0-4.36 2.18 2.18 0 0 1 0 4.36ZM30.95 221.85a2.18 2.18 0 1 1 0-4.36 2.18 2.18 0 0 1 0 4.36Z"/></g><path stroke="#000" stroke-miterlimit="10" stroke-width="2" d="m63.07 294.83 123.92-11.3a17.66 17.66 0 0 0 15.98-19.18L183.09 46.43 24.01 60.93 43.9 278.86a17.66 17.66 0 0 0 19.18 15.97Z"/><path fill="#F7D3C4" stroke="#000" stroke-miterlimit="10" stroke-width="2" d="M44.72 281.05c1 10.94 20.38 27.03 31.32 26.03l115.72-10.56a27.25 27.25 0 0 0 24.66-29.62L196.77 51.63c-1-10.94-18.13-29.28-29.07-28.28L87.22 64.93l-42.5 216.12Z"/><path fill="#F7D3C4" stroke="#000" stroke-miterlimit="10" stroke-width="2" d="m39.27 34.59 124-11.32a17.64 17.64 0 0 1 19.18 15.97l22.11 242.65-151.43 18.26L23.29 53.76a17.64 17.64 0 0 1 15.97-19.18l.01.01Z"/><path fill="#B5876A" d="M163.27 23.28a17.64 17.64 0 0 1 19.18 15.97l16.15 223.44-145.37 11.59-15.29-77.78L163.27 23.28Z" opacity=".2" style="mix-blend-mode:multiply"/><path stroke="#000" stroke-miterlimit="10" stroke-width="2" d="m183.07 46.39 19.89 217.93a17.64 17.64 0 0 1-15.97 19.18L63.06 294.81a17.64 17.64 0 0 1-19.18-15.97L23.99 60.91"/><path fill="#FCF1EC" stroke="#000" stroke-miterlimit="10" stroke-width="2" d="m182.82 39.29 20.56 225.27a17.72 17.72 0 0 1-16.04 19.26L63.16 295.15a17.72 17.72 0 0 1-19.26-16.04L23.34 53.84a17.72 17.72 0 0 1 16.04-19.26l124.18-11.33a17.72 17.72 0 0 1 19.26 16.04Zm-10.68 2.34a8.68 8.68 0 0 0-9.43-7.85L42.11 44.79a8.68 8.68 0 0 0-7.85 9.43l19.33 211.86a8.68 8.68 0 0 0 9.43 7.85l120.6-11.01a8.68 8.68 0 0 0 7.85-9.43L172.14 41.63Z"/><path fill="#211F20" stroke="#000" stroke-miterlimit="10" stroke-width="2" d="M104.22 47.96a2.17 2.17 0 1 1 0-4.34 2.17 2.17 0 0 1 0 4.34Z"/><path fill="#C8A385" stroke="#000" stroke-miterlimit="10" stroke-width="2" d="m220.75 154.2-10.06 12.08a13.95 13.95 0 0 1-21.45-17.86l10.07-12.08a13.95 13.95 0 0 1 19.64-1.8v.01a13.95 13.95 0 0 1 1.8 19.65ZM215.02 115.74l-10.06 12.08a13.95 13.95 0 1 1-21.45-17.86l10.06-12.08a13.95 13.95 0 0 1 19.65-1.8v.01a13.95 13.95 0 0 1 1.8 19.65Z"/><path fill="#EA5328" stroke="#000" stroke-miterlimit="10" stroke-width="2" d="M190.19 133.77c-4.96.29-9.33-3.2-9.78-8.15 0 0-.51-3.36 2.44-6.79 1.02-1.18 5.7-5.69 6.29-6.31a2.12 2.12 0 0 1 3-.08l9.94 9.5c.85.82.87 2.18.04 3.02l-7.06 6.83s-1.65 1.78-4.86 1.97l-.01.01ZM194.86 173.22c-4.96.29-9.33-3.2-9.78-8.15 0 0-.51-3.36 2.44-6.79 1.02-1.18 5.7-5.69 6.29-6.31a2.12 2.12 0 0 1 3-.08l9.94 9.5c.85.82.87 2.18.04 3.02l-7.06 6.83s-1.65 1.78-4.86 1.97l-.01.01Z"/><path fill="#C8A385" d="m28.61 122.55 3.69 2.97a27 27 0 0 1 12.12 26.88l-9.65 56.69"/><path stroke="#000" stroke-miterlimit="10" stroke-width="2" d="m28.61 122.55 3.69 2.97a27 27 0 0 1 12.12 26.88l-9.65 56.69"/><path fill="#EA5328" d="M26.35 120.17a1.87 1.87 0 0 1 2.67-1.04l.62.34a2.57 2.57 0 0 1 1.27 2.86c-1.43 5.84-6.13 22.88-11.97 21.78a.63.63 0 0 1-.46-.82"/><path stroke="#000" stroke-miterlimit="10" stroke-width="2" d="M26.35 120.17a1.87 1.87 0 0 1 2.67-1.04l.62.34a2.57 2.57 0 0 1 1.27 2.86c-1.43 5.84-6.13 22.88-11.97 21.78a.63.63 0 0 1-.46-.82M18.48 143.28l7.87-23.11"/><path fill="#C8A385" stroke="#000" stroke-miterlimit="10" stroke-width="2" d="m228.1 199.73-5.53 6.07a13.95 13.95 0 1 1-21.44-17.86l5.53-6.07a13.95 13.95 0 1 1 21.44 17.86Z"/><path fill="#EA5328" stroke="#000" stroke-miterlimit="10" stroke-width="2" d="M206.77 212.74c-4.96.29-9.33-3.2-9.78-8.15 0 0-.51-3.36 2.44-6.79 1.02-1.18 5.7-5.69 6.29-6.31a2.12 2.12 0 0 1 3-.08l9.94 9.5c.85.82.87 2.18.04 3.02l-7.06 6.83s-1.65 1.78-4.86 1.97l-.01.01ZM111.85 207.9a60.59 60.59 0 1 1 0-121.18 60.59 60.59 0 0 1 0 121.18Z"/><path fill="url(#paint0_linear_956_7895)" fill-rule="evenodd" stroke="#000" stroke-miterlimit="10" stroke-width="2" d="M80.02 121.64a7.5 7.5 0 0 0-3.78 7.24l1.66 17.53c1.96 20.7 18.12 38.7 37.8 41.58 18.8-6.52 31.3-27.24 29.34-47.94l-1.66-17.53a7.5 7.5 0 0 0-5.08-6.4l-27.21-9.13a7.51 7.51 0 0 0-6.06.57l-25.01 14.08Z" clip-rule="evenodd"/><path fill="#fff" fill-rule="evenodd" d="M94.95 144.46a27.53 27.53 0 0 1 15.5-6.63c5.98-.57 11.67.8 16.49 3.6a3.3 3.3 0 1 0 3.32-5.72 34.14 34.14 0 0 0-20.41-4.46c-7.38.7-14 3.69-19.21 8.21a3.3 3.3 0 1 0 4.33 4.99l-.02.01Z" clip-rule="evenodd"/><path fill="#fff" fill-rule="evenodd" d="M102.19 154.66a15.23 15.23 0 0 1 19.55-1.85 3.3 3.3 0 0 0 3.76-5.44 21.84 21.84 0 0 0-28 2.65 3.3 3.3 0 1 0 4.7 4.64h-.01ZM118.62 157.8c.92.67.83 2.01-.07 2.71a31.33 31.33 0 0 1-4.93 3.14c-.44.22-.94.27-1.41.13a31.6 31.6 0 0 1-5.44-2.16c-1.02-.52-1.36-1.81-.58-2.64a9.41 9.41 0 0 1 12.43-1.18Z" clip-rule="evenodd"/><defs><linearGradient id="paint0_linear_956_7895" x1="82.05" x2="140.76" y1="118.39" y2="166.95" gradientUnits="userSpaceOnUse"><stop stop-color="#997DBC"/><stop offset=".6" stop-color="#E93389"/><stop offset=".97" stop-color="#EB674B"/></linearGradient></defs></svg>