<svg width="381" height="338" viewBox="0 0 381 338" fill="none" xmlns="http://www.w3.org/2000/svg">
<mask id="mask0" mask-type="alpha" maskUnits="userSpaceOnUse" x="24" y="27" width="356" height="268">
<path d="M100.833 290.544C148.8 274.902 213.636 282.95 237.87 290.544C274.222 301.935 303.469 288.819 332.65 243.619C361.83 198.42 401.062 168.77 365.304 86.3634C329.545 3.95694 220.782 37.9369 154.577 29.9963C88.3714 22.0557 8.65236 31.9516 27.5785 104.47C46.5047 176.987 13.7813 195.74 28.4123 248.176C38.1663 283.134 62.3065 297.256 100.833 290.544Z" fill="white"/>
</mask>
<g mask="url(#mask0)">
<path d="M100.833 290.544C148.8 274.902 213.636 282.95 237.87 290.544C274.222 301.935 303.469 288.819 332.65 243.619C361.83 198.42 401.062 168.77 365.304 86.3634C329.545 3.95694 220.782 37.9369 154.577 29.9963C88.3714 22.0557 8.65233 31.9516 27.5785 104.47C46.5046 176.987 13.7813 195.74 28.4123 248.176C38.1663 283.134 62.3065 297.256 100.833 290.544Z" fill="url(#paint0_linear)" fill-opacity="0.16"/>
</g>
<g filter="url(#filter0_d)">
<g filter="url(#filter1_d)">
<path fill-rule="evenodd" clip-rule="evenodd" d="M68.2793 26.6023C68.2793 17.9934 75.2581 11.0146 83.8669 11.0146H292.144C300.752 11.0146 307.731 17.9935 307.731 26.6023V294.133C307.731 302.742 300.752 309.72 292.144 309.72H83.8669C75.2581 309.72 68.2793 302.742 68.2793 294.133V26.6023Z" fill="url(#paint1_linear)"/>
</g>
<path fill-rule="evenodd" clip-rule="evenodd" d="M78.6934 30.8529C78.6934 26.1572 82.5 22.3506 87.1957 22.3506H288.811C293.507 22.3506 297.313 26.1572 297.313 30.8529V257.131C297.313 261.827 293.507 265.634 288.811 265.634H87.1957C82.5 265.634 78.6934 261.827 78.6934 257.131V30.8529Z" fill="white"/>
<g opacity="0.519345">
<rect x="162.885" y="48.4863" width="102.665" height="9.13547" rx="1.41706" fill="#F1F1F1"/>
<rect x="162.885" y="82.418" width="100.027" height="9.13547" rx="1.41706" fill="#F1F1F1"/>
<rect x="98.9922" y="211.29" width="155.013" height="9.13547" rx="1.41706" fill="#F1F1F1"/>
<rect x="98.9922" y="124.181" width="179.576" height="19.576" rx="1.41706" fill="#F1F1F1"/>
<rect x="98.9922" y="155.503" width="179.576" height="40.4571" rx="1.41706" fill="#F1F1F1"/>
<rect x="163.074" y="67.5381" width="116.041" height="5.19587" rx="1.41706" fill="#F1F1F1"/>
<rect x="98.9922" y="100.446" width="174.928" height="5.19587" rx="1.41706" fill="#F1F1F1"/>
<rect x="98.9922" y="230.343" width="174.928" height="5.19587" rx="1.41706" fill="#F1F1F1"/>
</g>
<path d="M187.323 296.159C193.063 296.159 197.715 291.507 197.715 285.768C197.715 280.029 193.063 275.376 187.323 275.376C181.584 275.376 176.932 280.029 176.932 285.768C176.932 291.507 181.584 296.159 187.323 296.159Z" fill="white"/>
</g>
<g filter="url(#filter2_d)">
<rect x="190.789" y="157.603" width="67.4696" height="20.9041" rx="6.85973" fill="url(#paint2_linear)"/>
</g>
<g filter="url(#filter3_d)">
<path fill-rule="evenodd" clip-rule="evenodd" d="M235.816 114.301C235.816 105.692 242.795 98.7129 251.404 98.7129H336.27C344.879 98.7129 351.858 105.692 351.858 114.301V294.424C351.858 303.033 344.879 310.012 336.27 310.012H251.404C242.795 310.012 235.816 303.033 235.816 294.424V114.301Z" fill="url(#paint3_linear)"/>
<path fill-rule="evenodd" clip-rule="evenodd" d="M241.016 114.142C241.016 109.446 244.822 105.64 249.518 105.64H338.163C342.858 105.64 346.665 109.446 346.665 114.142V282.457C346.665 287.153 342.858 290.959 338.163 290.959H249.518C244.822 290.959 241.016 287.153 241.016 282.457V114.142Z" fill="white"/>
<path fill-rule="evenodd" clip-rule="evenodd" d="M253.141 297.888C253.141 296.932 253.916 296.156 254.873 296.156H332.811C333.767 296.156 334.543 296.932 334.543 297.888V297.888C334.543 298.845 333.767 299.62 332.811 299.62H254.873C253.916 299.62 253.141 298.845 253.141 297.888V297.888Z" fill="white"/>
</g>
<path fill-rule="evenodd" clip-rule="evenodd" d="M140.165 54.9837L141.291 52.1779C141.291 52.1779 139.858 50.6192 138.125 48.8526C136.386 47.086 132.706 48.1251 132.706 48.1251L128.517 43.293H113.802L109.614 48.1251C109.614 48.1251 105.936 47.086 104.2 48.8526C102.461 50.6192 101.032 52.1779 101.032 52.1779L102.154 54.9837L100.725 59.1404C100.725 59.1404 104.932 75.345 105.425 77.3259C106.397 81.2229 107.059 82.7264 109.818 84.7008C112.653 86.7158 115.515 88.6904 118.403 90.6241C119.219 91.1437 120.242 92.027 121.16 92.027C122.08 92.027 123.104 91.1437 123.919 90.6241C126.808 88.6904 129.67 86.7158 132.504 84.7008C135.26 82.7264 135.925 81.2196 136.897 77.3227C137.39 75.345 141.598 59.1404 141.598 59.1404L140.165 54.9837V54.9837Z" fill="url(#paint4_linear)"/>
<path fill-rule="evenodd" clip-rule="evenodd" d="M136.919 59.2302C136.919 57.8144 131.531 51.1896 131.531 51.1896C131.531 51.1896 126.985 52.0729 126.371 52.0729C125.888 52.0729 124.957 51.7487 123.981 51.4091C123.722 51.3189 123.46 51.2275 123.202 51.1409C121.977 50.722 121.162 50.7188 121.162 50.7188C121.162 50.7188 120.343 50.722 119.116 51.1377C118.87 51.2209 118.621 51.3082 118.374 51.3948C117.387 51.7405 116.439 52.0729 115.95 52.0729C115.336 52.0729 110.789 51.1896 110.789 51.1896C110.789 51.1896 105.398 57.8144 105.398 59.2302C105.398 60.4015 105.862 60.8594 106.41 61.4C106.524 61.5129 106.642 61.6294 106.761 61.7567L110.799 66.118C110.839 66.1606 110.883 66.2055 110.929 66.2529C111.334 66.6652 111.93 67.2735 111.509 68.2841C111.481 68.3509 111.452 68.4189 111.423 68.4879C110.965 69.5786 110.397 70.9296 111.119 72.2979C111.886 73.7527 113.203 74.7204 114.044 74.5581C114.889 74.3989 116.868 73.35 117.594 72.8694C118.326 72.3888 120.631 70.4533 120.631 69.7097C120.631 69.0965 118.981 68.0721 118.173 67.571C118.01 67.4697 117.881 67.3898 117.808 67.3391C117.724 67.282 117.585 67.1939 117.413 67.0855C116.677 66.6205 115.347 65.7814 115.314 65.4101C115.275 64.949 115.288 64.8191 115.883 63.6825C116.009 63.4402 116.158 63.1806 116.311 62.9123C116.874 61.9253 117.505 60.8206 117.367 60.0291C117.208 59.1371 115.837 58.625 114.672 58.1901C114.522 58.1341 114.376 58.0795 114.236 58.0254C113.946 57.9144 113.592 57.7798 113.217 57.6371C112.004 57.1753 110.57 56.6294 110.345 56.5251C110.048 56.3855 110.124 56.2524 111.02 56.1679C111.133 56.1568 111.273 56.1416 111.433 56.1243C112.537 56.0045 114.602 55.7804 115.605 56.064C115.803 56.1203 116.026 56.1818 116.26 56.2462C117.374 56.553 118.734 56.9274 118.866 57.1422C118.89 57.182 118.913 57.216 118.934 57.248C119.058 57.4304 119.139 57.5499 119 58.3177C118.959 58.5457 118.876 58.9909 118.772 59.5417C118.464 61.18 117.98 63.7535 117.92 64.3319C117.911 64.4117 117.902 64.4887 117.893 64.5629C117.814 65.2038 117.762 65.631 118.495 65.7998C118.523 65.8063 118.552 65.813 118.581 65.8199C119.404 66.0134 120.705 66.3194 121.159 66.3194C121.609 66.3194 122.875 66.0225 123.702 65.8287C123.744 65.8188 123.786 65.8091 123.825 65.7998C124.554 65.6314 124.504 65.2059 124.428 64.5675C124.419 64.4919 124.409 64.4134 124.401 64.3319C124.342 63.7579 123.862 61.2183 123.553 59.5785C123.446 59.0107 123.359 58.5508 123.317 58.3177C123.178 57.5458 123.26 57.4268 123.387 57.2441C123.409 57.2131 123.431 57.1803 123.455 57.1422C123.587 56.9274 124.946 56.553 126.06 56.2462C126.294 56.1818 126.517 56.1203 126.716 56.064C127.718 55.7804 129.784 56.0045 130.888 56.1243C131.048 56.1416 131.188 56.1568 131.301 56.1679C132.196 56.2524 132.273 56.3855 131.976 56.5251C131.761 56.6245 130.445 57.1257 129.272 57.5725C128.835 57.7389 128.418 57.8977 128.084 58.0254C127.946 58.0786 127.802 58.1324 127.655 58.1874C126.487 58.6229 125.113 59.1353 124.954 60.0291C124.814 60.8177 125.441 61.9151 126.003 62.8999C126.159 63.1724 126.31 63.4362 126.438 63.6825C127.032 64.8158 127.045 64.9522 127.007 65.4101C126.973 65.7782 125.667 66.6059 124.927 67.075C124.746 67.1894 124.599 67.2824 124.513 67.3423C124.443 67.3899 124.323 67.4636 124.172 67.5569C123.373 68.05 121.686 69.0904 121.686 69.7129C121.686 70.4533 123.995 72.3888 124.724 72.8694C125.453 73.35 127.432 74.3989 128.273 74.5613C129.117 74.7204 130.435 73.7527 131.202 72.2979C131.924 70.9287 131.355 69.5797 130.894 68.4862C130.865 68.4178 130.836 68.3504 130.809 68.2841C130.39 67.2724 130.986 66.6638 131.39 66.2516C131.436 66.2046 131.479 66.1602 131.519 66.118L135.56 61.7567C135.678 61.6286 135.797 61.5115 135.911 61.3979C136.456 60.8583 136.919 60.4 136.919 59.2302ZM127.317 77.3617C127.621 77.1441 127.826 76.7414 127.493 76.5304H127.49C127.226 76.3601 126.514 75.987 125.511 75.4616C125.251 75.3255 124.972 75.1792 124.676 75.0236C123.234 74.2669 121.44 73.6207 121.162 73.6207C120.881 73.6207 119.084 74.2669 117.645 75.0236C117.283 75.2143 116.946 75.3907 116.64 75.5513C115.724 76.0307 115.077 76.3698 114.828 76.5304C114.495 76.7447 114.697 77.1441 115.001 77.3617C115.308 77.5793 119.388 80.7942 119.784 81.1514C119.836 81.1974 119.89 81.2473 119.947 81.2994C120.329 81.6482 120.817 82.0932 121.159 82.0932C121.503 82.0932 121.986 81.6515 122.367 81.3033C122.425 81.2499 122.481 81.1986 122.534 81.1514C124.113 79.8684 125.708 78.6051 127.317 77.3617Z" fill="white"/>
<rect x="290.709" y="126.425" width="39.0544" height="6.06185" rx="1.41706" fill="#EBEBEB"/>
<rect x="256.943" y="157.6" width="65.5825" height="6.06185" rx="1.41706" fill="#EBEBEB"/>
<rect x="256.943" y="251.126" width="65.5825" height="6.06185" rx="1.41706" fill="#EBEBEB"/>
<rect x="256.943" y="185.312" width="75.9743" height="12.9897" rx="1.41706" fill="#EBEBEB"/>
<rect x="256.943" y="206.095" width="75.9743" height="26.8454" rx="1.41706" fill="#EBEBEB"/>
<rect x="290.4" y="138.551" width="44.0804" height="2.99156" rx="1.41706" fill="#EBEBEB"/>
<rect x="256.607" y="169.726" width="74.0224" height="2.99156" rx="1.41706" fill="#EBEBEB"/>
<rect x="256.607" y="263.252" width="74.0224" height="2.99156" rx="1.41706" fill="#EBEBEB"/>
<g filter="url(#filter4_d)">
<path d="M33.9909 148.823C42.09 148.823 48.6557 142.259 48.6557 134.161C48.6557 126.063 42.09 119.499 33.9909 119.499C25.8918 119.499 19.3262 126.063 19.3262 134.161C19.3262 142.259 25.8918 148.823 33.9909 148.823Z" fill="white"/>
</g>
<g filter="url(#filter5_d)">
<path d="M311.104 83.0087C319.203 83.0087 325.769 76.4443 325.769 68.3467C325.769 60.249 319.203 53.6846 311.104 53.6846C303.005 53.6846 296.439 60.249 296.439 68.3467C296.439 76.4443 303.005 83.0087 311.104 83.0087Z" fill="white"/>
</g>
<g filter="url(#filter6_d)">
<path fill-rule="evenodd" clip-rule="evenodd" d="M41.8438 217.943C41.8438 210.443 47.9235 204.363 55.4233 204.363H117.525C125.025 204.363 131.105 210.443 131.105 217.943V219.316C131.105 226.815 125.025 232.895 117.525 232.895H55.4233C47.9235 232.895 41.8438 226.815 41.8438 219.316V217.943Z" fill="url(#paint5_linear)"/>
</g>
<g filter="url(#filter7_d)">
<rect x="308.562" y="228.612" width="52.579" height="35.4596" rx="13.5795" fill="white"/>
</g>
<path fill-rule="evenodd" clip-rule="evenodd" d="M279.787 130.741L280.349 129.29C280.349 129.29 279.633 128.484 278.767 127.57C277.897 126.656 276.057 127.194 276.057 127.194L273.963 124.694H266.605L264.511 127.194C264.511 127.194 262.672 126.656 261.804 127.57C260.935 128.484 260.22 129.29 260.22 129.29L260.781 130.741L260.066 132.891C260.066 132.891 262.17 141.273 262.417 142.298C262.903 144.313 263.233 145.091 264.613 146.112C266.03 147.154 267.461 148.176 268.906 149.176C269.313 149.445 269.825 149.902 270.284 149.902C270.744 149.902 271.256 149.445 271.664 149.176C273.108 148.176 274.539 147.154 275.956 146.112C277.334 145.091 277.667 144.312 278.153 142.296C278.399 141.273 280.503 132.891 280.503 132.891L279.787 130.741V130.741Z" fill="url(#paint6_linear)"/>
<path fill-rule="evenodd" clip-rule="evenodd" d="M278.165 132.936C278.165 132.203 275.471 128.777 275.471 128.777C275.471 128.777 273.197 129.234 272.89 129.234C272.649 129.234 272.183 129.066 271.696 128.89C271.566 128.844 271.435 128.796 271.306 128.752C270.694 128.535 270.286 128.533 270.286 128.533C270.286 128.533 269.877 128.535 269.263 128.75C269.14 128.793 269.016 128.838 268.892 128.883C268.399 129.062 267.924 129.234 267.68 129.234C267.373 129.234 265.1 128.777 265.1 128.777C265.1 128.777 262.404 132.203 262.404 132.936C262.404 133.542 262.636 133.778 262.91 134.058C262.967 134.116 263.026 134.177 263.085 134.243L265.105 136.498C265.124 136.52 265.146 136.544 265.17 136.568C265.372 136.781 265.67 137.096 265.459 137.619C265.446 137.653 265.431 137.688 265.417 137.724C265.188 138.288 264.904 138.987 265.264 139.695C265.648 140.447 266.307 140.948 266.727 140.864C267.149 140.782 268.139 140.239 268.502 139.99C268.868 139.742 270.021 138.741 270.021 138.356C270.021 138.039 269.195 137.509 268.792 137.25C268.71 137.198 268.646 137.156 268.609 137.13C268.567 137.1 268.498 137.055 268.412 136.999C268.043 136.758 267.379 136.324 267.362 136.132C267.343 135.894 267.349 135.826 267.647 135.239C267.71 135.113 267.784 134.979 267.86 134.84C268.142 134.33 268.457 133.758 268.388 133.349C268.309 132.888 267.623 132.623 267.041 132.398C266.966 132.369 266.893 132.34 266.823 132.313C266.678 132.255 266.501 132.185 266.314 132.112C265.707 131.873 264.99 131.59 264.878 131.537C264.729 131.464 264.767 131.395 265.215 131.352C265.272 131.346 265.342 131.338 265.422 131.329C265.973 131.267 267.006 131.151 267.507 131.298C267.607 131.327 267.718 131.359 267.835 131.392C268.392 131.551 269.072 131.745 269.138 131.856C269.15 131.876 269.161 131.894 269.172 131.91C269.234 132.005 269.275 132.067 269.205 132.464C269.185 132.582 269.143 132.812 269.091 133.097C268.937 133.944 268.695 135.275 268.665 135.575C268.661 135.616 268.656 135.656 268.651 135.694C268.612 136.025 268.586 136.246 268.953 136.334C268.967 136.337 268.981 136.341 268.996 136.344C269.407 136.444 270.057 136.602 270.284 136.602C270.51 136.602 271.143 136.449 271.556 136.349C271.577 136.344 271.598 136.339 271.618 136.334C271.982 136.247 271.957 136.027 271.919 135.696C271.914 135.657 271.91 135.617 271.906 135.575C271.876 135.278 271.636 133.964 271.482 133.116C271.428 132.822 271.385 132.584 271.364 132.464C271.294 132.064 271.335 132.003 271.399 131.908C271.409 131.892 271.421 131.875 271.432 131.856C271.498 131.745 272.178 131.551 272.735 131.392C272.852 131.359 272.964 131.327 273.063 131.298C273.564 131.151 274.597 131.267 275.149 131.329C275.229 131.338 275.299 131.346 275.356 131.352C275.803 131.395 275.842 131.464 275.693 131.537C275.586 131.588 274.928 131.847 274.341 132.078C274.122 132.164 273.914 132.246 273.747 132.313C273.678 132.34 273.606 132.368 273.532 132.396C272.949 132.622 272.262 132.887 272.182 133.349C272.112 133.757 272.425 134.324 272.707 134.834C272.785 134.975 272.86 135.111 272.924 135.239C273.221 135.825 273.228 135.895 273.209 136.132C273.192 136.323 272.539 136.751 272.168 136.993C272.078 137.052 272.005 137.101 271.962 137.132C271.926 137.156 271.867 137.194 271.791 137.243C271.391 137.498 270.548 138.036 270.548 138.358C270.548 138.741 271.703 139.742 272.067 139.99C272.432 140.239 273.421 140.782 273.842 140.866C274.264 140.948 274.922 140.447 275.306 139.695C275.667 138.987 275.383 138.289 275.152 137.723C275.137 137.688 275.123 137.653 275.109 137.619C274.9 137.095 275.198 136.781 275.4 136.567C275.423 136.543 275.445 136.52 275.464 136.498L277.485 134.243C277.544 134.176 277.603 134.116 277.661 134.057C277.933 133.778 278.165 133.541 278.165 132.936ZM273.361 142.311C273.513 142.199 273.615 141.99 273.449 141.881H273.447C273.315 141.793 272.959 141.6 272.458 141.328C272.328 141.258 272.188 141.182 272.04 141.102C271.319 140.711 270.422 140.376 270.283 140.376C270.143 140.376 269.244 140.711 268.525 141.102C268.344 141.201 268.175 141.292 268.022 141.375C267.564 141.623 267.241 141.798 267.116 141.881C266.95 141.992 267.051 142.199 267.202 142.311C267.356 142.424 269.396 144.087 269.594 144.272C269.62 144.295 269.647 144.321 269.676 144.348C269.867 144.528 270.111 144.759 270.282 144.759C270.453 144.759 270.695 144.53 270.885 144.35C270.915 144.322 270.943 144.296 270.969 144.272C271.759 143.608 272.556 142.954 273.361 142.311Z" fill="white"/>
<defs>
<filter id="filter0_d" x="50.9597" y="4.08681" width="274.091" height="333.345" filterUnits="userSpaceOnUse" color-interpolation-filters="sRGB">
<feFlood flood-opacity="0" result="BackgroundImageFix"/>
<feColorMatrix in="SourceAlpha" type="matrix" values="0 0 0 0 0 0 0 0 0 0 0 0 0 0 0 0 0 0 127 0"/>
<feOffset dy="10.3917"/>
<feGaussianBlur stdDeviation="8.65979"/>
<feColorMatrix type="matrix" values="0 0 0 0 0.152941 0 0 0 0 0.180392 0 0 0 0 0.25098 0 0 0 0.2 0"/>
<feBlend mode="normal" in2="BackgroundImageFix" result="effect1_dropShadow"/>
<feBlend mode="normal" in="SourceGraphic" in2="effect1_dropShadow" result="shape"/>
</filter>
<filter id="filter1_d" x="49.2278" y="0.622899" width="277.555" height="336.809" filterUnits="userSpaceOnUse" color-interpolation-filters="sRGB">
<feFlood flood-opacity="0" result="BackgroundImageFix"/>
<feColorMatrix in="SourceAlpha" type="matrix" values="0 0 0 0 0 0 0 0 0 0 0 0 0 0 0 0 0 0 127 0"/>
<feOffset dy="8.65979"/>
<feGaussianBlur stdDeviation="9.52577"/>
<feColorMatrix type="matrix" values="0 0 0 0 0.152941 0 0 0 0 0.180392 0 0 0 0 0.25098 0 0 0 0.2 0"/>
<feBlend mode="normal" in2="BackgroundImageFix" result="effect1_dropShadow"/>
<feBlend mode="normal" in="SourceGraphic" in2="effect1_dropShadow" result="shape"/>
</filter>
<filter id="filter2_d" x="171.738" y="147.211" width="105.573" height="59.0071" filterUnits="userSpaceOnUse" color-interpolation-filters="sRGB">
<feFlood flood-opacity="0" result="BackgroundImageFix"/>
<feColorMatrix in="SourceAlpha" type="matrix" values="0 0 0 0 0 0 0 0 0 0 0 0 0 0 0 0 0 0 127 0"/>
<feOffset dy="8.65979"/>
<feGaussianBlur stdDeviation="9.52577"/>
<feColorMatrix type="matrix" values="0 0 0 0 0.152941 0 0 0 0 0.180392 0 0 0 0 0.25098 0 0 0 0.2 0"/>
<feBlend mode="normal" in2="BackgroundImageFix" result="effect1_dropShadow"/>
<feBlend mode="normal" in="SourceGraphic" in2="effect1_dropShadow" result="shape"/>
</filter>
<filter id="filter3_d" x="218.497" y="91.7851" width="150.68" height="245.938" filterUnits="userSpaceOnUse" color-interpolation-filters="sRGB">
<feFlood flood-opacity="0" result="BackgroundImageFix"/>
<feColorMatrix in="SourceAlpha" type="matrix" values="0 0 0 0 0 0 0 0 0 0 0 0 0 0 0 0 0 0 127 0"/>
<feOffset dy="10.3917"/>
<feGaussianBlur stdDeviation="8.65979"/>
<feColorMatrix type="matrix" values="0 0 0 0 0.152941 0 0 0 0 0.180392 0 0 0 0 0.25098 0 0 0 0.2 0"/>
<feBlend mode="normal" in2="BackgroundImageFix" result="effect1_dropShadow"/>
<feBlend mode="normal" in="SourceGraphic" in2="effect1_dropShadow" result="shape"/>
</filter>
<filter id="filter4_d" x="0.274632" y="109.107" width="67.4326" height="67.4272" filterUnits="userSpaceOnUse" color-interpolation-filters="sRGB">
<feFlood flood-opacity="0" result="BackgroundImageFix"/>
<feColorMatrix in="SourceAlpha" type="matrix" values="0 0 0 0 0 0 0 0 0 0 0 0 0 0 0 0 0 0 127 0"/>
<feOffset dy="8.65979"/>
<feGaussianBlur stdDeviation="9.52577"/>
<feColorMatrix type="matrix" values="0 0 0 0 0.152941 0 0 0 0 0.180392 0 0 0 0 0.25098 0 0 0 0.2 0"/>
<feBlend mode="normal" in2="BackgroundImageFix" result="effect1_dropShadow"/>
<feBlend mode="normal" in="SourceGraphic" in2="effect1_dropShadow" result="shape"/>
</filter>
<filter id="filter5_d" x="277.388" y="43.2928" width="67.4326" height="67.4272" filterUnits="userSpaceOnUse" color-interpolation-filters="sRGB">
<feFlood flood-opacity="0" result="BackgroundImageFix"/>
<feColorMatrix in="SourceAlpha" type="matrix" values="0 0 0 0 0 0 0 0 0 0 0 0 0 0 0 0 0 0 127 0"/>
<feOffset dy="8.65979"/>
<feGaussianBlur stdDeviation="9.52577"/>
<feColorMatrix type="matrix" values="0 0 0 0 0.152941 0 0 0 0 0.180392 0 0 0 0 0.25098 0 0 0 0.2 0"/>
<feBlend mode="normal" in2="BackgroundImageFix" result="effect1_dropShadow"/>
<feBlend mode="normal" in="SourceGraphic" in2="effect1_dropShadow" result="shape"/>
</filter>
<filter id="filter6_d" x="5.47263" y="185.312" width="162.003" height="101.274" filterUnits="userSpaceOnUse" color-interpolation-filters="sRGB">
<feFlood flood-opacity="0" result="BackgroundImageFix"/>
<feColorMatrix in="SourceAlpha" type="matrix" values="0 0 0 0 0 0 0 0 0 0 0 0 0 0 0 0 0 0 127 0"/>
<feOffset dy="17.3196"/>
<feGaussianBlur stdDeviation="18.1856"/>
<feColorMatrix type="matrix" values="0 0 0 0 0.152941 0 0 0 0 0.180392 0 0 0 0 0.25098 0 0 0 0.2 0"/>
<feBlend mode="normal" in2="BackgroundImageFix" result="effect1_dropShadow"/>
<feBlend mode="normal" in="SourceGraphic" in2="effect1_dropShadow" result="shape"/>
</filter>
<filter id="filter7_d" x="289.511" y="221.684" width="90.6821" height="73.5627" filterUnits="userSpaceOnUse" color-interpolation-filters="sRGB">
<feFlood flood-opacity="0" result="BackgroundImageFix"/>
<feColorMatrix in="SourceAlpha" type="matrix" values="0 0 0 0 0 0 0 0 0 0 0 0 0 0 0 0 0 0 127 0"/>
<feOffset dy="12.1237"/>
<feGaussianBlur stdDeviation="9.52577"/>
<feColorMatrix type="matrix" values="0 0 0 0 0.152941 0 0 0 0 0.180392 0 0 0 0 0.25098 0 0 0 0.2 0"/>
<feBlend mode="normal" in2="BackgroundImageFix" result="effect1_dropShadow"/>
<feBlend mode="normal" in="SourceGraphic" in2="effect1_dropShadow" result="shape"/>
</filter>
<linearGradient id="paint0_linear" x1="556.936" y1="142.812" x2="330.681" y2="504.274" gradientUnits="userSpaceOnUse">
<stop stop-color="#F0F0F0"/>
<stop offset="1" stop-color="#F2EDFD"/>
</linearGradient>
<linearGradient id="paint1_linear" x1="-114.401" y1="176.999" x2="258.45" y2="776.644" gradientUnits="userSpaceOnUse">
<stop stop-color="#1C11AD"/>
<stop offset="1" stop-color="#FF4343"/>
</linearGradient>
<linearGradient id="paint2_linear" x1="139.316" y1="169.218" x2="148.093" y2="226.052" gradientUnits="userSpaceOnUse">
<stop stop-color="#392DD1"/>
<stop offset="1" stop-color="#FF4343"/>
</linearGradient>
<linearGradient id="paint3_linear" x1="235.816" y1="311.503" x2="351.858" y2="311.503" gradientUnits="userSpaceOnUse">
<stop stop-color="#FF5500"/>
<stop offset="0.572365" stop-color="#FF2000"/>
<stop offset="1" stop-color="#FF2000"/>
</linearGradient>
<linearGradient id="paint4_linear" x1="100.725" y1="92.3711" x2="141.598" y2="92.3711" gradientUnits="userSpaceOnUse">
<stop stop-color="#FF5500"/>
<stop offset="0.40988" stop-color="#FF5500"/>
<stop offset="0.58198" stop-color="#FF2000"/>
<stop offset="1" stop-color="#FF2000"/>
</linearGradient>
<linearGradient id="paint5_linear" x1="41.8438" y1="233.096" x2="131.105" y2="233.096" gradientUnits="userSpaceOnUse">
<stop stop-color="#FF5500"/>
<stop offset="0.572365" stop-color="#FF2000"/>
<stop offset="1" stop-color="#FF2000"/>
</linearGradient>
<linearGradient id="paint6_linear" x1="260.066" y1="150.08" x2="280.503" y2="150.08" gradientUnits="userSpaceOnUse">
<stop stop-color="#FF5500"/>
<stop offset="0.40988" stop-color="#FF5500"/>
<stop offset="0.58198" stop-color="#FF2000"/>
<stop offset="1" stop-color="#FF2000"/>
</linearGradient>
</defs>
</svg>
