<svg width="336" height="351" viewBox="0 0 336 351" fill="none" xmlns="http://www.w3.org/2000/svg">
<path d="M91.4313 262.898C133.488 250.686 190.335 256.969 211.583 262.898C243.455 271.792 269.099 261.551 294.683 226.263C320.268 190.975 354.666 167.826 323.314 103.49C291.962 39.1532 196.6 65.6821 138.553 59.4827C80.5052 53.2833 10.6092 61.0093 27.2033 117.626C43.7973 174.242 15.1062 188.882 27.9343 229.821C36.4865 257.113 57.6521 268.139 91.4313 262.898Z" fill="url(#paint0_linear)" fill-opacity="0.16"/>
<g filter="url(#filter0_d)">
<path fill-rule="evenodd" clip-rule="evenodd" d="M92.8535 32.7075C92.8535 20.4674 102.776 10.5449 115.016 10.5449H235.679C247.919 10.5449 257.841 20.4674 257.841 32.7075V288.32C257.841 300.56 247.919 310.483 235.679 310.483H115.016C102.776 310.483 92.8535 300.56 92.8535 288.32V32.7075Z" fill="url(#paint1_linear)"/>
<path fill-rule="evenodd" clip-rule="evenodd" d="M100.238 32.4695C100.238 25.7931 105.651 20.3809 112.327 20.3809H238.362C245.039 20.3809 250.451 25.7931 250.451 32.4695V271.353C250.451 278.029 245.039 283.441 238.362 283.441H112.327C105.651 283.441 100.238 278.029 100.238 271.353V32.4695Z" fill="white"/>
<path fill-rule="evenodd" clip-rule="evenodd" d="M176.039 171.387C202.177 171.387 223.365 150.198 223.365 124.061C223.365 97.9231 202.177 76.7344 176.039 76.7344C149.902 76.7344 128.713 97.9231 128.713 124.061C128.713 150.198 149.902 171.387 176.039 171.387Z" stroke="#9C1D83" stroke-width="4.20678"/>
<path fill-rule="evenodd" clip-rule="evenodd" d="M197.482 111.656C196.584 110.758 195.361 110.257 194.031 110.257C193.775 110.257 193.547 110.286 193.337 110.32V110.257H193.104C192.745 108.267 191.898 106.317 190.63 104.565C189.419 102.894 187.838 101.444 186.036 100.335L187.668 98.0034V97.7874C187.668 97.7568 187.678 97.7102 187.69 97.6559L187.69 97.6559C187.698 97.619 187.706 97.5785 187.713 97.5371L187.716 97.5253C187.755 97.3681 187.804 97.1734 187.804 96.9571C187.804 95.7516 186.928 94.876 185.723 94.876C185.086 94.876 184.455 95.2456 184.04 95.8767L182.135 98.6175C180.185 97.9807 178.081 97.6395 176.045 97.6395C174.009 97.6395 171.905 97.9807 169.955 98.6175L168.05 95.8767C167.624 95.2513 167.004 94.876 166.367 94.876C165.162 94.876 164.286 95.7516 164.286 96.9571C164.286 97.3609 164.451 97.793 164.718 98.0887L166.185 100.193C164.32 101.301 162.711 102.757 161.494 104.435C160.237 106.186 159.413 108.136 159.111 110.126H158.753V110.189C158.543 110.149 158.315 110.126 158.059 110.126C156.74 110.126 155.512 110.615 154.614 111.514C153.715 112.412 153.215 113.641 153.215 114.965V130.273C153.215 131.592 153.704 132.82 154.602 133.719C155.501 134.617 156.729 135.117 158.054 135.117C158.31 135.117 158.537 135.089 158.747 135.055V141.145C158.747 143.05 160.3 144.602 162.205 144.602H164.274V148.4C164.274 149.72 164.764 150.948 165.662 151.846C166.56 152.745 167.789 153.245 169.114 153.245C170.433 153.245 171.661 152.756 172.559 151.858C173.458 150.959 173.958 149.731 173.958 148.406V144.613H178.103V148.4C178.103 149.72 178.592 150.948 179.491 151.846C180.389 152.745 181.618 153.245 182.942 153.245C184.267 153.245 185.49 152.756 186.388 151.835C187.287 150.936 187.787 149.708 187.787 148.383V144.591H189.857C191.762 144.591 193.314 143.038 193.314 141.133V135.18C193.524 135.22 193.752 135.242 194.008 135.242C195.327 135.242 196.555 134.753 197.454 133.855C198.352 132.957 198.852 131.728 198.852 130.403V115.102C198.864 113.783 198.375 112.56 197.482 111.656ZM158.764 130.42C158.764 130.864 158.514 131.114 158.071 131.114C157.627 131.114 157.377 130.864 157.377 130.42V115.101C157.377 114.658 157.627 114.408 158.071 114.408C158.514 114.408 158.764 114.658 158.764 115.101V130.42ZM167.279 104.57C169.713 102.79 172.817 101.812 176.047 101.812C179.277 101.812 182.381 102.796 184.815 104.581C186.919 106.122 188.335 108.113 188.887 110.279H163.213C163.765 108.107 165.192 106.111 167.279 104.57ZM169.83 148.519C169.79 148.883 169.545 149.088 169.147 149.088C168.704 149.088 168.454 148.838 168.454 148.394V144.601H169.83V148.519ZM183.655 148.519C183.615 148.883 183.37 149.088 182.972 149.088C182.529 149.088 182.279 148.838 182.279 148.394V144.601H183.655V148.519H183.655ZM189.184 140.449H162.914V114.418H189.184V140.449ZM194.72 130.42C194.72 130.864 194.47 131.114 194.026 131.114C193.583 131.114 193.333 130.864 193.333 130.42V115.101C193.333 114.658 193.583 114.408 194.026 114.408C194.47 114.408 194.72 114.658 194.72 115.101V130.42ZM180.203 105.379C178.998 105.379 178.122 106.255 178.122 107.46C178.122 108.666 178.998 109.541 180.203 109.541C181.409 109.541 182.284 108.666 182.284 107.455C182.279 106.238 181.42 105.379 180.203 105.379V105.379ZM169.822 107.46C169.822 106.255 170.697 105.379 171.903 105.379L171.903 105.379C173.114 105.379 173.99 106.255 173.984 107.46C173.984 108.666 173.108 109.541 171.903 109.541C170.697 109.541 169.822 108.666 169.822 107.46Z" fill="#5E6175"/>
<mask id="mask0" mask-type="alpha" maskUnits="userSpaceOnUse" x="153" y="94" width="46" height="60">
<path fill-rule="evenodd" clip-rule="evenodd" d="M197.482 111.656C196.584 110.758 195.361 110.257 194.031 110.257C193.775 110.257 193.547 110.286 193.337 110.32V110.257H193.104C192.745 108.267 191.898 106.317 190.63 104.565C189.419 102.894 187.838 101.444 186.036 100.335L187.668 98.0034V97.7874C187.668 97.7568 187.678 97.7102 187.69 97.6559L187.69 97.6559C187.698 97.619 187.706 97.5785 187.713 97.5371L187.716 97.5253C187.755 97.3681 187.804 97.1734 187.804 96.9571C187.804 95.7516 186.928 94.876 185.723 94.876C185.086 94.876 184.455 95.2456 184.04 95.8767L182.135 98.6175C180.185 97.9807 178.081 97.6395 176.045 97.6395C174.009 97.6395 171.905 97.9807 169.955 98.6175L168.05 95.8767C167.624 95.2513 167.004 94.876 166.367 94.876C165.162 94.876 164.286 95.7516 164.286 96.9571C164.286 97.3609 164.451 97.793 164.718 98.0887L166.185 100.193C164.32 101.301 162.711 102.757 161.494 104.435C160.237 106.186 159.413 108.136 159.111 110.126H158.753V110.189C158.543 110.149 158.315 110.126 158.059 110.126C156.74 110.126 155.512 110.615 154.614 111.514C153.715 112.412 153.215 113.641 153.215 114.965V130.273C153.215 131.592 153.704 132.82 154.602 133.719C155.501 134.617 156.729 135.117 158.054 135.117C158.31 135.117 158.537 135.089 158.747 135.055V141.145C158.747 143.05 160.3 144.602 162.205 144.602H164.274V148.4C164.274 149.72 164.764 150.948 165.662 151.846C166.56 152.745 167.789 153.245 169.114 153.245C170.433 153.245 171.661 152.756 172.559 151.858C173.458 150.959 173.958 149.731 173.958 148.406V144.613H178.103V148.4C178.103 149.72 178.592 150.948 179.491 151.846C180.389 152.745 181.618 153.245 182.942 153.245C184.267 153.245 185.49 152.756 186.388 151.835C187.287 150.936 187.787 149.708 187.787 148.383V144.591H189.857C191.762 144.591 193.314 143.038 193.314 141.133V135.18C193.524 135.22 193.752 135.242 194.008 135.242C195.327 135.242 196.555 134.753 197.454 133.855C198.352 132.957 198.852 131.728 198.852 130.403V115.102C198.864 113.783 198.375 112.56 197.482 111.656ZM158.764 130.42C158.764 130.864 158.514 131.114 158.071 131.114C157.627 131.114 157.377 130.864 157.377 130.42V115.101C157.377 114.658 157.627 114.408 158.071 114.408C158.514 114.408 158.764 114.658 158.764 115.101V130.42ZM167.279 104.57C169.713 102.79 172.817 101.812 176.047 101.812C179.277 101.812 182.381 102.796 184.815 104.581C186.919 106.122 188.335 108.113 188.887 110.279H163.213C163.765 108.107 165.192 106.111 167.279 104.57ZM169.83 148.519C169.79 148.883 169.545 149.088 169.147 149.088C168.704 149.088 168.454 148.838 168.454 148.394V144.601H169.83V148.519ZM183.655 148.519C183.615 148.883 183.37 149.088 182.972 149.088C182.529 149.088 182.279 148.838 182.279 148.394V144.601H183.655V148.519H183.655ZM189.184 140.449H162.914V114.418H189.184V140.449ZM194.72 130.42C194.72 130.864 194.47 131.114 194.026 131.114C193.583 131.114 193.333 130.864 193.333 130.42V115.101C193.333 114.658 193.583 114.408 194.026 114.408C194.47 114.408 194.72 114.658 194.72 115.101V130.42ZM180.203 105.379C178.998 105.379 178.122 106.255 178.122 107.46C178.122 108.666 178.998 109.541 180.203 109.541C181.409 109.541 182.284 108.666 182.284 107.455C182.279 106.238 181.42 105.379 180.203 105.379V105.379ZM169.822 107.46C169.822 106.255 170.697 105.379 171.903 105.379L171.903 105.379C173.114 105.379 173.99 106.255 173.984 107.46C173.984 108.666 173.108 109.541 171.903 109.541C170.697 109.541 169.822 108.666 169.822 107.46Z" fill="white"/>
</mask>
<g mask="url(#mask0)">
</g>
<path fill-rule="evenodd" clip-rule="evenodd" d="M126.51 294.858C126.51 293.5 127.61 292.399 128.968 292.399H222.962C224.32 292.399 225.42 293.5 225.42 294.858V294.858C225.42 296.216 224.32 297.316 222.962 297.316H128.968C127.61 297.316 126.51 296.216 126.51 294.858V294.858Z" fill="white"/>
</g>
<rect x="122.869" y="226.891" width="93.2455" height="8.60478" rx="2.01478" fill="#EBEBEB"/>
<rect x="122.869" y="192.908" width="108.021" height="14.9696" rx="2.01478" fill="#EBEBEB"/>
<rect x="122.869" y="45.6709" width="108.021" height="8.65941" rx="2.01478" fill="#EBEBEB"/>
<rect x="122.869" y="35.1553" width="80.6765" height="4.45263" rx="2.01478" fill="#EBEBEB"/>
<rect x="122.398" y="244.103" width="105.245" height="4.24651" rx="2.01478" fill="#EBEBEB"/>
<g filter="url(#filter1_d)">
<path d="M87.4651 113.169C94.9146 113.169 100.954 107.147 100.954 99.7185C100.954 92.2898 94.9146 86.2676 87.4651 86.2676C80.0156 86.2676 73.9766 92.2898 73.9766 99.7185C73.9766 107.147 80.0156 113.169 87.4651 113.169Z" fill="white"/>
</g>
<g filter="url(#filter2_d)">
<path d="M48.5516 230.959C60.067 230.959 69.402 221.64 69.402 210.146C69.402 198.651 60.067 189.333 48.5516 189.333C37.0362 189.333 27.7012 198.651 27.7012 210.146C27.7012 221.64 37.0362 230.959 48.5516 230.959Z" fill="white"/>
</g>
<g filter="url(#filter3_d)">
<rect x="221.215" y="210.367" width="74.757" height="29.3009" rx="14.6505" fill="white"/>
</g>
<defs>
<filter id="filter0_d" x="67.6128" y="0.0279655" width="215.469" height="350.419" filterUnits="userSpaceOnUse" color-interpolation-filters="sRGB">
<feFlood flood-opacity="0" result="BackgroundImageFix"/>
<feColorMatrix in="SourceAlpha" type="matrix" values="0 0 0 0 0 0 0 0 0 0 0 0 0 0 0 0 0 0 127 0"/>
<feOffset dy="14.7237"/>
<feGaussianBlur stdDeviation="12.6203"/>
<feColorMatrix type="matrix" values="0 0 0 0 0.152941 0 0 0 0 0.180392 0 0 0 0 0.25098 0 0 0 0.2 0"/>
<feBlend mode="normal" in2="BackgroundImageFix" result="effect1_dropShadow"/>
<feBlend mode="normal" in="SourceGraphic" in2="effect1_dropShadow" result="shape"/>
</filter>
<filter id="filter1_d" x="46.6325" y="71.5438" width="81.6653" height="81.59" filterUnits="userSpaceOnUse" color-interpolation-filters="sRGB">
<feFlood flood-opacity="0" result="BackgroundImageFix"/>
<feColorMatrix in="SourceAlpha" type="matrix" values="0 0 0 0 0 0 0 0 0 0 0 0 0 0 0 0 0 0 127 0"/>
<feOffset dy="12.6203"/>
<feGaussianBlur stdDeviation="13.672"/>
<feColorMatrix type="matrix" values="0 0 0 0 0.152941 0 0 0 0 0.180392 0 0 0 0 0.25098 0 0 0 0.2 0"/>
<feBlend mode="normal" in2="BackgroundImageFix" result="effect1_dropShadow"/>
<feBlend mode="normal" in="SourceGraphic" in2="effect1_dropShadow" result="shape"/>
</filter>
<filter id="filter2_d" x="0.357092" y="174.609" width="96.389" height="96.3137" filterUnits="userSpaceOnUse" color-interpolation-filters="sRGB">
<feFlood flood-opacity="0" result="BackgroundImageFix"/>
<feColorMatrix in="SourceAlpha" type="matrix" values="0 0 0 0 0 0 0 0 0 0 0 0 0 0 0 0 0 0 127 0"/>
<feOffset dy="12.6203"/>
<feGaussianBlur stdDeviation="13.672"/>
<feColorMatrix type="matrix" values="0 0 0 0 0.152941 0 0 0 0 0.180392 0 0 0 0 0.25098 0 0 0 0.2 0"/>
<feBlend mode="normal" in2="BackgroundImageFix" result="effect1_dropShadow"/>
<feBlend mode="normal" in="SourceGraphic" in2="effect1_dropShadow" result="shape"/>
</filter>
<filter id="filter3_d" x="193.871" y="199.85" width="129.445" height="83.9891" filterUnits="userSpaceOnUse" color-interpolation-filters="sRGB">
<feFlood flood-opacity="0" result="BackgroundImageFix"/>
<feColorMatrix in="SourceAlpha" type="matrix" values="0 0 0 0 0 0 0 0 0 0 0 0 0 0 0 0 0 0 127 0"/>
<feOffset dy="16.8271"/>
<feGaussianBlur stdDeviation="13.672"/>
<feColorMatrix type="matrix" values="0 0 0 0 0.152941 0 0 0 0 0.180392 0 0 0 0 0.25098 0 0 0 0.2 0"/>
<feBlend mode="normal" in2="BackgroundImageFix" result="effect1_dropShadow"/>
<feBlend mode="normal" in="SourceGraphic" in2="effect1_dropShadow" result="shape"/>
</filter>
<linearGradient id="paint0_linear" x1="491.333" y1="147.56" x2="324.305" y2="447.234" gradientUnits="userSpaceOnUse">
<stop stop-color="#F0F0F0"/>
<stop offset="1" stop-color="#F2EDFD"/>
</linearGradient>
<linearGradient id="paint1_linear" x1="-5.62481" y1="197.68" x2="286.156" y2="320.24" gradientUnits="userSpaceOnUse">
<stop stop-color="#FB542B"/>
<stop offset="1" stop-color="#5118DD"/>
</linearGradient>
</defs>
</svg>
