<svg width="286" height="150" viewBox="0 0 286 150" fill="none" xmlns="http://www.w3.org/2000/svg">
<path fill-rule="evenodd" clip-rule="evenodd" d="M64.9406 71.9037C64.9406 36.8933 96.0838 7.56543 135.724 7.56543C175.364 7.56543 206.508 36.8933 206.508 71.9037C206.508 106.914 175.364 136.242 135.724 136.242C128.676 136.242 121.888 135.304 115.481 133.572C113.597 133.061 111.583 133.412 109.981 134.541C103.917 138.805 96.755 141.604 88.9978 142.436C87.8766 142.558 87.0299 141.444 87.4494 140.399C88.3113 138.271 89.0131 136.059 89.5394 133.786C91.3624 125.945 87.2892 119.156 83.1551 114.992C71.7672 103.512 64.9406 88.3945 64.9406 71.9037Z" fill="#F5EFE3"/>
<path d="M124.45 89.311H113.261C111.232 89.311 109.587 90.9556 109.587 92.9843V107.423C109.587 109.451 111.232 111.096 113.261 111.096H124.45C126.479 111.096 128.123 109.451 128.123 107.423V92.9843C128.123 90.9556 126.479 89.311 124.45 89.311Z" fill="url(#paint0_linear_404_75)"/>
<path d="M152.504 107.431V92.9931C152.504 90.9644 150.859 89.3198 148.831 89.3198H137.641C135.613 89.3198 133.968 90.9644 133.968 92.9931V107.431C133.968 109.46 135.613 111.105 137.641 111.105H148.831C150.859 111.105 152.504 109.46 152.504 107.431Z" fill="url(#paint1_linear_404_75)"/>
<path d="M176.893 107.423V92.9843C176.893 90.9556 175.249 89.311 173.22 89.311H162.03C160.002 89.311 158.357 90.9556 158.357 92.9843V107.423C158.357 109.451 160.002 111.096 162.03 111.096H173.22C175.249 111.096 176.893 109.451 176.893 107.423Z" fill="url(#paint2_linear_404_75)"/>
<path d="M201.274 107.423V92.9843C201.274 90.9556 199.629 89.311 197.601 89.311H186.411C184.383 89.311 182.738 90.9556 182.738 92.9843V107.423C182.738 109.451 184.383 111.096 186.411 111.096H197.601C199.629 111.096 201.274 109.451 201.274 107.423Z" fill="url(#paint3_linear_404_75)"/>
<path d="M250.052 107.423V92.9843C250.052 90.9556 248.408 89.311 246.379 89.311H235.19C233.161 89.311 231.517 90.9556 231.517 92.9843V107.423C231.517 109.451 233.161 111.096 235.19 111.096H246.379C248.408 111.096 250.052 109.451 250.052 107.423Z" fill="url(#paint4_linear_404_75)"/>
<path d="M274.433 107.423V92.9843C274.433 90.9556 272.788 89.311 270.759 89.311H259.57C257.541 89.311 255.897 90.9556 255.897 92.9843V107.423C255.897 109.451 257.541 111.096 259.57 111.096H270.759C272.788 111.096 274.433 109.451 274.433 107.423Z" fill="url(#paint5_linear_404_75)"/>
<path d="M278.047 59.5688H128.242C124.597 59.5688 121.642 62.5237 121.642 66.1688V87.6822C121.642 91.3272 124.597 94.2821 128.242 94.2821H278.047C281.692 94.2821 284.647 91.3272 284.647 87.6822V66.1688C284.647 62.5237 281.692 59.5688 278.047 59.5688Z" fill="white"/>
<path fill-rule="evenodd" clip-rule="evenodd" d="M128.242 60.8413C125.3 60.8413 122.914 63.2265 122.914 66.1688V87.6822C122.914 90.6245 125.3 93.0096 128.242 93.0096H278.047C280.989 93.0096 283.374 90.6245 283.374 87.6822V66.1688C283.374 63.2265 280.989 60.8413 278.047 60.8413H128.242ZM120.37 66.1688C120.37 61.821 123.894 58.2964 128.242 58.2964H278.047C282.395 58.2964 285.919 61.821 285.919 66.1688V87.6822C285.919 92.03 282.395 95.5546 278.047 95.5546H128.242C123.894 95.5546 120.37 92.03 120.37 87.6822V66.1688Z" fill="#221F20"/>
<path d="M263.142 72.0479L272.635 76.9342L263.142 81.812L264.915 76.8154L263.142 72.0479Z" fill="white"/>
<path fill-rule="evenodd" clip-rule="evenodd" d="M262.297 71.0961C262.69 70.7474 263.257 70.6761 263.724 70.9165L273.217 75.8028C273.641 76.021 273.907 76.4579 273.907 76.9347C273.907 77.4114 273.64 77.8481 273.216 78.066L263.723 82.9439C263.259 83.1823 262.697 83.1134 262.304 82.7699C261.911 82.4265 261.768 81.8782 261.943 81.3865L263.561 76.8256L261.949 72.4914C261.766 71.999 261.904 71.4447 262.297 71.0961ZM265.479 74.6822L266.107 76.3719C266.212 76.6519 266.214 76.9595 266.114 77.241L265.414 79.2139L269.852 76.9332L265.479 74.6822Z" fill="#221F20"/>
<path d="M199.357 47.0648V34.6369C199.357 32.8894 197.94 31.4727 196.192 31.4727H186.564C184.816 31.4727 183.4 32.8894 183.4 34.6369V47.0648C183.4 48.8123 184.816 50.229 186.564 50.229H196.192C197.94 50.229 199.357 48.8123 199.357 47.0648ZM220.353 47.0648V34.6369C220.353 32.8894 218.936 31.4727 217.188 31.4727H207.56C205.812 31.4727 204.396 32.8894 204.396 34.6369V47.0648C204.396 48.8123 205.812 50.229 207.56 50.229H217.188C218.936 50.229 220.353 48.8123 220.353 47.0648ZM241.349 47.0648V34.6369C241.349 32.8894 239.932 31.4727 238.184 31.4727H228.556C226.808 31.4727 225.392 32.8894 225.392 34.6369V47.0648C225.392 48.8123 226.808 50.229 228.556 50.229H238.184C239.932 50.229 241.349 48.8123 241.349 47.0648ZM262.344 47.0648V34.6369C262.344 32.8894 260.928 31.4727 259.18 31.4727H249.552C247.804 31.4727 246.388 32.8894 246.388 34.6369V47.0648C246.388 48.8123 247.804 50.229 249.552 50.229H259.18C260.928 50.229 262.344 48.8123 262.344 47.0648Z" fill="url(#paint6_linear_404_75)"/>
<path d="M116.679 71.2504C125.337 71.2504 132.356 64.2316 132.356 55.5734C132.356 46.9153 125.337 39.8965 116.679 39.8965C108.021 39.8965 101.002 46.9153 101.002 55.5734C101.002 64.2316 108.021 71.2504 116.679 71.2504Z" fill="black"/>
<path fill-rule="evenodd" clip-rule="evenodd" d="M111.081 52.876C110.701 52.876 110.394 53.1837 110.394 53.5632V61.3592C110.394 61.7387 110.701 62.0464 111.081 62.0464H122.279C122.658 62.0464 122.966 61.7387 122.966 61.3592V53.5632C122.966 53.1837 122.658 52.876 122.279 52.876H111.081ZM107.849 53.5632C107.849 51.7781 109.296 50.3311 111.081 50.3311H122.279C124.064 50.3311 125.511 51.7781 125.511 53.5632V61.3592C125.511 63.1443 124.064 64.5913 122.279 64.5913H111.081C109.296 64.5913 107.849 63.1443 107.849 61.3592V53.5632Z" fill="white"/>
<path fill-rule="evenodd" clip-rule="evenodd" d="M115.026 46.4034C113.775 46.4034 112.761 47.4135 112.761 48.6684V50.5686H110.216V48.6684C110.216 46.004 112.374 43.8584 115.026 43.8584H118.334C120.998 43.8584 123.144 46.0165 123.144 48.6684V50.5686H120.599V48.6684C120.599 47.418 119.589 46.4034 118.334 46.4034H115.026Z" fill="white"/>
<path d="M116.679 59.2806C117.705 59.2806 118.537 58.4488 118.537 57.4228C118.537 56.3967 117.705 55.5649 116.679 55.5649C115.653 55.5649 114.822 56.3967 114.822 57.4228C114.822 58.4488 115.653 59.2806 116.679 59.2806Z" fill="white"/>
<rect x="1.91333" y="29.0479" width="86" height="86" rx="43" fill="url(#paint7_linear_404_75)"/>
<path fill-rule="evenodd" clip-rule="evenodd" d="M27.645 71.2614C27.645 62.7217 35.2419 55.5662 44.913 55.5662C54.584 55.5662 62.1809 62.7217 62.1809 71.2614C62.1809 79.8012 54.584 86.9567 44.913 86.9567C43.1942 86.9567 41.5372 86.7287 39.9752 86.3056C39.5152 86.181 39.0236 86.2674 38.6336 86.5413C36.9954 87.6922 35.0299 88.4063 32.9011 88.5149C33.2209 87.831 33.4728 87.1087 33.648 86.3566C34.0937 84.4433 33.0989 82.7874 32.0899 81.771C29.3113 78.9722 27.645 75.2848 27.645 71.2614ZM29.8174 91.5154C30.1865 91.5814 30.5605 91.6332 30.9378 91.6699L30.9381 91.67C31.3968 91.7147 31.8618 91.7376 32.3316 91.7376C35.091 91.7376 37.6701 90.9481 39.8507 89.5827C41.4716 89.9632 43.168 90.1649 44.913 90.1649C56.0874 90.1649 65.3891 81.8301 65.3891 71.2614C65.3891 60.6928 56.0874 52.3579 44.913 52.3579C33.7385 52.3579 24.4368 60.6928 24.4368 71.2614C24.4368 76.2029 26.49 80.6841 29.8131 84.0314C30.4561 84.679 30.6097 85.2584 30.5234 85.6287C30.2382 86.853 29.665 87.9684 28.8762 88.8994C28.5053 89.3371 28.3964 89.9396 28.5907 90.4794C28.7849 91.0193 29.2527 91.4143 29.8174 91.5154ZM53.8065 76.3907C53.2191 77.4614 51.826 77.7746 50.8368 77.0583L46.4058 73.8496L46.8931 79.3655C46.9957 80.5275 46.0802 81.5275 44.9137 81.5275C43.7472 81.5275 42.8316 80.5275 42.9342 79.3655L43.4215 73.8496L38.9891 77.0593C38.0007 77.775 36.6086 77.4621 36.0216 76.3921C35.4592 75.367 35.8779 74.0799 36.9358 73.5818L41.9565 71.218L36.9288 68.8509C35.8737 68.3541 35.4545 67.0716 36.0124 66.0476C36.6014 64.9665 38.0102 64.6559 38.9992 65.3891L43.4215 68.6677L42.9316 63.0436C42.8303 61.881 43.7467 60.8813 44.9137 60.8813C46.0806 60.8813 46.997 61.881 46.8957 63.0436L46.4058 68.6677L50.8268 65.3901C51.8165 64.6564 53.2263 64.9672 53.8157 66.0491C54.3735 67.0728 53.9554 68.3549 52.9014 68.8531L47.898 71.218L52.8945 73.5796C53.9513 74.0791 54.3688 75.3658 53.8065 76.3907Z" fill="white"/>
<defs>
<linearGradient id="paint0_linear_404_75" x1="127.86" y1="109.213" x2="109.85" y2="91.2028" gradientUnits="userSpaceOnUse">
<stop offset="0.03" stop-color="#FA7250"/>
<stop offset="0.4" stop-color="#FF1893"/>
<stop offset="0.99" stop-color="#A78AFF"/>
</linearGradient>
<linearGradient id="paint1_linear_404_75" x1="152.241" y1="109.213" x2="134.231" y2="91.2031" gradientUnits="userSpaceOnUse">
<stop offset="0.03" stop-color="#FA7250"/>
<stop offset="0.4" stop-color="#FF1893"/>
<stop offset="0.99" stop-color="#A78AFF"/>
</linearGradient>
<linearGradient id="paint2_linear_404_75" x1="176.63" y1="109.213" x2="158.62" y2="91.2028" gradientUnits="userSpaceOnUse">
<stop offset="0.03" stop-color="#FA7250"/>
<stop offset="0.4" stop-color="#FF1893"/>
<stop offset="0.99" stop-color="#A78AFF"/>
</linearGradient>
<linearGradient id="paint3_linear_404_75" x1="201.011" y1="109.213" x2="183.01" y2="91.2028" gradientUnits="userSpaceOnUse">
<stop offset="0.03" stop-color="#FA7250"/>
<stop offset="0.4" stop-color="#FF1893"/>
<stop offset="0.99" stop-color="#A78AFF"/>
</linearGradient>
<linearGradient id="paint4_linear_404_75" x1="249.79" y1="109.213" x2="231.78" y2="91.2028" gradientUnits="userSpaceOnUse">
<stop offset="0.03" stop-color="#FA7250"/>
<stop offset="0.4" stop-color="#FF1893"/>
<stop offset="0.99" stop-color="#A78AFF"/>
</linearGradient>
<linearGradient id="paint5_linear_404_75" x1="274.17" y1="109.213" x2="256.168" y2="91.2028" gradientUnits="userSpaceOnUse">
<stop offset="0.03" stop-color="#FA7250"/>
<stop offset="0.4" stop-color="#FF1893"/>
<stop offset="0.99" stop-color="#A78AFF"/>
</linearGradient>
<linearGradient id="paint6_linear_404_75" x1="246.379" y1="64.3536" x2="199.374" y2="17.3481" gradientUnits="userSpaceOnUse">
<stop offset="0.03" stop-color="#FA7250"/>
<stop offset="0.4" stop-color="#FF1893"/>
<stop offset="0.99" stop-color="#A78AFF"/>
</linearGradient>
<linearGradient id="paint7_linear_404_75" x1="83.4456" y1="109.105" x2="1.83364" y2="29.1291" gradientUnits="userSpaceOnUse">
<stop offset="0.0260417" stop-color="#FA7250"/>
<stop offset="0.401042" stop-color="#FF1893"/>
<stop offset="0.994792" stop-color="#A78AFF"/>
</linearGradient>
</defs>
</svg>
