<svg xmlns="http://www.w3.org/2000/svg" width="129" height="40" viewBox="0 0 1412 454" version="1.1"><path d="M 202.641 21.785 C 187.769 32.933, 174.374 68.102, 176.468 90.500 C 177.754 104.254, 180.503 113.748, 185.228 120.750 C 186.806 123.087, 187.592 125, 186.976 125 C 184.532 125, 176.975 119.667, 172.070 114.481 C 166.196 108.270, 163.006 101.774, 159.948 89.796 C 158.783 85.233, 157.381 80.959, 156.833 80.299 C 154.815 77.867, 138.732 86.672, 123.320 98.645 C 113.102 106.583, 98.023 121.506, 91.686 129.952 C 85.594 138.071, 75.694 154.603, 76.152 155.890 C 76.344 156.427, 81.225 153.285, 87 148.910 C 92.775 144.534, 101.325 138.986, 106 136.581 C 113.955 132.488, 130.778 126.444, 131.686 127.353 C 131.910 127.577, 128.360 130.677, 123.797 134.242 C 93.914 157.587, 71.782 191.370, 66.490 221.719 C 64.847 231.142, 64.494 254.652, 65.962 256.972 C 66.781 258.268, 66.942 258.268, 67.310 256.972 C 72.304 239.380, 79.229 223.990, 86.757 213.750 C 92.136 206.435, 105.370 193.217, 111.627 188.912 C 114.032 187.258, 116 186.113, 116 186.369 C 116 186.625, 113.969 190.270, 111.487 194.468 C 96.915 219.116, 89.762 241.806, 89.726 263.500 C 89.699 280.059, 94.389 297.257, 102.914 311.852 C 110.503 324.847, 125.966 338.991, 140.500 346.232 C 146.730 349.336, 155.936 352.397, 156.711 351.622 C 157.031 351.302, 155.643 349.119, 153.626 346.770 C 132.962 322.704, 123.869 306.389, 122.003 290.029 C 120.714 278.722, 122.871 259.742, 125.984 255 C 126.747 253.838, 126.977 254.176, 127.002 256.500 C 127.069 262.643, 130.114 273.746, 133.860 281.500 C 138.502 291.111, 142.955 297.157, 158.708 315.236 C 169.112 327.176, 174.858 334.874, 184.668 350.014 C 191.316 360.273, 198.907 382.575, 199.100 392.410 C 199.155 395.209, 199.501 398.577, 199.870 399.894 C 200.533 402.263, 200.575 402.249, 203.908 398.451 C 209.316 392.293, 214.810 379.692, 216.097 370.500 C 218.774 351.371, 214.615 335.769, 201.439 315.519 L 199.500 312.539 204.318 315.988 C 206.968 317.884, 212.866 323.306, 217.424 328.035 C 232.425 343.595, 239.315 361.916, 237.636 381.776 C 236.531 394.846, 233.626 403.536, 225.850 417.022 C 223.605 420.916, 221.975 424.309, 222.228 424.562 C 222.481 424.815, 225.796 423.462, 229.594 421.556 C 246.516 413.063, 268.325 390.981, 276.161 374.406 C 280.100 366.074, 282.327 355.005, 281.583 347.455 C 280.868 340.209, 277.454 327.392, 275.394 324.218 C 273.665 321.556, 272 322.135, 272 325.399 C 272 328.526, 268.542 341.795, 266.479 346.580 L 264.790 350.500 262.391 341.638 C 257.067 321.976, 245.818 308.051, 223.500 293.498 C 192.814 273.489, 185.875 268.619, 177.176 260.989 C 161.283 247.051, 151.618 231.535, 149.759 216.976 C 148.285 205.423, 149.968 191.340, 153.974 181.717 C 158.155 171.674, 162.077 165.919, 170.496 157.474 C 177.528 150.419, 182.862 146.982, 192.914 143.029 C 199.027 140.625, 199.071 140.495, 190.745 149.410 C 180.290 160.604, 171.652 175.412, 168.525 187.500 C 166.774 194.271, 166.319 213.960, 167.850 216.697 C 168.668 218.159, 169.237 217.520, 171.326 212.797 C 177.627 198.549, 188.920 186.725, 202.652 179.995 C 207.136 177.798, 211.085 176, 211.427 176 C 211.769 176, 210.205 178.813, 207.953 182.250 C 193.651 204.075, 190.371 224.916, 197.684 247.500 C 199.588 253.382, 206.036 262.189, 214.384 270.313 C 220.278 276.048, 228.598 281.736, 229.611 280.723 C 229.897 280.436, 228.784 277.794, 227.137 274.851 C 223.536 268.416, 221.210 259.790, 220.358 249.711 C 219.841 243.597, 220.131 240.926, 221.968 234.877 C 223.200 230.820, 224.919 226.150, 225.788 224.500 C 227.367 221.503, 227.370 221.511, 228.640 231.439 C 229.563 238.652, 230.749 243.079, 232.964 247.578 C 236.796 255.362, 247.120 267.193, 263.003 282 C 289.402 306.611, 298.070 322.936, 298.312 348.500 C 298.393 357.069, 297.928 361.215, 296.208 367.261 C 294.994 371.530, 294 375.312, 294 375.666 C 294 376.868, 298.220 372.519, 301.089 368.360 C 312.576 351.708, 318.057 329.273, 314.605 313.035 C 311.184 296.942, 302.891 285.109, 285.541 271.560 C 271.670 260.729, 268.453 255.615, 272.952 251.544 C 275.543 249.199, 285.800 248.412, 294.354 249.901 C 297.997 250.536, 306.720 252.900, 313.739 255.155 C 325.461 258.921, 327.612 259.294, 340.161 259.738 C 353.568 260.213, 353.914 260.172, 358.822 257.501 C 365.087 254.091, 370.957 248.297, 368.915 247.538 C 368.137 247.249, 363.759 246.366, 359.186 245.576 C 348.861 243.792, 291.575 224.883, 293.278 223.821 C 298.615 220.491, 309.796 222.396, 332.500 230.505 C 351.909 237.437, 365.277 240.428, 373 239.567 C 379.549 238.837, 387.480 235.196, 391.373 231.133 L 394.184 228.198 389.518 222.469 C 384.391 216.174, 383 213.309, 383 209.042 C 383 205.398, 384.355 204.878, 395.829 204.118 L 405.158 203.500 387.871 191 C 354.947 167.193, 351.466 164.706, 344.287 159.859 C 336.686 154.727, 336.326 154.126, 334.513 143.555 C 333.345 136.743, 329.012 129.765, 321.088 121.931 C 306.339 107.350, 284.764 92.848, 261.658 81.984 L 249.996 76.500 244.585 66 C 237.474 52.201, 228.459 39.670, 218.252 29.394 C 207.478 18.546, 207.165 18.394, 202.641 21.785 M 204.126 46.984 C 202.521 49.201, 199.937 54.049, 198.385 57.757 C 195.770 64.007, 195.561 65.488, 195.532 78 C 195.502 90.857, 195.636 91.777, 198.357 97.318 C 201.253 103.215, 211.286 115.016, 212.440 113.882 C 212.786 113.542, 212.615 111.292, 212.059 108.882 C 210.576 102.447, 210.726 86.757, 212.292 84.616 C 213.521 82.935, 213.839 82.947, 218.922 84.878 C 221.859 85.994, 226.002 88.059, 228.131 89.468 L 232 92.028 232 88.043 C 232 79.829, 222.751 59.263, 214.767 49.723 C 208.689 42.462, 207.605 42.183, 204.126 46.984 M 260.225 50.750 C 258.536 54.462, 256.445 59.941, 255.579 62.924 C 254.148 67.854, 254.147 68.505, 255.576 70.084 C 256.440 71.039, 258.352 72.121, 259.824 72.488 C 264.021 73.535, 275.472 78.753, 282.107 82.642 C 285.431 84.590, 288.413 85.920, 288.735 85.599 C 289.409 84.924, 285.560 76.473, 278.590 63.326 C 274.128 54.910, 265.931 44, 264.070 44 C 263.645 44, 261.914 47.038, 260.225 50.750 M 262.124 137.850 L 256.749 138.500 265.427 142.394 C 272.897 145.746, 274.965 147.256, 280.280 153.236 C 287.710 161.596, 289.802 162.770, 299.453 163.994 C 309.054 165.211, 311.656 165.861, 316.347 168.212 C 318.463 169.272, 320.474 169.859, 320.817 169.516 C 322.762 167.572, 307.763 147.865, 300.490 142.810 C 298.296 141.284, 294.925 139.600, 293 139.068 C 288.394 137.794, 268.938 137.026, 262.124 137.850 M 521.223 138.557 C 519.123 140.027, 519 140.820, 519 152.902 C 519 169.603, 518.372 169, 535.790 169 C 553.176 169, 553 169.165, 553 152.884 C 553 141.393, 552.944 141.101, 550.365 139.073 C 548.028 137.234, 546.358 137, 535.588 137 C 526.216 137, 522.938 137.355, 521.223 138.557 M 593.571 164.571 C 592.168 165.975, 592 174.952, 592 248.371 C 592 310.994, 592.286 330.886, 593.200 331.800 C 594.098 332.698, 605.777 333, 639.595 333 C 681.852 333, 685.207 332.871, 691.217 331.015 C 717.902 322.773, 733.108 292.974, 724.056 266.662 C 721.596 259.512, 717.832 253.589, 711.815 247.395 L 706.856 242.291 710.941 235.970 C 716.292 227.691, 718 221.598, 718 210.787 C 718 191.823, 708.131 175.874, 691.569 168.070 C 681.510 163.330, 677.827 163, 635.022 163 C 600.102 163, 594.947 163.195, 593.571 164.571 M 806.120 186.110 C 798.777 187.353, 789.738 192.385, 784.618 198.080 L 780.362 202.814 779.172 197.054 C 777.420 188.573, 776.417 188, 763.326 188 C 753.924 188, 752.068 188.268, 750.655 189.829 C 749.149 191.493, 749 197.857, 749 260.674 C 749 326.266, 749.091 329.772, 750.829 331.345 C 752.341 332.713, 755 333, 766.174 333 C 777.881 333, 779.906 332.761, 781.307 331.214 C 782.738 329.632, 782.956 324.090, 783.212 282.964 L 783.500 236.500 786.203 231.377 C 789.920 224.329, 796.785 218.491, 803.148 216.964 C 811.160 215.043, 817.256 216.267, 828.376 222.033 C 835.536 225.745, 838.919 226.986, 840.676 226.545 C 842.340 226.128, 844.964 223.043, 849.039 216.718 C 855.048 207.388, 855.765 205.298, 854.050 202.093 C 852.528 199.250, 838.045 190.318, 831.500 188.186 C 824.123 185.783, 813.285 184.896, 806.120 186.110 M 934.500 186.002 C 906.370 190.232, 882.750 210.021, 873.260 237.310 C 871.256 243.073, 870.664 247.081, 870.278 257.500 C 869.688 273.435, 871.115 280.475, 877.670 293.983 C 881.630 302.145, 883.611 304.805, 891.886 313.072 C 900.097 321.275, 902.886 323.356, 911 327.337 C 924.561 333.990, 930.998 335.477, 946 335.424 C 960.591 335.372, 967.557 333.819, 979.500 327.957 C 999.011 318.382, 1014.203 299.880, 1019.701 279 C 1022.060 270.042, 1022.015 250.797, 1019.615 242.058 C 1014.500 223.432, 1004.108 208.856, 988.575 198.521 C 972.118 187.571, 953.195 183.190, 934.500 186.002 M 1327.477 185.988 C 1303.312 189.540, 1282.743 204.546, 1271.945 226.500 C 1265.925 238.740, 1264.516 245.304, 1264.541 261 C 1264.561 273.523, 1264.787 275.134, 1267.666 283.261 C 1271.829 295.013, 1276.057 301.870, 1284.910 311.226 C 1308.332 335.979, 1344.973 342.731, 1374.522 327.739 C 1381.260 324.321, 1391.525 316.655, 1393.595 313.496 C 1394.997 311.355, 1395.080 310.470, 1394.081 308.278 C 1392.077 303.880, 1381.654 292.020, 1379.227 291.375 C 1377.541 290.928, 1375.027 292.073, 1369.505 295.803 C 1359.523 302.547, 1352.367 305.169, 1342.329 305.761 C 1322.998 306.900, 1305.649 295.497, 1299.711 277.750 L 1298.121 273 1352.606 273 L 1407.091 273 1409.687 270.404 C 1412.268 267.823, 1412.279 267.738, 1411.724 255.654 C 1410.780 235.143, 1404.926 220.964, 1392.011 207.907 C 1374.956 190.665, 1351.004 182.530, 1327.477 185.988 M 520.655 189.829 C 519.149 191.493, 519 197.857, 519 260.674 C 519 326.266, 519.091 329.772, 520.829 331.345 C 522.342 332.714, 525.007 333, 536.272 333 C 549.207 333, 549.964 332.889, 551.443 330.777 C 552.815 328.819, 553 320.516, 553 260.912 C 553 193.994, 552.978 193.241, 550.927 190.635 C 548.874 188.025, 548.730 188, 535.582 188 C 523.994 188, 522.100 188.232, 520.655 189.829 M 1036.200 189.200 C 1035.540 189.860, 1035 191.596, 1035 193.058 C 1035 195.678, 1088.675 326.329, 1091.561 330.733 C 1092.937 332.834, 1093.765 333, 1102.849 333 C 1111.755 333, 1112.834 332.794, 1114.652 330.750 C 1115.752 329.512, 1122.421 314.325, 1129.471 297 C 1136.520 279.675, 1142.354 265.407, 1142.434 265.294 C 1142.514 265.180, 1146.811 275.305, 1151.983 287.794 C 1166.705 323.341, 1169.873 330.409, 1171.689 331.750 C 1172.753 332.535, 1176.779 333, 1182.517 333 C 1190.730 333, 1191.853 332.773, 1193.652 330.750 C 1195.332 328.860, 1248.616 200.925, 1250.487 194.288 C 1250.830 193.071, 1250.620 191.159, 1250.020 190.038 C 1249.001 188.133, 1247.995 188, 1234.620 188 C 1222.241 188, 1220.103 188.236, 1218.780 189.750 C 1217.555 191.150, 1199.493 237.193, 1185.233 275.266 C 1183.839 278.987, 1182.590 281.912, 1182.458 281.766 C 1182.185 281.464, 1164.011 239.478, 1160.408 230.827 L 1158.046 225.153 1163.917 211.197 C 1167.146 203.521, 1170.101 195.818, 1170.483 194.079 C 1171.721 188.443, 1170.512 188, 1153.901 188 C 1139.599 188, 1138.991 188.084, 1137.574 190.250 C 1136.395 192.050, 1120.147 236.053, 1105.836 276.203 L 1103.446 282.906 1096.031 263.203 C 1091.953 252.366, 1084.298 231.736, 1079.020 217.358 C 1073.742 202.980, 1068.824 190.492, 1068.090 189.608 C 1066.974 188.264, 1064.342 188, 1052.078 188 C 1041.995 188, 1037.024 188.376, 1036.200 189.200 M 626 211.948 L 626 232 646.750 231.990 C 666.578 231.981, 667.730 231.873, 672.686 229.566 C 680.412 225.969, 683.500 220.810, 683.500 211.500 C 683.500 203.359, 681.405 199.188, 675.167 194.910 C 671.743 192.562, 671.066 192.492, 648.826 192.198 L 626 191.895 626 211.948 M 1324.892 217.298 C 1317.829 220.274, 1314.615 222.567, 1308.826 228.755 C 1304.382 233.506, 1302.023 237.179, 1300.003 242.493 L 1299.050 245 1339.133 245 L 1379.217 245 1378.540 242.250 C 1376.396 233.537, 1368.091 224.142, 1358.220 219.264 C 1351.251 215.820, 1349.921 215.516, 1340.591 215.237 C 1331.815 214.975, 1329.769 215.243, 1324.892 217.298 M 935.746 217.029 C 919.557 221.090, 906.481 236.215, 903.716 254.078 C 900.805 272.886, 910.863 292.586, 927.362 300.391 C 956.077 313.976, 987.072 293.567, 987.186 261 C 987.271 236.353, 970.165 217.108, 947.500 216.353 C 943.100 216.207, 937.811 216.511, 935.746 217.029 M 626 281.397 L 626 304 650.032 304 C 676.182 304, 678.671 303.579, 684.342 298.197 C 695.600 287.512, 693.322 269.911, 679.708 262.398 L 674.500 259.524 650.250 259.159 L 626 258.795 626 281.397" stroke="none" fill="#fbfbfa" fill-rule="evenodd"/><path d="M 197.500 1.508 C 182.249 3.665, 168.709 6.775, 155.725 11.103 C 81.528 35.835, 25.784 95.924, 6.514 171.946 C 2.371 188.288, 0.872 199.787, 0.289 219.684 C -0.895 260.045, 6.474 293.992, 24.017 329 C 46.185 373.239, 82.511 409.072, 127.500 431.080 C 190.200 461.752, 263.800 461.752, 326.500 431.080 C 350.385 419.396, 369.739 405.505, 388.524 386.564 C 406.442 368.495, 420.786 348.128, 431.878 325 C 441.271 305.416, 447.704 285.094, 451.678 262.457 C 454.169 248.262, 454.170 205.764, 451.679 191.500 C 449.455 178.762, 445.739 163.976, 441.878 152.500 C 437.549 139.628, 424.397 113.275, 416.178 101 C 381.202 48.768, 327.896 14.059, 265.500 2.889 C 249.912 0.099, 212.791 -0.655, 197.500 1.508 M 202.641 21.785 C 187.769 32.933, 174.374 68.102, 176.468 90.500 C 177.754 104.254, 180.503 113.748, 185.228 120.750 C 186.806 123.087, 187.592 125, 186.976 125 C 184.532 125, 176.975 119.667, 172.070 114.481 C 166.196 108.270, 163.006 101.774, 159.948 89.796 C 158.783 85.233, 157.381 80.959, 156.833 80.299 C 154.815 77.867, 138.732 86.672, 123.320 98.645 C 113.102 106.583, 98.023 121.506, 91.686 129.952 C 85.594 138.071, 75.694 154.603, 76.152 155.890 C 76.344 156.427, 81.225 153.285, 87 148.910 C 92.775 144.534, 101.325 138.986, 106 136.581 C 113.955 132.488, 130.778 126.444, 131.686 127.353 C 131.910 127.577, 128.360 130.677, 123.797 134.242 C 93.914 157.587, 71.782 191.370, 66.490 221.719 C 64.847 231.142, 64.494 254.652, 65.962 256.972 C 66.781 258.268, 66.942 258.268, 67.310 256.972 C 72.304 239.380, 79.229 223.990, 86.757 213.750 C 92.136 206.435, 105.370 193.217, 111.627 188.912 C 114.032 187.258, 116 186.113, 116 186.369 C 116 186.625, 113.969 190.270, 111.487 194.468 C 96.915 219.116, 89.762 241.806, 89.726 263.500 C 89.699 280.059, 94.389 297.257, 102.914 311.852 C 110.503 324.847, 125.966 338.991, 140.500 346.232 C 146.730 349.336, 155.936 352.397, 156.711 351.622 C 157.031 351.302, 155.643 349.119, 153.626 346.770 C 132.962 322.704, 123.869 306.389, 122.003 290.029 C 120.714 278.722, 122.871 259.742, 125.984 255 C 126.747 253.838, 126.977 254.176, 127.002 256.500 C 127.069 262.643, 130.114 273.746, 133.860 281.500 C 138.502 291.111, 142.955 297.157, 158.708 315.236 C 169.112 327.176, 174.858 334.874, 184.668 350.014 C 191.316 360.273, 198.907 382.575, 199.100 392.410 C 199.155 395.209, 199.501 398.577, 199.870 399.894 C 200.533 402.263, 200.575 402.249, 203.908 398.451 C 209.316 392.293, 214.810 379.692, 216.097 370.500 C 218.774 351.371, 214.615 335.769, 201.439 315.519 L 199.500 312.539 204.318 315.988 C 206.968 317.884, 212.866 323.306, 217.424 328.035 C 232.425 343.595, 239.315 361.916, 237.636 381.776 C 236.531 394.846, 233.626 403.536, 225.850 417.022 C 223.605 420.916, 221.975 424.309, 222.228 424.562 C 222.481 424.815, 225.796 423.462, 229.594 421.556 C 246.516 413.063, 268.325 390.981, 276.161 374.406 C 280.100 366.074, 282.327 355.005, 281.583 347.455 C 280.868 340.209, 277.454 327.392, 275.394 324.218 C 273.665 321.556, 272 322.135, 272 325.399 C 272 328.526, 268.542 341.795, 266.479 346.580 L 264.790 350.500 262.391 341.638 C 257.067 321.976, 245.818 308.051, 223.500 293.498 C 192.814 273.489, 185.875 268.619, 177.176 260.989 C 161.283 247.051, 151.618 231.535, 149.759 216.976 C 148.285 205.423, 149.968 191.340, 153.974 181.717 C 158.155 171.674, 162.077 165.919, 170.496 157.474 C 177.528 150.419, 182.862 146.982, 192.914 143.029 C 199.027 140.625, 199.071 140.495, 190.745 149.410 C 180.290 160.604, 171.652 175.412, 168.525 187.500 C 166.774 194.271, 166.319 213.960, 167.850 216.697 C 168.668 218.159, 169.237 217.520, 171.326 212.797 C 177.627 198.549, 188.920 186.725, 202.652 179.995 C 207.136 177.798, 211.085 176, 211.427 176 C 211.769 176, 210.205 178.813, 207.953 182.250 C 193.651 204.075, 190.371 224.916, 197.684 247.500 C 199.588 253.382, 206.036 262.189, 214.384 270.313 C 220.278 276.048, 228.598 281.736, 229.611 280.723 C 229.897 280.436, 228.784 277.794, 227.137 274.851 C 223.536 268.416, 221.210 259.790, 220.358 249.711 C 219.841 243.597, 220.131 240.926, 221.968 234.877 C 223.200 230.820, 224.919 226.150, 225.788 224.500 C 227.367 221.503, 227.370 221.511, 228.640 231.439 C 229.563 238.652, 230.749 243.079, 232.964 247.578 C 236.796 255.362, 247.120 267.193, 263.003 282 C 289.402 306.611, 298.070 322.936, 298.312 348.500 C 298.393 357.069, 297.928 361.215, 296.208 367.261 C 294.994 371.530, 294 375.312, 294 375.666 C 294 376.868, 298.220 372.519, 301.089 368.360 C 312.576 351.708, 318.057 329.273, 314.605 313.035 C 311.184 296.942, 302.891 285.109, 285.541 271.560 C 271.670 260.729, 268.453 255.615, 272.952 251.544 C 275.543 249.199, 285.800 248.412, 294.354 249.901 C 297.997 250.536, 306.720 252.900, 313.739 255.155 C 325.461 258.921, 327.612 259.294, 340.161 259.738 C 353.568 260.213, 353.914 260.172, 358.822 257.501 C 365.087 254.091, 370.957 248.297, 368.915 247.538 C 368.137 247.249, 363.759 246.366, 359.186 245.576 C 348.861 243.792, 291.575 224.883, 293.278 223.821 C 298.615 220.491, 309.796 222.396, 332.500 230.505 C 351.909 237.437, 365.277 240.428, 373 239.567 C 379.549 238.837, 387.480 235.196, 391.373 231.133 L 394.184 228.198 389.518 222.469 C 384.391 216.174, 383 213.309, 383 209.042 C 383 205.398, 384.355 204.878, 395.829 204.118 L 405.158 203.500 387.871 191 C 354.947 167.193, 351.466 164.706, 344.287 159.859 C 336.686 154.727, 336.326 154.126, 334.513 143.555 C 333.345 136.743, 329.012 129.765, 321.088 121.931 C 306.339 107.350, 284.764 92.848, 261.658 81.984 L 249.996 76.500 244.585 66 C 237.474 52.201, 228.459 39.670, 218.252 29.394 C 207.478 18.546, 207.165 18.394, 202.641 21.785 M 204.126 46.984 C 202.521 49.201, 199.937 54.049, 198.385 57.757 C 195.770 64.007, 195.561 65.488, 195.532 78 C 195.502 90.857, 195.636 91.777, 198.357 97.318 C 201.253 103.215, 211.286 115.016, 212.440 113.882 C 212.786 113.542, 212.615 111.292, 212.059 108.882 C 210.576 102.447, 210.726 86.757, 212.292 84.616 C 213.521 82.935, 213.839 82.947, 218.922 84.878 C 221.859 85.994, 226.002 88.059, 228.131 89.468 L 232 92.028 232 88.043 C 232 79.829, 222.751 59.263, 214.767 49.723 C 208.689 42.462, 207.605 42.183, 204.126 46.984 M 260.225 50.750 C 258.536 54.462, 256.445 59.941, 255.579 62.924 C 254.148 67.854, 254.147 68.505, 255.576 70.084 C 256.440 71.039, 258.352 72.121, 259.824 72.488 C 264.021 73.535, 275.472 78.753, 282.107 82.642 C 285.431 84.590, 288.413 85.920, 288.735 85.599 C 289.409 84.924, 285.560 76.473, 278.590 63.326 C 274.128 54.910, 265.931 44, 264.070 44 C 263.645 44, 261.914 47.038, 260.225 50.750 M 262.124 137.850 L 256.749 138.500 265.427 142.394 C 272.897 145.746, 274.965 147.256, 280.280 153.236 C 287.710 161.596, 289.802 162.770, 299.453 163.994 C 309.054 165.211, 311.656 165.861, 316.347 168.212 C 318.463 169.272, 320.474 169.859, 320.817 169.516 C 322.762 167.572, 307.763 147.865, 300.490 142.810 C 298.296 141.284, 294.925 139.600, 293 139.068 C 288.394 137.794, 268.938 137.026, 262.124 137.850" stroke="none" fill="#ed4a25" fill-rule="evenodd"/></svg>