<svg xmlns="http://www.w3.org/2000/svg" width="465.427" height="94.735" viewBox="0 0 465.427 94.735">
  <g id="Symbols" transform="translate(0.002 -0.48)">
    <g id="Mobile-Header" transform="translate(-0.003 0.48)">
      <g id="Group-4">
        <g id="Mobile-Logo">
          <g id="Group">
            <g id="Group-3" transform="translate(128.843)">
              <path id="Fill-1" d="M341.456,90.845H325.293V27.4h16.163v8.659a26.238,26.238,0,0,1,19.679-10.233V42.094a21.356,21.356,0,0,0-4.513-.367,20.466,20.466,0,0,0-15.166,7.189ZM297.848,53.166A14.431,14.431,0,0,0,282.682,39.1a15.008,15.008,0,0,0-15.218,14.064ZM283.679,92.419a31.486,31.486,0,0,1-32.9-33.375,31.853,31.853,0,0,1,31.906-33.218c18.367,0,30.856,14.169,30.856,34.949v3.673H267.726a16.74,16.74,0,0,0,17.737,14.693,25.923,25.923,0,0,0,16.478-6.3L309.078,83.6A37.836,37.836,0,0,1,283.679,92.419Zm-48.856-1.574H218.451V41.989H208.27V27.4h10.18V24.2A20.2,20.2,0,0,1,239.441,2.107,21.515,21.515,0,0,1,255.5,8.037l-6.3,9.656a8.764,8.764,0,0,0-6.769-2.624c-4.46,0-7.609,2.991-7.609,8.921V27.4h12.489V41.989H234.823Zm-41.981,0h-16.11V41.989h-10.18V27.4h10.18V24.2A20.2,20.2,0,0,1,197.723,2.107a21.41,21.41,0,0,1,16.058,5.93l-6.3,9.656a8.764,8.764,0,0,0-6.769-2.624c-4.46,0-7.609,2.991-7.609,8.921V27.4h12.489V41.989H193.1Zm-36.734,0H140.261V82.816a28.6,28.6,0,0,1-21.725,9.6c-13.486,0-19.889-7.609-19.889-19.941V27.4h16.215V65.866c0,8.816,4.46,11.7,11.335,11.7a17.947,17.947,0,0,0,14.064-7.242V27.4h16.163ZM40.66,70.484a17.737,17.737,0,0,0,13.906,7.084c9.446,0,15.743-7.347,15.743-18.367S64.065,40.677,54.567,40.677A17.685,17.685,0,0,0,40.66,48.024Zm0,20.361H24.55V.48H40.765V35.534a23.667,23.667,0,0,1,19-9.708C75.5,25.826,87.1,38.421,87.1,59.2S75.347,92.419,59.762,92.419a23.719,23.719,0,0,1-19-9.708Z" transform="translate(-24.55 -0.48)" fill="#a8aabc"/>
            </g>
            <g id="Group-6" transform="translate(0.013 68.52)">
              <g id="Group_1" data-name="Group 1" transform="translate(0)">
                <path id="Fill-4" d="M81.916,18.484l-9.393-4.67a4.041,4.041,0,0,0-2.939,0L42.716,27.2a3.568,3.568,0,0,1-2.939,0L12.909,13.814a4.041,4.041,0,0,0-2.939,0L.63,18.484c-.84.42-.84,1.1,0,1.469L39.777,39.475a4.041,4.041,0,0,0,2.939,0l39.2-19.521c.787-.367.787-1.05,0-1.469" transform="translate(0 -13.537)" fill="#a8aabc"/>
              </g>
            </g>
            <g id="Group-9" transform="translate(0.013 42.754)">
              <g id="Group_2" data-name="Group 2">
                <path id="Fill-7" d="M81.916,13.574,72.523,8.9a4.041,4.041,0,0,0-2.939,0L42.716,22.285a3.568,3.568,0,0,1-2.939,0L12.909,8.9a4.041,4.041,0,0,0-2.939,0L.63,13.574c-.84.42-.84,1.05,0,1.469L39.777,34.565a4.041,4.041,0,0,0,2.939,0l39.2-19.521c.787-.42.787-1.05,0-1.469" transform="translate(0 -8.627)" fill="#a8aabc"/>
              </g>
            </g>
            <g id="Group-12" transform="translate(0 5.443)">
              <g id="Group_3" data-name="Group 3" transform="translate(0 0)">
                <path id="Fill-10" d="M.588,21.105l39.2,18a4.041,4.041,0,0,0,2.939,0l39.2-18c.787-.367.787-.945,0-1.312l-39.2-18a4.041,4.041,0,0,0-2.939,0l-39.2,18c-.787.367-.787.945,0,1.312" transform="translate(0.002 -1.517)" fill="#a8aabc"/>
              </g>
            </g>
          </g>
        </g>
      </g>
    </g>
  </g>
</svg>
