<svg xmlns="http://www.w3.org/2000/svg" width="653" height="458" fill="none"><path stroke="#000" stroke-miterlimit="10" stroke-width="2.14" d="m430.36 31.83 28.84-2.64M431.07 39.64 459.91 37"/><path fill="#7BDF85" d="M363.48 41.07a3.36 3.36 0 1 0 0-6.72 3.36 3.36 0 0 0 0 6.72Z"/><path fill="#FFDCC4" stroke="#000" stroke-miterlimit="10" stroke-width="2" d="m386.52 201.21-212.59 81.67-44.47-55.37a5.84 5.84 0 0 0-9.53.62L38 362.96a81.78 81.78 0 0 0-10.29 58.57l32.11 159.86a164.6 164.6 0 0 1-22.44 120.68L1.35 758.81l217.35 153.7 230.49-352.19-62.65-359.12-.02.01ZM536.44 113.58l-29.03 24.6a33.78 33.78 0 1 0 43.68 51.55l29.03-24.6a33.78 33.78 0 1 0-43.68-51.55Z"/><path fill="#fff" stroke="#000" stroke-miterlimit="10" stroke-width="2.14" d="m188.42 3.62 300.42 24.8a42.75 42.75 0 0 1 39.07 46.1l-1.43 17.3L140.88 60l1.44-17.3a42.75 42.75 0 0 1 46.1-39.07Z"/><path stroke="#000" stroke-linecap="round" stroke-linejoin="round" stroke-width="2.14" d="M175.03 27a5.67 5.67 0 1 0 0-11.34 5.67 5.67 0 0 0 0 11.34ZM192.46 28.44a5.67 5.67 0 1 0 0-11.34 5.67 5.67 0 0 0 0 11.34ZM209.9 29.88a5.67 5.67 0 1 0 0-11.34 5.67 5.67 0 0 0 0 11.34ZM245.2 47.93l-8.91-10.51 10.51-8.9M262.9 29.85l8.9 10.5-10.51 8.91M435 42.01l-35.27-2.91a11.66 11.66 0 0 0-12.58 10.66h0a11.66 11.66 0 0 0 10.66 12.59l35.28 2.91a11.66 11.66 0 0 0 12.58-10.66h0A11.66 11.66 0 0 0 435 42Z"/><path fill="#000" d="m417.07 48.66-3.74 8.3-2.6-.21-2.33-8.8 2.22.18 1.58 6.63 2.67-6.28 2.2.18Zm7.16 3.37c-.04.49-.2.94-.45 1.33-.26.39-.64.69-1.13.9a3.7 3.7 0 0 1-1.79.23l-1.29-.1-.25 3.07-2.08-.18.7-8.55 3.38.28c.68.06 1.25.23 1.7.5.45.27.77.63.98 1.06.2.43.27.92.23 1.46Zm-3.39.8c.4.03.7-.04.91-.21.21-.17.33-.43.36-.77.03-.34-.05-.61-.23-.82-.17-.2-.46-.32-.86-.35l-1.13-.1-.18 2.15 1.13.1Zm11.65 5.71-2.09-.17-3.04-5.56-.44 5.27-2.08-.17.7-8.55 2.08.17 3.05 5.59.44-5.3 2.08.17-.7 8.55Z"/><path fill="#231F20" stroke="#000" stroke-miterlimit="10" stroke-width="1.07" d="m343.24 37.84-1.36 16.51a2.47 2.47 0 0 0 2.24 2.67l19.52 1.61c1.35.11 2.54-.9 2.65-2.26l1.06-12.88a2.69 2.69 0 0 0-2.45-2.89l-.55-.05.08-.96a2.47 2.47 0 0 0-2.24-2.67l-16.3-1.35c-1.25-.1-2.4.79-2.62 2.04v.08l-.01.01v.02l-.01.11-.01.01Zm22.1 14.73-7.61-.63a1.37 1.37 0 0 1-1.25-1.47l.25-3c.06-.75.72-1.31 1.47-1.25l7.61.63-.47 5.72Zm-20.83-14.8a1.2 1.2 0 0 1 1.27-.94l16.3 1.35c.66.05 1.15.64 1.1 1.32l-.08.96-17.49-1.44a1.22 1.22 0 0 1-1.1-1.14v-.11Zm-.19 2.12.43.18c.24.1.49.16.75.18l19.29 1.59c.79.06 1.37.76 1.31 1.54l-.18 2.16-7.61-.63a2.67 2.67 0 0 0-2.88 2.44l-.25 3a2.67 2.67 0 0 0 2.44 2.88l7.61.63-.2 2.4a1.22 1.22 0 0 1-1.3 1.12l-19.52-1.61a1.22 1.22 0 0 1-1.1-1.32l1.2-14.57.01.01Z"/><path stroke="#000" stroke-linecap="round" stroke-linejoin="round" stroke-width="2.14" d="m317.72 32.65-14.44-1.2a5.37 5.37 0 0 0-5.79 4.92l-.98 11.91a5.37 5.37 0 0 0 4.9 5.8l14.44 1.19a5.37 5.37 0 0 0 5.8-4.91l.98-11.92a5.37 5.37 0 0 0-4.91-5.8Z"/><path stroke="#000" stroke-linecap="round" stroke-linejoin="round" stroke-width="2.14" d="m322.16 40.68-9.11-.75a3.08 3.08 0 0 0-3.32 2.81l-.94 11.33"/><mask id="mask0_963_15067" width="434" height="604" x="93" y="59" maskUnits="userSpaceOnUse" style="mask-type:luminance"><path fill="#fff" d="M526.4 91.82 140.96 60l-47.1 570.58 385.41 31.82 47.11-570.58Z"/></mask><g mask="url(#mask0_963_15067)"><path fill="#000" d="M403.48 175.64c.86-.6 1.7.68.98 1.16-16.6 11.83-21.25 17.51-33.37 33.75l-3.48 4.7c-21.33 28.28-39.96 36.85-64.44 34.83-4.42-.37-14.69-1.62-18.02-8.63-1.27-2.53-1.7-5.53-.46-7.45.93-1.4 2.23-2.5 4.12-2.62 1.49-.01 2.93.5 3.75 1.92.7 1.27.85 2.77.35 3.94-.51 1.3-1.96 2.53-3.31 2.56-1.75-.01-3.65-1.52-3.65-1.52 1.15 8.99 15.2 10.15 17.47 10.34 21.81 1.8 30.19-6.67 43.13-21.5l15.77-17.96c10.71-12.32 25.29-22.43 41.16-33.52Zm50.32-7.43c-11.36 10.38-25.22 8.56-37.26 7.57-23.55-1.95-39.33-6.62-44.29-7.03-19.26-1.59-36.49-.18-48.12 13.4-2.82 3.14-3.7 8.86-2.7 11.5 1.59 3.64 4.86 6.47 11.38 7.41 13.98 1.97 24-3.54 30.6-8.38 2.72-1.93 5.04-5.65 4.7-8.1-.4-3.27-3.16-5.65-6.22-6.17-11.96-1.94-26.69 5.07-37.36 15.23-.44.5-1.44-.52-.71-1.13 10.45-10.73 27.03-17.44 38.2-15.58 2.92.51 7.18 2.75 7.6 7.37.36 3.8-2.93 7.84-5.37 9.66-5.9 4.5-17.06 10.72-31.57 8.7-4.13-.6-10.05-2.3-12.5-8.43-1.57-3.9-.16-9.58 2.82-13.1 12.38-14.48 32.68-15.63 48.27-15.15 4.97.14 54.34 4.35 64.1 5.29 5.74.6 11.23.93 17.46-4.35.88-.87 1.7.68.97 1.3Zm-96.92 82.13c-.65 1.42-.16 2 .45 2.73 1.1 1.3 3.84.85 6.44.26 5.51-1.43 17.28-8.54 20.38-15.02.99-2.21.15-3.5-.48-4.08-1.11-1.17-3.24-1.48-5.31-.85-6.92 2.13-18.88 11.65-21.48 16.96Zm18.51-.63c-5.84 3.83-13.37 6.98-18.1 5.5-2.5-.74-3.35-1.88-3.8-4.62-.54-3.27.77-7.61 4.67-10.8 6.5-5.38 18.83-9.48 23.98-8.25 1.88.16 3.92 1.54 4.28 3.72.28 1.5-.58 3.73-.58 3.73 1.45-1.23 7.02-6.7 7.02-6.7l7.1.59-20.19 19.21c-1.9 1.86-2.18 3.6 1.52 2.82 2.47-.47 8.8-3.72 17.62-9.46.72-.48 1.54.94 1.1 1.3-10.68 7.07-18.31 11.43-22.92 10.1-1.84-.55-2.32-1.27-2.45-2.9-.2-.95-.07-2.42.75-4.24Zm48.1-15.97c-1.54 5.53 1.86 10.12-3.16 16.98a17.97 17.97 0 0 0 8.06-2.97c.98-.46 1.7.68 1.1 1.44-2.87 2.05-7.7 3.54-10.8 3.42-2.29 1.7-5.99 4.09-10.84 5.7-1.94.65-6.9 2-10.09-.15-1.66-1.08-2.02-3.27-1.78-4.46a4.99 4.99 0 0 1 2.73-3.82c1.82-.79 4.15.34 4.13 2.23-.04.53-.45 3.87-4.86 3.37.16 1.36.64 2.07 3.08 1.87 3.8-.23 7.25-2.9 10.32-5.88 4.7-4.73 6.92-10.34 9.44-16.47-7.79 4.61-16.7 9.67-20.24 11.8-.99.6-1.8-1.09-1.09-1.43 4.51-2.46 26.3-15.08 28.73-16.76.86-.6 1.82.82 1.1 1.44-1.85 1.2-5.83 3.7-5.83 3.7Zm20.04 7.99s-9.17 5.03-13.55 7.5c-1 .6-1.53-1.07-.69-1.54 9.04-5.04 16.51-9 21.45-13.31l1.88-1.6 3.79-3.46-3.21-.27c-1.47-.12-1.2-1.85.14-1.74l4.68.4 11.7-11.03 7.22.6-11.82 11 7.76.65c1.07.09.92 1.83-.15 1.74l-8.96-.74-28.08 26.78c-2.5 2.49-2.15 3.19 1.38 2.8 3.8-.35 12.04-3.85 19.78-9.4.72-.62 1.4.92.83 1.27-9.07 7.07-20.21 11.54-24.67 10.1-1.84-.56-2.32-1.28-2.6-2.92-.27-1.5.3-5.23 3.66-8.32l9.46-8.51Zm55.69 1.1 1.88-1.6 6.96.57-25.32 24.32c4.82-1.22 15.77-6.65 22.82-12 .72-.61 1.4.93.83 1.28-8.22 6.6-18.55 11-26.45 13.72l-10.8 8.27c-7.19 5.6-16.48 13.72-23.64 15.56-3.43.8-8.68.76-9.67-2.01-.76-2.22-.51-5.16 2.88-8.8 5.57-5.46 20.32-9.5 23.63-10.43l8.83-2.5L483.5 257c-5.52 3.32-15.54 8.83-20.48 6.67a5.45 5.45 0 0 1-2.99-4.7c-.24-5.13 10.09-12.77 14.43-16.45.87-.74 1.1-1.8-.11-1.9-3.08-.25-9.16 4.9-16.53 10.9-.72.61-1.85-.42-1.13-1.04 7.13-6.28 14.8-12.79 19.25-11.2 1.18.36 2.05 1.24 2.31 3.01a6.34 6.34 0 0 1-1.52 5.4c-4.17 4.78-11.45 11.45-11.45 11.45-2.81 3-.94 3.16-.27 3.21 8.47.16 21.76-8.98 34.21-19.54Zm-59.4 40.62c-2.82 3.14-3 5.41-2.57 6.66.75 2.35 5.1 1.77 7.85 1.19 6.3-1.37 13.28-9.14 18.43-14.38l5.45-5.6c-7.6 2.2-23.27 6.02-29.16 12.13Zm64.91-13.9c5.22-4.42 8.69-10.6 10.75-11.1 1.24-.3 2.03-.1 2.62.89.83 1.41.35 2.31-.56 3.59-.94 1.54-6.18 4.6-11.94 7.5-.7.34-1.3-.51-.87-.88Zm59.93-17.82s-9.17 5.03-13.55 7.5c-1 .6-1.53-1.07-.69-1.54 9.04-5.04 16.51-9 21.45-13.31l1.88-1.6 3.79-3.46-3.21-.26c-1.48-.13-1.2-1.85.14-1.74l4.68.38 11.7-11.02 7.22.6-11.83 11 7.77.65c1.07.09.92 1.83-.15 1.74l-8.96-.74-28.08 26.78c-2.5 2.49-2.15 3.19 1.38 2.8 3.8-.35 12.04-3.85 19.78-9.4.72-.62 1.4.92.84 1.27-9.08 7.07-20.22 11.54-24.68 10.1-1.84-.56-2.32-1.28-2.6-2.92-.27-1.5.3-5.23 3.66-8.32l9.46-8.51Zm14.1 16.92c-.66 1.43-.17 2.01.45 2.74 1.1 1.3 3.83.85 6.44.26 5.5-1.43 17.28-8.54 20.37-15.02 1-2.21.15-3.5-.47-4.09-1.12-1.16-3.25-1.47-5.32-.84-6.91 2.13-18.88 11.65-21.47 16.95Zm18.5-.62c-5.83 3.83-13.37 6.98-18.1 5.5-2.5-.74-3.34-1.88-3.8-4.62-.53-3.27.77-7.61 4.67-10.8 6.5-5.38 18.84-9.48 23.99-8.25 1.87.15 3.91 1.53 4.27 3.72.28 1.5-.57 3.72-.57 3.72 1.44-1.22 7.01-6.69 7.01-6.69l7.1.58-20.18 19.22c-1.9 1.86-2.18 3.6 1.52 2.82 2.46-.47 8.8-3.72 17.62-9.46.71-.48 1.54.94 1.1 1.3-10.68 7.07-18.32 11.43-22.92 10.1-1.84-.55-2.32-1.27-2.46-2.9-.19-.95-.07-2.42.76-4.24Zm48.1-15.97c-1.53 5.53 1.86 10.12-3.15 16.98a17.98 17.98 0 0 0 8.06-2.97c.98-.46 1.7.68 1.1 1.44-2.87 2.05-7.7 3.54-10.8 3.42-2.3 1.7-6 4.08-10.84 5.7-1.94.65-6.9 2-10.1-.15-1.65-1.08-2.01-3.27-1.78-4.46a4.99 4.99 0 0 1 2.74-3.82c1.82-.8 4.15.35 4.13 2.23-.05.53-.46 3.87-4.86 3.37.15 1.36.63 2.07 3.08 1.87 3.79-.23 7.24-2.9 10.32-5.88 4.7-4.73 6.91-10.34 9.44-16.47-7.8 4.61-16.7 9.67-20.24 11.8-1 .6-1.8-1.09-1.1-1.43 4.52-2.46 26.3-15.08 28.74-16.76.86-.6 1.82.82 1.1 1.44l-5.84 3.7Zm20.04 7.99s-9.17 5.03-13.55 7.5c-.99.6-1.53-1.07-.68-1.54 9.04-5.05 16.5-9 21.44-13.32l1.88-1.6 3.8-3.45-3.22-.27c-1.47-.12-1.2-1.85.15-1.74l4.68.4L691.59 235l7.22.6-11.82 11 7.76.65c1.07.09.93 1.82-.14 1.74l-8.97-.74-28.07 26.78c-2.5 2.49-2.15 3.19 1.38 2.8 3.8-.35 12.04-3.85 19.77-9.4.73-.62 1.4.92.84 1.27-9.07 7.07-20.22 11.54-24.68 10.09-1.84-.56-2.32-1.27-2.59-2.9-.28-1.51.3-5.24 3.65-8.33l9.46-8.51Zm55.7 1.1 1.87-1.6 6.96.57-25.31 24.31c4.81-1.21 15.77-6.64 22.81-11.99.73-.61 1.4.93.84 1.29-8.22 6.6-18.56 11-26.46 13.7l-10.79 8.28c-7.2 5.6-16.49 13.72-23.64 15.56-3.44.8-8.69.76-9.67-2.01-.76-2.22-.52-5.16 2.88-8.8 5.57-5.46 20.32-9.5 23.63-10.43l8.83-2.5 12.32-12.2c-5.53 3.32-15.55 8.83-20.49 6.67a5.44 5.44 0 0 1-2.98-4.7c-.25-5.13 10.08-12.77 14.43-16.45.87-.74 1.09-1.8-.12-1.9-3.07-.25-9.16 4.9-16.52 10.9-.73.61-1.85-.42-1.13-1.04 7.12-6.28 14.8-12.79 19.25-11.2 1.18.36 2.05 1.24 2.3 3.01a6.35 6.35 0 0 1-1.52 5.4c-4.16 4.78-11.45 11.45-11.45 11.45-2.8 3-.93 3.15-.26 3.21 8.47.16 21.75-8.98 34.21-19.54Zm-59.4 40.62c-2.83 3.14-3.01 5.41-2.58 6.66.75 2.35 5.11 1.77 7.85 1.19 6.31-1.37 13.29-9.14 18.43-14.38l5.45-5.61c-7.59 2.2-23.26 6.03-29.16 12.14Zm87.97-19c-.64 1.3-.19 2.27.45 2.73 1.53 1.07 3.97.87 6.45.26 5.07-1.06 13.82-4.25 21.1-9.17.7-.48 1.53.94.82 1.42-7.57 5.16-22.66 11.73-28.41 9.64-2.49-.88-3.35-1.9-3.8-4.62-.53-3.28.77-7.62 4.67-10.8 6.5-5.4 15.59-9.36 21.04-8.5 2.13.3 3.67 1.24 4.36 2.65.33.97.48 2.33-.58 3.72a4.3 4.3 0 0 1-3.53 2c-1.76.13-3.79-1.39-2.65-3.72.8-1.55 3.15-2.3 5.18-.78-1.5-2.96-4.8-2.29-6.19-1.73-9.3 3.28-16.02 11.34-18.9 16.9Zm52.48-2.68c1.86.3 4.85 0 7.64-1.25 1.12-.45 1.68.95.83 1.42-3.39 1.87-7.02 1.84-10.37 1.56-6.04 4.62-16.2 10.25-21.82 8.17-2.48-1.01-3.35-1.9-3.8-4.62-.54-3.28.76-7.62 4.66-10.8 6.51-5.39 18.98-9.48 24-8.26 1.83.56 3.5 1.64 4.13 3.71.98 2.91-2.78 7.59-5.27 10.07Zm-24.13 5.02c-.66 1.43-.16 2 .45 2.73 1.1 1.3 3.83.85 6.44.26 5.51-1.43 17.28-8.54 20.37-15.02 1-2.21.16-3.5-.47-4.08-1.11-1.17-3.24-1.48-5.32-.85-6.9 2.13-18.88 11.65-21.47 16.96Zm56.4-2.35c1.86.29 4.85 0 7.65-1.26 1.11-.44 1.67.95.82 1.42-3.38 1.88-7.02 1.84-10.36 1.57-6.04 4.62-16.2 10.25-21.83 8.16-2.48-1-3.35-1.89-3.8-4.62-.53-3.28.77-7.61 4.67-10.8 6.5-5.38 18.97-9.48 23.99-8.25 1.84.55 3.5 1.63 4.14 3.7.97 2.92-2.78 7.59-5.28 10.08Zm-24.12 5.01c-.66 1.43-.17 2 .44 2.73 1.1 1.3 3.84.86 6.45.27 5.5-1.44 17.27-8.55 20.37-15.03.99-2.2.15-3.49-.47-4.08-1.12-1.17-3.25-1.48-5.32-.84-6.91 2.12-18.88 11.64-21.47 16.95Zm107.32-56.2c-6.63.4-17.47 7.58-24.26 14.83l-15.25 16.66 10.88-4.5c10.44-4.11 31.85-15.41 32.28-23.86.03-2.02-1.89-3.26-3.65-3.13Zm-31.27 54c.85-.47 1.4.92.84 1.28-8.7 5.75-20.08 11.54-24.68 10.08-1.84-.55-2.18-1.25-2.45-2.9-.3-1.23.9-4.36 4.15-7.87 1.47-1.5 2-3.07-1.74-3.38l-3.88-.32-13.63 13.3-7.48-.76 20.82-20.5s-11.57 6.31-15.67 8.67c-.84.47-1.25-1.18-.54-1.53 9.6-5.27 20.31-11.12 23.37-13.83l1.87-1.46 21.91-20.7c9.5-9.04 21.35-15.47 28.51-15.69 3.25-.14 5.22 2.05 5.12 4.87-.26 9.68-22.9 21.14-32.65 25.05l-13.8 5.73-15.51 14.89c5.21.43 7.18-.49 12.57-3.81 2.85-1.92 5.7-3.7 8.46-4.56a8.35 8.35 0 0 1 4.08-.47c1.2.1 2.38.47 3.35 1.9.83 1.28.51 3.54-1.63 3.36-1.6-.13-2.12-2.06-1.06-3.45-3.35-1.9-7.24 2.77-11.21 5.27a30.47 30.47 0 0 1-8.5 3.47c6.23 4.42-.31 10.22-2.4 12.6 3.64 1.65 14.25-4.48 21.78-9.25Zm35.56-27.65c.9.48 3.1 3.22 3.57 4.07-.49 1.03-3.23 3.23-4.36 3.81-.75-.6-2.83-3.2-3.29-4.18.33-.64 3.25-3.37 4.08-3.7Zm-17.54 16.6 6.96.58-20.04 19.22c-2.06 2.13-2.15 3.2 1.52 2.82 3.67-.37 12.53-4.89 19.64-9.42.84-.47 1.4.92.83 1.28-9.41 6.36-20.21 11.53-24.67 10.09-1.85-.56-2.33-1.27-2.6-2.91-.27-1.5.1-4.3 3.66-8.32l4.13-4.38s-3.52 1.87-6.49 3.51c-.84.47-1.8-.96-.68-1.54 5.93-3.28 11.3-6.2 15.74-9.47l2-1.46Zm14 25.14c6.12-.57 10.78-3.15 21.97-9.77.84-.47 1.66 1.08.81 1.55-11.62 6.99-20.83 12.42-28.11 9.26-2.34-1-3.18-2.28-3.54-4.47-.64-3.69 1.89-8.2 6.37-11.87 5.23-4.55 15.26-8.57 19.2-7.3 1.44.39 2.38.46 2.87 2.66.2.96-.36 2.8-2.67 4.63a22.83 22.83 0 0 1-8.66 3.73c-2.46.47-6.03 1.25-8.76 3.32-1.86 1.33-3.49 3.08-4.02 4.65-1.25 3.67 2.65 3.72 4.55 3.61Zm10.15-18.43c-3.72 2.66-4.47 3.54-6.97 6.16 4.95-1.2 7.67-1.52 11.07-3.53 1.12-.58 3.8-2.1 3.43-4.03-.48-2.33-5.23-.3-7.53 1.4Zm35.94-2.82c-1.54 5.53 1.86 10.12-3.16 16.98a17.98 17.98 0 0 0 8.06-2.97c.98-.46 1.7.68 1.1 1.44-2.87 2.05-7.7 3.54-10.8 3.42-2.3 1.7-5.99 4.08-10.84 5.7-1.94.65-6.9 2-10.09-.16-1.66-1.08-2.02-3.26-1.79-4.46a5 5 0 0 1 2.74-3.81c1.82-.8 4.15.34 4.13 2.22-.04.54-.45 3.87-4.86 3.38.16 1.36.64 2.07 3.08 1.87 3.8-.23 7.25-2.9 10.32-5.89 4.7-4.73 6.92-10.34 9.44-16.46-7.79 4.61-16.7 9.67-20.24 11.8-.99.6-1.8-1.1-1.09-1.44 4.51-2.45 26.3-15.07 28.73-16.75.86-.6 1.82.82 1.1 1.43-1.86 1.2-5.83 3.7-5.83 3.7ZM-121.62 120.9a11.8 11.8 0 0 1 1.9-5.7 10.04 10.04 0 0 1 4.25-3.66 11.48 11.48 0 0 1 5.88-.97c2.62.21 4.8 1.09 6.55 2.63a10 10 0 0 1 3.28 5.97l-5.91-.5a4.76 4.76 0 0 0-1.72-2.25 5.2 5.2 0 0 0-2.67-.95 5.15 5.15 0 0 0-4.17 1.4 6.71 6.71 0 0 0-1.92 4.49 6.71 6.71 0 0 0 1.16 4.75 5.15 5.15 0 0 0 3.88 2.06 5.19 5.19 0 0 0 2.8-.5 4.76 4.76 0 0 0 2.06-1.95l5.9.49a10 10 0 0 1-4.2 5.35 11.14 11.14 0 0 1-6.9 1.49 11.7 11.7 0 0 1-5.64-1.9c-1.6-1.1-2.8-2.53-3.6-4.31a11.82 11.82 0 0 1-.93-5.93Zm34.37 14.2a11.65 11.65 0 0 1-5.6-1.91 11.03 11.03 0 0 1-3.8-4.37 11.5 11.5 0 0 1-1.02-5.97 11.03 11.03 0 0 1 6.44-9.38 11.66 11.66 0 0 1 5.84-.97c2.08.17 3.94.81 5.58 1.92a10.5 10.5 0 0 1 3.75 4.36c.87 1.8 1.2 3.78 1.03 5.94a11.5 11.5 0 0 1-2 5.72 10.8 10.8 0 0 1-4.41 3.7c-1.8.82-3.74 1.14-5.81.97Zm.4-4.9a5.39 5.39 0 0 0 4.36-1.4 6.67 6.67 0 0 0 1.99-4.53c.16-1.95-.25-3.55-1.22-4.79a5.38 5.38 0 0 0-4.07-2.1 5.57 5.57 0 0 0-4.42 1.37c-1.14 1.07-1.8 2.59-1.96 4.56a6.8 6.8 0 0 0 1.19 4.81 5.57 5.57 0 0 0 4.13 2.08Zm24.32 6.95a11.65 11.65 0 0 1-5.6-1.92 11.03 11.03 0 0 1-3.8-4.36 11.5 11.5 0 0 1-1.02-5.98 11.03 11.03 0 0 1 6.44-9.38 11.65 11.65 0 0 1 5.84-.97c2.08.17 3.93.81 5.57 1.92a10.51 10.51 0 0 1 3.76 4.36c.86 1.8 1.2 3.78 1.03 5.94a11.51 11.51 0 0 1-2 5.73 10.8 10.8 0 0 1-4.41 3.68c-1.8.83-3.74 1.15-5.81.98Zm.4-4.9a5.39 5.39 0 0 0 4.36-1.42 6.67 6.67 0 0 0 1.99-4.52c.16-1.95-.25-3.54-1.22-4.78a5.38 5.38 0 0 0-4.07-2.11 5.57 5.57 0 0 0-4.42 1.37c-1.14 1.07-1.8 2.59-1.96 4.56a6.8 6.8 0 0 0 1.19 4.81 5.58 5.58 0 0 0 4.13 2.09Zm26.69 6.91-6.62-10.35-.8 9.74-5.38-.44 1.83-22.07 5.37.44-.8 9.68 8.16-9.07 6.32.52-9.45 10.1 7.94 12-6.57-.55Zm16.33-20.87-1.83 22.07-5.37-.44 1.82-22.07 5.38.44Zm8.91 5.07-.36 4.47 7.2.6-.35 4.14-7.2-.6-.4 4.85 8.15.67-.36 4.31-13.52-1.12 1.82-22.07 13.52 1.12-.35 4.3-8.15-.67Zm18.14 19.6a11.38 11.38 0 0 1-4.27-1.14 7.2 7.2 0 0 1-2.9-2.58 6.44 6.44 0 0 1-.88-3.8l5.72.47c.02.82.25 1.47.7 1.95.44.46 1.05.72 1.83.79.8.06 1.44-.06 1.93-.38.5-.34.76-.84.82-1.49.04-.54-.1-1-.46-1.4a4.2 4.2 0 0 0-1.28-.98c-.5-.28-1.23-.6-2.2-.98a25 25 0 0 1-3.38-1.6 6.48 6.48 0 0 1-2.16-2.15 5.45 5.45 0 0 1-.7-3.44 5.76 5.76 0 0 1 2.63-4.63c1.59-1.05 3.57-1.48 5.96-1.28 2.44.2 4.35.95 5.74 2.25a6.22 6.22 0 0 1 1.99 5.04l-5.82-.48c.02-.72-.2-1.3-.65-1.74a2.73 2.73 0 0 0-1.8-.78 2.28 2.28 0 0 0-1.62.4c-.42.3-.66.78-.72 1.43-.06.72.23 1.3.87 1.75.64.46 1.65.97 3.04 1.55 1.39.6 2.5 1.16 3.34 1.67a6.6 6.6 0 0 1 2.17 2.11c.58.9.82 2 .71 3.32a6.3 6.3 0 0 1-1.26 3.35 6.63 6.63 0 0 1-2.97 2.22c-1.26.51-2.72.7-4.38.56Zm50.24-18.29-7.58 21.6-6.5-.54-2.33-14.82-4.85 14.23-6.5-.54-3.78-22.53 5.75.47 1.85 16.33 5.26-15.74 5.91.49L47.86 140l4.53-15.8 5.79.47Zm7.71 4.98-.36 4.46 7.2.6-.35 4.14-7.2-.59-.4 4.84 8.15.68-.36 4.3-13.52-1.11 1.82-22.08 13.52 1.12-.35 4.3-8.15-.66Zm24.47 8.5a5.13 5.13 0 0 1 2.92 2.18c.7 1.05 1 2.21.89 3.49a5.47 5.47 0 0 1-2.32 4.24c-1.36.96-3.2 1.35-5.5 1.16l-10.29-.85 1.82-22.07 9.94.82c2.24.18 3.95.84 5.12 1.97a5.1 5.1 0 0 1 1.58 4.34 5.02 5.02 0 0 1-4.16 4.72Zm-7.84-2.48 3.52.3c.89.07 1.57-.07 2.06-.4.52-.36.8-.92.87-1.68.06-.75-.13-1.35-.58-1.79-.43-.43-1.08-.69-1.96-.76l-3.53-.29-.38 4.62Zm3.24 9.13c.9.08 1.6-.06 2.12-.42.54-.38.84-.96.9-1.73.07-.78-.14-1.4-.63-1.9a3.1 3.1 0 0 0-2.05-.83l-3.9-.32-.4 4.88 3.96.32Z"/><path fill="#F4E7C9" stroke="#000" stroke-miterlimit="10" stroke-width="2.14" d="M26.95 562.71c54.23 0 98.19-43.96 98.19-98.19s-43.96-98.19-98.19-98.19-98.19 43.96-98.19 98.19 43.96 98.19 98.19 98.19Z"/><path fill="#6D492E" stroke="#000" stroke-miterlimit="10" stroke-width="2.14" d="M91.25 446.76a5.27 5.27 0 1 0 0-10.54 5.27 5.27 0 0 0 0 10.54Z"/></g><path stroke="#000" stroke-miterlimit="10" stroke-width="2.14" d="M140.97 60 526.4 91.82l-43.6 528a42.75 42.75 0 0 1-46.1 39.06L136.46 634.1A42.75 42.75 0 0 1 97.39 588l43.6-528h-.02Z"/><path fill="#BEBFC2" stroke="#000" stroke-miterlimit="10" stroke-width="2" d="M98.45 593.61c-2.19 26.5 37.31 72.96 63.81 75.15l280.36 23.15a65.98 65.98 0 0 0 71.18-60.32l43.07-521.54c2.19-26.5-31.01-77.4-57.51-79.59L290.08 95.99 98.45 593.61Z"/><path fill="#BBBBF8" d="m188.41 3.63 300.42 24.81a42.73 42.73 0 0 1 39.07 46.11l-52.12 542.22-375.14-31.42L142.3 42.7a42.73 42.73 0 0 1 46.11-39.07Z"/><path stroke="#000" stroke-miterlimit="10" stroke-width="2.14" d="m526.39 91.84-43.6 527.99a42.73 42.73 0 0 1-46.11 39.07l-300.24-24.8a42.73 42.73 0 0 1-39.07-46.11L140.97 60"/><path fill="#fff" stroke="#000" stroke-miterlimit="10" stroke-width="2" d="M489.54 28.5 188.68 3.65a42.9 42.9 0 0 0-46.29 39.23L97.32 588.66a42.9 42.9 0 0 0 39.23 46.29l300.86 24.85a42.9 42.9 0 0 0 46.29-39.23l45.07-545.78a42.9 42.9 0 0 0-39.23-46.29Zm-29.6 560.7a21 21 0 0 1-22.65 19.2L145.1 584.27a21 21 0 0 1-19.2-22.65l42.39-513.29a21 21 0 0 1 22.65-19.2l292.19 24.13a21 21 0 0 1 19.2 22.65L459.94 589.2Z"/><path fill="#221F20" stroke="#000" stroke-miterlimit="10" stroke-width="1.82" d="M338.61 62.71a5.25 5.25 0 1 0 0-10.5 5.25 5.25 0 0 0 0 10.5Z"/><path fill="#fff" stroke="#000" stroke-miterlimit="10" stroke-width="2" d="m486.54 64.42-3.01-.25.02-.28a2.41 2.41 0 0 0-2.2-2.6l-23.19-1.91a2.42 2.42 0 0 0-2.6 2.2l-.85 10.25a2.42 2.42 0 0 0 2.2 2.6l23.19 1.91a2.42 2.42 0 0 0 2.6-2.2l.02-.28 3.01.25c1.07.09 2-.71 2.09-1.77l.48-5.84c.09-1.07-.71-2-1.77-2.09l.01.01Z"/><path fill="#A4D897" d="m479.38 73.71-21.39-1.73a.58.58 0 0 1-.52-.61l.73-8.87c.03-.31.3-.54.61-.52l21.39 1.73-.83 10h.01Z"/><path stroke="#000" stroke-miterlimit="10" stroke-width="2" d="m201.85 41.65-20.05-1.66M198.86 45.92l-14.82-1.23M196.63 50.25l-11.09-.92M192.89 54.45l-4.36-.36"/><path fill="#000" d="m219.04 46.65-5.38-.44-.24 2.84c.26-.27.61-.47 1.06-.61.45-.16.91-.21 1.4-.17.89.07 1.6.32 2.13.76.53.43.9.97 1.1 1.6.21.62.29 1.27.23 1.96a4.31 4.31 0 0 1-1.35 2.98c-.79.72-1.85 1.02-3.19.9a4.57 4.57 0 0 1-2.95-1.19 3.57 3.57 0 0 1-1.07-2.58l2.26.19c.06.45.25.82.58 1.12.33.29.77.46 1.3.5.66.06 1.17-.1 1.54-.49.36-.38.58-.91.63-1.59.06-.68-.07-1.22-.38-1.6-.3-.4-.78-.62-1.44-.67a1.9 1.9 0 0 0-1.2.25c-.32.2-.57.5-.73.88l-2.23-.19.59-7.11 7.51.62-.17 2.04Zm10.74 2.9a2.72 2.72 0 0 0-1.01-1.2c-.44-.3-.98-.47-1.6-.52a3.57 3.57 0 0 0-1.86.31c-.56.27-1.01.68-1.36 1.23-.35.55-.55 1.2-.61 1.96-.07.77.03 1.46.28 2.06.26.6.65 1.08 1.17 1.44.52.35 1.13.56 1.85.62.89.07 1.64-.1 2.24-.52a3.42 3.42 0 0 0 1.28-1.89l-4-.33.15-1.77 6.29.52-.17 2.02a5.71 5.71 0 0 1-6.04 4.05 6.24 6.24 0 0 1-2.98-1 5.66 5.66 0 0 1-2.47-5.4 6.1 6.1 0 0 1 1.02-3 5.5 5.5 0 0 1 2.3-1.93 6.1 6.1 0 0 1 3.09-.52c1.3.11 2.42.53 3.33 1.25.91.7 1.5 1.66 1.77 2.84l-2.67-.22Z"/><path fill="#FFDCC4" stroke="#000" stroke-miterlimit="10" stroke-width="2" d="m522.7 340.18-29.03 24.6a33.78 33.78 0 1 0 43.68 51.54l29.03-24.6a33.78 33.78 0 1 0-43.68-51.54ZM525.11 246.08l-29.02 24.6a33.78 33.78 0 0 0 43.68 51.54l29.02-24.6a33.78 33.78 0 1 0-43.68-51.54Z"/><path fill="#FD5907" stroke="#000" stroke-miterlimit="10" stroke-width="2" d="M502.13 330.28c-11.96-1.37-20.92-11.52-19.93-23.51 0 0 .19-8.23 8.66-15.18 2.91-2.39 15.97-11.18 17.62-12.41a5.1 5.1 0 0 1 7.17 1.07l19.74 26.8a5.12 5.12 0 0 1-1.16 7.21l-19.7 13.35s-4.69 3.56-12.41 2.68l.01-.01Z"/><path fill="#FFDCC4" d="m123.83 222.67 7.55 8.61a65.36 65.36 0 0 1 17.68 69.16L102.37 431.6"/><path stroke="#000" stroke-miterlimit="10" stroke-width="2" d="m123.83 222.67 7.55 8.61a65.36 65.36 0 0 1 17.68 69.16L102.37 431.6"/><path fill="#FD5907" d="M118.47 221.55a4.54 4.54 0 0 1 6.8-1.37l1.33 1.06a6.22 6.22 0 0 1 1.84 7.36c-5.86 13.33-24.18 52-37.64 46.94a1.53 1.53 0 0 1-.76-2.15"/><path stroke="#000" stroke-miterlimit="10" stroke-width="2" d="M118.47 221.55a4.54 4.54 0 0 1 6.8-1.37l1.33 1.06a6.22 6.22 0 0 1 1.84 7.36c-5.86 13.33-24.18 52-37.64 46.94a1.53 1.53 0 0 1-.76-2.15M90.05 273.38l28.42-51.83"/><path fill="#F6BA22" stroke="#000" stroke-miterlimit="10" stroke-width="2" d="m255.19 89.64-49.05-3.93a12.98 12.98 0 0 0-13.98 11.9l-3.93 49.05a12.98 12.98 0 0 0 11.9 13.98l49.06 3.93c7.14.57 13.4-4.76 13.97-11.9l3.93-49.06a12.98 12.98 0 0 0-11.9-13.97Z"/><path fill="#fff" d="m298.3 106.09-3.93 49.05a12.98 12.98 0 0 0 11.9 13.97l49.06 3.93c7.14.58 13.4-4.75 13.97-11.9l3.93-49.05a12.98 12.98 0 0 0-11.9-13.98l-49.05-3.93a12.98 12.98 0 0 0-13.98 11.9Z"/><path stroke="#000" stroke-miterlimit="10" stroke-width="2" d="m298.3 106.09-3.93 49.05a12.98 12.98 0 0 0 11.9 13.97l49.06 3.93c7.14.58 13.4-4.75 13.97-11.9l3.93-49.05a12.98 12.98 0 0 0-11.9-13.98l-49.05-3.93a12.98 12.98 0 0 0-13.98 11.9Z"/><path fill="#F29462" stroke="#000" stroke-miterlimit="10" stroke-width="2" d="m467.4 106.64-49.06-3.93a12.98 12.98 0 0 0-13.97 11.9l-3.93 49.05a12.98 12.98 0 0 0 11.9 13.98l49.05 3.93c7.15.57 13.4-4.76 13.98-11.9l3.93-49.06a12.98 12.98 0 0 0-11.9-13.97Z"/><path fill="#000" d="M206.06 172.4c-.02.36-.14.68-.33.98-.2.3-.48.53-.85.69-.37.16-.83.22-1.38.18l-1.11-.1-.2 2.56-1.34-.1.53-6.65 2.45.2c.51.03.94.16 1.3.36.34.21.59.48.74.8.16.33.23.69.2 1.08Zm-2.53.77c.37.03.65-.04.84-.19.2-.15.3-.38.32-.69.06-.65-.28-1-1-1.06l-1.06-.08-.16 1.93 1.06.09Zm4.26-1.95a.84.84 0 0 1-.57-.27.77.77 0 0 1-.19-.58c.02-.22.11-.4.28-.53.17-.14.37-.2.6-.18.24.02.43.1.57.27.15.16.21.35.2.57a.76.76 0 0 1-.29.54.81.81 0 0 1-.6.18Zm.6.68-.41 5.27-1.34-.1.43-5.28 1.33.1Zm.77 2.71c.04-.54.2-1.01.45-1.4.25-.4.59-.69 1-.88.41-.2.87-.27 1.38-.23a2.36 2.36 0 0 1 2.34 2.06l-1.44-.11a1.08 1.08 0 0 0-1-.82 1.1 1.1 0 0 0-.94.35c-.24.25-.39.63-.43 1.14-.04.5.04.9.24 1.2.2.29.5.45.87.48.54.04.91-.17 1.12-.64l1.44.12c-.2.56-.52.99-.98 1.29-.46.3-1.01.43-1.66.37a2.7 2.7 0 0 1-1.32-.44c-.38-.26-.66-.6-.85-1.02a3 3 0 0 1-.22-1.47Zm8.98 3.38-1.6-2.4-.19 2.25-1.33-.1.56-7.05 1.34.1-.32 4.02 1.94-2.1 1.74.14-2.54 2.46 2.13 2.81-1.73-.13Zm4.34-6.75-.57 7.05-1.33-.1.56-7.05 1.34.1Zm5.87 4.8c-.01.19-.04.36-.08.5l-3.85-.3c0 .38.1.69.32.92.22.24.5.37.84.4.5.04.87-.15 1.11-.56l1.44.12a2.44 2.44 0 0 1-2.6 1.54c-.51-.04-.96-.18-1.35-.44-.38-.26-.67-.6-.87-1.04a2.98 2.98 0 0 1-.21-1.45 3 3 0 0 1 .44-1.41c.26-.4.6-.69 1.01-.88a2.8 2.8 0 0 1 1.41-.22c.5.04.94.18 1.32.43.38.25.66.58.85 1 .19.4.26.87.22 1.38Zm-1.35-.5c.02-.34-.08-.62-.3-.84a1.31 1.31 0 0 0-.86-.39c-.34-.03-.62.05-.87.24-.23.18-.4.44-.47.8l2.5.2Zm3.8-1.07c.19-.24.44-.43.75-.56.32-.14.67-.19 1.06-.16a2.3 2.3 0 0 1 1.98 1.45 3 3 0 0 1 .2 1.45 3.1 3.1 0 0 1-.43 1.4c-.24.4-.56.7-.94.9-.38.2-.8.28-1.25.25-.4-.03-.73-.14-1.02-.31-.28-.19-.5-.4-.65-.67l-.06.75-1.34-.1.57-7.05 1.33.1-.2 2.55Zm2.64 2.07a1.6 1.6 0 0 0-.14-.84 1.35 1.35 0 0 0-1.84-.68c-.22.11-.4.28-.56.5-.14.23-.23.5-.25.81-.03.32.01.6.12.85.11.24.27.44.47.58a1.38 1.38 0 0 0 1.37.1c.23-.1.41-.28.56-.5.15-.22.24-.5.27-.82Zm1.98.16c.05-.53.19-1 .43-1.4.25-.4.56-.69.94-.88.4-.2.8-.27 1.26-.23a2.14 2.14 0 0 1 1.67.97l.06-.75 1.35.11-.43 5.27-1.34-.1.06-.78c-.19.24-.44.43-.76.57a2.2 2.2 0 0 1-1.06.15 2.28 2.28 0 0 1-1.19-.44c-.34-.26-.6-.6-.79-1.03a3.2 3.2 0 0 1-.2-1.46Zm4.15.35c.03-.32-.01-.6-.12-.84a1.3 1.3 0 0 0-.47-.58 1.37 1.37 0 0 0-1.94.37c-.14.22-.23.49-.25.8-.03.32.01.6.12.86.11.25.27.44.47.58.2.15.43.23.67.25.25.02.48-.02.7-.13.24-.1.42-.27.57-.49.14-.22.23-.5.25-.82Zm4.33-4.09-.56 7.04-1.33-.1.56-7.05 1.33.11Zm2.65.21-.56 7.05-1.33-.11.56-7.04 1.33.1ZM320.2 182.72c.37.1.67.32.88.64.22.32.31.68.28 1.08a1.7 1.7 0 0 1-.34.92c-.2.25-.46.44-.8.57-.35.12-.74.17-1.2.13l-2.86-.23.53-6.64 2.75.22c.44.03.83.14 1.14.3.32.18.55.4.7.68.14.27.2.57.18.9-.03.39-.16.7-.4.95-.22.24-.5.4-.86.48Zm-2.4-.69 1.22.1c.32.03.57-.02.75-.15a.77.77 0 0 0 .31-.6.78.78 0 0 0-.2-.64 1.1 1.1 0 0 0-.72-.27l-1.22-.1-.13 1.66Zm1.12 2.93c.33.03.58-.03.77-.17a.8.8 0 0 0 .33-.62.82.82 0 0 0-.23-.7 1.14 1.14 0 0 0-.75-.3l-1.32-.1-.14 1.78 1.34.11Zm5.05-2.99c.2-.26.43-.46.72-.6.29-.14.61-.2.97-.16l-.12 1.4-.35-.03c-.42-.04-.74.04-.97.22-.23.18-.36.51-.4 1l-.2 2.63-1.34-.1.42-5.28 1.33.1-.06.82Zm2.03 1.98c.04-.54.18-1 .42-1.4a2.34 2.34 0 0 1 2.2-1.12 2.13 2.13 0 0 1 1.68.98l.06-.75 1.34.1-.42 5.28-1.35-.1.07-.78c-.2.24-.45.42-.77.56-.3.14-.66.2-1.05.16a2.28 2.28 0 0 1-1.98-1.47 3.17 3.17 0 0 1-.2-1.46Zm4.15.35a1.7 1.7 0 0 0-.13-.85c-.1-.24-.26-.43-.47-.57a1.35 1.35 0 0 0-1.94.37c-.14.22-.23.49-.25.8-.03.32.01.6.12.86.12.24.27.44.47.58.2.15.43.23.67.25.25.02.49-.03.71-.13.23-.1.41-.27.56-.49.14-.22.23-.5.26-.82Zm4.73 1.8 1.65-3.94 1.42.1-2.37 5.13-1.62-.13-1.52-5.43 1.43.11 1 4.16Zm8.52-.86c-.01.2-.04.36-.08.51l-3.86-.3c0 .38.12.69.33.92.22.24.5.37.84.4.5.04.87-.15 1.11-.56l1.44.12a2.43 2.43 0 0 1-2.6 1.54c-.51-.04-.96-.19-1.35-.44-.38-.26-.67-.6-.87-1.04a2.98 2.98 0 0 1-.22-1.45 3 3 0 0 1 .45-1.41c.26-.4.6-.69 1.01-.88.42-.19.89-.26 1.41-.22.5.04.94.18 1.32.43.38.25.66.58.85 1 .19.4.26.87.22 1.38Zm-1.35-.49c.02-.34-.08-.62-.3-.84a1.3 1.3 0 0 0-.87-.39c-.33-.03-.61.05-.86.24-.24.18-.4.44-.47.8l2.5.2ZM416 190.47a3.5 3.5 0 0 1 .58-1.71c.34-.5.78-.87 1.3-1.11a3.44 3.44 0 0 1 1.77-.3c.74.05 1.37.3 1.9.72a3 3 0 0 1 1.05 1.68l-1.54-.13a1.59 1.59 0 0 0-.59-.76 1.87 1.87 0 0 0-.93-.32c-.39-.03-.74.04-1.06.2-.31.15-.57.38-.76.7-.2.32-.3.7-.35 1.14-.03.44.02.83.16 1.18s.36.62.64.83c.3.2.63.32 1.02.35a1.65 1.65 0 0 0 1.68-.83l1.53.12a3 3 0 0 1-1.3 1.5 3.4 3.4 0 0 1-2 .4 3.27 3.27 0 0 1-3.1-3.66Zm9.7 4.22c-.5-.04-.95-.19-1.34-.44a2.5 2.5 0 0 1-.89-1.04c-.2-.43-.27-.92-.22-1.46.04-.54.2-1 .46-1.4.28-.39.63-.68 1.06-.87.43-.2.9-.27 1.4-.23.51.04.97.19 1.36.45.4.26.7.6.9 1.03.2.43.28.92.24 1.46-.04.54-.2 1-.48 1.4-.28.39-.63.68-1.07.88-.43.19-.9.26-1.42.22Zm.1-1.16c.24.02.47-.02.69-.12.22-.1.4-.27.55-.5.15-.22.23-.5.26-.83.04-.5-.06-.9-.3-1.19-.25-.29-.55-.45-.94-.48-.38-.03-.7.08-.99.33-.27.25-.43.62-.47 1.12-.04.5.05.9.28 1.2.23.28.54.44.92.47Zm5.97 1.65c-.5-.05-.95-.2-1.34-.45a2.5 2.5 0 0 1-.88-1.03 2.9 2.9 0 0 1-.23-1.46c.04-.54.2-1 .46-1.4.28-.4.63-.69 1.06-.87.43-.2.9-.28 1.4-.24.51.05.97.2 1.36.46.4.25.7.6.9 1.03.2.43.29.91.24 1.45-.04.54-.2 1-.48 1.4-.28.4-.63.69-1.07.88-.43.2-.9.27-1.42.23Zm.1-1.17c.24.02.47-.01.69-.11.22-.1.4-.27.55-.5.15-.22.24-.5.26-.84.04-.5-.06-.9-.3-1.18-.24-.3-.55-.46-.93-.49-.38-.03-.72.08-1 .34-.27.24-.43.62-.47 1.12-.04.5.05.9.28 1.19.23.29.54.44.92.47Zm6.76 1.63-1.6-2.4-.19 2.26-1.33-.11.56-7.04 1.34.1-.33 4 1.96-2.09 1.73.14-2.54 2.46 2.13 2.82-1.73-.14Zm3.59-5.65a.84.84 0 0 1-.58-.27.76.76 0 0 1-.18-.58c.02-.22.1-.4.27-.53.17-.14.38-.2.61-.19.24.02.42.12.56.28.15.16.22.35.2.57a.75.75 0 0 1-.29.54.81.81 0 0 1-.6.18Zm.6.68-.42 5.27-1.33-.1.42-5.28 1.33.1Zm4.25.26c.63.05 1.12.3 1.47.72.36.43.5 1 .45 1.7l-.25 3.1-1.33-.1.23-2.92c.04-.42-.04-.75-.23-.99-.2-.24-.47-.38-.83-.4-.37-.04-.67.05-.9.26-.23.21-.36.52-.4.94l-.23 2.91-1.33-.1.42-5.28 1.33.11-.05.66c.2-.22.44-.38.72-.48.29-.11.6-.16.93-.13Zm5.44.43c.39.03.73.13 1.01.32.3.17.51.4.66.65l.06-.75 1.34.11-.42 5.31c-.04.49-.17.92-.4 1.28-.23.37-.55.65-.96.84-.41.2-.9.28-1.45.23a3.09 3.09 0 0 1-1.81-.67 1.95 1.95 0 0 1-.7-1.5l1.33.11c.05.25.18.45.4.61.22.17.5.26.83.29.39.03.71-.06.97-.28.26-.2.4-.55.45-1.02l.06-.81a2.1 2.1 0 0 1-1.81.73 2.28 2.28 0 0 1-1.2-.45c-.34-.26-.6-.6-.79-1.03a3.2 3.2 0 0 1-.2-1.46c.04-.54.19-1 .43-1.4.25-.4.56-.69.94-.88.39-.2.8-.27 1.26-.23Zm1.52 2.86c.03-.32-.01-.6-.12-.84a1.3 1.3 0 0 0-.48-.58 1.35 1.35 0 0 0-1.94.37c-.14.22-.22.49-.25.8-.02.32.02.6.13.86.11.24.27.44.47.58.2.15.43.23.67.25a1.38 1.38 0 0 0 1.27-.62c.14-.22.23-.5.25-.82Z"/><path fill="#A4D897" stroke="#000" stroke-miterlimit="10" stroke-width="2" d="m246.27 201.05-49.05-3.93a12.98 12.98 0 0 0-13.97 11.9l-3.94 49.05a12.98 12.98 0 0 0 11.9 13.98l49.06 3.93c7.15.57 13.4-4.76 13.97-11.9l3.94-49.06a12.98 12.98 0 0 0-11.9-13.97Z"/><path fill="#FF5A63" d="m395.48 226-3.93 49.06a12.98 12.98 0 0 0 11.9 13.97l49.05 3.93c7.15.57 13.4-4.76 13.98-11.9L470.4 232a12.98 12.98 0 0 0-11.9-13.97l-49.06-3.93a12.98 12.98 0 0 0-13.97 11.9Z"/><path stroke="#000" stroke-miterlimit="10" stroke-width="2" d="m395.48 226-3.93 49.06a12.98 12.98 0 0 0 11.9 13.97l49.05 3.93c7.15.57 13.4-4.76 13.98-11.9L470.4 232a12.98 12.98 0 0 0-11.9-13.97l-49.06-3.93a12.98 12.98 0 0 0-13.97 11.9Z"/><path fill="#000" d="M205.55 285.75a3.5 3.5 0 0 1 .58-1.71c.34-.5.78-.87 1.3-1.12a3.44 3.44 0 0 1 1.77-.3c.74.06 1.37.3 1.9.73a3 3 0 0 1 1.05 1.68l-1.54-.13a1.59 1.59 0 0 0-.59-.76 1.86 1.86 0 0 0-.93-.32c-.39-.03-.74.04-1.06.2-.31.15-.57.38-.76.7-.2.32-.3.7-.34 1.14-.04.44.01.83.15 1.18.14.35.36.62.64.83.3.2.63.32 1.02.35a1.65 1.65 0 0 0 1.68-.83l1.53.12a3 3 0 0 1-1.3 1.5 3.4 3.4 0 0 1-2 .4 3.27 3.27 0 0 1-3.1-3.66Zm7.24 1.26c.04-.53.18-1 .43-1.39.25-.4.56-.69.94-.88.38-.2.8-.27 1.25-.24a2.13 2.13 0 0 1 1.68.98l.06-.75 1.34.1-.42 5.28-1.34-.1.06-.78c-.2.23-.45.42-.77.56-.3.14-.66.19-1.05.16a2.28 2.28 0 0 1-1.98-1.47 3.18 3.18 0 0 1-.2-1.47Zm4.15.36c.02-.33-.02-.61-.13-.85a1.36 1.36 0 0 0-1.85-.7c-.22.11-.4.28-.56.5-.14.22-.22.49-.25.8-.03.32.01.6.12.86.12.24.27.44.47.58a1.41 1.41 0 0 0 1.38.12c.23-.11.41-.28.56-.5.14-.22.23-.5.26-.81Zm4.33-4.1-.57 7.05-1.33-.1.56-7.05 1.34.1Zm2.65.22-.57 7.04-1.33-.1.56-7.05 1.34.1ZM309.76 290.77l-2.38 6.5-1.57-.13-.87-4.83-1.69 4.62-1.56-.11-1.25-6.8 1.42.12.76 5.25 1.77-5.05 1.48.12.87 5.23 1.59-5.04 1.44.12Zm5.47 4.35a3.2 3.2 0 0 1-.08.51l-3.86-.3c0 .38.11.69.33.92.22.24.5.37.84.4.5.04.86-.15 1.1-.56l1.44.12a2.43 2.43 0 0 1-2.6 1.54 2.47 2.47 0 0 1-2.21-1.48 2.98 2.98 0 0 1-.22-1.45 3 3 0 0 1 .45-1.41c.25-.4.6-.69 1-.88.43-.19.9-.26 1.42-.22.5.04.94.18 1.31.43.39.25.67.58.85 1 .2.4.27.87.23 1.38Zm-1.35-.49c.02-.34-.08-.62-.31-.85a1.3 1.3 0 0 0-.86-.38c-.33-.03-.62.05-.86.24-.24.18-.4.44-.48.8l2.5.2Zm1.97.64c.04-.53.18-1 .43-1.4.25-.39.56-.68.94-.88.38-.19.8-.27 1.25-.23a2.12 2.12 0 0 1 1.68.98l.06-.76 1.34.11-.42 5.28-1.34-.11.06-.77c-.2.23-.45.42-.77.56-.3.13-.66.19-1.05.15a2.26 2.26 0 0 1-1.2-.44c-.34-.25-.6-.6-.78-1.03a3.18 3.18 0 0 1-.2-1.46Zm4.15.35c.02-.32-.02-.6-.13-.84a1.3 1.3 0 0 0-.47-.58c-.2-.14-.43-.22-.68-.24a1.35 1.35 0 0 0-1.25.62c-.15.21-.24.48-.26.8-.03.32.02.6.12.85.12.25.27.44.47.58.2.15.43.23.67.25a1.38 1.38 0 0 0 1.27-.62c.15-.22.23-.5.26-.82Zm4.32-1.2-.2 2.55c-.02.17 0 .3.08.4.09.08.23.13.43.15l.62.05-.09 1.12-.84-.07c-1.12-.09-1.64-.68-1.55-1.77l.2-2.54-.62-.05.08-1.1.63.05.1-1.3 1.35.1-.1 1.31 1.17.1-.08 1.09-1.18-.1Zm5.2-.77c.4.04.75.15 1.04.36.3.2.52.47.67.82.15.36.2.77.16 1.24l-.24 3.1-1.34-.1.24-2.92c.03-.42-.05-.75-.24-.99a1.1 1.1 0 0 0-.83-.41c-.37-.03-.67.06-.9.27-.23.2-.36.52-.4.94l-.23 2.91-1.33-.1.56-7.05 1.34.1-.2 2.44c.2-.22.44-.38.73-.48.3-.11.62-.15.97-.13Zm8.02 3.26c-.02.2-.04.36-.08.51l-3.86-.3a1.23 1.23 0 0 0 1.17 1.32c.5.03.87-.15 1.1-.56l1.45.12a2.44 2.44 0 0 1-2.6 1.54c-.52-.04-.97-.19-1.35-.44-.38-.26-.67-.6-.87-1.04a2.98 2.98 0 0 1-.22-1.45 3 3 0 0 1 .45-1.42c.26-.39.6-.68 1.01-.87a2.8 2.8 0 0 1 1.4-.22c.5.03.95.18 1.32.43.39.24.67.58.85 1 .2.4.27.87.23 1.38Zm-1.35-.49c.02-.34-.08-.63-.3-.85a1.31 1.31 0 0 0-.87-.38c-.33-.03-.62.05-.86.23s-.4.45-.48.8l2.5.2Zm3.79-1.03c.2-.26.43-.46.72-.6.29-.14.61-.2.97-.16l-.11 1.4-.36-.03c-.41-.04-.74.04-.97.22-.23.18-.36.51-.4 1l-.2 2.63-1.34-.11.42-5.27 1.34.1-.07.82ZM420.8 299.66l-2.38 6.5-1.57-.13-.87-4.83-1.69 4.62-1.56-.11-1.25-6.8 1.42.11.76 5.26 1.77-5.05 1.48.12.87 5.23 1.59-5.04 1.44.12Zm.21 4.03c.05-.53.19-1 .43-1.4.25-.39.56-.68.94-.88.39-.19.8-.27 1.26-.23a2.13 2.13 0 0 1 1.67.98l.06-.76 1.34.11-.42 5.28-1.34-.11.06-.77c-.19.23-.44.42-.76.56-.31.13-.66.18-1.06.15a2.28 2.28 0 0 1-1.98-1.47 3.19 3.19 0 0 1-.2-1.46Zm4.15.35c.03-.32-.01-.6-.12-.84a1.3 1.3 0 0 0-.47-.58c-.2-.14-.44-.22-.68-.24a1.35 1.35 0 0 0-1.26.62c-.14.21-.23.48-.26.8-.02.31.02.6.13.85s.27.44.47.59a1.41 1.41 0 0 0 1.38.12c.22-.12.4-.28.56-.5.14-.22.23-.5.25-.82Zm4.32-1.2-.2 2.55c-.02.17.01.3.09.4.08.08.23.13.43.14l.62.06-.1 1.12-.83-.07c-1.12-.09-1.64-.68-1.56-1.77l.2-2.54-.62-.05.09-1.1.63.05.1-1.3 1.34.1-.1 1.31 1.18.1-.09 1.09-1.18-.1Zm1.67 1.68c.05-.54.2-1.01.45-1.4.26-.4.59-.69 1-.88.41-.2.87-.27 1.38-.23a2.36 2.36 0 0 1 2.33 2.06l-1.43-.11a1.08 1.08 0 0 0-1-.82 1.1 1.1 0 0 0-.94.35c-.24.25-.38.63-.43 1.14-.03.5.05.9.25 1.2.2.29.49.45.87.48.54.04.9-.17 1.11-.64l1.44.12c-.2.56-.52.98-.98 1.29-.46.3-1 .42-1.66.37-.5-.04-.94-.19-1.32-.44-.38-.26-.66-.6-.85-1.02a3 3 0 0 1-.22-1.47Zm9.26-1.99c.4.03.75.15 1.04.35.3.2.52.48.67.83.15.35.2.77.17 1.24l-.25 3.1-1.34-.11.24-2.91c.03-.42-.05-.75-.24-.99-.19-.25-.47-.38-.83-.41-.37-.03-.67.06-.9.27-.23.2-.36.52-.4.94l-.22 2.91-1.34-.1.57-7.05 1.33.1-.2 2.43c.2-.21.44-.37.73-.48.3-.1.62-.15.97-.12Z"/><path fill="silver" stroke="#000" stroke-miterlimit="10" stroke-width="2" d="m237.34 312.46-49.05-3.93a12.98 12.98 0 0 0-13.97 11.9l-3.93 49.06a12.98 12.98 0 0 0 11.9 13.97l49.05 3.93c7.15.57 13.4-4.76 13.98-11.9l3.93-49.06a12.98 12.98 0 0 0-11.9-13.97Z"/><path fill="#906243" stroke="#000" stroke-miterlimit="10" stroke-width="2" d="m343.45 320.95-49.06-3.92a12.98 12.98 0 0 0-13.97 11.9l-3.93 49.05a12.98 12.98 0 0 0 11.9 13.98l49.06 3.93c7.14.57 13.4-4.76 13.97-11.9l3.93-49.06a12.98 12.98 0 0 0-11.9-13.98Z"/><path fill="#000" d="m183.53 399.48-1.26-2.71-.63-.05-.2 2.59-1.34-.1.53-6.65 2.5.2c.51.04.94.17 1.29.38a1.95 1.95 0 0 1 .94 1.85 2 2 0 0 1-.47 1.15c-.28.33-.68.55-1.2.64l1.38 2.82-1.54-.12Zm-1.8-3.76 1.1.09c.37.03.64-.04.83-.2a1 1 0 0 0 .33-.7c.02-.31-.05-.55-.21-.73-.16-.19-.43-.3-.79-.32l-1.11-.1-.16 1.96Zm9.6 1.61c-.02.2-.05.36-.09.51l-3.85-.3a1.23 1.23 0 0 0 1.17 1.32c.5.03.86-.15 1.1-.56l1.44.12a2.44 2.44 0 0 1-2.6 1.54c-.51-.04-.96-.19-1.35-.44-.38-.26-.67-.6-.86-1.04a2.98 2.98 0 0 1-.22-1.46 3 3 0 0 1 .45-1.4c.25-.4.59-.7 1-.88a2.8 2.8 0 0 1 1.41-.23c.5.05.94.19 1.32.44.38.24.66.58.85 1 .19.4.26.87.22 1.38Zm-1.36-.49c.02-.34-.08-.63-.3-.85a1.31 1.31 0 0 0-.86-.38c-.33-.03-.62.05-.87.23-.23.18-.4.45-.47.8l2.5.2Zm9.08-1.5c.65.05 1.15.29 1.52.72.36.43.52 1 .46 1.7l-.25 3.1-1.33-.1.24-2.92c.03-.41-.05-.74-.24-.97-.2-.24-.47-.37-.83-.4-.37-.03-.66.06-.9.26-.22.2-.35.5-.39.92l-.23 2.91-1.33-.1.23-2.92c.03-.4-.04-.73-.24-.96-.19-.24-.47-.38-.83-.4-.37-.04-.67.05-.9.26-.23.2-.36.5-.39.91l-.23 2.92-1.34-.11.43-5.27 1.33.1-.05.64c.19-.2.42-.36.7-.47a2.27 2.27 0 0 1 2 .24c.3.2.53.46.68.8.2-.3.47-.52.8-.67.35-.16.71-.23 1.1-.2Zm4.15-.23a.84.84 0 0 1-.57-.26.77.77 0 0 1-.19-.59c.02-.22.11-.4.28-.53.17-.14.37-.2.6-.18a.8.8 0 0 1 .57.27c.14.16.2.35.19.58a.75.75 0 0 1-.28.54.8.8 0 0 1-.6.17Zm.6.68-.42 5.28-1.33-.11.42-5.27 1.34.1Zm4.25.27c.63.05 1.12.29 1.47.72.36.42.51.99.45 1.7l-.24 3.1-1.34-.11.24-2.92c.03-.41-.05-.74-.24-.98a1.1 1.1 0 0 0-.83-.41c-.37-.03-.67.06-.9.27-.23.2-.36.52-.4.94l-.23 2.9-1.33-.1.42-5.27 1.33.1-.05.66c.2-.21.44-.37.72-.48.29-.1.6-.15.93-.12Zm2.81 2.93c.05-.53.19-1 .43-1.4a2.34 2.34 0 0 1 3.17-.8c.3.17.53.39.7.65l.2-2.5 1.35.1-.57 7.05-1.35-.11.06-.78c-.18.25-.43.44-.74.57-.31.14-.67.19-1.06.16a2.28 2.28 0 0 1-1.19-.44c-.35-.26-.62-.6-.8-1.04a3.18 3.18 0 0 1-.2-1.46Zm4.15.35c.03-.32-.01-.6-.12-.84a1.36 1.36 0 0 0-1.85-.7c-.22.11-.4.27-.56.5-.14.22-.23.48-.26.8-.02.32.02.6.13.85s.27.44.47.59a1.4 1.4 0 0 0 1.38.12c.22-.11.4-.27.55-.5.15-.22.24-.5.26-.82Zm7.56.5c-.02.19-.04.36-.08.5l-3.86-.3a1.23 1.23 0 0 0 1.17 1.32c.5.04.87-.15 1.1-.56l1.45.12a2.44 2.44 0 0 1-2.6 1.54c-.52-.04-.96-.19-1.35-.44-.38-.26-.67-.6-.87-1.04a2.98 2.98 0 0 1-.22-1.45 3 3 0 0 1 .45-1.41c.26-.4.6-.69 1.01-.88a2.8 2.8 0 0 1 1.4-.22c.5.04.95.18 1.32.43.39.25.67.58.85 1 .2.4.27.87.23 1.38Zm-1.35-.5c.02-.34-.08-.62-.3-.85a1.31 1.31 0 0 0-.87-.38c-.33-.03-.62.05-.86.24-.24.18-.4.44-.48.8l2.5.2Zm3.79-1.02c.2-.27.43-.47.72-.6.29-.15.61-.2.97-.17l-.11 1.4-.35-.03c-.42-.03-.75.04-.98.22-.23.18-.36.51-.4 1l-.2 2.63-1.34-.1.42-5.28 1.33.1-.06.82Zm4.17 4.9a2.84 2.84 0 0 1-1.14-.32 2.14 2.14 0 0 1-.77-.7 1.63 1.63 0 0 1-.25-.92l1.34.11c0 .2.1.38.25.53.17.15.38.23.64.25a1 1 0 0 0 .6-.1.46.46 0 0 0 .26-.38c.01-.17-.07-.3-.24-.4a4.4 4.4 0 0 0-.8-.35c-.39-.13-.7-.25-.95-.37-.24-.13-.44-.3-.61-.52a1.27 1.27 0 0 1-.2-.87c.02-.3.13-.55.31-.78.2-.23.45-.4.77-.51.33-.12.7-.16 1.13-.12.63.05 1.12.25 1.47.6.35.33.52.77.51 1.3l-1.27-.1a.67.67 0 0 0-.23-.51.94.94 0 0 0-.6-.24 1 1 0 0 0-.57.09c-.14.08-.21.2-.22.35-.02.18.06.32.23.44.17.1.44.21.8.34.38.12.69.25.92.37.24.12.44.3.6.52.17.23.24.52.22.87-.02.3-.13.57-.32.8-.18.22-.44.4-.77.5-.32.11-.7.15-1.11.12ZM301.63 407.66l-2.65-.21-.54 1.23-1.4-.11 2.92-6.46 1.56.12 1.85 6.85-1.4-.12-.34-1.3Zm-.28-1.1-.74-2.85-1.18 2.7 1.92.16Zm4.81-4.35-.56 7.04-1.34-.1.57-7.05 1.33.1Zm.63 4.47c.04-.54.18-1 .42-1.4.25-.4.56-.69.94-.88.4-.2.8-.27 1.26-.23a2.14 2.14 0 0 1 1.67.97l.06-.75 1.35.1-.43 5.28-1.34-.1.06-.78c-.19.24-.44.42-.76.56-.31.14-.66.2-1.06.16a2.28 2.28 0 0 1-1.98-1.47 3.17 3.17 0 0 1-.2-1.46Zm4.14.35a1.7 1.7 0 0 0-.12-.85c-.1-.24-.27-.43-.47-.57a1.35 1.35 0 0 0-1.94.37c-.14.22-.23.49-.25.8-.03.32.01.6.12.86.11.24.27.44.47.58.2.15.43.23.67.25.25.02.48-.03.7-.13.24-.1.42-.27.57-.49.14-.23.23-.5.25-.82Zm4.13-1.5c.19-.27.43-.47.71-.6.3-.14.62-.2.98-.17l-.12 1.4-.35-.03c-.42-.03-.74.04-.97.22-.23.18-.36.52-.4 1l-.21 2.63-1.33-.1.42-5.28 1.33.1-.06.83Zm9.13-.17c.65.05 1.16.3 1.52.72.36.43.52 1 .46 1.7l-.25 3.1-1.33-.1.24-2.92c.03-.41-.05-.73-.24-.97-.2-.23-.47-.37-.83-.4-.36-.03-.66.06-.9.27-.22.2-.35.5-.38.91l-.24 2.92-1.33-.11.23-2.91c.04-.42-.04-.74-.24-.97-.19-.24-.46-.37-.83-.4-.37-.03-.67.06-.9.26-.23.2-.36.5-.39.92l-.23 2.91-1.34-.1.43-5.28 1.33.1-.05.64c.19-.2.42-.36.7-.47.28-.1.58-.14.9-.11.42.03.78.15 1.1.35.3.2.53.46.68.8.2-.29.47-.51.8-.67.35-.16.71-.22 1.1-.2ZM406.95 410.68l-2.38 6.5-1.57-.13-.87-4.83-1.69 4.62-1.56-.11-1.25-6.8 1.42.12.76 5.25 1.77-5.05 1.48.12.87 5.23 1.59-5.04 1.44.12Zm5.47 4.35a3.2 3.2 0 0 1-.08.52l-3.86-.31c0 .38.11.69.33.92.22.24.5.37.84.4.5.04.86-.15 1.1-.56l1.44.12a2.43 2.43 0 0 1-2.6 1.54 2.8 2.8 0 0 1-1.34-.44c-.39-.26-.67-.6-.87-1.04a2.98 2.98 0 0 1-.22-1.45 3 3 0 0 1 .45-1.41c.25-.4.6-.69 1-.88.43-.19.9-.26 1.42-.22.5.04.94.18 1.31.43.39.25.67.58.85 1 .2.4.27.87.23 1.38Zm-1.35-.49c.02-.34-.08-.62-.31-.85a1.3 1.3 0 0 0-.86-.38c-.33-.03-.62.05-.86.24-.24.18-.4.44-.48.8l2.5.2Zm1.97.64c.04-.53.18-1 .43-1.4.24-.39.56-.68.94-.88.38-.19.8-.27 1.25-.23a2.12 2.12 0 0 1 1.68.98l.06-.76 1.34.11-.42 5.27-1.34-.1.06-.77c-.2.23-.45.42-.77.56-.3.13-.66.19-1.05.15a2.27 2.27 0 0 1-1.2-.44c-.34-.25-.6-.6-.78-1.03a3.18 3.18 0 0 1-.2-1.46Zm4.15.35c.02-.32-.02-.6-.13-.84a1.3 1.3 0 0 0-.47-.58c-.2-.14-.43-.22-.68-.24a1.35 1.35 0 0 0-1.25.62c-.15.21-.24.48-.26.8-.03.32.02.6.12.85a1.35 1.35 0 0 0 1.14.83 1.38 1.38 0 0 0 1.27-.62c.14-.22.23-.5.26-.82Zm4.32-1.2-.2 2.55c-.02.17 0 .3.08.4.09.08.23.13.43.15l.62.05-.09 1.12-.84-.07c-1.12-.09-1.64-.68-1.55-1.77l.2-2.54-.62-.05.08-1.1.63.05.1-1.3 1.35.1-.1 1.31 1.17.1-.08 1.09-1.18-.1Zm5.2-.77c.4.04.75.15 1.04.36.3.2.52.47.67.82.15.36.2.77.16 1.24l-.24 3.1-1.34-.1.24-2.92c.03-.42-.05-.75-.24-.99a1.1 1.1 0 0 0-.83-.41c-.37-.03-.67.06-.9.27-.23.2-.36.52-.4.94l-.23 2.91-1.33-.1.56-7.05 1.34.1-.2 2.44c.2-.22.44-.38.73-.48.3-.11.62-.15.97-.13Zm8.02 3.26a3.2 3.2 0 0 1-.08.51l-3.86-.3a1.23 1.23 0 0 0 1.17 1.32c.5.03.87-.15 1.1-.56l1.45.11a2.44 2.44 0 0 1-2.6 1.55c-.52-.04-.97-.19-1.35-.44-.38-.26-.67-.6-.87-1.04a2.97 2.97 0 0 1-.22-1.46c.05-.54.2-1.01.45-1.4.26-.4.6-.7 1.01-.88a2.8 2.8 0 0 1 1.4-.23c.5.05.95.19 1.32.44.39.24.67.58.85 1 .2.4.27.87.23 1.38Zm-1.35-.49c.02-.34-.08-.63-.3-.85a1.31 1.31 0 0 0-.87-.38c-.33-.03-.62.05-.86.23s-.4.45-.48.8l2.5.2Zm3.79-1.03c.2-.26.43-.47.72-.6.29-.14.61-.2.97-.16l-.11 1.4-.36-.03c-.41-.04-.74.04-.97.22-.23.18-.36.51-.4 1l-.2 2.63-1.34-.11.42-5.27 1.34.1-.07.82Z"/><path fill="#FF2E12" fill-rule="evenodd" d="M331.33 164.09c-1.16-.09-2.16-.9-3.05-1.62l-.59-.46c-.92-.68-6.5-5.12-9.61-7.7-3.41-2.83-4.06-4.97-4.84-9.56-.39-2.31-3.82-21.3-3.85-21.49l-.05-.3 2.04-4.61-1.14-3.6.47-.43s1.87-1.7 4.07-3.57a5.49 5.49 0 0 1 3.68-1.17c1.27 0 2.46.27 3.15.47l5.28-5.1 18.24 1.46 4.41 5.88c.38-.04.91-.09 1.51-.09 2.31 0 4.08.65 5.12 1.87 1.87 2.2 3.43 4.16 3.45 4.17l.4.5-1.7 3.38 1.28 4.88-.1.29c-.06.18-6.47 18.39-7.22 20.6-1.5 4.4-2.49 6.42-6.3 8.67a418.3 418.3 0 0 1-10.71 6.07l-.65.36c-.92.53-1.97 1.12-3.05 1.12h-.22l-.02-.02Z" clip-rule="evenodd"/><path fill="#000" d="m327.26 105.96 8.67.69 8.67.69 4.49 5.99s.84-.16 1.95-.16c1.43 0 3.3.27 4.36 1.52 1.88 2.21 3.43 4.15 3.43 4.15l-1.58 3.14 1.3 4.95s-6.46 18.37-7.23 20.61c-1.51 4.42-2.43 6.1-5.86 8.13a437.36 437.36 0 0 1-10.67 6.05c-.97.5-2.18 1.37-3.24 1.37h-.15c-1.08-.09-2.21-1.21-3.12-1.89-.91-.68-6.5-5.12-9.57-7.67-3.07-2.55-3.71-4.35-4.5-8.96-.4-2.34-3.85-21.5-3.85-21.5l2.07-4.68-1.06-3.35s1.83-1.67 4.04-3.55a4.64 4.64 0 0 1 3.04-.93c1.77 0 3.42.6 3.42.6l5.39-5.2Zm-.74-2.07-.65.63-4.56 4.4c-.75-.18-1.77-.36-2.86-.36-1.78 0-3.23.47-4.33 1.41a152.45 152.45 0 0 0-4.09 3.6l-.95.86.39 1.22.84 2.63-1.76 3.98-.25.56.11.6c.03.19 3.46 19.18 3.85 21.48.81 4.74 1.54 7.13 5.19 10.16a467.85 467.85 0 0 0 10.2 8.18c.95.77 2.13 1.72 3.6 1.84l.3.01c1.35 0 2.56-.69 3.54-1.25l.62-.34c1.03-.53 7.28-4.05 10.76-6.1 4.08-2.41 5.19-4.65 6.74-9.21.75-2.21 7.16-20.41 7.22-20.59l.2-.58-.16-.59-1.11-4.22 1.24-2.47.58-1.14-.8-1c-.06-.08-1.58-1.99-3.47-4.2-1.24-1.45-3.27-2.22-5.88-2.22-.38 0-.73.02-1.05.04l-3.8-5.07-.54-.72-.9-.07-8.67-.69-8.67-.69-.9-.07.02-.02Z"/><path fill="#fff" fill-rule="evenodd" d="M341.26 117.32c.72.06 6.16-.54 6.16-.54s5.74 8.18 5.61 9.82c-.11 1.36-.7 1.84-1.39 2.42-.15.12-.3.24-.45.38l-5.17 4.67-.17.15c-.51.44-1.27 1.09-.87 2.29l.08.25c.44 1.31.98 2.92 0 4.44-1.04 1.61-2.68 2.61-3.66 2.35-.98-.27-3.21-1.67-4.03-2.3-.81-.63-3.35-3.08-3.29-3.94.06-.72 2.11-1.75 3.11-2.25l.45-.23.49-.26c.91-.47 2.55-1.32 2.63-1.74.09-.53.09-.68-.51-2.05l-.43-.93c-.57-1.2-1.22-2.54-.98-3.44.27-1.02 1.94-1.49 3.36-1.88l.52-.14 1.48-.42c1.42-.4 2.99-.85 3.25-.95.36-.13.28-.29-.76-.48l-.51-.09c-1.3-.24-3.69-.69-4.88-.46l-.78.15c-1.35.25-2.99.56-3.17.8l-.09.11c-.17.2-.27.33-.18 1.24l.16 1.46c.21 1.93.54 4.93.56 5.6l.01.27c.03.75.05 1.25-.83 1.38l-.23.03c-.99.15-2.44.36-2.96.32-.52-.04-1.92-.48-2.87-.78l-.22-.07c-.85-.27-.75-.75-.6-1.49l.05-.27a136.5 136.5 0 0 1 1.84-6.86c.24-.88.15-1.03.02-1.25l-.07-.12c-.13-.26-1.71-.83-3-1.29l-.74-.27c-1.15-.42-3.58-.36-4.9-.32l-.52.01c-1.06.02-1.17.16-.83.35.24.14 1.72.83 3.06 1.45l1.39.65.49.23c1.34.61 2.91 1.34 3.02 2.39.09.93-.76 2.15-1.51 3.24l-.57.85c-.8 1.26-.84 1.41-.83 1.95 0 .43 1.49 1.53 2.32 2.14l.44.33.4.3c.9.65 2.77 2 2.71 2.72-.07.86-2.97 2.88-3.87 3.37-.9.49-3.33 1.52-4.34 1.63-1.01.11-2.47-1.14-3.24-2.9-.72-1.65.07-3.16.71-4.38l.12-.23c.59-1.13-.06-1.89-.49-2.4l-.14-.17-4.36-5.43-.38-.45c-.59-.68-1.1-1.25-.99-2.61.13-1.64 7.1-8.8 7.1-8.8s5.28 1.45 6 1.51c.58.05 1.72-.25 2.91-.55l.91-.23c1.48-.37 2.45-.29 2.45-.29s.96.08 2.37.68l.86.37c1.13.49 2.21.96 2.79 1.01l-.02-.05Zm-3.09 27.06c1.09.67 1.86 1.15 2.15 1.37.37.28.1.72-.28.95a252.9 252.9 0 0 0-6.19 4.09c-.48.37-1.1.84-1.51.81-.41-.03-.94-.6-1.36-1.04l-.18-.18a264.9 264.9 0 0 0-5.29-4.84c-.34-.28-.54-.76-.13-.98.32-.17 1.16-.52 2.34-1.01l1.12-.47a19.25 19.25 0 0 1 4.27-1.29c.33.03 2.39.94 4.01 1.95l1.04.64h.01Z" clip-rule="evenodd"/><path fill="#FCF2DF" stroke="#000" stroke-miterlimit="10" stroke-width="2" d="M229.52 106.5a19.56 19.56 0 1 0-3.12 39 19.56 19.56 0 0 0 3.12-39Zm-.99 4.31c1.71.14 3.01 1.36 2.9 2.74-.11 1.38-1.59 2.38-3.3 2.24-1.71-.14-3.01-1.36-2.9-2.74.11-1.38 1.59-2.38 3.3-2.24Zm-17 20.7c-.86.14-1.77-1.11-2.04-2.78-.26-1.67.22-3.14 1.09-3.27.86-.14 1.77 1.11 2.04 2.78.26 1.67-.22 3.14-1.09 3.27Zm1.29-16.79c-.27-.32.44-1.38 1.59-2.36 1.15-.98 2.31-1.52 2.58-1.19.27.32-.44 1.38-1.59 2.36-1.15.98-2.31 1.52-2.58 1.19Zm4.3 7.98c-1.46-.12-2.54-1.59-2.4-3.29.14-1.7 1.43-2.98 2.89-2.87 1.46.11 2.54 1.59 2.4 3.29-.14 1.7-1.43 2.98-2.89 2.87Zm4.53 7.13a3 3 0 1 1 6.01.49 3 3 0 1 1-6.01-.49Zm5.29 13.67c-1.75-.14-3.11-.98-3.03-1.87.07-.89 1.55-1.5 3.29-1.36 1.75.14 3.11.98 3.03 1.87-.07.89-1.55 1.5-3.29 1.36Zm7.41-34.63c-1.43-.53-2.51-1.17-2.41-1.44.1-.27 1.34-.06 2.77.46 1.43.53 2.51 1.17 2.41 1.44-.1.27-1.34.06-2.77-.46Zm6.65 24.42a2.95 2.95 0 1 1-5.64-1.73 2.95 2.95 0 0 1 5.64 1.73Zm1.57-12.38c-1 .48-2.41-.37-3.13-1.89-.72-1.52-.49-3.14.51-3.62s2.41.37 3.13 1.89c.72 1.52.49 3.14-.51 3.62Zm2.69 11.16c-.31-.07-.3-1.19 0-2.51.31-1.31.8-2.32 1.11-2.25.31.07.3 1.19 0 2.51-.31 1.31-.8 2.32-1.11 2.25Z"/><path fill="#FD5907" stroke="#000" stroke-miterlimit="10" stroke-width="1.3" d="M440.19 168.16a22.36 22.36 0 1 0 0-44.72 22.36 22.36 0 0 0 0 44.72Z"/><path fill="#7BDF85" stroke="#000" stroke-miterlimit="10" stroke-width="2" d="M429.97 117.31a19.7 19.7 0 0 0-15.17-4.52 19.74 19.74 0 0 0 7 14.2 19.7 19.7 0 0 0 15.17 4.52 19.74 19.74 0 0 0-7-14.2Z"/><path fill="#221F20" d="M426.15 148.88a1.28 1.28 0 1 0 0-2.56 1.28 1.28 0 0 0 0 2.56ZM425.16 155.45a1.28 1.28 0 1 0 0-2.56 1.28 1.28 0 0 0 0 2.56ZM432.12 155.79a1.28 1.28 0 1 0 0-2.56 1.28 1.28 0 0 0 0 2.56ZM430.77 161.04a1.28 1.28 0 1 0 0-2.56 1.28 1.28 0 0 0 0 2.56ZM439 161.47a1.28 1.28 0 1 0 0-2.56 1.28 1.28 0 0 0 0 2.56Z"/><path fill="#FCF2DF" stroke="#000" stroke-miterlimit="10" stroke-width="2" d="m423.81 239.85 18.83 13.61a1 1 0 0 1-.14 1.71l-20.75 10.44a1 1 0 0 1-1.45-.97l1.93-24.04a1 1 0 0 1 1.58-.73v-.02Z"/><path fill="#ABE7F5" stroke="#000" stroke-miterlimit="10" stroke-width="2" d="m449.54 329.46-49.05-3.93a12.98 12.98 0 0 0-13.98 11.9l-3.93 49.06a12.98 12.98 0 0 0 11.9 13.97l49.06 3.93c7.14.57 13.4-4.76 13.97-11.9l3.93-49.05a12.98 12.98 0 0 0-11.9-13.98Z"/><path fill="#F6BA22" stroke="#000" stroke-miterlimit="10" stroke-width="2" d="M406.93 357.19a10.29 10.29 0 1 0 0-20.58 10.29 10.29 0 0 0 0 20.58Z"/><mask id="mask1_963_15067" width="80" height="80" x="382" y="325" maskUnits="userSpaceOnUse" style="mask-type:luminance"><path fill="#fff" d="m449.54 329.46-49.05-3.93a12.98 12.98 0 0 0-13.98 11.9l-3.93 49.06a12.98 12.98 0 0 0 11.9 13.97l49.06 3.93c7.14.57 13.4-4.76 13.97-11.9l3.93-49.05a12.98 12.98 0 0 0-11.9-13.98Z"/></mask><g mask="url(#mask1_963_15067)"><path fill="#FCF2DF" stroke="#000" stroke-miterlimit="10" stroke-width="2" d="M451.36 361.77a14.14 14.14 0 0 0-3.86.22 14.01 14.01 0 0 0-26.5.02 14 14 0 1 0 1.54 24.74 13.96 13.96 0 0 0 18.61-.37 14 14 0 1 0 10.21-24.62v.01Z"/></g><path stroke="#000" stroke-miterlimit="10" stroke-width="2" d="m449.54 329.46-49.05-3.93a12.98 12.98 0 0 0-13.98 11.9l-3.93 49.06a12.98 12.98 0 0 0 11.9 13.97l49.06 3.93c7.14.57 13.4-4.76 13.97-11.9l3.93-49.05a12.98 12.98 0 0 0-11.9-13.98Z"/><path fill="silver" stroke="#000" stroke-miterlimit="10" stroke-width="2" d="M202.93 216.01a5.8 5.8 0 1 0 0-11.6 5.8 5.8 0 0 0 0 11.6ZM221.41 217.49a5.8 5.8 0 1 0 0-11.6 5.8 5.8 0 0 0 0 11.6ZM239.88 218.97a5.8 5.8 0 1 0 0-11.6 5.8 5.8 0 0 0 0 11.6ZM201.63 232.2a5.8 5.8 0 1 0 0-11.6 5.8 5.8 0 0 0 0 11.6ZM220.11 233.68a5.8 5.8 0 1 0 0-11.6 5.8 5.8 0 0 0 0 11.6ZM238.59 235.16a5.8 5.8 0 1 0 0-11.6 5.8 5.8 0 0 0 0 11.6ZM200.34 248.39a5.8 5.8 0 1 0 0-11.6 5.8 5.8 0 0 0 0 11.6ZM218.81 249.87a5.8 5.8 0 1 0 0-11.6 5.8 5.8 0 0 0 0 11.6ZM237.29 251.35a5.8 5.8 0 1 0 0-11.6 5.8 5.8 0 0 0 0 11.6ZM199.04 264.59a5.8 5.8 0 1 0 0-11.6 5.8 5.8 0 0 0 0 11.6ZM217.52 266.06a5.8 5.8 0 1 0 0-11.6 5.8 5.8 0 0 0 0 11.6ZM235.99 267.54a5.8 5.8 0 1 0 0-11.6 5.8 5.8 0 0 0 0 11.6Z"/><path fill="#000" d="m201.8 209.3.1-1.17 2.05.16-.44 5.39-1.3-.1.33-4.22-.73-.06ZM219.31 213.93c.18-.12.26-.17.24-.17.52-.35.92-.65 1.22-.89.3-.23.56-.48.77-.74.22-.27.33-.53.35-.8a.72.72 0 0 0-.1-.48c-.08-.12-.22-.19-.4-.2a.52.52 0 0 0-.46.17.97.97 0 0 0-.2.58l-1.22-.1c.04-.41.16-.76.35-1.02.19-.27.43-.46.72-.57.29-.1.6-.15.94-.12.59.04 1.01.23 1.29.55.27.33.4.73.35 1.21-.04.53-.26 1-.65 1.43-.4.41-.9.82-1.48 1.2l2 .16-.1 1.02-3.7-.3.08-.93ZM237.89 212.54c.06-.52.26-.91.61-1.17.35-.26.8-.37 1.36-.33.36.03.67.12.92.27a1.37 1.37 0 0 1 .7 1.34c-.02.32-.12.58-.3.77-.18.2-.38.31-.6.37v.03c.27.12.48.29.62.52.15.23.2.51.18.85-.02.3-.12.57-.28.8-.16.22-.37.38-.66.5-.27.1-.6.14-.96.11a2.17 2.17 0 0 1-1.38-.54c-.33-.32-.48-.77-.45-1.36l1.22.1c-.01.21.04.4.15.53.1.13.27.2.5.22.19.02.34-.02.45-.12.12-.1.19-.25.2-.43.02-.24-.04-.41-.19-.53-.14-.12-.37-.2-.7-.22l-.24-.02.09-1.02.23.01c.25.03.46 0 .62-.07.16-.08.25-.23.27-.45a.56.56 0 0 0-.11-.42.54.54 0 0 0-.4-.18c-.19-.02-.33.03-.43.13-.1.11-.16.25-.19.41l-1.23-.1ZM199.31 228.56l.08-1.02 2.6-3.15 1.4.12-.25 3.26.6.04-.09 1.1-.6-.05-.08.96-1.26-.1.08-.96-2.48-.2Zm2.8-2.76-1.38 1.77 1.24.1.15-1.87ZM221.83 227.01l-2.3-.18-.08 1.02c.1-.1.25-.18.43-.24.18-.05.38-.07.58-.05a1.47 1.47 0 0 1 1.38 1.02c.1.27.13.56.1.87a1.91 1.91 0 0 1-.6 1.33c-.34.31-.81.44-1.4.4-.4-.04-.73-.13-1.01-.29a1.6 1.6 0 0 1-.63-.62c-.14-.25-.2-.54-.19-.85l1.23.1c.02.15.08.28.19.4.1.1.25.17.45.18.23.02.4-.04.53-.18.13-.14.2-.33.22-.57.02-.25-.03-.44-.13-.57-.11-.14-.28-.22-.5-.24a.66.66 0 0 0-.43.1.55.55 0 0 0-.24.3l-1.21-.1.25-3.21 3.45.28-.1 1.1ZM239.11 228.75a.75.75 0 0 0-.17-.43c-.1-.1-.23-.16-.41-.17a.63.63 0 0 0-.64.32c-.14.23-.23.61-.28 1.14.12-.17.29-.29.5-.37.21-.08.44-.12.69-.1.48.04.85.23 1.12.55.27.33.38.77.34 1.32-.03.36-.13.66-.3.92-.16.26-.39.46-.68.59-.29.13-.62.18-1 .15-.76-.06-1.27-.34-1.52-.84-.26-.5-.35-1.2-.28-2.09.07-.93.28-1.61.63-2.04.35-.43.87-.62 1.56-.56.37.03.67.13.91.3.24.16.42.36.53.6.11.25.17.52.17.8l-1.17-.1Zm-.7 1.37a.77.77 0 0 0-.54.14c-.15.12-.23.29-.25.52-.02.24.03.43.15.57.12.14.3.22.54.24.22.02.4-.03.53-.15s.21-.3.23-.52a.78.78 0 0 0-.14-.56c-.11-.15-.28-.23-.51-.24ZM202.24 241.47l-2.21 4.3-1.3-.11 2.23-4.15-2.3-.19.09-1.07 3.56.28-.07.94ZM217.53 244.25a1.23 1.23 0 0 1-.6-1.21 1.33 1.33 0 0 1 .93-1.18c.3-.11.64-.15 1.05-.12.41.04.75.13 1.01.28.27.16.47.35.59.58.12.23.17.47.15.74a1.3 1.3 0 0 1-.79 1.1c.25.15.44.34.57.58.12.23.17.5.15.8-.03.35-.14.65-.34.89-.2.23-.45.4-.77.51-.3.11-.65.15-1.02.12s-.7-.12-1-.28a1.56 1.56 0 0 1-.86-1.56c.03-.3.12-.56.28-.77.16-.22.38-.37.65-.48Zm1.88-.82c.02-.2-.03-.36-.13-.48a.62.62 0 0 0-.45-.2.64.64 0 0 0-.48.13c-.12.1-.19.26-.2.46a.6.6 0 0 0 .14.47c.1.12.25.18.44.2.19.01.34-.03.47-.13a.6.6 0 0 0 .22-.45Zm-.75 1.46a.8.8 0 0 0-.58.15.65.65 0 0 0-.25.5c-.02.2.04.38.16.53a.8.8 0 0 0 .56.24c.23.02.42-.03.57-.16a.68.68 0 0 0 .24-.49.66.66 0 0 0-.17-.53.77.77 0 0 0-.53-.24ZM236.4 247.09c.05.39.26.6.64.63.26.02.45-.08.58-.3.13-.22.21-.6.25-1.12-.12.15-.27.25-.47.32a1.8 1.8 0 0 1-1.46-.18 1.46 1.46 0 0 1-.54-.63 2 2 0 0 1-.13-.96c.03-.36.13-.68.3-.94.18-.25.4-.44.7-.57.28-.13.62-.17 1-.14.73.06 1.22.32 1.47.8.25.47.35 1.15.28 2.03a5.94 5.94 0 0 1-.3 1.57c-.15.4-.37.7-.67.9-.28.2-.66.27-1.14.24a1.95 1.95 0 0 1-.94-.3 1.6 1.6 0 0 1-.56-.63 1.84 1.84 0 0 1-.17-.82l1.17.1Zm.73-1.37c.2.02.38-.03.51-.14.14-.12.21-.29.23-.5a.74.74 0 0 0-.15-.56.7.7 0 0 0-.5-.24.69.69 0 0 0-.53.16.74.74 0 0 0-.23.52c-.02.21.03.39.14.53.12.14.3.22.53.23ZM200.46 257.91l.45 1.02-1.2.32 1.14.5-.66.96-.88-.92.13 1.26-1.11-.09.32-1.22-1 .77-.52-1.07 1.21-.32-1.13-.48.62-.94.92.91-.14-1.28 1.13.1-.34 1.23 1.06-.75ZM215.34 260.38c.06-.85.28-1.5.64-1.96.37-.46.92-.66 1.65-.6.72.05 1.23.34 1.52.85.29.51.4 1.2.33 2.04a3.57 3.57 0 0 1-.65 1.98c-.37.46-.91.66-1.64.6-.73-.06-1.24-.35-1.53-.86-.28-.51-.4-1.2-.32-2.05Zm2.9.23c.04-.5.02-.88-.07-1.16-.08-.27-.3-.43-.64-.45-.34-.03-.57.09-.7.35a4.84 4.84 0 0 0-.26 1.97c.02.22.08.4.2.55.1.14.28.22.51.24.24.02.42-.04.55-.16.13-.13.23-.3.29-.51.05-.22.1-.5.12-.83ZM237.5 261.42l-.23.75.7.06-.08.89-.88-.07-.27.87-.93-.07.27-.88-.97-.07-.26.87-.93-.07.27-.88-.86-.07.07-.89 1.05.08.22-.74-.84-.07.07-.9 1.03.09.25-.84.93.07-.25.84.96.08.26-.84.92.07-.25.85.72.05-.07.9-.9-.08Zm-.94-.07-.96-.08-.22.75.96.08.22-.75Z"/><path fill="#A4D897" stroke="#000" stroke-miterlimit="10" stroke-width="2" d="M195.33 342.9a10.45 10.45 0 1 0 0-20.9 10.45 10.45 0 0 0 0 20.9Z"/><path fill="#F6BA22" stroke="#000" stroke-miterlimit="10" stroke-width="2" d="M193.02 371.69a10.45 10.45 0 1 0 0-20.9 10.45 10.45 0 0 0 0 20.9Z"/><path stroke="#000" stroke-miterlimit="10" stroke-width="2" d="m189.26 333.43 3.46 3.38 8.59-8.47M210.89 332.68l37.17 2.97M208.49 362.75l37.16 2.97"/><path fill="silver" stroke="#000" stroke-miterlimit="10" stroke-width="2" d="M317.17 337.33a17.88 17.88 0 0 1 16.38 19.24l-1.42 17.81-35.63-2.85 1.43-17.82a17.88 17.88 0 0 1 19.24-16.38Z"/><path fill="silver" d="M322.16 374.02a7.89 7.89 0 0 1-15.72-1.26"/><path stroke="#000" stroke-miterlimit="10" stroke-width="2" d="M322.16 374.02a7.89 7.89 0 0 1-15.72-1.26M297.43 364.44l35.39 2.83M297.74 360.66l35.39 2.83"/><path fill="silver" stroke="#000" stroke-miterlimit="10" stroke-width="2" d="M317.87 337.22a4.4 4.4 0 1 0 0-8.82 4.4 4.4 0 0 0 0 8.82Z"/><path fill="#ABE7F5" stroke="#000" stroke-miterlimit="10" stroke-width="2" d="m352.92 210.38-49.06-3.94a12.98 12.98 0 0 0-13.97 11.9l-3.93 49.06a12.98 12.98 0 0 0 11.9 13.98l49.06 3.93c7.14.57 13.4-4.76 13.97-11.9l3.93-49.06a12.98 12.98 0 0 0-11.9-13.97Z"/><path fill="#F6BA22" stroke="#000" stroke-miterlimit="10" stroke-width="2" d="M310.31 238.11a10.29 10.29 0 1 0 0-20.58 10.29 10.29 0 0 0 0 20.58Z"/><mask id="mask2_963_15067" width="80" height="80" x="285" y="206" maskUnits="userSpaceOnUse" style="mask-type:luminance"><path fill="#fff" d="m352.92 210.38-49.06-3.94a12.98 12.98 0 0 0-13.97 11.9l-3.93 49.06a12.98 12.98 0 0 0 11.9 13.98l49.06 3.93c7.14.57 13.4-4.76 13.97-11.9l3.93-49.06a12.98 12.98 0 0 0-11.9-13.97Z"/></mask><g mask="url(#mask2_963_15067)"><path fill="#FCF2DF" stroke="#000" stroke-miterlimit="10" stroke-width="2" d="M354.74 242.69a14.14 14.14 0 0 0-3.86.22 14.01 14.01 0 0 0-26.5.02 14 14 0 1 0 1.54 24.74 13.96 13.96 0 0 0 18.61-.37 14 14 0 1 0 10.21-24.62v.01Z"/></g><path stroke="#000" stroke-miterlimit="10" stroke-width="2" d="m352.92 210.38-49.06-3.94a12.98 12.98 0 0 0-13.97 11.9l-3.93 49.06a12.98 12.98 0 0 0 11.9 13.98l49.06 3.93c7.14.57 13.4-4.76 13.97-11.9l3.93-49.06a12.98 12.98 0 0 0-11.9-13.97Z"/><path fill="#9D9D9D" d="M688.65 457.53c-2.8-35.28-6.13-64.21-9.9-86-4.72-27.33-10.18-43.49-16.22-48.02-25.44-19.08-119.35-131.2-122.35-134.79-.25-.94-2.19-7.84-7.73-15.58-5.47-7.65-15.67-17.72-33.21-22.29-9.58-2.5-24.85-8.37-42.53-15.18-15.76-6.07-33.28-12.81-49.11-17.99l.71-3-53.08-18.13-.12.49c-.04.17-1.03 4.27.08 9.09.42 1.83 1.2 3.9 2.58 5.9a6.96 6.96 0 0 0-1.8 4.3c-.17.77-2.8 13.06 2.07 27.13a52.52 52.52 0 0 0 15 22.23c8.75 7.8 20.6 13.7 35.22 17.55l47.8 17.99 2.27 7.43a485.43 485.43 0 0 0-13.67 27.18c-10.8 23.42-15.99 40.53-15.44 50.86.22 4.05 3.44 7.37 8.41 8.65 1.28.33 3.1.63 5.4.57 3.72-.1 8.69-1.14 14.62-4.52 7.12-4.05 13.88-10.44 20.17-19.04l2.29 7.47c-6.38 14.82-23.56 55.42-23.64 62.56-.06 5.06 1.57 11.47 6.31 14.3 4.04 2.41 9.48 1.76 16.13-1.92l4.96-2.39c-3.64 5.4-15.63 24.26-11.03 31.75a9.64 9.64 0 0 0 7.46 4.83c.51.06 1.06.08 1.65.06 4.94-.13 12.82-3.08 24.64-14.2a34.8 34.8 0 0 1-3.13 11.75l-11 23.57c-1.94 4.16-6 6.59-10.58 6.34a10.78 10.78 0 0 1-9.78-7.43c-7.03-20.75-18.47-51.13-33.01-77.96-17.08-31.52-34.41-50.82-51.5-57.39-10.6-4.08-21.2-3.22-31.48 2.54-.1.06-.99.54-2.2 1.45-5.45-2.48-11.22-2.45-17.06.23l-.39.18 22.25 58.1.05.13.11.08s1.75 1.25 4.35 2.22c12.62 37.76 27.86 94.09 30.95 118.42 2.07 16.27 10.82 41.27 23.41 66.87 12.38 25.18 25.98 46.09 36.38 55.95l.14.13 240.48-2.94h.47l-.01-.47c-.02-.58-1.62-59-6.39-119.05v-.01Z" opacity=".5" style="mix-blend-mode:multiply"/><path fill="#FFDCC4" d="M451.58 183.89s-34.66 57.1-34 81.86c.31 11.62 27.4 18.48 52.81-19.8"/><path stroke="#000" stroke-miterlimit="10" stroke-width="2" d="M451.58 183.89s-34.66 57.1-34 81.86c.31 11.62 27.4 18.48 52.81-19.8"/><path fill="#FFDCC4" stroke="#000" stroke-miterlimit="10" stroke-width="2" d="M471.05 255.18s-27.4 58.42-27.73 67c-.33 8.58 4.29 21.45 21.45 12.54l6.6-2.97s-17.82 23.76-12.87 32.35c4.95 8.58 17.82 6.93 38.29-13.2 20.46-20.13 8.91-53.47 8.91-53.47l-34.66-42.25h.01Z"/><path fill="#FFDCC4" stroke="#000" stroke-miterlimit="10" stroke-width="2" d="M348.92 93.56s-13.2 49.29 50.17 67.77l47.53 19.36 44.93 162.25a35.12 35.12 0 0 1-2.5 24.85l-11.63 23.26c-4.61 9.23-18.12 8.15-21.17-1.71-16.64-53.84-58.05-163.79-111.73-135.61 0 0-17.6 8.8-7.04 27.29 10.56 18.48 36.97 118.82 40.49 154.03 3.52 35.21 35.21 102.98 56.33 124.11l240.29 3.52s0-233.25-25.53-253.49C623.53 288.95 530.24 171 530.24 171s-6.16-29.05-39.61-38.73c-33.45-9.68-139.07-64.25-141.71-38.73v.02Z"/><path fill="#FD5907" stroke="#000" stroke-miterlimit="10" stroke-width="2" d="M348.57 74.29s-4.52 16.31 12.34 22.09c8.87 3.04 18.19 6.33 25.02 8.77a10.07 10.07 0 0 0 13.11-6.92l1.25-4.7-51.71-19.23-.01-.01ZM325.2 254.93l20.54 58.27s9.77 7.52 18.46.89c8.69-6.63-7.51-72.62-39-59.16Z"/><path fill="#FFDCC4" d="M530.24 171.01s21.88 67.36 40.56 102.64l-40.56-102.64Z"/><path stroke="#000" stroke-miterlimit="10" stroke-width="2" d="M530.24 171.01s21.88 67.36 40.56 102.64M482.7 74.05l.85-10.16"/></svg>