<svg xmlns="http://www.w3.org/2000/svg" width="264" height="226" fill="none"><path fill="#0D1214" d="M39.6 148.84h-2v80.33h2v-80.33Z"/><path fill="#F98064" d="M166.98 143.13H7.68v85.39h159.3v-85.39Z"/><path fill="#0D1214" d="M166.04 144.06v83.53H8.61v-83.53h157.43Zm1.86-1.86H6.75v87.25h161.16V142.2h-.01Z"/><path fill="#fff" d="M91.45 171.38H36.9l-5.08 10.94H96l-4.55-10.94ZM105.9 182.41H22.37v26.27h83.53v-26.27Z"/><path fill="#EA5328" d="M22.54 182.51h9.34v3.37a4.67 4.67 0 1 1-9.34 0v-3.37Z"/><path fill="#0D1214" d="M27.21 191.55a5.67 5.67 0 0 1-5.67-5.67v-4.37h11.34v4.37a5.67 5.67 0 0 1-5.67 5.67Zm-3.67-8.04v2.37a3.68 3.68 0 0 0 7.34 0v-2.37h-7.34Z"/><path fill="#fff" d="M31.3 182.51h9.34v3.37a4.67 4.67 0 1 1-9.34 0v-3.37ZM50.04 182.51h9.34v3.37a4.67 4.67 0 1 1-9.34 0v-3.37ZM68.6 182.51h9.34v3.37a4.67 4.67 0 1 1-9.34 0v-3.37ZM87.33 182.51h9.34v3.37a4.67 4.67 0 1 1-9.34 0v-3.37Z"/><path fill="#0D1214" d="M122.64 220.76H7.25v2h115.39v-2ZM122.64 214.01H7.25v2h115.39v-2ZM122.64 207.9H7.25v2h115.39v-2ZM166.06 222.36H150.3v2h15.76v-2ZM166.06 217.54H150.3v2h15.76v-2ZM166.06 212.72H150.3v2h15.76v-2ZM166.06 207.9H150.3v2h15.76v-2Z"/><path fill="#EA5328" d="M40.52 182.51h9.34v3.37a4.67 4.67 0 1 1-9.34 0v-3.37Z"/><path fill="#0D1214" d="M45.19 191.55a5.67 5.67 0 0 1-5.67-5.67v-4.37h11.34v4.37a5.67 5.67 0 0 1-5.67 5.67Zm-3.67-8.04v2.37a3.68 3.68 0 0 0 7.34 0v-2.37h-7.34Z"/><path fill="#EB6668" d="M59.84 182.51h9.34v3.37a4.67 4.67 0 1 1-9.34 0v-3.37ZM77.82 182.51h9.34v3.37a4.67 4.67 0 1 1-9.34 0v-3.37Z"/><path fill="#EA5328" d="M96.26 182.51h9.34v3.37a4.67 4.67 0 1 1-9.34 0v-3.37Z"/><path fill="#0D1214" d="M100.93 191.55a5.67 5.67 0 0 1-5.67-5.67v-4.37h11.34v4.37a5.67 5.67 0 0 1-5.67 5.67Zm-3.67-8.04v2.37a3.68 3.68 0 0 0 7.34 0v-2.37h-7.34Z"/><path fill="#AC7E5A" d="M105.72 208.59H22.54v18.91h83.18v-18.91Z"/><path fill="#B5B5B5" d="M170.9 139.74H5.03v8.78H170.9v-8.78Z"/><path fill="#D1D1D1" d="M170.9 135.37H2.21v4.62H170.9v-4.62ZM46.21 125.03H30.19v10.19h16.02v-10.19ZM134.49 125.03h-16.02v10.19h16.02v-10.19Z"/><path fill="#fff" d="M122.45 172.27a14.05 14.05 0 1 1 28.1 0h-28.1Z"/><path fill="#AC7E5A" d="M150.31 172.28h-27.78v55.04h27.78v-55.04Z"/><path fill="#0D1214" d="M167 148.29h-2v79.36h2v-79.36ZM27.12 191.62a5.63 5.63 0 0 1-5.62-5.63v-3.57h2v3.57a3.63 3.63 0 1 0 7.24 0v-3.57h2v3.57c0 3.1-2.52 5.63-5.62 5.63Z"/><path fill="#0D1214" d="M36.36 191.62a5.63 5.63 0 0 1-5.62-5.63v-3.57h2v3.57a3.63 3.63 0 1 0 7.24 0v-3.57h2v3.57c0 3.1-2.52 5.63-5.62 5.63Z"/><path fill="#0D1214" d="M45.6 191.62a5.63 5.63 0 0 1-5.62-5.63h2a3.63 3.63 0 1 0 7.24 0h2c0 3.1-2.52 5.63-5.62 5.63Z"/><path fill="#0D1214" d="M54.84 191.62a5.63 5.63 0 0 1-5.62-5.63v-3.57h2v3.57a3.63 3.63 0 1 0 7.24 0v-3.57h2v3.57c0 3.1-2.52 5.63-5.62 5.63Z"/><path fill="#EA5328" d="M59.46 182.42v3.57a4.62 4.62 0 1 0 9.24 0v-3.57"/><path fill="#0D1214" d="M64.08 191.62a5.63 5.63 0 0 1-5.62-5.63v-3.57h2v3.57a3.63 3.63 0 1 0 7.24 0v-3.57h2v3.57c0 3.1-2.52 5.63-5.62 5.63Z"/><path fill="#0D1214" d="M73.32 191.62a5.63 5.63 0 0 1-5.62-5.63v-3.57h2v3.57a3.63 3.63 0 1 0 7.24 0v-3.57h2v3.57c0 3.1-2.52 5.63-5.62 5.63Z"/><path fill="#EA5328" d="M77.94 182.42v3.57a4.62 4.62 0 1 0 9.24 0v-3.57"/><path fill="#0D1214" d="M82.56 191.62a5.63 5.63 0 0 1-5.62-5.63v-3.57h2v3.57a3.63 3.63 0 1 0 7.24 0v-3.57h2v3.57c0 3.1-2.52 5.63-5.62 5.63Z"/><path fill="#0D1214" d="M91.8 191.62a5.63 5.63 0 0 1-5.62-5.63h2a3.63 3.63 0 1 0 7.24 0h2c0 3.1-2.52 5.63-5.62 5.63Z"/><path fill="#0D1214" d="M101.04 191.62a5.63 5.63 0 0 1-5.62-5.63v-3.57h2v3.57a3.63 3.63 0 1 0 7.24 0v-3.57h2v3.57c0 3.1-2.52 5.63-5.62 5.63ZM151.56 173.27h-30.1v-1c0-8.3 6.75-15.05 15.05-15.05s15.05 6.75 15.05 15.05v1Zm-28.07-2h26.03a13.06 13.06 0 0 0-13.01-12.05c-6.86 0-12.5 5.32-13.01 12.05h-.01Z"/><path fill="#0D1214" d="M123.45 172.27h-2v55.32h2v-55.32ZM151.56 172.27h-2v55.32h2v-55.32ZM144.78 216.01h-16.55v-36.5h16.55v36.5Zm-14.55-2h12.55v-32.5h-12.55v32.5Z"/><path fill="#0D1214" d="M144.78 220.68h-16.55v-37.6h2v35.6h12.55v-35.6h2v37.6ZM143.58 172.27h-2a5.09 5.09 0 0 0-10.16 0h-2a7.09 7.09 0 0 1 14.16 0Z"/><path fill="#0D1214" d="M137.51 158.22h-2v7.98h2v-7.98ZM127.54 161.74l-1.43 1.4 5.3 5.38 1.43-1.4-5.3-5.38ZM145.48 161.72l-5.3 5.37 1.42 1.4 5.3-5.37-1.42-1.4ZM171.96 149.63H3v-8.76H.64v-6.38h171.32v15.14ZM5 147.63h164.96v-6.76H5v6.76Zm.33-8.76h164.63v-2.38H2.64v2.38h2.69ZM106.66 208.81h-2v18.47h2v-18.47ZM42.75 222.17H29.42v-7.49h13.33v7.49Zm-11.33-2h9.33v-3.49h-9.33v3.49ZM61.46 222.17H48.13v-7.49h13.33v7.49Zm-11.33-2h9.33v-3.49h-9.33v3.49ZM80.16 222.17H66.83v-7.49h13.33v7.49Zm-11.33-2h9.33v-3.49h-9.33v3.49ZM98.87 222.17H85.54v-7.49h13.33v7.49Zm-11.33-2h9.33v-3.49h-9.33v3.49ZM238.53 22.69h-6.5v-2h4.5v-3.58h2v5.58Z"/><path fill="#0D1214" d="M47.12 127.51h-2v7.98h2v-7.98ZM31.68 127.51h-2v7.98h2v-7.98ZM135.13 127.51h-2v7.98h2v-7.98ZM119.69 127.51h-2v7.98h2v-7.98Z"/><path fill="#F9F1E0" d="M16.28 123.14V39.31a7.18 7.18 0 0 1 7.18-7.18h116.43a7.18 7.18 0 0 1 7.18 7.18v83.83"/><path fill="#0D1214" d="M147.99 123.14h-1.86V39.31c0-3.44-2.8-6.25-6.25-6.25H23.45a6.26 6.26 0 0 0-6.25 6.25v83.83h-1.86V39.31a8.12 8.12 0 0 1 8.11-8.11h116.43a8.12 8.12 0 0 1 8.11 8.11v83.83Z"/><path fill="#D1D1D1" d="M150.78 123.29H12.55v4.22h138.23v-4.22Z"/><path fill="#0D1214" d="M151.79 128.51H11.55v-6.22h140.23v6.22h.01Zm-138.23-2h136.23v-2.22H13.55v2.22h.01Z"/><path fill="#9C9C9C" d="M398.3 21.41H165.26V227.5H398.3V21.41Z"/><path fill="#0D1214" d="M399.29 228.5H164.25V20.41h235.04V228.5Zm-233.04-2h231.04V22.41H166.25V226.5Z"/><path fill="#fff" d="M253.33 35.93h-28.19v44.48h28.19V35.93Z"/><path fill="#606060" d="M256.25 80.02H222.4v4.8h33.85v-4.8Z"/><path fill="#494949" d="M253.61 84.96h-28.57v3.21h28.57v-3.21Z"/><path fill="#606060" d="M309.63 174.07H255.4v35.91h54.23v-35.91Z"/><path fill="#0D1214" d="M254.72 79.61h-2V37.28a.51.51 0 0 0-.51-.51h-25.66a.51.51 0 0 0-.51.51v42.33h-2V37.28a2.52 2.52 0 0 1 2.51-2.51h25.66a2.52 2.52 0 0 1 2.51 2.51v42.33Z"/><path fill="#0D1214" d="M257.04 85.98h-35.32v-6.89h35.32v6.89Zm-33.32-2h31.32v-2.89h-31.32v2.89Z"/><path fill="#0D1214" d="M254.89 89.05h-31.03v-3.59h2v1.59h27.03v-1.59h2v3.59ZM253.88 53.54h-29.02v2h29.02v-2ZM253.88 48.98h-29.02v2h29.02v-2ZM253.88 44.42h-29.02v2h29.02v-2ZM253.88 39.85h-29.02v2h29.02v-2Z"/><path fill="#606060" d="M212.82 80.02h-33.85v4.8h33.85v-4.8Z"/><path fill="#494949" d="M210.18 84.81h-28.57v3.36h28.57v-3.36Z"/><path fill="#fff" d="M209.91 35.93h-28.19v44.48h28.19V35.93ZM253.33 97.22h-28.19v44.48h28.19V97.22ZM209.91 97.22h-28.19v44.48h28.19V97.22Z"/><path fill="#606060" d="M256.25 141.69H222.4v4.8h33.85v-4.8Z"/><path fill="#494949" d="M253.61 146.42h-28.57v3.42h28.57v-3.42Z"/><path fill="#606060" d="M212.82 141.69h-33.85v4.8h33.85v-4.8Z"/><path fill="#494949" d="M210.18 146.42h-28.57v3.42h28.57v-3.42Z"/><path fill="#D1D1D1" d="M262.5 218H240v10h12l10.5-10ZM315.18 210.39h-64.67v7.43h64.67v-7.43Z"/><path fill="#0D1214" d="M399.54 228.56H163.72V21.68h2v204.88h231.82V21.68h2v206.88Z"/><path fill="#494949" d="M404.16 16.72H160.22v4.97h243.94v-4.97Z"/><path fill="#0D1214" d="M405.16 22.69H159.22v-6.97h245.94v6.97Zm-243.94-2h241.94v-2.97H161.22v2.97ZM254.72 141.17h-2V98.84a.51.51 0 0 0-.51-.51h-25.66a.51.51 0 0 0-.51.51v42.33h-2V98.84a2.52 2.52 0 0 1 2.51-2.51h25.66a2.52 2.52 0 0 1 2.51 2.51v42.33Z"/><path fill="#0D1214" d="M257.04 147.54h-35.32v-6.88h35.32v6.88Zm-33.32-2h31.32v-2.88h-31.32v2.88ZM253.88 115.1h-29.02v2h29.02v-2ZM253.88 110.54h-29.02v2h29.02v-2ZM253.88 105.98h-29.02v2h29.02v-2ZM253.88 101.42h-29.02v2h29.02v-2ZM211.25 79.61h-2V37.28a.51.51 0 0 0-.51-.51h-25.66a.51.51 0 0 0-.51.51v42.33h-2V37.28a2.52 2.52 0 0 1 2.51-2.51h25.66a2.52 2.52 0 0 1 2.51 2.51v42.33Z"/><path fill="#0D1214" d="M213.57 85.98h-35.32v-6.89h35.32v6.89Zm-33.32-2h31.32v-2.89h-31.32v2.89Z"/><path fill="#0D1214" d="M211.42 89.05H180.4v-3.59h2v1.59h27.02v-1.59h2v3.59ZM210.42 53.54H181.4v2h29.02v-2ZM210.42 48.98H181.4v2h29.02v-2ZM210.42 44.42H181.4v2h29.02v-2ZM210.42 39.85H181.4v2h29.02v-2ZM211.25 141.17h-2V98.84a.51.51 0 0 0-.51-.51h-25.66a.51.51 0 0 0-.51.51v42.33h-2V98.84a2.52 2.52 0 0 1 2.51-2.51h25.66a2.52 2.52 0 0 1 2.51 2.51v42.33Z"/><path fill="#0D1214" d="M213.57 147.54h-35.32v-6.88h35.32v6.88Zm-33.32-2h31.32v-2.88h-31.32v2.88ZM210.42 115.1H181.4v2h29.02v-2ZM210.42 110.54H181.4v2h29.02v-2ZM210.42 105.98H181.4v2h29.02v-2ZM210.42 101.42H181.4v2h29.02v-2Z"/><path fill="#fff" d="M255.12 173.51c5.24-7.89 15.48-13.62 27.39-13.62s22.47 5.51 27.63 13.59"/><path fill="#0D1214" d="M282.62 211.29h-28.44V172.7h28.44v2h-26.44v34.59h26.44v2Z"/><path fill="#0D1214" d="M278.12 190.14h-18.43v-11.67h18.43v11.67Zm-16.43-2h14.43v-7.67h-14.43v7.67ZM278.12 205.52h-18.43v-11.68h18.43v11.68Zm-16.43-2h14.43v-7.68h-14.43v7.68ZM309.29 174.02c-5.17-8.1-15.43-13.13-26.78-13.13-11.35 0-21.38 4.97-26.69 12.96l-1.67-1.11c5.67-8.55 16.54-13.86 28.36-13.86s22.94 5.38 28.47 14.05l-1.69 1.08v.01Z"/><path fill="#0D1214" d="m265.3 174.5-1.59-1.21c3.75-4.9 10.96-7.94 18.83-7.94 7.87 0 15.03 3.02 18.79 7.88l-1.58 1.22c-3.39-4.38-9.98-7.11-17.21-7.11s-13.87 2.74-17.25 7.16h.01Z"/><path fill="#0D1214" d="m260.98 167.62-1.29 1.53 7.15 6.03 1.3-1.53-7.16-6.03ZM315.97 218.45h-66.7v-9.16h66.7v9.16Zm-64.7-2h62.7v-5.16h-62.7v5.16Z"/><path fill="#0D1214" d="M325.77 227.55h-2v-8.96h-82.3v8.96h-2v-10.96h86.3v10.96Z"/><path fill="#92DC8D" d="M216.29 221.77h-6.54a2.41 2.41 0 0 1-2.41-2.41v-24.21a5.68 5.68 0 0 1 11.36 0v24.21a2.41 2.41 0 0 1-2.41 2.41Z"/><path fill="#0D1214" d="M216.29 222.77h-6.54a3.41 3.41 0 0 1-3.41-3.41v-24.21a6.7 6.7 0 0 1 13.36 0v24.21a3.41 3.41 0 0 1-3.41 3.41Zm-3.27-32.31a4.69 4.69 0 0 0-4.68 4.68v24.21c0 .78.63 1.41 1.41 1.41h6.54a1.4 1.4 0 0 0 1.41-1.41v-24.21c0-2.58-2.1-4.68-4.68-4.68Z"/><path fill="#92DC8D" d="M204.93 213.71h-6.54a2.41 2.41 0 0 1-2.41-2.41v-24.21a5.68 5.68 0 0 1 11.36 0v24.21a2.41 2.41 0 0 1-2.41 2.41Z"/><path fill="#0D1214" d="M204.93 214.72h-6.54a3.41 3.41 0 0 1-3.41-3.41V187.1a6.69 6.69 0 0 1 13.36 0v24.21a3.41 3.41 0 0 1-3.41 3.41Zm-3.27-32.31a4.69 4.69 0 0 0-4.68 4.68v24.21c0 .78.63 1.41 1.41 1.41h6.54a1.4 1.4 0 0 0 1.41-1.41v-24.21c0-2.58-2.1-4.68-4.68-4.68Z"/><path fill="#92DC8D" d="M227.65 213.71h-6.54a2.41 2.41 0 0 1-2.41-2.41v-24.21a5.68 5.68 0 0 1 11.36 0v24.21a2.41 2.41 0 0 1-2.41 2.41Z"/><path fill="#0D1214" d="M227.65 214.72h-6.54a3.41 3.41 0 0 1-3.41-3.41V187.1a6.69 6.69 0 0 1 13.36 0v24.21a3.41 3.41 0 0 1-3.41 3.41Zm-3.27-32.31a4.69 4.69 0 0 0-4.68 4.68v24.21c0 .78.63 1.41 1.41 1.41h6.54a1.4 1.4 0 0 0 1.41-1.41v-24.21c0-2.58-2.1-4.68-4.68-4.68Z"/><path fill="#92DC8D" d="M193.56 222.56h-6.54a2.41 2.41 0 0 1-2.41-2.41v-26.84a5.68 5.68 0 0 1 11.36 0v26.84a2.41 2.41 0 0 1-2.41 2.41Z"/><path fill="#0D1214" d="M193.56 223.56h-6.54a3.41 3.41 0 0 1-3.41-3.41v-26.84a6.7 6.7 0 0 1 13.36 0v26.84a3.41 3.41 0 0 1-3.41 3.41Zm-3.27-34.93a4.69 4.69 0 0 0-4.68 4.68v26.84c0 .78.63 1.41 1.41 1.41h6.54a1.4 1.4 0 0 0 1.41-1.41v-26.84c0-2.58-2.1-4.68-4.68-4.68Z"/><path fill="#CAA587" d="M233.02 212.13h-51.13v15.49h51.13v-15.49Z"/><path fill="#0D1214" d="M234.02 228.62h-53.13v-17.49h53.13v17.49Zm-51.13-2h49.13v-13.49h-49.13v13.49Z"/><path fill="#0D1214" d="M191.28 196.14h-2v15.88h2v-15.88ZM202.84 186.45h-2v25.57h2v-25.57ZM214.4 198.82h-2v13.19h2v-13.19ZM225.64 186.92h-2v25.1h2v-25.1Z"/><path fill="#606060" d="M407.7 1.75H156v14.97h251.7V1.75Z"/><path fill="#0D1214" d="M408.71 17.72h-253.7V.75h253.7v16.97Zm-251.7-2h249.7V2.75h-249.7v12.97Z"/><path fill="#EA5328" d="M99.85 171.38h-8.23l5 10.94h8.57l-5.34-10.94Z"/><path fill="#0D1214" d="M106 182.82h-9.7l-5.46-11.94h9.32l5.83 11.94h.01Zm-9.05-1h7.45l-4.85-9.94h-7.14l4.54 9.94Z"/><path fill="#EA5328" d="M36.9 171.38h-9.02l-5.25 10.94h9.19l5.08-10.94Z"/><path fill="#0D1214" d="M32.14 182.82H21.83l5.73-11.94h10.12l-5.54 11.94Zm-8.72-1h8.08l4.61-9.94h-7.92l-4.77 9.94Z"/><path fill="#EA5328" d="M53.89 171.38h-8.1l-4.33 10.94h8.58l3.85-10.94Z"/><path fill="#0D1214" d="M50.39 182.82h-9.66l4.72-11.94h9.15l-4.2 11.94h-.01Zm-8.19-1h7.48l3.5-9.94h-7.06l-3.93 9.94h.01Z"/><path fill="#EA5328" d="M66.76 171.38h-5.52l-1.65 10.94 8.88.31-1.71-11.25Z"/><path fill="#0D1214" d="M69.05 183.15 59 182.8l1.8-11.92h6.38l1.87 12.27Zm-8.89-1.31 7.72.27-1.56-10.23h-4.66l-1.51 9.96h.01Z"/><path fill="#EA5328" d="M82.69 171.38h-8.23l3.6 10.94h8.57l-3.94-10.94Z"/><path fill="#0D1214" d="M87.35 182.82H77.7l-3.92-11.94h9.27l4.3 11.94Zm-8.92-1h7.5l-3.58-9.94h-7.19l3.27 9.94Z"/><path fill="#0D1214" d="m23.29 182.58-1.79-.89 5.65-11.41H101l5.66 11.05-1.78.91-5.11-9.96H28.39l-5.1 10.3Z"/><path fill="#0D1214" d="m44.73 170.9-4.52 11.34 1.85.74 4.53-11.33-1.86-.74ZM53.09 170.98l-3.65 11.32 1.9.62L55 171.59l-1.9-.61ZM60.39 171.11l-1.9 11.34 1.97.33 1.9-11.34-1.97-.33ZM67.82 171.11l-1.97.33 1.9 11.33 1.97-.33-1.9-11.33ZM75.14 170.97l-1.9.61 3.65 11.33 1.9-.62-3.65-11.32ZM36.38 170.84l-5.4 11.33 1.8.86 5.4-11.33-1.8-.86ZM83.51 170.92l-1.85.74 4.53 11.33 1.86-.75-4.54-11.32Z"/><path fill="#0D1214" d="M106.67 209.82H21.49v-28.61h85.17v28.61h.01Zm-83.15-2.02h81.13v-24.58H23.51v24.58h.01Z"/><path fill="#0D1214" d="m92.12 170.86-1.8.86 5.4 11.33 1.8-.86-5.4-11.33ZM23.55 208.81h-2v18.47h2v-18.47Z"/><path stroke="#0D1214" stroke-miterlimit="10" stroke-width="2" d="M7.92 149.02v78.77"/><path fill="url(#paint0_linear_956_7997)" d="m115.21 95.09-.17 2.82a4.74 4.74 0 0 1-3.45-3.45l-.65-2.61c-.21-.83-1.19-2.4-2.33-3.77l.78-.19a9.07 9.07 0 0 0 6.89-8.82c0-4.18-5.29-11.57-9.34-12.58l-3.9 2.17a11.6 11.6 0 0 1-8.46-8.46l-1.59-6.36c-1.01-4.06-6.15-10.51-10.33-10.51s-6.3 6.45-7.31 10.51l-1.59 6.36a11.6 11.6 0 0 1-8.46 8.46l-6.36 1.59c-4.06 1.01-9.6 2.6-9.6 6.78s5.54 9.85 9.6 10.87l6.36 1.59a11.6 11.6 0 0 1 8.46 8.46l-1.36 3.37c1.01 4.06 7.59 9.88 11.77 9.88a9.07 9.07 0 0 0 8.82-6.89l.32-1.29c1.25 1.38 2.77 2.62 3.64 2.84l2.61.65a4.74 4.74 0 0 1 3.45 3.45l-1.91-.08c.42 1.67 4.48 5.53 6.2 5.53a3.75 3.75 0 0 0 3.64-2.84l.65-2.61a4.74 4.74 0 0 1 3.45-3.45l2.61-.65a3.75 3.75 0 0 0 2.84-3.64c0-1.72-3.6-6.69-5.28-7.11v-.02Zm-29.36.66-1.59 6.36a.12.12 0 0 1-.11.09.12.12 0 0 1-.11-.09l-1.59-6.36c-1.85-7.4-8.55-16.25-15.95-18.1l-5.4 1.52a.12.12 0 0 1-.09-.11c0-.05.03-.1.08-.11l6.36-1.59a20.56 20.56 0 0 0 14.99-14.99l1.59-6.36a.12.12 0 0 1 .11-.09c.05 0 .1.04.11.09l-1.31 3.43c1.85 7.4 10.5 16.07 17.9 17.92l6.36 1.59c.05.01.09.06.09.11s-.03.1-.08.11l-6.36 1.59a20.56 20.56 0 0 0-14.99 14.99h-.01Z"/><path fill="#fff" fill-rule="evenodd" d="M103.93 110.48a2.83 2.83 0 0 1-2.74-2.14l-.65-2.61a5.66 5.66 0 0 0-4.13-4.13l-2.61-.65a2.82 2.82 0 0 1 0-5.48l2.61-.65a5.66 5.66 0 0 0 4.13-4.13l.65-2.61a2.82 2.82 0 0 1 5.48 0l.65 2.61a5.66 5.66 0 0 0 4.13 4.13l2.61.65a2.83 2.83 0 0 1 .01 5.48l-2.61.65a5.66 5.66 0 0 0-4.13 4.13l-.65 2.61a2.81 2.81 0 0 1-2.74 2.14h-.01Zm-23.14-4.21a8.15 8.15 0 0 1-7.92-6.18l-1.59-6.36a12.52 12.52 0 0 0-9.13-9.13l-6.36-1.59a8.15 8.15 0 0 1 0-15.84l6.36-1.59a12.55 12.55 0 0 0 9.14-9.13l1.59-6.36a8.15 8.15 0 0 1 15.84 0l1.59 6.36a12.52 12.52 0 0 0 9.13 9.13l6.36 1.59a8.15 8.15 0 0 1 0 15.84l-6.36 1.59a12.55 12.55 0 0 0-9.14 9.13l-1.59 6.36a8.15 8.15 0 0 1-7.92 6.18Zm0-55.25c-.48 0-.9.33-1.01.79l-1.59 6.36a19.66 19.66 0 0 1-14.32 14.32l-6.36 1.59a1.04 1.04 0 0 0 0 2.02l6.36 1.59a19.66 19.66 0 0 1 14.32 14.32l1.59 6.36a1.04 1.04 0 0 0 2.02 0l1.59-6.36a19.66 19.66 0 0 1 14.32-14.32l6.36-1.59a1.04 1.04 0 0 0 0-2.02l-6.36-1.59a19.66 19.66 0 0 1-14.32-14.32l-1.59-6.36a1.04 1.04 0 0 0-1.01-.79Z" clip-rule="evenodd"/><path fill="#0D1214" d="M80.8 44.83a7.24 7.24 0 0 1 7.02 5.48l1.59 6.36a13.5 13.5 0 0 0 9.81 9.81l6.36 1.59a7.23 7.23 0 0 1 0 14.04l-6.36 1.59a13.48 13.48 0 0 0-9.81 9.81l-1.59 6.36a7.23 7.23 0 0 1-14.04 0l-1.59-6.36a13.48 13.48 0 0 0-9.81-9.81l-6.36-1.59a7.23 7.23 0 0 1 0-14.04l6.36-1.59a13.48 13.48 0 0 0 9.81-9.81l1.59-6.36a7.23 7.23 0 0 1 7.02-5.48Zm0 55.25c.91 0 1.7-.62 1.92-1.5l1.59-6.36a18.75 18.75 0 0 1 13.64-13.64l6.36-1.59a1.98 1.98 0 0 0 0-3.84l-6.36-1.59a18.74 18.74 0 0 1-13.64-13.64l-1.59-6.36a1.98 1.98 0 0 0-3.84 0l-1.59 6.36a18.75 18.75 0 0 1-13.64 13.64l-6.36 1.59a1.98 1.98 0 0 0 0 3.84l6.36 1.59a18.74 18.74 0 0 1 13.64 13.64l1.59 6.36c.22.88 1.01 1.5 1.92 1.5Zm23.14-13.19c.87 0 1.62.59 1.83 1.43l.65 2.61a6.6 6.6 0 0 0 4.81 4.81l2.61.65a1.9 1.9 0 0 1 0 3.66l-2.61.65a6.6 6.6 0 0 0-4.81 4.81l-.65 2.61a1.9 1.9 0 0 1-3.66 0l-.65-2.61a6.6 6.6 0 0 0-4.81-4.81l-2.61-.65a1.9 1.9 0 0 1 0-3.66l2.61-.65a6.6 6.6 0 0 0 4.81-4.81l.65-2.61a1.9 1.9 0 0 1 1.83-1.43ZM80.8 42.96a9.07 9.07 0 0 0-8.82 6.89l-1.59 6.36a11.6 11.6 0 0 1-8.46 8.46l-6.36 1.59a9.07 9.07 0 0 0-6.89 8.82 9.07 9.07 0 0 0 6.89 8.82l6.36 1.59a11.6 11.6 0 0 1 8.46 8.46l1.59 6.36a9.07 9.07 0 0 0 8.82 6.89 9.07 9.07 0 0 0 8.82-6.89l1.59-6.36a11.6 11.6 0 0 1 8.46-8.46l6.36-1.59a9.07 9.07 0 0 0 6.89-8.82 9.07 9.07 0 0 0-6.89-8.82l-6.36-1.59a11.6 11.6 0 0 1-8.46-8.46l-1.59-6.36a9.07 9.07 0 0 0-8.82-6.89Zm0 55.25a.12.12 0 0 1-.11-.09l-1.59-6.36a20.56 20.56 0 0 0-14.99-14.99l-6.36-1.59a.12.12 0 0 1-.09-.11c0-.05.04-.1.09-.11l6.36-1.59A20.57 20.57 0 0 0 79.1 58.38l1.59-6.36a.12.12 0 0 1 .11-.09c.05 0 .1.04.11.09l1.59 6.36a20.56 20.56 0 0 0 14.99 14.99l6.36 1.59c.05.01.09.06.09.11s-.04.1-.09.11l-6.36 1.59A20.57 20.57 0 0 0 82.5 91.76l-1.59 6.36a.12.12 0 0 1-.11.09Zm23.14-13.19a3.75 3.75 0 0 0-3.64 2.84l-.65 2.61a4.74 4.74 0 0 1-3.45 3.45l-2.61.65a3.75 3.75 0 0 0 0 7.28l2.61.65a4.74 4.74 0 0 1 3.45 3.45l.65 2.61a3.75 3.75 0 0 0 7.28 0l.65-2.61a4.74 4.74 0 0 1 3.45-3.45l2.61-.65a3.75 3.75 0 0 0 0-7.28l-2.61-.65a4.74 4.74 0 0 1-3.45-3.45l-.65-2.61a3.75 3.75 0 0 0-3.64-2.84Z"/><defs><linearGradient id="paint0_linear_956_7997" x1="62.34" x2="117.95" y1="59.93" y2="106.59" gradientUnits="userSpaceOnUse"><stop stop-color="#997DBC"/><stop offset=".6" stop-color="#E93389"/><stop offset=".97" stop-color="#EB674B"/></linearGradient></defs></svg>