<svg xmlns="http://www.w3.org/2000/svg" viewBox="0 0 400 141" fill="none"><g fill="#0D1214" opacity=".05"><path d="M1127.64 148.38v.62C418.82-238.56-289.98 290.95-998.8 46.45v-5.23c708.82 246.06 1417.62-281.94 2126.44 107.16Z"/><path d="M1127.64 155.64v.65C418.82-211.46-289.98 333.46-998.8 108.56v-5.34c708.82 226.48 1417.62-316.85 2126.44 52.42Z"/><path d="M1127.64 163.3v.66C418.82-188.16-289.98 379.58-998.8 171.9v-5.48c708.82 209.3 1417.62-356.84 2126.44-3.13Z"/><path d="M1127.64 171.4v.67C418.82-160.2-289.98 424.67-998.8 236.91v-5.57c708.82 189.4 1417.62-393.83 2126.44-59.94Z"/><path d="M1127.64 179.05v.67C418.82-134.7-289.98 471.52-998.8 302.7v-5.65c708.82 170.5 1417.62-434.08 2126.44-118.01Z"/><path d="M1127.64 187.01v.69C418.82-106.87-289.98 517.42-998.8 368.74v-5.67c708.82 150.36 1417.62-472.25 2126.44-176.06Z"/><path d="M1127.64 195.06v.66C418.82-79.53-289.98 564.58-998.8 435.75v-5.72C-289.98 560.55 418.82-81.9 1127.64 195.06Z"/></g></svg>