<svg xmlns="http://www.w3.org/2000/svg" width="1491" height="412" fill="none"><path fill="#1B1B1F" d="M118.032 111.152c17.414-9.245 37.194-13.76 59.553-13.76 26.015 0 49.664 6.45 70.733 19.35 21.07 12.9 37.839 30.959 50.094 54.609 12.255 23.649 18.49 50.953 18.49 82.127 0 31.175-6.235 58.694-18.49 82.773-12.255 24.08-29.024 42.569-50.094 55.899-21.069 13.114-44.718 19.779-70.733 19.779-22.789 0-42.569-4.515-59.553-13.544-16.985-9.03-30.744-20.64-41.064-34.83v43.429H0V0h76.968v146.841c9.89-14.619 23.649-26.659 41.064-35.689Zm108.787 94.813c-7.525-13.33-17.415-23.65-29.669-30.53-12.255-6.879-25.585-10.534-39.774-10.534-14.19 0-27.089 3.655-39.344 10.749-12.255 7.095-22.144 17.415-29.67 31.175-7.524 13.544-11.179 29.454-11.179 47.728 0 18.275 3.655 34.184 11.18 47.729 7.525 13.545 17.414 23.864 29.669 31.174 12.255 7.095 25.369 10.75 39.344 10.75 13.974 0 27.519-3.655 39.774-10.965 12.254-7.31 22.144-17.844 29.669-31.389 7.525-13.545 11.18-29.669 11.18-48.374 0-18.704-3.87-34.184-11.18-47.513ZM460.519 111.582c15.91-9.245 34.184-13.76 54.609-13.76v80.838h-20.425c-24.294 0-42.354 5.59-54.609 16.985-12.254 11.394-18.489 31.174-18.489 59.338v151.786h-76.968V102.337h76.968v47.299c9.89-16.125 22.789-28.809 38.699-37.839l.215-.215ZM548.451 171.565c12.255-23.864 29.025-42.138 50.094-55.038 21.07-12.9 44.719-19.35 70.733-19.35 22.79 0 42.569 4.515 59.554 13.76 16.984 9.245 30.744 20.64 41.064 34.614v-43.429h77.613v304.647h-77.613v-44.504c-9.89 14.19-23.65 26.015-41.064 35.475-17.415 9.244-37.409 13.974-60.199 13.974-25.584 0-49.018-6.665-70.088-19.779-21.069-13.115-37.839-31.819-50.094-55.899-12.254-24.079-18.489-51.598-18.489-82.773 0-31.174 6.235-58.048 18.489-81.913v.215Zm210.265 34.83c-7.31-13.33-17.2-23.65-29.669-30.745-12.47-7.094-25.8-10.749-40.204-10.749-14.405 0-27.519 3.44-39.559 10.534-12.04 6.88-21.93 17.2-29.454 30.53-7.525 13.329-11.18 29.239-11.18 47.513 0 18.275 3.655 34.399 11.18 48.159 7.524 13.76 17.414 24.294 29.669 31.604 12.254 7.31 25.369 10.965 39.344 10.965 13.974 0 27.734-3.655 40.204-10.75 12.469-7.095 22.359-17.414 29.669-30.744 7.31-13.33 10.965-29.454 10.965-48.159 0-18.704-3.655-34.829-10.965-48.158ZM1032.62 336.037l76.97-233.699h81.91l-112.66 304.647h-93.521L873.092 102.338h82.558l76.97 233.699ZM1487.97 277.773h-222.73c1.72 21.929 9.46 39.129 23.01 51.598 13.54 12.47 30.31 18.705 50.09 18.705 28.59 0 49.02-12.255 61.06-36.764h82.99c-8.82 29.239-25.59 53.318-50.53 72.238-24.94 18.919-55.47 28.379-91.8 28.379-29.24 0-55.68-6.45-78.9-19.564-23.22-12.9-41.5-31.39-54.4-55.254-13.11-23.864-19.56-51.384-19.56-82.558 0-31.174 6.45-59.123 19.35-82.988 12.9-23.864 30.74-42.138 53.96-55.038 23.01-12.9 49.66-19.35 79.76-19.35 30.1 0 54.83 6.235 77.83 18.705 23.01 12.47 40.64 30.099 53.32 53.104 12.69 23.004 18.92 49.233 18.92 78.902 0 10.965-.65 20.855-2.15 29.67l-.22.215Zm-77.61-51.599c-.43-19.779-7.52-35.689-21.5-47.514-13.97-11.824-30.96-17.844-51.17-17.844-19.13 0-35.04 5.805-48.15 17.414-13.12 11.61-21.07 27.52-23.87 48.159h144.69v-.215Z"/></svg>