<svg width="200" height="88" viewBox="0 -5 147 38" fill="none" xmlns="http://www.w3.org/2000/svg">
<path fill-rule="evenodd" clip-rule="evenodd" d="M23.3152 6.70302L23.9712 5.09451C23.9712 5.09451 23.1362 4.20089 22.1223 3.18813C21.1084 2.17536 18.9613 2.77111 18.9613 2.77111L16.516 0H12.2218H7.9276L5.48229 2.77111C5.48229 2.77111 3.33518 2.17536 2.32128 3.18813C1.30737 4.20089 0.472382 5.09451 0.472382 5.09451L1.12844 6.70302L0.293457 9.086C0.293457 9.086 2.7492 18.3769 3.03698 19.5115C3.60357 21.7456 3.99124 22.6094 5.60157 23.7413C7.2119 24.8732 10.1343 26.8392 10.6115 27.1371C11.0886 27.4349 11.685 27.9423 12.2218 27.9423C12.7586 27.9423 13.355 27.4349 13.8321 27.1371C14.3093 26.8392 17.2317 24.8732 18.842 23.7413C20.4524 22.6094 20.84 21.7456 21.4066 19.5115C21.6943 18.3769 24.1501 9.086 24.1501 9.086L23.3152 6.70302Z" fill="url(#paint0_linear_17_944)"/>
<path d="M15.2636 5.03498C15.6214 5.03498 18.2755 4.5286 18.2755 4.5286C18.2755 4.5286 21.4207 8.32647 21.4207 9.13818C21.4207 9.80929 21.1503 10.072 20.8317 10.3813C20.765 10.4461 20.6962 10.513 20.6273 10.5861L18.2689 13.0875C18.2455 13.1123 18.2195 13.1385 18.192 13.1661C17.9566 13.4026 17.6099 13.7507 17.8545 14.3289C17.8709 14.3675 17.8877 14.4068 17.9048 14.4467C18.1729 15.0731 18.504 15.8465 18.0826 16.6301C17.6343 17.4637 16.8664 18.0201 16.3744 17.9281C15.8824 17.836 14.7268 17.2329 14.3019 16.9573C13.8769 16.6818 12.5301 15.5723 12.5301 15.1478C12.5301 14.7937 13.4987 14.2047 13.9693 13.9185C14.0629 13.8616 14.1368 13.8166 14.1795 13.7879C14.2281 13.7552 14.3093 13.7048 14.4093 13.6427C14.8389 13.3762 15.6145 12.8948 15.634 12.6814C15.6579 12.4183 15.6488 12.3411 15.3026 11.6911C15.229 11.5528 15.1428 11.4048 15.0538 11.2517C14.7241 10.6851 14.3549 10.0507 14.4366 9.59619C14.5289 9.08315 15.3337 8.789 16.0154 8.53984C16.1006 8.5087 16.1839 8.47826 16.2636 8.44818C16.4625 8.37314 16.7125 8.2796 16.9737 8.18189C17.6543 7.92723 18.4105 7.64429 18.5352 7.58686C18.7079 7.50733 18.6633 7.43161 18.1404 7.3821C18.0712 7.37555 17.9852 7.36642 17.8865 7.35594C17.2392 7.28724 16.0455 7.16052 15.4651 7.32211C15.351 7.35389 15.223 7.3885 15.0888 7.4248C14.4368 7.60117 13.6377 7.81732 13.5609 7.94192C13.5475 7.96372 13.5343 7.98246 13.5218 8.00016C13.4484 8.10444 13.4005 8.17243 13.4818 8.61553C13.506 8.74748 13.5557 9.00702 13.6172 9.32793C13.7973 10.2676 14.0783 11.7333 14.1137 12.0626C14.1186 12.1087 14.1241 12.1531 14.1293 12.1959C14.1744 12.5633 14.2044 12.8077 13.7773 12.9052C13.7417 12.9134 13.7044 12.9219 13.6656 12.9308C13.1836 13.0413 12.4771 13.2032 12.2218 13.2032C11.9665 13.2032 11.2594 13.0412 10.7775 12.9307C10.7389 12.9218 10.7018 12.9133 10.6664 12.9052C10.2392 12.8077 10.2692 12.5632 10.3143 12.1959C10.3195 12.1531 10.325 12.1087 10.33 12.0626C10.3654 11.7328 10.6471 10.2635 10.8272 9.32404C10.8884 9.00492 10.9378 8.74694 10.9619 8.61553C11.0431 8.17247 10.9953 8.10445 10.9219 8.00018C10.9094 7.98248 10.8962 7.96373 10.8828 7.94192C10.806 7.81732 10.007 7.6012 9.35495 7.42483C9.22072 7.38852 9.09272 7.3539 8.97853 7.32211C8.39819 7.16053 7.20455 7.28723 6.55724 7.35593C6.45849 7.36641 6.37245 7.37555 6.30324 7.3821C5.78042 7.43161 5.73581 7.50733 5.90842 7.58686C6.03312 7.64428 6.78898 7.92708 7.46946 8.18169C7.7308 8.27947 7.98102 8.37309 8.18011 8.44818C8.25987 8.47827 8.34318 8.50873 8.42842 8.53989C9.11007 8.78904 9.91481 9.08318 10.0071 9.59619C10.0888 10.0506 9.71968 10.6849 9.39005 11.2515C9.30096 11.4046 9.21476 11.5527 9.14112 11.6911C8.79489 12.3411 8.78571 12.4183 8.80975 12.6814C8.82919 12.8948 9.60451 13.376 10.0341 13.6426C10.1342 13.7047 10.2156 13.7552 10.2642 13.7879C10.3068 13.8166 10.3806 13.8615 10.4742 13.9184C10.9447 14.2045 11.9136 14.7936 11.9136 15.1478C11.9136 15.5723 10.5668 16.6818 10.1418 16.9573C9.7169 17.2329 8.56134 17.836 8.06929 17.9281C7.57725 18.0201 6.80936 17.4637 6.3611 16.6301C5.93974 15.8465 6.2707 15.0733 6.53882 14.4469C6.55591 14.4069 6.57274 14.3676 6.58911 14.3289C6.83373 13.7506 6.48703 13.4025 6.25159 13.1661C6.22407 13.1384 6.19807 13.1123 6.17472 13.0875L3.81636 10.5861C3.74748 10.513 3.67866 10.4462 3.61195 10.3814C3.29341 10.072 3.02295 9.80932 3.02295 9.13818C3.02295 8.32647 6.16821 4.5286 6.16821 4.5286C6.16821 4.5286 8.82227 5.03498 9.18012 5.03498C9.46567 5.03498 10.0171 4.84532 10.5918 4.6476C10.7374 4.59754 10.8844 4.54696 11.029 4.49881C11.7447 4.26052 12.2218 4.25879 12.2218 4.25879C12.2218 4.25879 12.699 4.26052 13.4147 4.49881C13.5593 4.54696 13.7063 4.59754 13.8519 4.6476C14.4266 4.84532 14.978 5.03498 15.2636 5.03498Z" fill="white"/>
<path d="M14.808 18.4685C15.3691 18.7573 15.7671 18.9621 15.9176 19.0562C16.1123 19.178 15.9935 19.4075 15.8162 19.5327C15.6388 19.658 13.2555 21.5014 13.0242 21.7052C12.9946 21.7313 12.9632 21.7595 12.9305 21.789C12.7077 21.9896 12.4234 22.2455 12.2218 22.2455C12.0202 22.2455 11.7357 21.9894 11.5129 21.7887C11.4803 21.7594 11.449 21.7312 11.4195 21.7052C11.1881 21.5014 8.80484 19.658 8.62747 19.5327C8.4501 19.4075 8.33141 19.178 8.52608 19.0562C8.67667 18.9621 9.0751 18.757 9.63672 18.4679C9.80133 18.3832 9.97995 18.2913 10.1705 18.1928C11.0109 17.7584 12.0584 17.389 12.2218 17.389C12.3853 17.389 13.4327 17.7584 14.2733 18.1928C14.4642 18.2915 14.6431 18.3836 14.808 18.4685Z" fill="white"/>
<path d="M132.928 10.64C133.288 10.0533 133.755 9.59334 134.328 9.26001C134.915 8.92668 135.582 8.76001 136.328 8.76001V11.7H135.588C134.708 11.7 134.042 11.9067 133.588 12.32C133.148 12.7333 132.928 13.4533 132.928 14.48V20H130.128V8.92001H132.928V10.64Z" fill="white"/>
<path d="M128.885 14.22C128.885 14.62 128.858 14.98 128.805 15.3H120.705C120.771 16.1 121.051 16.7267 121.545 17.18C122.038 17.6333 122.645 17.86 123.365 17.86C124.405 17.86 125.145 17.4133 125.585 16.52H128.605C128.285 17.5867 127.671 18.4667 126.765 19.16C125.858 19.84 124.745 20.18 123.425 20.18C122.358 20.18 121.398 19.9467 120.545 19.48C119.705 19 119.045 18.3267 118.565 17.46C118.098 16.5933 117.865 15.5933 117.865 14.46C117.865 13.3133 118.098 12.3067 118.565 11.44C119.031 10.5733 119.685 9.90666 120.525 9.43999C121.365 8.97332 122.331 8.73999 123.425 8.73999C124.478 8.73999 125.418 8.96666 126.245 9.41999C127.085 9.87332 127.731 10.52 128.185 11.36C128.651 12.1867 128.885 13.14 128.885 14.22ZM125.985 13.42C125.971 12.7 125.711 12.1267 125.205 11.7C124.698 11.26 124.078 11.04 123.345 11.04C122.651 11.04 122.065 11.2533 121.585 11.68C121.118 12.0933 120.831 12.6733 120.725 13.42H125.985Z" fill="white"/>
<path d="M114.891 11.2199V16.5799C114.891 16.9533 114.977 17.2266 115.151 17.3999C115.337 17.5599 115.644 17.6399 116.071 17.6399H117.371V19.9999H115.611C113.251 19.9999 112.071 18.8533 112.071 16.5599V11.2199H110.751V8.91993H112.071V6.17993H114.891V8.91993H117.371V11.2199H114.891Z" fill="white"/>
<path d="M105.548 8.76001C106.868 8.76001 107.935 9.18001 108.748 10.02C109.562 10.8467 109.968 12.0067 109.968 13.5V20H107.168V13.88C107.168 13 106.948 12.3267 106.508 11.86C106.068 11.38 105.468 11.14 104.708 11.14C103.935 11.14 103.322 11.38 102.868 11.86C102.428 12.3267 102.208 13 102.208 13.88V20H99.4082V8.92001H102.208V10.3C102.582 9.82001 103.055 9.44668 103.628 9.18001C104.215 8.90001 104.855 8.76001 105.548 8.76001Z" fill="white"/>
<path d="M98.1643 14.22C98.1643 14.62 98.1376 14.98 98.0843 15.3H89.9843C90.051 16.1 90.331 16.7267 90.8243 17.18C91.3176 17.6333 91.9243 17.86 92.6443 17.86C93.6843 17.86 94.4243 17.4133 94.8643 16.52H97.8843C97.5643 17.5867 96.951 18.4667 96.0443 19.16C95.1376 19.84 94.0243 20.18 92.7043 20.18C91.6376 20.18 90.6776 19.9467 89.8243 19.48C88.9843 19 88.3243 18.3267 87.8443 17.46C87.3776 16.5933 87.1443 15.5933 87.1443 14.46C87.1443 13.3133 87.3776 12.3067 87.8443 11.44C88.311 10.5733 88.9643 9.90666 89.8043 9.43999C90.6443 8.97332 91.611 8.73999 92.7043 8.73999C93.7576 8.73999 94.6976 8.96666 95.5243 9.41999C96.3643 9.87332 97.011 10.52 97.4643 11.36C97.931 12.1867 98.1643 13.14 98.1643 14.22ZM95.2643 13.42C95.251 12.7 94.991 12.1267 94.4843 11.7C93.9776 11.26 93.3576 11.04 92.6243 11.04C91.931 11.04 91.3443 11.2533 90.8643 11.68C90.3976 12.0933 90.111 12.6733 90.0043 13.42H95.2643Z" fill="white"/>
<path d="M75.9131 14.46C75.9131 13.3133 76.1464 12.3133 76.6131 11.46C77.0798 10.5933 77.7264 9.92666 78.5531 9.45999C79.3798 8.97999 80.3264 8.73999 81.3931 8.73999C82.7664 8.73999 83.8998 9.08666 84.7931 9.77999C85.6998 10.46 86.3064 11.42 86.6131 12.66H83.5931C83.4331 12.18 83.1598 11.8067 82.7731 11.54C82.3998 11.26 81.9331 11.12 81.3731 11.12C80.5731 11.12 79.9398 11.4133 79.4731 12C79.0064 12.5733 78.7731 13.3933 78.7731 14.46C78.7731 15.5133 79.0064 16.3333 79.4731 16.92C79.9398 17.4933 80.5731 17.78 81.3731 17.78C82.5064 17.78 83.2464 17.2733 83.5931 16.26H86.6131C86.3064 17.46 85.6998 18.4133 84.7931 19.12C83.8864 19.8267 82.7531 20.18 81.3931 20.18C80.3264 20.18 79.3798 19.9467 78.5531 19.48C77.7264 19 77.0798 18.3333 76.6131 17.48C76.1464 16.6133 75.9131 15.6067 75.9131 14.46Z" fill="white"/>
<path d="M62.7128 10.52C63.0728 10.0133 63.5662 9.59332 64.1928 9.25999C64.8328 8.91332 65.5595 8.73999 66.3728 8.73999C67.3195 8.73999 68.1728 8.97332 68.9328 9.43999C69.7062 9.90666 70.3128 10.5733 70.7528 11.44C71.2062 12.2933 71.4328 13.2867 71.4328 14.42C71.4328 15.5533 71.2062 16.56 70.7528 17.44C70.3128 18.3067 69.7062 18.98 68.9328 19.46C68.1728 19.94 67.3195 20.18 66.3728 20.18C65.5595 20.18 64.8395 20.0133 64.2128 19.68C63.5995 19.3467 63.0995 18.9267 62.7128 18.42V25.28H59.9128V8.91999H62.7128V10.52ZM68.5728 14.42C68.5728 13.7533 68.4328 13.18 68.1528 12.7C67.8862 12.2067 67.5262 11.8333 67.0728 11.58C66.6328 11.3267 66.1528 11.2 65.6328 11.2C65.1262 11.2 64.6462 11.3333 64.1928 11.6C63.7528 11.8533 63.3928 12.2267 63.1128 12.72C62.8462 13.2133 62.7128 13.7933 62.7128 14.46C62.7128 15.1267 62.8462 15.7067 63.1128 16.2C63.3928 16.6933 63.7528 17.0733 64.1928 17.34C64.6462 17.5933 65.1262 17.72 65.6328 17.72C66.1528 17.72 66.6328 17.5867 67.0728 17.32C67.5262 17.0533 67.8862 16.6733 68.1528 16.18C68.4328 15.6867 68.5728 15.1 68.5728 14.42Z" fill="white"/>
<path d="M58.1464 5.19995V20H55.3464V5.19995H58.1464Z" fill="white"/>
<path d="M54.1028 14.22C54.1028 14.62 54.0761 14.98 54.0228 15.3H45.9228C45.9894 16.1 46.2694 16.7267 46.7628 17.18C47.2561 17.6333 47.8628 17.86 48.5828 17.86C49.6228 17.86 50.3628 17.4133 50.8028 16.52H53.8228C53.5028 17.5867 52.8894 18.4667 51.9828 19.16C51.0761 19.84 49.9628 20.18 48.6428 20.18C47.5761 20.18 46.6161 19.9467 45.7628 19.48C44.9228 19 44.2628 18.3267 43.7828 17.46C43.3161 16.5933 43.0828 15.5933 43.0828 14.46C43.0828 13.3133 43.3161 12.3067 43.7828 11.44C44.2494 10.5733 44.9028 9.90666 45.7428 9.43999C46.5828 8.97332 47.5494 8.73999 48.6428 8.73999C49.6961 8.73999 50.6361 8.96666 51.4628 9.41999C52.3028 9.87332 52.9494 10.52 53.4028 11.36C53.8694 12.1867 54.1028 13.14 54.1028 14.22ZM51.2028 13.42C51.1894 12.7 50.9294 12.1267 50.4228 11.7C49.9161 11.26 49.2961 11.04 48.5628 11.04C47.8694 11.04 47.2828 11.2533 46.8028 11.68C46.3361 12.0933 46.0494 12.6733 45.9428 13.42H51.2028Z" fill="white"/>
<path d="M37.6199 8.75995C38.4599 8.75995 39.2066 8.94662 39.8599 9.31995C40.5132 9.67995 41.0199 10.22 41.3799 10.94C41.7532 11.6466 41.9399 12.5 41.9399 13.5V20H39.1399V13.88C39.1399 13 38.9199 12.3266 38.4799 11.86C38.0399 11.38 37.4399 11.14 36.6799 11.14C35.9065 11.14 35.2932 11.38 34.8399 11.86C34.3999 12.3266 34.1799 13 34.1799 13.88V20H31.3799V5.19995H34.1799V10.3C34.5399 9.81995 35.0199 9.44662 35.6199 9.17995C36.2199 8.89995 36.8865 8.75995 37.6199 8.75995Z" fill="white"/>
<defs>
<linearGradient id="paint0_linear_17_944" x1="0.293457" y1="28.1395" x2="24.1501" y2="28.1395" gradientUnits="userSpaceOnUse">
<stop stop-color="#FF5601"/>
<stop offset="0.5" stop-color="#FF4000"/>
<stop offset="1" stop-color="#FF1F01"/>
</linearGradient>
</defs>
</svg>
