<svg fill="none" height="30" width="57" xmlns="http://www.w3.org/2000/svg">
	<path d="m1 9a8 8 0 0 1 8-8h39a8 8 0 0 1 8 8v12a8 8 0 0 1 -8 8h-39a8 8 0 0 1 -8-8z" stroke="#e3e3e8"/>
	<rect x="1" y="1" width="55" height="28" rx="8" fill="white"/>
	<path clip-rule="evenodd" d="m14 20a5 5 0 1 0 0-10 5 5 0 0 0 0 10zm-2.3-5.63a.63.63 0 0 0 0 1.26h4.6a.63.63 0 0 0 0-1.26z" fill="#46464a" fill-rule="evenodd"/>
	<path d="m26.52 19-3.22-8.73h1.18l1.84 5.18.4 1.19.55 1.83h-.22a54.27 54.27 0 0 1 .94-3.02l1.8-5.18h1.18l-3.17 8.73zm5.82 0v-8.73h2.99c.68 0 1.24.12 1.67.37.45.25.77.58.98 1 .22.42.32.89.32 1.4 0 .53-.1 1-.32 1.42-.2.42-.53.76-.97 1-.44.26-1 .38-1.68.38h-2.11v-.98h2.06c.46 0 .83-.07 1.11-.23.29-.16.49-.38.61-.65.13-.28.2-.59.2-.93 0-.35-.07-.65-.2-.92a1.38 1.38 0 0 0 -.61-.65 2.3 2.3 0 0 0 -1.12-.23h-1.82v7.75zm7.66 0v-8.73h1.32l3.55 5.58a14.92 14.92 0 0 1 .76 1.33c.16.28.31.59.46.91h-.16a18.14 18.14 0 0 1 -.1-2.46v-5.36h1.1v8.73h-1.32l-3.16-4.97a77.6 77.6 0 0 1 -.94-1.57l-.7-1.25h.2a487.94 487.94 0 0 1 .11 2.81v4.98z" fill="#1b1b1f"/></svg>