<svg xmlns="http://www.w3.org/2000/svg" width="84" height="84" fill="none"><path fill="url(#a)" d="M45.128.664a7.702 7.702 0 0 0-6.256 0L11.913 12.645a7.702 7.702 0 0 0-4.574 7.039v18.102C7.34 59.16 22.128 79.147 42 84c19.872-4.853 34.661-24.84 34.661-46.214V19.684a7.702 7.702 0 0 0-4.574-7.039L45.128.664Z"/><path fill="#fff" d="M19.133 38.172c1.172 1.275 3.035 1.4 4.3.25 10.74-9.597 26.334-9.597 37.097-.025 1.288 1.15 3.174 1.05 4.347-.225 1.357-1.474 1.265-3.923-.23-5.248-13.133-11.671-32.13-11.671-45.285 0-1.494 1.3-1.61 3.749-.23 5.248Zm17.846 19.394 3.381 3.673c.897.975 2.346.975 3.243 0l3.38-3.673c1.082-1.175.852-3.2-.528-3.974-2.806-1.574-6.164-1.574-8.993 0-1.31.775-1.564 2.8-.483 3.974Zm-8.578-9.322c1.127 1.224 2.898 1.35 4.209.325 5.611-4.324 13.155-4.324 18.767 0 1.31 1 3.081.9 4.208-.325l.023-.025c1.38-1.5 1.288-4.049-.299-5.273-7.911-6.223-18.698-6.223-26.632 0-1.587 1.25-1.679 3.773-.276 5.298Z"/><defs><linearGradient id="a" x1="73.06" x2="-4.907" y1="78.195" y2="15.143" gradientUnits="userSpaceOnUse"><stop offset=".026" stop-color="#FA7250"/><stop offset=".401" stop-color="#FF1893"/><stop offset=".995" stop-color="#A78AFF"/></linearGradient></defs></svg>