<svg xmlns="http://www.w3.org/2000/svg" width="379" height="641" fill="none"><path fill="#D3A484" d="M216.012 138.037 84.323 222.581 46.691 191.51c-2.145-1.772-5.397-.874-6.328 1.747L3.997 295.389a56.2 56.2 0 0 0 1.228 40.845l43.859 103.103a113.126 113.126 0 0 1 1.703 84.33l-16.35 43.195 167.646 73.172 106.073-269.07-92.149-232.927h.005Z"></path><path fill="#211E1F" d="M202.486 641 33.514 567.25l16.594-43.84c10.308-27.232 9.706-56.987-1.69-83.787L4.556 336.521a56.765 56.765 0 0 1-1.247-41.374l36.365-102.133a4.67 4.67 0 0 1 3.203-2.975 4.687 4.687 0 0 1 4.276.913l37.225 30.731 131.984-84.738.325.825 92.256 233.194-.107.267L202.486 641ZM35.363 566.468l166.322 72.591 105.694-268.1-91.717-231.835-131.387 84.354-.408-.339-37.632-31.071a3.236 3.236 0 0 0-2.96-.631 3.237 3.237 0 0 0-2.219 2.063L4.681 295.632a55.34 55.34 0 0 0 1.213 40.316l43.86 103.103c11.545 27.144 12.157 57.283 1.713 84.869l-16.103 42.548Z"></path><path fill="#D3A484" d="m304.69 58.194-16.107 20.593c-7.898 10.099-6.115 24.688 3.983 32.586 10.099 7.898 24.688 6.115 32.586-3.984l16.107-20.593c7.898-10.099 6.115-24.688-3.983-32.586-10.099-7.898-24.688-6.115-32.586 3.984Z"></path><path fill="#211E1F" d="M306.831 117.046c-5.315 0-10.449-1.762-14.701-5.086-5.037-3.941-8.236-9.605-9.012-15.953a23.783 23.783 0 0 1 4.906-17.656l16.108-20.592c3.941-5.038 9.605-8.236 15.953-9.013a23.786 23.786 0 0 1 17.656 4.907c5.038 3.94 8.236 9.604 9.013 15.953a23.783 23.783 0 0 1-4.907 17.656l-16.108 20.592c-3.941 5.038-9.604 8.236-15.953 9.013a24.19 24.19 0 0 1-2.95.179h-.005Zm16.2-67.023c-.922 0-1.844.058-2.771.17a22.344 22.344 0 0 0-14.982 8.464L289.17 79.249c-3.698 4.732-5.339 10.619-4.611 16.579a22.344 22.344 0 0 0 8.464 14.982c4.732 3.698 10.619 5.338 16.584 4.61a22.344 22.344 0 0 0 14.982-8.464l16.108-20.592c3.698-4.732 5.338-10.62 4.611-16.579a22.346 22.346 0 0 0-8.465-14.982c-3.994-3.125-8.813-4.78-13.807-4.78h-.005Z"></path><path fill="#FBD0C2" d="M29.38 60.18c-2.102-18.34 12.166-22.232 30.512-24.334L266.248 4.043c25.135-2.883 50.319 28.464 53.201 53.594l38.526 326.319c2.101 18.341-19.811 54.396-38.152 56.497l-146.481-39.195L29.379 60.181Z"></path><path fill="#121516" d="m319.77 441.215-.136-.039-146.836-39.292-.14-.335L28.651 60.375l-.01-.107c-.392-3.422.205-5.722 1.83-7.023 3.388-2.723 10.556-.252 18.86 2.606 7.95 2.742 16.962 5.849 24.281 5.028L268.713 3.99l.063-.01c11.711-1.339 24.044 4.975 34.716 17.793 9.352 11.23 16.069 26.15 17.535 38.928l37.69 323.169c1.01 8.814-3.514 22.485-11.521 34.832-8.503 13.104-18.7 21.51-27.281 22.495l-.14.014-.005.005Zm-145.88-40.583 145.991 39.064c17.822-2.218 39.404-37.797 37.356-55.657l-37.691-323.17c-1.436-12.511-8.027-27.13-17.2-38.146-10.318-12.395-22.15-18.525-33.337-17.273L73.899 62.34l-.064.01c-7.668.878-16.874-2.296-24.999-5.096-7.552-2.601-14.686-5.062-17.438-2.854-1.174.947-1.596 2.771-1.29 5.586l143.777 340.646h.005Z"></path><path fill="#121516" d="M102.266 466.268c-15.235 0-28.416-11.464-30.192-26.95L30.156 73.891l1.48-.17L73.55 439.143c1.689 14.73 14.23 25.63 28.712 25.63 1.097 0 2.203-.063 3.315-.189l207.797-23.835c7.673-.878 14.55-4.698 19.355-10.745 4.805-6.047 6.965-13.608 6.086-21.281L296.901 43.301l1.481-.17 41.912 365.422c.927 8.071-1.349 16.02-6.401 22.383-5.052 6.363-12.279 10.376-20.35 11.303l-207.797 23.835c-1.17.136-2.335.199-3.49.199l.01-.005Z"></path><path fill="#F1F0F3" d="M263.967 5.081 55.737 28.964c-16.345 1.874-28.07 16.642-26.197 32.988l43.325 377.735c1.873 16.345 16.642 28.071 32.987 26.197l208.23-23.883c16.346-1.873 28.071-16.641 26.198-32.987L296.955 31.279c-1.874-16.345-16.642-28.071-32.988-26.198Zm55.88 385.796c.918 7.998-4.824 15.225-12.822 16.142l-202.221 23.194c-7.998.917-15.225-4.824-16.142-12.822L47.91 62.146c-.917-7.998 4.824-15.225 12.823-16.142L262.953 22.81c7.998-.917 15.224 4.825 16.142 12.823l40.748 355.244h.004Z"></path><path fill="#121516" d="M102.397 466.831c-6.863 0-13.478-2.296-18.928-6.63-6.387-5.071-10.415-12.327-11.342-20.432l-43.33-377.73C26.88 45.315 38.926 30.144 55.65 28.227L263.88 4.344c8.1-.927 16.083 1.354 22.465 6.425 6.387 5.072 10.415 12.328 11.342 20.433l43.325 377.734c1.918 16.725-10.128 31.896-26.853 33.813L105.93 466.632a30.99 30.99 0 0 1-3.538.204l.005-.005ZM267.418 5.63c-1.117 0-2.243.063-3.369.194L55.819 29.707C39.912 31.532 28.453 45.96 30.278 61.869l43.325 377.735c.884 7.707 4.718 14.608 10.79 19.432 6.07 4.825 13.666 6.994 21.368 6.111l208.229-23.883c15.909-1.825 27.368-16.254 25.543-32.163L296.207 31.367c-.883-7.707-4.717-14.609-10.789-19.433-5.188-4.12-11.478-6.304-18.005-6.304h.005ZM103.11 431.057c-3.44 0-6.76-1.15-9.498-3.324a15.236 15.236 0 0 1-5.693-10.255L47.171 62.233a15.227 15.227 0 0 1 3.223-11.274 15.235 15.235 0 0 1 10.255-5.693L262.87 22.073c4.067-.466 8.071.68 11.274 3.222a15.226 15.226 0 0 1 5.693 10.255l40.748 355.25c.961 8.396-5.081 16.006-13.477 16.971l-202.222 23.194c-.592.068-1.189.102-1.776.102v-.01ZM264.646 23.456c-.534 0-1.067.029-1.601.092L60.819 46.747a13.748 13.748 0 0 0-9.255 5.14 13.724 13.724 0 0 0-2.912 10.176L89.4 417.313a13.746 13.746 0 0 0 5.14 9.255 13.745 13.745 0 0 0 10.177 2.912l202.221-23.194a13.76 13.76 0 0 0 9.255-5.139 13.772 13.772 0 0 0 2.912-10.178L278.357 35.725a13.755 13.755 0 0 0-5.14-9.255 13.733 13.733 0 0 0-8.576-3.005l.005-.01Z"></path><path fill="#121516" d="M102.397 466.831c-6.863 0-13.478-2.296-18.928-6.63-6.387-5.071-10.415-12.327-11.342-20.432l-43.33-377.73C26.88 45.315 38.926 30.144 55.65 28.227L263.88 4.344c8.1-.927 16.083 1.354 22.465 6.425 6.387 5.072 10.415 12.328 11.342 20.433l43.325 377.734c1.918 16.725-10.128 31.896-26.853 33.813L105.93 466.632a30.99 30.99 0 0 1-3.538.204l.005-.005ZM267.418 5.63c-1.117 0-2.243.063-3.369.194L55.819 29.707C39.912 31.532 28.453 45.96 30.278 61.869l43.325 377.735c.884 7.707 4.718 14.608 10.79 19.432 6.07 4.825 13.666 6.994 21.368 6.111l208.229-23.883c15.909-1.825 27.368-16.254 25.543-32.163L296.207 31.367c-.883-7.707-4.717-14.609-10.789-19.433-5.188-4.12-11.478-6.304-18.005-6.304h.005ZM103.11 431.057c-3.44 0-6.76-1.15-9.498-3.324a15.236 15.236 0 0 1-5.693-10.255L47.171 62.233a15.227 15.227 0 0 1 3.223-11.274 15.235 15.235 0 0 1 10.255-5.693L262.87 22.073c4.067-.466 8.071.68 11.274 3.222a15.226 15.226 0 0 1 5.693 10.255l40.748 355.25c.961 8.396-5.081 16.006-13.477 16.971l-202.222 23.194c-.592.068-1.189.102-1.776.102v-.01ZM264.646 23.456c-.534 0-1.067.029-1.601.092L60.819 46.747a13.748 13.748 0 0 0-9.255 5.14 13.724 13.724 0 0 0-2.912 10.176L89.4 417.313a13.746 13.746 0 0 0 5.14 9.255 13.745 13.745 0 0 0 10.177 2.912l202.221-23.194a13.76 13.76 0 0 0 9.255-5.139 13.772 13.772 0 0 0 2.912-10.178L278.357 35.725a13.755 13.755 0 0 0-5.14-9.255 13.733 13.733 0 0 0-8.576-3.005l.005-.01Z"></path><path fill="#BCBDC0" d="M214.682 435.226a8.567 8.567 0 0 1-7.537 9.489 8.567 8.567 0 0 1-9.488-7.538 8.567 8.567 0 0 1 7.537-9.488 8.567 8.567 0 0 1 9.488 7.537Z"></path><path fill="#121516" d="M206.164 445.515c-4.663 0-8.701-3.509-9.245-8.255-.587-5.101 3.092-9.731 8.192-10.313 5.101-.588 9.731 3.091 10.314 8.192.587 5.101-3.092 9.731-8.193 10.313a9.867 9.867 0 0 1-1.068.063Zm.01-17.137a6.99 6.99 0 0 0-.898.054c-4.285.49-7.372 4.377-6.882 8.663.491 4.285 4.378 7.362 8.663 6.882 4.286-.49 7.373-4.378 6.882-8.663-.456-3.985-3.848-6.931-7.765-6.931v-.005ZM318.071 141.546a.744.744 0 0 1-.737-.66l-4.591-40.011a.743.743 0 0 1 .655-.825.75.75 0 0 1 .825.655l4.591 40.011a.747.747 0 0 1-.655.825c-.029 0-.058.005-.088.005ZM251.625 34.615l-8.742 1 .17 1.481 8.742-1-.17-1.48ZM267.716 32.768l-8.742 1 .169 1.48 8.742-1-.169-1.48Z"></path><path fill="#FFF1EC" d="M88.818 418.056 47.997 62.136c-.917-7.998 4.824-15.224 12.822-16.142L263.04 22.802c7.998-.917 15.225 4.824 16.142 12.822l40.821 355.914c.874 7.63-4.601 14.521-12.23 15.4l-203.561 23.349c-7.629.873-14.52-4.601-15.4-12.23"></path><path fill="#000" d="M102.62 431.12c-7.338 0-13.686-5.523-14.545-12.982L47.254 62.224c-.96-8.396 5.081-16.006 13.477-16.972l202.222-23.194c4.062-.466 8.071.68 11.274 3.223a15.226 15.226 0 0 1 5.693 10.255l40.82 355.914c.923 8.027-4.858 15.302-12.885 16.224l-203.561 23.349a15.14 15.14 0 0 1-1.679.097h.005Zm-13.06-13.152a13.058 13.058 0 0 0 4.892 8.804 13.068 13.068 0 0 0 9.682 2.766l203.561-23.349c7.207-.825 12.4-7.362 11.575-14.574L278.449 35.7a13.745 13.745 0 0 0-5.14-9.255 13.75 13.75 0 0 0-10.177-2.912L60.902 46.732c-7.577.869-13.037 7.741-12.168 15.317l40.821 355.914.005.005Z"></path><path fill="#121516" d="M102.62 431.12c-7.338 0-13.686-5.523-14.545-12.982L47.254 62.224c-.96-8.396 5.081-16.006 13.477-16.972l202.222-23.194c4.062-.466 8.071.68 11.274 3.223a15.226 15.226 0 0 1 5.693 10.255l40.82 355.914c.923 8.027-4.858 15.302-12.885 16.224l-203.561 23.349a15.14 15.14 0 0 1-1.679.097h.005Zm-13.06-13.152a13.058 13.058 0 0 0 4.892 8.804 13.068 13.068 0 0 0 9.682 2.766l203.561-23.349c7.207-.825 12.4-7.362 11.575-14.574L278.449 35.7a13.745 13.745 0 0 0-5.14-9.255 13.75 13.75 0 0 0-10.177-2.912L60.902 46.732c-7.577.869-13.037 7.741-12.168 15.317l40.821 355.914.005.005Z"></path><mask id="a" width="274" height="409" x="47" y="22" maskUnits="userSpaceOnUse" style="mask-type:luminance"><path fill="#fff" d="M60.814 45.994c-7.998.918-13.74 8.144-12.822 16.142l40.82 355.915c.874 7.629 7.77 13.103 15.4 12.23l203.56-23.349c7.63-.874 13.104-7.77 12.231-15.4L279.182 35.618c-.918-7.998-8.144-13.74-16.142-12.822L60.814 45.994Z"></path></mask><g mask="url(#a)"><path fill="#FBD0C2" d="m333.455 353.25-11.584-101.016c-5.766 4.8-13.361 5.819-20.166 2.664-7.372-3.421-14.055-11.516-21.776-8.993-1.844.602-3.446 1.786-4.907 3.063-4.703 4.11-9.221 9.764-15.467 9.696-5.125-.058-9.221-4.042-12.983-7.522-5.445-5.043-11.589-9.668-18.772-11.531-10.231-2.655-21.165.684-30.328 5.955-9.163 5.265-17.118 12.385-25.931 18.224-7.081 4.688-14.681 8.527-22.267 12.351-4.489 2.267-9.449 4.601-14.356 3.485-3.266-.743-5.989-2.922-8.59-5.038l-15.735-12.822c-1.742-1.422-3.63-2.903-5.872-3.111-2.368-.223-4.596 1.024-6.63 2.252-16.258 9.828-30.93 22.368-44.737 35.419l10.114 88.179c.81 7.071 17.006 74.764 24.072 73.944l244.406-28.304c7.057-.815 2.315-69.819 1.505-76.876"></path><path fill="#000" d="M87.41 459.182c-.52 0-1.049-.214-1.582-.636-7.906-6.27-22.32-67.174-23.102-73.973l-10.158-88.548.272-.257c17.054-16.108 30.89-27.062 44.864-35.512 2.188-1.325 4.542-2.596 7.085-2.358 2.543.237 4.611 1.922 6.271 3.276l15.734 12.822c2.397 1.956 5.12 4.169 8.285 4.892 4.503 1.024 9.124-1.034 13.856-3.422 7.444-3.756 15.142-7.639 22.189-12.307 3.606-2.388 7.134-5.043 10.541-7.606 4.912-3.698 9.993-7.517 15.429-10.643 7.682-4.416 19.272-9.046 30.886-6.028 7.945 2.063 14.375 7.339 19.092 11.707l.428.398c3.644 3.377 7.411 6.877 12.055 6.925h.102c4.713 0 8.508-3.577 12.177-7.037a97.587 97.587 0 0 1 2.689-2.475c1.3-1.136 3.062-2.524 5.163-3.208 5.664-1.849 10.75 1.621 15.672 4.979 2.164 1.476 4.406 3.004 6.653 4.048 6.557 3.043 13.798 2.082 19.375-2.563l1.063-.883 11.744 102.389c.374 3.262 1.791 22.374 2.204 40.845.233 10.425.102 18.773-.379 24.81-.83 10.362-2.562 11.881-3.984 12.046L87.628 459.167c-.073.01-.14.015-.213.015h-.005ZM54.14 296.598l10.071 87.805c.757 6.586 15.356 67.271 22.548 72.974.277.223.53.33.7.31l244.405-28.304c.636-.073 3.781-2.126 3.043-35.342-.408-18.427-1.82-37.462-2.194-40.709l-11.434-99.696c-5.868 4.296-13.206 5.033-19.889 1.932-2.358-1.092-4.649-2.66-6.867-4.169-4.834-3.3-9.406-6.416-14.366-4.795-1.849.602-3.455 1.873-4.649 2.917a94.95 94.95 0 0 0-2.65 2.436c-3.883 3.66-7.892 7.445-13.196 7.445h-.121c-5.223-.058-9.382-3.921-13.056-7.323l-.427-.398c-4.586-4.252-10.827-9.382-18.452-11.357-11.129-2.888-22.33 1.602-29.77 5.877-5.358 3.077-10.396 6.872-15.273 10.542-3.427 2.577-6.974 5.246-10.614 7.658-7.125 4.717-14.861 8.619-22.34 12.395-4.984 2.514-9.867 4.684-14.856 3.543-3.504-.796-6.367-3.13-8.896-5.188l-15.734-12.822c-1.505-1.228-3.378-2.752-5.47-2.946-2.096-.204-4.115.902-6.173 2.15-13.808 8.347-27.494 19.17-44.34 35.065Z"></path><path fill="#FBD0C2" d="M157.709 220.518c.981 8.561-5.159 16.292-13.72 17.273-8.561.98-16.292-5.159-17.278-13.721-.98-8.561 5.164-16.292 13.721-17.272 8.556-.981 16.292 5.159 17.272 13.72"></path><path fill="#000" d="M142.179 238.645a16.218 16.218 0 0 1-10.134-3.548 16.214 16.214 0 0 1-6.071-10.939 16.21 16.21 0 0 1 3.441-12.027 16.244 16.244 0 0 1 10.939-6.071c4.339-.5 8.61.723 12.026 3.436a16.233 16.233 0 0 1 6.072 10.939 16.21 16.21 0 0 1-3.441 12.027 16.246 16.246 0 0 1-10.939 6.071c-.636.073-1.267.107-1.898.107l.005.005Zm.063-31.202c-.573 0-1.145.034-1.723.097a14.759 14.759 0 0 0-9.94 5.518 14.749 14.749 0 0 0-3.125 10.93 14.761 14.761 0 0 0 5.518 9.939 14.745 14.745 0 0 0 10.93 3.126 14.761 14.761 0 0 0 9.939-5.518 14.745 14.745 0 0 0 3.126-10.93 14.765 14.765 0 0 0-5.518-9.939 14.748 14.748 0 0 0-9.207-3.223Z"></path><path fill="#121516" d="m53.869 296.85-1.024-1.082c17.05-16.108 30.886-27.062 44.868-35.512 2.189-1.325 4.543-2.591 7.086-2.358 2.543.237 4.611 1.921 6.27 3.276l15.735 12.822c2.397 1.956 5.12 4.169 8.284 4.892 4.504 1.024 9.124-1.034 13.856-3.422 7.45-3.761 15.147-7.643 22.189-12.307 3.606-2.388 7.13-5.038 10.542-7.606 4.911-3.698 9.993-7.517 15.428-10.643 7.678-4.416 19.273-9.046 30.891-6.028 7.945 2.063 14.376 7.339 19.093 11.707l.422.393c3.645 3.382 7.411 6.882 12.061 6.93h.102c4.712 0 8.502-3.577 12.172-7.037.878-.83 1.786-1.689 2.693-2.475 1.301-1.136 3.063-2.524 5.164-3.213 5.659-1.849 10.75 1.621 15.671 4.979 2.165 1.476 4.407 3.005 6.654 4.048 6.557 3.043 13.798 2.082 19.369-2.563l.957 1.146c-6.028 5.023-13.861 6.057-20.952 2.766-2.359-1.097-4.649-2.659-6.867-4.169-4.834-3.295-9.401-6.411-14.366-4.79-1.849.602-3.456 1.873-4.65 2.917a94.919 94.919 0 0 0-2.649 2.436c-3.883 3.66-7.892 7.445-13.192 7.445h-.121c-5.222-.058-9.386-3.921-13.06-7.328l-.422-.393c-4.587-4.252-10.828-9.382-18.452-11.362-11.129-2.888-22.335 1.602-29.775 5.877-5.358 3.077-10.401 6.873-15.273 10.542-3.427 2.577-6.975 5.246-10.615 7.658-7.114 4.713-14.851 8.615-22.334 12.391-4.994 2.518-9.882 4.678-14.866 3.547-3.504-.796-6.367-3.13-8.896-5.188l-15.734-12.822c-1.505-1.228-3.378-2.752-5.47-2.946-2.106-.199-4.115.903-6.173 2.15-13.885 8.391-27.644 19.287-44.616 35.322Z"></path></g><path fill="#121516" d="M103.212 431.048c-7.673 0-14.317-5.776-15.21-13.58L47.254 62.224a15.227 15.227 0 0 1 3.223-11.274 15.236 15.236 0 0 1 10.255-5.693l202.221-23.194c8.391-.961 16.006 5.081 16.972 13.478l40.748 355.249c.96 8.396-5.082 16.006-13.478 16.972l-202.221 23.194c-.592.067-1.179.101-1.757.101l-.005-.009ZM264.71 23.451c-.525 0-1.054.03-1.587.092L60.901 46.737a13.747 13.747 0 0 0-9.255 5.14 13.766 13.766 0 0 0-2.912 10.177l40.748 355.249c.869 7.576 7.746 13.036 15.317 12.167l202.221-23.193c7.576-.869 13.036-7.741 12.167-15.317L278.439 35.715c-.81-7.042-6.804-12.254-13.729-12.254v-.01Z"></path><path fill="#121516" d="M171.08 47.465a3.58 3.58 0 1 1-7.115.815 3.58 3.58 0 0 1 3.15-3.965 3.58 3.58 0 0 1 3.965 3.15Z"></path><path fill="#121516" d="M167.513 52.202a4.286 4.286 0 0 1-2.684-.942 4.286 4.286 0 0 1-1.606-2.897 4.278 4.278 0 0 1 .912-3.184 4.283 4.283 0 0 1 2.898-1.606 4.297 4.297 0 0 1 3.183.912 4.302 4.302 0 0 1 1.607 2.898 4.28 4.28 0 0 1-.913 3.183 4.283 4.283 0 0 1-2.897 1.607c-.165.02-.335.029-.5.029Zm.015-7.164a2.825 2.825 0 0 0-2.228 1.073 2.814 2.814 0 0 0-.597 2.087 2.824 2.824 0 0 0 1.053 1.898c.592.47 1.335.684 2.087.597a2.827 2.827 0 0 0 1.898-1.054c.47-.592.684-1.334.597-2.087a2.825 2.825 0 0 0-1.054-1.897 2.806 2.806 0 0 0-1.756-.617Z"></path><path fill="#F1F0F3" d="m267.204 33.21-2.451.282-.024-.223a1.975 1.975 0 0 0-2.179-1.732L243.656 33.7a1.975 1.975 0 0 0-1.732 2.18l.956 8.352a1.975 1.975 0 0 0 2.179 1.732l18.894-2.164a1.974 1.974 0 0 0 1.732-2.18l-.024-.223 2.451-.281a1.582 1.582 0 0 0 1.393-1.752l-.544-4.756a1.582 1.582 0 0 0-1.752-1.393"></path><path fill="#121516" d="M244.836 46.727a2.72 2.72 0 0 1-2.694-2.402l-.956-8.357a2.715 2.715 0 0 1 2.388-3.005l18.894-2.164c1.3-.15 2.514.665 2.897 1.878l1.762-.204a2.298 2.298 0 0 1 1.713.49c.485.389.796.942.864 1.558l.543 4.757a2.298 2.298 0 0 1-.49 1.713 2.311 2.311 0 0 1-1.558.864l-1.761.203a2.665 2.665 0 0 1-.583 1.476 2.7 2.7 0 0 1-1.815 1.01l-18.894 2.164c-.102.01-.208.02-.31.02Zm17.937-14.458c-.048 0-.092 0-.14.01l-18.894 2.165c-.67.077-1.15.684-1.073 1.354l.956 8.352c.078.67.685 1.155 1.354 1.073l18.894-2.165a1.2 1.2 0 0 0 .815-.456 1.2 1.2 0 0 0 .258-.898l-.112-.966 3.194-.364a.815.815 0 0 0 .558-.31.81.81 0 0 0 .174-.617l-.543-4.756a.833.833 0 0 0-.927-.738l-3.194.364-.111-.965a1.226 1.226 0 0 0-1.214-1.083h.005Z"></path><path fill="#121516" d="m265.495 33.419-1.481.17.906 7.902 1.481-.17-.906-7.902ZM73.826 54.788l-13.636 1.56.17 1.48 13.636-1.56-.17-1.48ZM72.573 59.561 62.49 60.715l.169 1.48 10.082-1.154-.17-1.48ZM69.541 64.543l-2.97.34.17 1.48 2.97-.34-.17-1.48ZM85.983 55.691l-3.664.423.223 1.931c.136-.213.345-.403.622-.558a2.4 2.4 0 0 1 .917-.296c.602-.068 1.111.005 1.524.228.412.219.733.524.951.917.218.394.36.82.413 1.287.102.868-.068 1.591-.5 2.179-.432.582-1.107.927-2.02 1.033-.858.097-1.567-.038-2.13-.407-.563-.37-.917-.898-1.063-1.587l1.539-.175c.102.296.281.52.543.67.258.155.573.208.942.165.446-.049.762-.228.956-.534.194-.306.267-.69.213-1.145-.053-.466-.208-.811-.465-1.03-.258-.218-.607-.3-1.054-.252-.315.04-.572.146-.766.33-.195.185-.32.413-.379.685l-1.514.174-.553-4.838 5.11-.588.16 1.393-.005-.005ZM93.554 56.196a1.839 1.839 0 0 0-.834-.67 2.294 2.294 0 0 0-1.136-.13 2.457 2.457 0 0 0-1.209.46c-.34.253-.587.587-.742 1-.16.417-.209.878-.15 1.393.058.529.218.975.47 1.344.253.37.573.636.97.806.394.17.836.223 1.326.17.602-.068 1.077-.287 1.427-.65.35-.365.548-.84.602-1.427l-2.713.31-.141-1.208 4.276-.49.16 1.378a3.69 3.69 0 0 1-.505 1.601 3.883 3.883 0 0 1-1.209 1.277 3.98 3.98 0 0 1-1.79.636c-.762.087-1.47-.005-2.121-.277a3.776 3.776 0 0 1-1.611-1.262c-.423-.573-.675-1.242-.767-2.019-.088-.776.005-1.49.286-2.145a3.771 3.771 0 0 1 1.281-1.602 4.116 4.116 0 0 1 1.995-.747c.888-.102 1.689.024 2.393.383.703.36 1.228.918 1.567 1.67l-1.82.209-.005-.01ZM110.089 417.92l-6.959-5.528 5.528-6.96 1.169.927-4.601 5.795 5.79 4.601-.927 1.165ZM120.621 416.716l-1.165-.932 4.601-5.79-5.795-4.601.927-1.169 6.96 5.528-5.528 6.964ZM231.246 407.568a5.687 5.687 0 0 1-3.543-1.238 5.682 5.682 0 0 1-2.121-3.824l-1.053-9.183a5.716 5.716 0 0 1 5.023-6.324l11.26-1.291c3.126-.364 5.965 1.898 6.324 5.024l1.053 9.182a5.658 5.658 0 0 1-1.204 4.203 5.682 5.682 0 0 1-3.824 2.121l-11.26 1.291a6.146 6.146 0 0 1-.66.039h.005Zm10.221-20.408c-.16 0-.32.009-.485.029l-11.26 1.291a4.23 4.23 0 0 0-3.712 4.673l1.053 9.183a4.183 4.183 0 0 0 1.567 2.824 4.194 4.194 0 0 0 3.106.888l11.26-1.29a4.212 4.212 0 0 0 2.825-1.568 4.195 4.195 0 0 0 .888-3.106l-1.053-9.183a4.23 4.23 0 0 0-4.189-3.741Z"></path><path fill="#121516" d="m238.633 394.396-1.606 5.867-2.252.258 1.66-5.601-2.548.291-.214-1.878 4.781-.549.184 1.612h-.005ZM289.636 391.003a2.46 2.46 0 0 1-2.16 2.723 2.456 2.456 0 1 1-.563-4.882 2.456 2.456 0 0 1 2.723 2.159ZM296.93 390.164a2.458 2.458 0 1 1-4.884.56 2.458 2.458 0 0 1 4.884-.56ZM304.23 389.329a2.458 2.458 0 1 1-4.883.563 2.458 2.458 0 0 1 4.883-.563ZM168.265 409.261a7.166 7.166 0 0 1-4.465-1.562 7.154 7.154 0 0 1-2.674-4.82 7.17 7.17 0 0 1 1.514-5.299 7.134 7.134 0 0 1 4.82-2.675 7.149 7.149 0 0 1 5.299 1.515 7.151 7.151 0 0 1 2.675 4.819c.451 3.946-2.388 7.523-6.334 7.974a6.922 6.922 0 0 1-.835.048Zm.029-12.909c-.218 0-.441.014-.66.039a5.67 5.67 0 0 0-3.819 2.12 5.666 5.666 0 0 0-1.199 4.199 5.671 5.671 0 0 0 2.121 3.819 5.669 5.669 0 0 0 4.198 1.199 5.711 5.711 0 0 0 5.018-6.319 5.672 5.672 0 0 0-2.121-3.82 5.66 5.66 0 0 0-3.538-1.237Z"></path><path fill="#121516" d="m173.884 406.052-.926 1.167 5.119 4.066.927-1.167-5.12-4.066Z"></path><path fill="#fff" d="m290.019 356.89-.005.004.005-.004ZM74.412 129.553l192.971-22.131a6.078 6.078 0 0 0 5.344-6.731l-4.64-40.433a6.077 6.077 0 0 0-6.731-5.343L68.385 77.045a6.076 6.076 0 0 0-5.344 6.727l4.64 40.433a6.077 6.077 0 0 0 6.731 5.343"></path><path fill="#121516" d="M73.709 130.339a6.772 6.772 0 0 1-4.227-1.48 6.792 6.792 0 0 1-2.534-4.567l-4.64-40.432a6.759 6.759 0 0 1 1.437-5.019 6.78 6.78 0 0 1 4.567-2.533l192.971-22.131c1.81-.209 3.591.3 5.018 1.437a6.75 6.75 0 0 1 2.534 4.562l4.639 40.432a6.772 6.772 0 0 1-1.436 5.023 6.793 6.793 0 0 1-4.567 2.534l-192.97 22.131a7.23 7.23 0 0 1-.792.043Zm.621-1.528 192.971-22.136a5.293 5.293 0 0 0 3.567-1.98 5.276 5.276 0 0 0 1.121-3.922l-4.639-40.432a5.294 5.294 0 0 0-1.981-3.568 5.293 5.293 0 0 0-3.921-1.12l-192.97 22.13a5.272 5.272 0 0 0-3.568 1.98 5.274 5.274 0 0 0-1.121 3.922l4.64 40.432a5.274 5.274 0 0 0 1.98 3.568 5.296 5.296 0 0 0 3.921 1.121v.005Z"></path><path fill="#121516" d="M89.472 85.306c-.174.422-.475.776-.897 1.067-.423.287-.957.471-1.607.544l-1.097.126.31 2.689-2.217.252-.912-7.969 3.314-.378c.64-.073 1.2-.025 1.675.15.475.175.849.447 1.12.82.273.374.438.82.5 1.34.054.48-.004.932-.184 1.354l-.005.005Zm-2.077-1.097c-.068-.583-.412-.835-1.038-.762l-.884.102.2 1.728.883-.102c.626-.073.907-.394.84-.966ZM93.583 82.72c.33-.253.7-.404 1.107-.447l.272 2.363-.622.073c-.48.053-.83.19-1.043.408-.214.213-.291.558-.238 1.024l.316 2.77-2.218.253-.728-6.343 2.218-.252.126 1.12c.209-.387.476-.708.806-.96l.004-.01ZM95.559 81.307a1.039 1.039 0 0 1-.447-.767c-.039-.33.049-.621.262-.869.214-.247.515-.393.908-.437.383-.043.708.03.97.224.263.189.413.451.452.786.039.325-.053.607-.262.85-.214.242-.51.383-.898.426-.393.044-.718-.024-.98-.213h-.005Zm2.145.674.728 6.344-2.218.252-.728-6.343 2.218-.253ZM102.494 85.738l.699-4.388 2.363-.271-1.456 6.59-2.756.316-2.907-6.09 2.363-.273 1.699 4.111-.005.005ZM106.013 82.496c.179-.52.461-.932.844-1.243.379-.31.825-.495 1.33-.553.437-.049.825-.005 1.16.131.335.136.606.345.815.616l-.102-.883 2.213-.252.728 6.343-2.218.252-.102-.883c-.14.316-.359.578-.66.786-.3.209-.664.34-1.096.389a2.48 2.48 0 0 1-1.418-.238 2.71 2.71 0 0 1-1.101-1.024c-.296-.466-.481-1.03-.554-1.684-.077-.656-.019-1.243.161-1.757Zm3.965.315a1.083 1.083 0 0 0-.859-.257c-.33.039-.592.184-.787.442-.194.257-.266.587-.218 1.004.049.408.194.719.437.927.247.214.534.301.864.262a1.1 1.1 0 0 0 .781-.446c.194-.257.272-.597.223-1.01-.048-.407-.194-.713-.446-.922h.005ZM113.526 81.637c.213-.52.548-.942 1.004-1.262.456-.32.995-.514 1.621-.587.806-.092 1.509.048 2.111.427.602.379 1.024.951 1.277 1.728l-2.354.272c-.185-.398-.471-.578-.864-.53a.766.766 0 0 0-.621.423c-.136.247-.18.597-.126 1.038.048.447.169.777.359.99a.782.782 0 0 0 .703.277c.398-.044.641-.281.719-.713l2.354-.272c-.068.8-.355 1.456-.85 1.965-.495.51-1.15.81-1.96.903-.627.073-1.194 0-1.714-.204a2.871 2.871 0 0 1-1.266-1c-.33-.46-.529-1.019-.607-1.684-.078-.655-.005-1.242.209-1.766l.005-.005ZM126.551 78.676l-2.95 9.823-2.408.277 1.136-3.465-3.295-5.776 2.465-.281 1.747 3.44.879-3.741 2.431-.277h-.005ZM135.263 78.356c.481.437.772 1.073.864 1.898l.422 3.698-2.218.252-.388-3.402c-.044-.364-.17-.636-.383-.82-.214-.185-.476-.262-.791-.224-.33.04-.583.17-.748.403-.165.228-.228.525-.184.888l.388 3.403-2.218.252-.961-8.367 2.218-.252.335 2.926c.165-.31.403-.573.718-.786a2.46 2.46 0 0 1 1.126-.398c.723-.083 1.325.092 1.806.529h.014ZM143.082 76.779l.728 6.343-2.228.257-.102-.903a2.144 2.144 0 0 1-.699.787c-.31.218-.679.35-1.111.398-.738.082-1.349-.093-1.83-.53-.48-.436-.772-1.072-.864-1.911l-.422-3.684 2.203-.252.389 3.402c.043.364.169.635.383.82.218.184.48.257.801.223.325-.039.568-.17.733-.398.165-.228.228-.524.184-.888l-.388-3.402 2.227-.257-.004-.005ZM146.867 76.521c.296-.204.66-.335 1.092-.383.505-.058.976.02 1.417.238.442.218.811.558 1.102 1.019.296.461.48 1.024.553 1.68.078.654.025 1.242-.16 1.766-.179.519-.461.936-.839 1.247a2.53 2.53 0 0 1-1.33.553 2.41 2.41 0 0 1-1.151-.126 1.827 1.827 0 0 1-.815-.621l.102.883-2.218.253-.961-8.368 2.218-.252.335 2.907c.141-.32.359-.587.655-.79v-.006Zm1.471 1.883a1.116 1.116 0 0 0-.859-.252 1.102 1.102 0 0 0-.782.447c-.194.257-.271.592-.223 1 .049.412.194.727.447.931.247.209.533.296.859.257.325-.038.582-.189.781-.451.194-.262.267-.597.223-1.005-.048-.412-.194-.723-.446-.927Z"></path><path fill="#121516" fill-rule="evenodd" d="M72.894 82.205a.936.936 0 0 1 .747-.073L77 83.253a.929.929 0 0 1 .626.791l.209 2.165c.247 2.552-1.291 5.11-3.611 5.92-2.432-.354-4.427-2.572-4.67-5.124l-.208-2.165a.922.922 0 0 1 .466-.893l3.082-1.742Z" clip-rule="evenodd"></path><path fill="#121516" d="m86.915 102.346-.306-2.645 4.611-.53 1.393 12.153-2.96.34-1.093-9.503-1.645.189v-.004ZM94.335 108.393a68.267 68.267 0 0 0 2.32-2.509 10.97 10.97 0 0 0 1.384-1.995c.359-.684.504-1.325.436-1.922-.053-.456-.199-.796-.436-1.029-.243-.233-.573-.32-.995-.272-.423.049-.733.243-.937.588-.204.344-.272.805-.204 1.378l-2.747.315c-.087-.946.024-1.756.335-2.431a3.58 3.58 0 0 1 1.354-1.573c.592-.373 1.272-.601 2.038-.689 1.32-.15 2.354.073 3.107.675.747.602 1.184 1.441 1.31 2.529.136 1.189-.141 2.334-.835 3.44-.694 1.107-1.611 2.218-2.756 3.325l4.494-.514.267 2.315-8.358.956-.242-2.116c.344-.345.5-.5.465-.476v.005ZM104.09 109.694a1.435 1.435 0 0 1-.597-1.034 1.471 1.471 0 0 1 .345-1.17c.281-.335.674-.534 1.174-.592.491-.058.908.049 1.257.311.35.262.554.616.602 1.063.049.431-.068.815-.349 1.145-.282.33-.67.524-1.155.577-.5.059-.922-.043-1.272-.3h-.005ZM111.516 99.23c-.247-.18-.573-.248-.985-.2-.631.074-1.058.399-1.272.981-.213.583-.257 1.466-.136 2.655.199-.417.515-.762.952-1.039a3.543 3.543 0 0 1 1.485-.509c1.087-.126 1.999.121 2.742.733.738.611 1.179 1.533 1.32 2.766.092.811.01 1.539-.248 2.189a3.539 3.539 0 0 1-1.266 1.597c-.587.417-1.311.674-2.165.771-1.708.194-2.955-.204-3.747-1.199-.786-.994-1.295-2.494-1.528-4.503-.243-2.107-.068-3.718.519-4.825.587-1.106 1.655-1.752 3.213-1.926.83-.097 1.553-.015 2.16.247.606.262 1.092.64 1.446 1.14.354.5.597 1.064.723 1.69l-2.645.301c-.136-.398-.325-.69-.573-.87h.005Zm-1.519 4.776c-.281.32-.393.737-.335 1.261.063.534.257.932.583 1.199.33.267.766.369 1.31.306.49-.058.859-.248 1.106-.573.248-.325.345-.747.287-1.257-.058-.519-.248-.917-.558-1.184-.311-.267-.728-.374-1.252-.311-.476.054-.859.243-1.141.563v-.004ZM121.795 107.976l-2.989-3.306.412 3.602-2.286.262-.941-8.212 2.286-.262.408 3.543 2.145-3.834 2.635-.301-2.563 4.329 3.655 3.863-2.762.316ZM134.963 112.395l-56.319 6.446.17 1.481 56.318-6.447-.169-1.48ZM149.493 93.178c.66-.728 1.616-1.165 2.868-1.306.83-.097 1.563-.034 2.189.19.626.223 1.121.563 1.485 1.028.364.466.578 1.01.65 1.631.083.733-.029 1.35-.344 1.854-.316.505-.704.864-1.175 1.087l.01.068c.655.14 1.194.432 1.616.879.422.446.675 1.053.767 1.82.078.689-.01 1.315-.267 1.878s-.67 1.029-1.238 1.398c-.567.368-1.271.601-2.101.694-1.33.15-2.431-.054-3.3-.617-.869-.563-1.403-1.504-1.597-2.82l2.762-.315c.067.485.252.854.548 1.106.301.253.704.35 1.213.292.432-.049.753-.214.966-.49.209-.277.291-.622.243-1.029-.058-.534-.272-.898-.641-1.097-.364-.2-.922-.257-1.665-.17l-.533.063-.267-2.315.534-.063c.567-.063 1.014-.214 1.339-.447.325-.233.461-.601.403-1.101-.044-.398-.194-.7-.442-.893-.247-.194-.568-.272-.956-.228-.422.048-.718.213-.898.49-.174.276-.257.606-.247.99l-2.781.32c-.092-1.194.194-2.15.849-2.878l.01-.02ZM159.098 101.501l-.262-2.295 4.397-8.125 3.179-.364.844 7.358 1.364-.156.281 2.466-1.363.155.247 2.165-2.844.325-.247-2.165-5.591.641-.005-.005Zm5.028-7.353-2.31 4.548 2.795-.32-.485-4.228ZM170.905 102.03a1.429 1.429 0 0 1-.596-1.034 1.47 1.47 0 0 1 .344-1.17c.282-.334.675-.533 1.17-.591.49-.058.907.048 1.257.31.349.262.553.617.602 1.063a1.45 1.45 0 0 1-.35 1.146c-.281.33-.67.524-1.155.577-.5.058-.922-.044-1.272-.301ZM181.184 91.009l-3.028 10.497-2.912.335 3.116-10.187-5.179.592-.276-2.431 8.037-.922.242 2.11v.006ZM192.027 91.596l.942 8.211-2.286.262-.52-4.533-1.029 4.708-1.912.219-2.087-4.388.525 4.567-2.286.262-.942-8.212 2.762-.315 2.674 5.1 1.402-5.566 2.752-.315h.005ZM200.263 95.425c.325.335.514.743.568 1.213.082.7-.098 1.272-.534 1.728-.437.451-1.087.728-1.961.825l-4.067.466-.942-8.212 3.936-.451c.84-.097 1.519.014 2.039.335.519.32.82.815.898 1.49.053.48-.025.898-.243 1.247-.214.35-.524.607-.932.772.495.053.903.247 1.228.587h.01Zm-4.271-.98 1.155-.131c.573-.068.835-.335.781-.81-.058-.491-.373-.7-.946-.637l-1.155.131.165 1.447Zm2.465 2.14c-.029-.248-.126-.432-.291-.544-.165-.116-.388-.155-.67-.126l-1.315.15.17 1.49 1.33-.15c.572-.068.835-.34.781-.82h-.005ZM204.734 104.387l-56.323 6.447.17 1.48 56.323-6.447-.17-1.48ZM218.065 94.202a68.296 68.296 0 0 0 2.32-2.51 11.183 11.183 0 0 0 1.383-1.994c.359-.684.505-1.325.437-1.922-.054-.456-.199-.796-.437-1.029-.243-.233-.573-.32-.995-.272-.422.05-.733.243-.937.588-.204.344-.272.805-.204 1.378l-2.747.316c-.087-.947.025-1.757.335-2.432a3.583 3.583 0 0 1 1.354-1.572c.592-.374 1.272-.602 2.039-.69 1.32-.15 2.354.073 3.106.675.752.602 1.184 1.442 1.31 2.529.136 1.189-.141 2.334-.835 3.44-.694 1.107-1.611 2.219-2.756 3.325l4.494-.514.267 2.315-8.357.956-.243-2.116c.344-.345.5-.5.466-.476v.005ZM234.066 84.942l-3.029 10.498-2.912.334 3.116-10.187-5.178.593-.277-2.432 8.037-.922.243 2.111v.005ZM244.913 85.53l.941 8.21-2.286.263-.519-4.533-1.029 4.708-1.912.218-2.087-4.387.524 4.567-2.286.262-.941-8.212 2.761-.316 2.675 5.101 1.402-5.567 2.752-.315h.005ZM248.504 85.117l.942 8.211-2.286.262-.941-8.211 2.285-.262ZM258.357 92.309l-2.286.262-3.567-4.242.524 4.592-2.286.262-.941-8.212 2.285-.262 3.577 4.3-.534-4.65 2.286-.262.942 8.212ZM257.605 98.324l-38.14 4.366.169 1.48 38.141-4.365-.17-1.48Z"></path><path fill="#fff" d="m97.47 168.229-17.253 1.98a6.722 6.722 0 0 1-7.445-5.916l-1.98-17.254a6.723 6.723 0 0 1 5.916-7.449l17.254-1.981a6.734 6.734 0 0 1 7.45 5.917l1.98 17.253a6.723 6.723 0 0 1-5.916 7.445"></path><path fill="#121516" d="M79.436 171a7.42 7.42 0 0 1-4.63-1.621 7.432 7.432 0 0 1-2.776-4.999l-1.98-17.253c-.47-4.091 2.48-7.804 6.571-8.275l17.254-1.98c4.091-.471 7.804 2.48 8.275 6.571l1.98 17.254a7.415 7.415 0 0 1-1.573 5.498 7.43 7.43 0 0 1-4.999 2.776l-17.253 1.98a7.418 7.418 0 0 1-.864.049h-.005Zm15.293-32.687a6.54 6.54 0 0 0-.684.039l-17.254 1.98c-3.276.374-5.634 3.349-5.256 6.625l1.98 17.253a5.933 5.933 0 0 0 2.223 3.999 5.931 5.931 0 0 0 4.402 1.257l17.253-1.98a5.928 5.928 0 0 0 3.999-2.223 5.94 5.94 0 0 0 1.257-4.401l-1.98-17.254a5.986 5.986 0 0 0-5.935-5.3l-.005.005Z"></path><path fill="#fff" d="m141.038 163.23-17.253 1.98a6.723 6.723 0 0 1-7.445-5.916l-1.98-17.253a6.724 6.724 0 0 1 5.916-7.45l17.253-1.98a6.732 6.732 0 0 1 7.45 5.916l1.98 17.253a6.72 6.72 0 0 1-5.916 7.445"></path><path fill="#121516" d="M123.004 166.001a7.42 7.42 0 0 1-4.63-1.621 7.43 7.43 0 0 1-2.776-4.999l-1.98-17.253c-.471-4.091 2.48-7.804 6.571-8.275l17.253-1.98c4.097-.471 7.804 2.48 8.275 6.571l1.98 17.254a7.419 7.419 0 0 1-1.572 5.498 7.433 7.433 0 0 1-4.999 2.776l-17.253 1.981a7.431 7.431 0 0 1-.864.048h-.005Zm15.293-32.682c-.229 0-.457.015-.685.039l-17.253 1.98a5.983 5.983 0 0 0-5.256 6.625l1.98 17.253a5.933 5.933 0 0 0 2.223 3.999 5.925 5.925 0 0 0 4.402 1.257l17.253-1.98a5.929 5.929 0 0 0 3.999-2.223 5.944 5.944 0 0 0 1.257-4.401l-1.98-17.254a5.987 5.987 0 0 0-5.936-5.3l-.004.005Z"></path><path fill="#fff" d="m184.611 158.236-17.253 1.98a6.722 6.722 0 0 1-7.445-5.916l-1.98-17.254a6.722 6.722 0 0 1 5.916-7.449l17.253-1.98a6.732 6.732 0 0 1 7.45 5.916l1.98 17.253a6.722 6.722 0 0 1-5.916 7.445"></path><path fill="#121516" d="M166.576 161.002a7.42 7.42 0 0 1-4.63-1.621 7.435 7.435 0 0 1-2.776-4.999l-1.98-17.253c-.471-4.091 2.48-7.804 6.572-8.275l17.253-1.98a7.416 7.416 0 0 1 5.499 1.572 7.437 7.437 0 0 1 2.776 4.999l1.98 17.254a7.415 7.415 0 0 1-1.573 5.498 7.423 7.423 0 0 1-4.998 2.777l-17.254 1.98a7.407 7.407 0 0 1-.864.048h-.005Zm15.298-32.682c-.228 0-.461.015-.694.039l-17.253 1.98c-3.276.374-5.635 3.349-5.257 6.625l1.981 17.253a5.931 5.931 0 0 0 2.222 3.999 5.926 5.926 0 0 0 4.402 1.257l17.254-1.98a5.931 5.931 0 0 0 3.999-2.222 5.93 5.93 0 0 0 1.257-4.402l-1.98-17.254a5.958 5.958 0 0 0-2.223-4.004 5.93 5.93 0 0 0-3.708-1.296v.005ZM98.233 174.817l-18.26 2.09.17 1.481 18.26-2.09-.17-1.481ZM229.112 159.812l-18.255 2.09.17 1.48 18.255-2.089-.17-1.481ZM273.698 154.703l-18.256 2.089.17 1.481 18.255-2.09-.169-1.48ZM147.548 169.165l-28.453 3.257.169 1.481 28.454-3.257-.17-1.481ZM189.518 164.354l-24.423 2.795.17 1.481 24.422-2.796-.169-1.48Z"></path><path fill="#77CDDC" d="m82.237 159.905 4.484-10.638 6.775 9.347-11.26 1.291Z"></path><path fill="#121516" d="m81.052 160.794 5.494-13.041 8.304 11.454-13.798 1.582v.005Zm5.839-10.017-3.475 8.245 8.726-1-5.251-7.245ZM169.6 138.095l10.575 4.848c.34.156.393.621.097.85l-9.177 7.148a.5.5 0 0 1-.806-.339l-1.398-11.998a.504.504 0 0 1 .709-.514"></path><path fill="#000" d="m126.556 146.253-.237-2.092c-.044-.378-.127-.504-.525-.461-.334.039-.567.18-.902.219-.714.082-1.102-.35-1.238-1.165a74.098 74.098 0 0 1-.34-2.354c-.019-.179.165-.335.287-.078.179.408.276.466.767.408.669-.078 2.329-.539 3.13-.631 1.16-.131 1.8.155 1.98 1.713l.277 2.408a93.088 93.088 0 0 0 3.669-5.184c.058-.097.208-.136.291-.034.835 1.374 2.024 2.116 2.771 2.301.253.063.277.262.039.354-.563.223-.704.349-.616 1.131l.864 7.527c.067.578.208 1.238.446 1.548.16.229.529.277.66.263.267-.03.447-.258.675-.801.087-.214.359 0 .247.194-.859 1.383-1.776 2.616-2.524 3.785-.077.122-.145.131-.247.03-.854-.782-1.65-1.209-2.087-1.476-.17-.116-.175-.34-.204-.606l-1.208-10.556c-.02-.18-.714-.505-.913-.481-.136.015-.49.461-.781.879l1.155 10.114c.277-.369.485-.689.718-1.01.097-.145.272.015.175.161a133.3 133.3 0 0 0-2.475 3.62c-.058.073-.083.078-.155.019-.738-.548-1.971-1.242-3.019-1.121-.937.107-1.607.728-1.51 1.597.165 1.427 1.422 1.776 4.271 1.451 2.607-.296 2.956-1.354 2.99-2.664 0-.18.209-.136.223-.025.078 2.476-1.402 4.111-3.494 4.349-2.14.248-4.116-1.466-4.368-3.65-.185-1.601.286-3.014 1.81-4.29l-.344-3.004c-.335.039-.694.058-1.16.112-.888.101-1.034.635-.854 1.611.053.286-.258.32-.287.053-.34-2.96-.291-3.916.845-4.047.354-.039.694-.059 1.184-.112m1.863 5.513c1.403-.16 2.413.355 3.354 1.306l-1.116-9.731-.859 1.16.718 6.256c-1.495.17-2.82.616-3.523 1.33.325-.102.786-.248 1.426-.321Z"></path><path fill="#77CDDC" d="m228.179 153.237-17.254 1.98a6.722 6.722 0 0 1-7.445-5.916l-1.98-17.253a6.724 6.724 0 0 1 5.916-7.45l17.254-1.98a6.734 6.734 0 0 1 7.45 5.916l1.98 17.253a6.722 6.722 0 0 1-5.916 7.445"></path><mask id="b" width="34" height="34" x="201" y="122" maskUnits="userSpaceOnUse" style="mask-type:luminance"><path fill="#fff" d="m224.66 122.635-17.247 1.977a6.727 6.727 0 0 0-5.917 7.449l1.977 17.247a6.728 6.728 0 0 0 7.449 5.917l17.248-1.977a6.727 6.727 0 0 0 5.916-7.449l-1.977-17.247a6.727 6.727 0 0 0-7.449-5.917Z"></path></mask><g mask="url(#b)"><path fill="#77CDDC" d="M232.508 136.784a5.89 5.89 0 0 0-1.587.35 5.876 5.876 0 0 0-5.664-3.082 5.89 5.89 0 0 0-5.329 4.873 5.886 5.886 0 0 0-7.396 6.159 5.885 5.885 0 0 0 6.338 5.391 5.844 5.844 0 0 0 3.354-1.392 5.86 5.86 0 0 0 3.533.839 5.862 5.862 0 0 0 4.164-2.242 5.86 5.86 0 0 0 3.533.84 5.888 5.888 0 0 0 5.392-6.339 5.883 5.883 0 0 0-6.338-5.392"></path><path fill="#121516" d="M218.39 151.242a6.577 6.577 0 0 1-4.285-1.582 6.591 6.591 0 0 1-2.315-4.518c-.296-3.645 2.431-6.848 6.076-7.144a6.76 6.76 0 0 1 1.5.048 6.62 6.62 0 0 1 5.828-4.741 6.636 6.636 0 0 1 6.057 2.936 6.507 6.507 0 0 1 1.194-.204 6.6 6.6 0 0 1 4.829 1.558 6.61 6.61 0 0 1 2.315 4.518c.291 3.645-2.431 6.848-6.076 7.144a6.486 6.486 0 0 1-3.422-.64 6.665 6.665 0 0 1-4.271 2.043 6.576 6.576 0 0 1-3.518-.689 6.554 6.554 0 0 1-3.907 1.262l-.005.009Zm.015-11.774a5.144 5.144 0 0 0-5.125 5.552 5.094 5.094 0 0 0 1.795 3.5 5.093 5.093 0 0 0 3.742 1.208 5.077 5.077 0 0 0 2.927-1.218l.412-.354.461.281c.932.568 2 .82 3.082.733a5.166 5.166 0 0 0 3.635-1.956l.408-.524.568.345a5.071 5.071 0 0 0 3.086.732 5.145 5.145 0 0 0 4.708-5.537 5.107 5.107 0 0 0-1.791-3.499 5.088 5.088 0 0 0-3.742-1.209 5.163 5.163 0 0 0-1.383.306l-.611.228-.311-.573a5.14 5.14 0 0 0-4.946-2.693 5.136 5.136 0 0 0-4.654 4.256l-.136.811-.791-.214a5.158 5.158 0 0 0-1.334-.175Z"></path></g><path fill="#121516" d="M210.144 156.008a7.42 7.42 0 0 1-4.63-1.621 7.424 7.424 0 0 1-2.776-4.999l-1.98-17.253c-.471-4.091 2.48-7.804 6.571-8.275l17.254-1.98a7.422 7.422 0 0 1 5.499 1.572 7.437 7.437 0 0 1 2.776 4.999l1.98 17.254a7.415 7.415 0 0 1-1.573 5.498 7.425 7.425 0 0 1-4.999 2.777l-17.253 1.98a7.407 7.407 0 0 1-.864.048h-.005Zm15.303-32.687c-.228 0-.461.015-.694.039l-17.254 1.98c-3.276.374-5.634 3.349-5.256 6.625l1.98 17.253a5.939 5.939 0 0 0 2.223 4 5.945 5.945 0 0 0 4.402 1.257l17.253-1.981a5.931 5.931 0 0 0 3.999-2.222 5.926 5.926 0 0 0 1.257-4.402l-1.98-17.254a5.953 5.953 0 0 0-2.222-4.004 5.929 5.929 0 0 0-3.708-1.295v.004Z"></path><path fill="#fff" d="m228.179 153.237-17.254 1.98a6.722 6.722 0 0 1-7.445-5.916l-1.98-17.253a6.724 6.724 0 0 1 5.916-7.45l17.254-1.98a6.734 6.734 0 0 1 7.45 5.916l1.98 17.253a6.722 6.722 0 0 1-5.916 7.445"></path><path fill="#121516" d="M210.144 156.008a7.42 7.42 0 0 1-4.63-1.621 7.424 7.424 0 0 1-2.776-4.999l-1.98-17.253c-.471-4.091 2.48-7.804 6.571-8.275l17.254-1.98a7.422 7.422 0 0 1 5.499 1.572 7.437 7.437 0 0 1 2.776 4.999l1.98 17.254a7.415 7.415 0 0 1-1.573 5.498 7.425 7.425 0 0 1-4.999 2.777l-17.253 1.98a7.407 7.407 0 0 1-.864.048h-.005Zm15.303-32.687c-.228 0-.461.015-.694.039l-17.254 1.98c-3.276.374-5.634 3.349-5.256 6.625l1.98 17.253a5.939 5.939 0 0 0 2.223 4 5.945 5.945 0 0 0 4.402 1.257l17.253-1.981a5.931 5.931 0 0 0 3.999-2.222 5.926 5.926 0 0 0 1.257-4.402l-1.98-17.254a5.953 5.953 0 0 0-2.222-4.004 5.929 5.929 0 0 0-3.708-1.295v.004Z"></path><path fill="#fff" d="M215.332 133.018a3.952 3.952 0 0 1-3.62 4.257 3.952 3.952 0 1 1 3.62-4.257Z"></path><path fill="#121516" d="M211.391 138.037a4.702 4.702 0 0 1-4.678-4.32 4.7 4.7 0 0 1 4.3-5.057 4.66 4.66 0 0 1 3.421 1.102 4.665 4.665 0 0 1 1.641 3.198 4.699 4.699 0 0 1-4.679 5.072l-.005.005Zm.005-7.901c-.087 0-.174 0-.262.009a3.207 3.207 0 0 0-2.936 3.451 3.201 3.201 0 0 0 3.456 2.936 3.211 3.211 0 0 0 2.936-3.455 3.198 3.198 0 0 0-3.189-2.946l-.005.005Z"></path><mask id="c" width="34" height="34" x="201" y="122" maskUnits="userSpaceOnUse" style="mask-type:luminance"><path fill="#fff" d="m224.66 122.635-17.247 1.977a6.727 6.727 0 0 0-5.917 7.449l1.977 17.247a6.728 6.728 0 0 0 7.449 5.917l17.248-1.977a6.727 6.727 0 0 0 5.916-7.449l-1.977-17.247a6.727 6.727 0 0 0-7.449-5.917Z"></path></mask><g mask="url(#c)"><path fill="#fff" d="M232.494 137.119a5.682 5.682 0 0 0-1.471.325 5.45 5.45 0 0 0-10.177 1.655 5.451 5.451 0 1 0 2.13 9.406 5.419 5.419 0 0 0 3.271.777 5.417 5.417 0 0 0 3.854-2.078 5.417 5.417 0 0 0 3.271.777 5.453 5.453 0 0 0 4.994-5.873 5.453 5.453 0 0 0-5.872-4.994"></path><path fill="#121516" d="M219.424 150.568a6.206 6.206 0 0 1-6.174-5.698 6.206 6.206 0 0 1 7.038-6.639 6.182 6.182 0 0 1 5.435-4.383 6.21 6.21 0 0 1 5.64 2.713 6.277 6.277 0 0 1 1.072-.184c3.407-.272 6.402 2.271 6.678 5.678a6.144 6.144 0 0 1-1.456 4.514 6.143 6.143 0 0 1-4.222 2.159 6.188 6.188 0 0 1-3.164-.577 6.21 6.21 0 0 1-7.227 1.252 6.178 6.178 0 0 1-3.62 1.165Zm.004-10.906a4.712 4.712 0 0 0-4.693 5.087 4.7 4.7 0 0 0 7.746 3.193l.413-.354.461.281c.849.52 1.829.753 2.824.67a4.732 4.732 0 0 0 3.33-1.791l.407-.524.568.345c.85.519 1.83.752 2.825.669a4.669 4.669 0 0 0 3.203-1.64 4.67 4.67 0 0 0 1.107-3.426 4.708 4.708 0 0 0-5.072-4.31 4.841 4.841 0 0 0-1.272.281l-.606.228-.306-.572a4.703 4.703 0 0 0-4.528-2.466 4.7 4.7 0 0 0-4.261 3.898l-.136.81-.791-.214a4.734 4.734 0 0 0-1.223-.16l.004-.005Z"></path></g><path fill="#121516" d="M210.144 156.008a7.42 7.42 0 0 1-4.63-1.621 7.424 7.424 0 0 1-2.776-4.999l-1.98-17.253c-.471-4.091 2.48-7.804 6.571-8.275l17.254-1.98a7.422 7.422 0 0 1 5.499 1.572 7.437 7.437 0 0 1 2.776 4.999l1.98 17.254a7.415 7.415 0 0 1-1.573 5.498 7.425 7.425 0 0 1-4.999 2.777l-17.253 1.98a7.407 7.407 0 0 1-.864.048h-.005Zm15.303-32.687c-.228 0-.461.015-.694.039l-17.254 1.98c-3.276.374-5.634 3.349-5.256 6.625l1.98 17.253a5.939 5.939 0 0 0 2.223 4 5.945 5.945 0 0 0 4.402 1.257l17.253-1.981a5.931 5.931 0 0 0 3.999-2.222 5.926 5.926 0 0 0 1.257-4.402l-1.98-17.254a5.953 5.953 0 0 0-2.222-4.004 5.929 5.929 0 0 0-3.708-1.295v.004Z"></path><path fill="#fff" d="m271.752 148.238-17.254 1.98a6.723 6.723 0 0 1-7.445-5.916l-1.98-17.253a6.724 6.724 0 0 1 5.916-7.45l17.254-1.98a6.733 6.733 0 0 1 7.45 5.916l1.98 17.253a6.722 6.722 0 0 1-5.916 7.445"></path><path fill="#121516" d="M253.717 151.009a7.42 7.42 0 0 1-4.63-1.621 7.418 7.418 0 0 1-2.776-4.998l-1.98-17.254a7.422 7.422 0 0 1 1.572-5.499 7.426 7.426 0 0 1 4.999-2.776l17.253-1.98c4.087-.466 7.804 2.48 8.275 6.572l1.98 17.253a7.422 7.422 0 0 1-1.572 5.499 7.426 7.426 0 0 1-4.999 2.776l-17.253 1.98a7.431 7.431 0 0 1-.864.048h-.005Zm15.293-32.681c-.229 0-.457.014-.685.038l-17.253 1.98a5.936 5.936 0 0 0-3.999 2.223 5.925 5.925 0 0 0-1.257 4.402l1.98 17.254a5.933 5.933 0 0 0 2.223 3.999 5.951 5.951 0 0 0 4.402 1.257l17.253-1.981a5.931 5.931 0 0 0 3.999-2.222 5.947 5.947 0 0 0 1.257-4.402l-1.98-17.254a5.987 5.987 0 0 0-5.936-5.299l-.004.005Z"></path><path fill="#fff" d="M268.674 131.878a7.84 7.84 0 0 1-4.46 10.153 7.84 7.84 0 0 1-10.153-4.46 7.84 7.84 0 0 1 4.46-10.153 7.84 7.84 0 0 1 10.153 4.46Z"></path><path fill="#121516" d="M261.381 143.312c-3.437 0-6.688-2.077-8.013-5.47a8.501 8.501 0 0 1 .141-6.571 8.507 8.507 0 0 1 4.746-4.547 8.501 8.501 0 0 1 6.571.14 8.523 8.523 0 0 1 4.548 4.747 8.523 8.523 0 0 1-.136 6.571 8.507 8.507 0 0 1-4.747 4.548 8.528 8.528 0 0 1-3.106.587l-.004-.005Zm-.005-15.686c-.869 0-1.743.16-2.577.49a7.06 7.06 0 0 0-3.922 3.757 7.068 7.068 0 0 0-.116 5.431c1.422 3.644 5.542 5.455 9.187 4.033a7.055 7.055 0 0 0 3.921-3.757 7.072 7.072 0 0 0 .117-5.431 7.058 7.058 0 0 0-3.757-3.921 7.045 7.045 0 0 0-2.848-.602h-.005Z"></path><path fill="#121516" d="M258.216 126.355a11.15 11.15 0 0 0-8.877-1.213 11.185 11.185 0 0 0 5.14 7.333 11.181 11.181 0 0 0 8.877 1.218 11.168 11.168 0 0 0-5.14-7.333v-.005Z"></path><path fill="#D3A484" d="M354.213 337.954c12.355-1.511 21.13-12.894 19.598-25.425s-12.791-21.466-25.146-19.955c-12.356 1.51-21.13 12.894-19.598 25.425s12.79 21.465 25.146 19.955Z"></path><path fill="#211E1F" d="M351.452 338.874c-5.183 0-10.192-1.742-14.342-5.037-4.901-3.888-8.017-9.474-8.784-15.725-.762-6.251.917-12.424 4.737-17.379 3.819-4.956 9.323-8.105 15.496-8.858 12.726-1.553 24.378 7.683 25.956 20.593.762 6.251-.918 12.424-4.737 17.379-3.82 4.956-9.323 8.105-15.497 8.858a23.26 23.26 0 0 1-2.829.174v-.005Zm-.092-45.713c-.869 0-1.743.054-2.626.161-5.78.708-10.934 3.654-14.516 8.299-3.582 4.649-5.164 10.444-4.446 16.312.719 5.867 3.645 11.114 8.241 14.763 4.596 3.645 10.308 5.271 16.089 4.562 5.78-.708 10.934-3.654 14.516-8.299 3.582-4.649 5.164-10.444 4.445-16.312-1.368-11.22-10.837-19.481-21.708-19.481l.005-.005Z"></path><path fill="#EE4723" d="M346.841 287.692c3.941.582 25.567 4.518 30.518 21.393a.938.938 0 0 1-.335 1l-2.281 1.742a.92.92 0 0 1-1.398-.339c-1.694-3.704-8.726-15.88-28.736-18.54-.655-.087-1.024-.806-.694-1.378l1.99-3.422a.919.919 0 0 1 .927-.451l.009-.005Z"></path><path fill="#000" d="M374.184 312.745a1.643 1.643 0 0 1-1.499-.957c-1.645-3.591-8.537-15.511-28.169-18.122a1.673 1.673 0 0 1-1.281-.917 1.634 1.634 0 0 1 .054-1.548l1.989-3.422c.345-.587 1-.902 1.665-.805 4.31.635 26.052 4.683 31.11 21.907a1.665 1.665 0 0 1-.588 1.781l-2.281 1.743a1.666 1.666 0 0 1-1.004.344l.004-.004Zm-27.479-24.335a.2.2 0 0 0-.165.097l-1.99 3.422a.172.172 0 0 0-.004.175.209.209 0 0 0 .165.116c20.374 2.708 27.576 15.196 29.299 18.962a.171.171 0 0 0 .121.102.195.195 0 0 0 .17-.039l2.281-1.742a.217.217 0 0 0 .078-.219c-2.034-6.921-7.164-12.424-15.259-16.355-6.465-3.14-12.861-4.257-14.667-4.524h-.029v.005Z"></path><path fill="#D3A484" d="m326.991 212.576-16.107 20.593c-7.898 10.099-6.114 24.688 3.984 32.586 10.098 7.898 24.688 6.115 32.586-3.984l16.107-20.593c7.898-10.099 6.114-24.688-3.984-32.586-10.098-7.898-24.687-6.115-32.586 3.984Z"></path><path fill="#211E1F" d="M329.146 271.429a23.8 23.8 0 0 1-14.725-5.077c-10.395-8.134-12.239-23.208-4.105-33.609l16.108-20.592c3.94-5.038 9.604-8.236 15.952-9.013 6.348-.771 12.619.966 17.656 4.907 5.038 3.941 8.236 9.605 9.013 15.953a23.783 23.783 0 0 1-4.907 17.656l-16.108 20.592c-4.717 6.028-11.764 9.183-18.884 9.183Zm16.181-67.014c-.922 0-1.844.058-2.771.17a22.344 22.344 0 0 0-14.982 8.464l-16.108 20.592c-7.639 9.765-5.907 23.927 3.858 31.566 9.765 7.639 23.927 5.906 31.566-3.859l16.108-20.592c3.698-4.732 5.338-10.619 4.61-16.579a22.344 22.344 0 0 0-8.464-14.982c-3.994-3.125-8.818-4.78-13.807-4.78h-.01Z"></path><path fill="#EE4723" d="M323.084 271.113c-8.236.743-15.676-4.838-16.68-13.05 0 0-1.02-5.562 3.712-11.42 1.626-2.014 9.188-9.75 10.134-10.803a3.516 3.516 0 0 1 4.975-.282l17.015 15.288a3.52 3.52 0 0 1 .223 5.013l-11.395 11.721s-2.66 3.048-7.979 3.528l-.005.005Z"></path><path fill="#000" d="M321.604 271.904c-8.105 0-14.953-5.79-15.923-13.754-.039-.199-1.02-5.916 3.868-11.968 1.121-1.388 4.867-5.295 7.605-8.149 1.257-1.315 2.252-2.349 2.548-2.684a4.244 4.244 0 0 1 2.941-1.417 4.218 4.218 0 0 1 3.067 1.078l17.016 15.287a4.197 4.197 0 0 1 1.402 2.971 4.225 4.225 0 0 1-1.136 3.081l-11.405 11.736c-.087.102-2.887 3.247-8.435 3.746-.519.049-1.033.068-1.543.068l-.005.005Zm1.277-36.516h-.156a2.774 2.774 0 0 0-1.931.932c-.316.349-1.316 1.398-2.587 2.718-2.568 2.674-6.44 6.717-7.523 8.056-4.445 5.504-3.572 10.779-3.562 10.833.946 7.721 7.921 13.167 15.899 12.453 4.941-.446 7.474-3.256 7.499-3.285l11.419-11.75a2.769 2.769 0 0 0 .738-2.014 2.764 2.764 0 0 0-.922-1.951l-17.016-15.288a2.746 2.746 0 0 0-1.858-.713v.009Z"></path><path fill="#D3A484" d="m316.932 148.874-16.107 20.594c-7.898 10.098-6.115 24.687 3.984 32.586 10.098 7.898 24.687 6.114 32.585-3.984l16.107-20.594c7.899-10.098 6.115-24.687-3.983-32.586-10.099-7.898-24.688-6.114-32.586 3.984Z"></path><path fill="#211E1F" d="M319.071 207.734c-5.315 0-10.449-1.761-14.701-5.086-10.396-8.134-12.24-23.208-4.106-33.609l16.108-20.592c8.134-10.396 23.213-12.24 33.609-4.106s12.24 23.208 4.106 33.609l-16.108 20.592c-3.941 5.038-9.605 8.236-15.953 9.013a24.19 24.19 0 0 1-2.95.179h-.005Zm16.181-67.014c-6.688 0-13.308 2.961-17.734 8.625l-16.108 20.592c-7.639 9.765-5.907 23.927 3.858 31.566 4.732 3.698 10.619 5.338 16.584 4.61a22.335 22.335 0 0 0 14.982-8.464l16.108-20.592c7.639-9.765 5.906-23.927-3.859-31.566a22.392 22.392 0 0 0-13.831-4.766v-.005Z"></path><path fill="#EE4723" d="M313.193 208.749c-8.236.742-15.676-4.839-16.68-13.051 0 0-1.019-5.562 3.713-11.419 1.625-2.015 9.187-9.751 10.133-10.804a3.515 3.515 0 0 1 4.975-.281l17.015 15.287a3.521 3.521 0 0 1 .224 5.014l-11.396 11.721s-2.659 3.047-7.979 3.528l-.005.005Z"></path><path fill="#000" d="M311.713 209.545c-8.104 0-14.952-5.79-15.928-13.755-.039-.199-1.019-5.916 3.868-11.968 1.116-1.383 4.858-5.285 7.591-8.129 1.266-1.32 2.271-2.368 2.567-2.698a4.24 4.24 0 0 1 2.941-1.417 4.189 4.189 0 0 1 3.067 1.082l17.016 15.288a4.195 4.195 0 0 1 1.402 2.97 4.232 4.232 0 0 1-1.135 3.082l-11.405 11.735c-.088.102-2.888 3.247-8.44 3.747-.519.048-1.034.067-1.544.067v-.004Zm1.277-36.521h-.155a2.77 2.77 0 0 0-1.932.932c-.315.354-1.325 1.407-2.601 2.737-2.558 2.669-6.426 6.702-7.508 8.037-4.446 5.503-3.572 10.779-3.563 10.832.947 7.722 7.926 13.172 15.9 12.454 4.94-.447 7.474-3.257 7.498-3.286l11.42-11.75a2.77 2.77 0 0 0 .737-2.014 2.768 2.768 0 0 0-.922-1.951l-17.015-15.287a2.75 2.75 0 0 0-1.859-.714v.01Z"></path><path fill="#D3A484" d="m42.23 189.044 6.28 4.747a44.92 44.92 0 0 1 21.525 44.077l-13.157 94.755"></path><path fill="#211E1F" d="m57.596 332.72-1.441-.199 13.157-94.755c2.15-17.35-6.159-34.375-21.175-43.354l-.063-.044-6.28-4.746.879-1.16 6.246 4.722c15.491 9.28 24.062 26.848 21.84 44.772L57.596 332.72Z"></path><path fill="#EE4723" d="M38.475 189.03a3.122 3.122 0 0 1 4.382-1.874l1.044.525a4.27 4.27 0 0 1 2.261 4.698c-2.087 9.789-9.037 38.355-18.792 36.826-.616-.097-.995-.747-.81-1.344"></path><path fill="#000" d="M28.113 229.996c-.282 0-.568-.019-.854-.068a1.729 1.729 0 0 1-1.194-.796 1.805 1.805 0 0 1-.2-1.48l1.394.427a.343.343 0 0 0 .039.282.289.289 0 0 0 .189.131c7.3 1.145 14.07-17.982 17.967-36.259a3.546 3.546 0 0 0-1.874-3.897l-1.043-.524a2.393 2.393 0 0 0-3.364 1.436l-1.392-.427a3.82 3.82 0 0 1 2.169-2.407 3.835 3.835 0 0 1 3.237.102l1.044.524a5.003 5.003 0 0 1 2.645 5.499c-2.437 11.439-9.056 37.457-18.763 37.462v-.005Z"></path><path fill="#000" d="M37.773 188.806 25.87 227.645l1.392.426 11.904-38.838-1.392-.427Z"></path><path fill="#EE4723" d="M166.678 213.156c58.661 0 106.214-47.554 106.214-106.214S225.339.728 166.678.728c-58.66 0-106.213 47.553-106.213 106.214 0 58.66 47.553 106.214 106.213 106.214Z"></path><path fill="#000" d="M166.679 213.879c-28.567 0-55.42-11.124-75.62-31.323-20.198-20.2-31.322-47.053-31.322-75.619 0-28.566 11.123-55.42 31.323-75.619C111.259 11.124 138.112 0 166.679 0c28.566 0 55.419 11.124 75.618 31.323 20.2 20.2 31.323 47.052 31.323 75.619 0 28.566-11.123 55.419-31.323 75.618-20.199 20.2-47.052 31.323-75.618 31.323v-.004Zm0-212.423c-28.179 0-54.668 10.973-74.59 30.896-19.923 19.923-30.896 46.412-30.896 74.59 0 28.178 10.973 54.667 30.896 74.59 19.922 19.922 46.411 30.895 74.59 30.895 28.178 0 54.667-10.973 74.589-30.895 19.923-19.923 30.896-46.412 30.896-74.59 0-28.178-10.973-54.667-30.896-74.59-19.922-19.923-46.411-30.896-74.589-30.896Z"></path><path fill="url(#d)" d="M161.238 36.443a13.142 13.142 0 0 1 10.672 0l45.975 20.432a13.137 13.137 0 0 1 7.8 12.002V99.75c0 36.453-25.223 70.542-59.113 78.817-33.891-8.275-59.113-42.364-59.113-78.817V68.877c0-5.193 3.058-9.895 7.799-12.002l45.975-20.432h.005Z"></path><path fill="#000" d="m166.576 179.318-.175-.043c-34.016-8.309-59.666-42.496-59.666-79.526V68.877a13.875 13.875 0 0 1 8.231-12.667l45.975-20.432a13.884 13.884 0 0 1 11.265 0l45.975 20.432a13.87 13.87 0 0 1 8.231 12.667V99.75c0 37.03-25.649 71.217-59.666 79.526l-.175.043h.005Zm-5.042-142.21L115.559 57.54a12.42 12.42 0 0 0-7.368 11.337V99.75c0 36.317 25.087 69.843 58.385 78.065 33.298-8.226 58.385-41.753 58.385-78.065V68.877c0-4.896-2.893-9.347-7.367-11.337l-45.975-20.432a12.444 12.444 0 0 0-10.081 0h-.004Z"></path><path fill="#BCBDC0" fill-rule="evenodd" d="m159.966 58.763.209 3.02c-.33.091-.67.135-1.009.15-6.324.271-11.367 5.479-11.367 11.87v19.875a4.14 4.14 0 0 0 8.28 0V78.832c0-5.087 4.125-9.212 9.211-9.212h2.796c6.105 0 11.056 4.95 11.056 11.056v13.002a4.14 4.14 0 0 0 8.279 0V73.804c0-6.305-8.425-14.536-14.904-15.177-.48-.048-12.085.01-12.551.136Z" clip-rule="evenodd"></path><path fill="#0F1415" d="M183.281 98.546a4.874 4.874 0 0 1-4.868-4.868V80.676c0-5.693-4.634-10.328-10.327-10.328h-2.796c-4.678 0-8.483 3.805-8.483 8.484v14.846a4.874 4.874 0 0 1-4.868 4.868 4.874 4.874 0 0 1-4.868-4.868V73.804a12.58 12.58 0 0 1 12.06-12.6c.093 0 .185-.01.272-.019l-.204-2.965.573-.16c.699-.194 12.725-.17 12.818-.16 6.979.689 15.559 9.454 15.559 15.899v19.874a4.874 4.874 0 0 1-4.868 4.868v.005ZM165.29 68.892h2.796c6.498 0 11.783 5.285 11.783 11.784v13.002a3.414 3.414 0 0 0 3.412 3.412 3.414 3.414 0 0 0 3.412-3.412V73.804c0-5.732-7.988-13.832-14.249-14.453-.68-.049-9.216.005-11.701.092l.199 2.883-.573.16a5.339 5.339 0 0 1-1.174.175 11.123 11.123 0 0 0-10.668 11.143v19.874a3.414 3.414 0 0 0 3.412 3.412 3.414 3.414 0 0 0 3.412-3.412V78.832c0-5.48 4.46-9.94 9.939-9.94Z"></path><path fill="#F2F1F2" fill-rule="evenodd" d="M165.907 58.39h-7.581c-8.848 0-16.021 7.522-16.021 16.37v18.864a4.14 4.14 0 0 0 8.28 0V77.147c0-6.105 4.95-11.055 11.056-11.055h.951c6.105 0 11.056 4.95 11.056 11.055v16.477a4.14 4.14 0 0 0 8.279 0V74.415c0-8.847-7.173-16.02-16.02-16.02v-.005Z" clip-rule="evenodd"></path><path fill="#0F1415" d="M177.788 98.492a4.874 4.874 0 0 1-4.868-4.868V77.147c0-5.692-4.635-10.327-10.328-10.327h-.951c-5.693 0-10.328 4.635-10.328 10.328v16.476a4.874 4.874 0 0 1-4.868 4.868 4.874 4.874 0 0 1-4.868-4.868V74.76c0-9.27 7.669-17.098 16.749-17.098h7.581c9.236 0 16.748 7.512 16.748 16.748v19.21a4.874 4.874 0 0 1-4.867 4.867v.005ZM161.641 65.36h.951c6.499 0 11.784 5.285 11.784 11.784V93.62a3.414 3.414 0 0 0 3.412 3.411 3.413 3.413 0 0 0 3.411-3.412V74.41c0-8.435-6.862-15.292-15.292-15.292h-7.581c-8.289 0-15.293 7.163-15.293 15.642v18.864a3.414 3.414 0 0 0 3.412 3.412 3.414 3.414 0 0 0 3.412-3.412V77.147c0-6.498 5.285-11.783 11.784-11.783v-.005Z"></path><path fill="#BCBDC0" d="M179.447 144.288h-28.086c-4.222 0-15.554-9.94-15.554-14.157l7.915-27.412a7.643 7.643 0 0 1 7.644-7.644l27.208-8.299c4.222 0 14.36 11.721 14.36 15.938V130.8c0 7.445-6.037 13.483-13.482 13.483l-.005.005Z"></path><path fill="#0F1415" d="M179.447 145.016h-28.085c-4.422 0-16.283-10.042-16.283-14.885v-.102l.029-.097 7.887-27.314c.058-4.529 3.727-8.207 8.26-8.266l27.207-8.299h.107c4.751 0 15.089 12.28 15.089 16.666v28.086c0 7.838-6.377 14.211-14.211 14.211Zm-42.912-14.793c.184 3.713 10.842 13.337 14.827 13.337h28.085c7.033 0 12.755-5.722 12.755-12.755v-28.086c0-3.945-9.886-15.006-13.536-15.21l-27.198 8.295h-.106a6.922 6.922 0 0 0-6.916 6.915v.102l-.029.097-7.882 27.305Z"></path><path fill="#F2F1F2" d="M176.933 86.534h-33.924a7.644 7.644 0 0 0-7.644 7.643v33.925a7.644 7.644 0 0 0 7.644 7.644h33.924a7.644 7.644 0 0 0 7.644-7.644V94.177a7.644 7.644 0 0 0-7.644-7.643Z"></path><path fill="#0F1415" d="M176.933 136.474h-33.929c-4.615 0-8.372-3.757-8.372-8.372v-33.93c0-4.615 3.757-8.371 8.372-8.371h33.929c4.616 0 8.372 3.756 8.372 8.372v33.929c0 4.615-3.756 8.372-8.372 8.372Zm-33.924-49.212a6.922 6.922 0 0 0-6.916 6.916v33.929a6.922 6.922 0 0 0 6.916 6.916h33.929a6.922 6.922 0 0 0 6.916-6.916v-33.93a6.922 6.922 0 0 0-6.916-6.915h-33.929Z"></path><path fill="#A3A3A3" d="M163.053 110.786v-7.562a2.499 2.499 0 1 0-4.999 0v7.562a6.835 6.835 0 0 0-4.339 6.289c-.038 3.621 2.849 6.712 6.47 6.907a6.848 6.848 0 0 0 7.217-6.834 6.841 6.841 0 0 0-4.339-6.362h-.01Z"></path><path fill="#0F1415" d="M160.558 124.719c-.141 0-.276 0-.417-.01-3.99-.213-7.198-3.64-7.159-7.639a7.528 7.528 0 0 1 4.339-6.76v-7.081a3.23 3.23 0 0 1 3.228-3.228 3.23 3.23 0 0 1 3.227 3.228v7.081a7.518 7.518 0 0 1 4.339 6.843c0 2.097-.84 4.048-2.364 5.494a7.498 7.498 0 0 1-5.202 2.077l.009-.005Zm-.005-23.266c-.975 0-1.771.796-1.771 1.771v8.056l-.461.18a6.082 6.082 0 0 0-3.878 5.62c-.034 3.232 2.558 5.999 5.78 6.169a6.03 6.03 0 0 0 4.543-1.67 6.044 6.044 0 0 0 1.907-4.436 6.077 6.077 0 0 0-3.877-5.683l-.461-.18v-8.056c0-.975-.796-1.771-1.772-1.771h-.01Z"></path><defs><linearGradient id="d" x1="122.873" x2="212.445" y1="49.154" y2="148.631" gradientUnits="userSpaceOnUse"><stop stop-color="#A07AB5"></stop><stop offset=".6" stop-color="#EC2087"></stop><stop offset=".97" stop-color="#EF4F36"></stop></linearGradient></defs></svg>