<svg xmlns="http://www.w3.org/2000/svg" fill="none" viewBox="0 0 172 25"><path fill="#191e24" d="M7.912 24.496s-9.748-3.582-7.604-7.363c1.365-2.388 4.485.199 9.36 2.786l-1.756 4.577Z"/><path fill="#FF550C" d="M19.806 23.302c7.41.596 10.69-2.763 11.47-3.758 0 0-4.423-5.648-7.03-9.436-1.774-2.58-4.05-6.249-5.35-8.378-.464-.757-1.569-.726-2.041.026C12.017 9.454 3.109 15.224 1.11 16.336c1.58-.656 4.462 1.393 8.361 3.582 0 0 2.898 1.511 4.859 2.21 2.515.895 5.475 1.174 5.475 1.174Z"/><path fill="#191e24" d="M39.17 15.336c0-1.837.393-3.44 1.18-4.807a8.078 8.078 0 0 1 3.265-3.204c1.392-.769 2.985-1.153 4.78-1.153 2.313 0 4.22.555 5.725 1.666 1.526 1.09 2.547 2.627 3.064 4.614H52.1c-.27-.77-.73-1.367-1.38-1.794-.63-.45-1.415-.673-2.358-.673-1.346 0-2.413.47-3.198 1.41-.786.918-1.179 2.232-1.179 3.94 0 1.688.393 3.002 1.179 3.942.785.919 1.852 1.378 3.198 1.378 1.908 0 3.154-.812 3.737-2.435h5.085c-.517 1.922-1.538 3.45-3.064 4.582-1.527 1.132-3.435 1.698-5.724 1.698-1.796 0-3.39-.374-4.781-1.122a8.355 8.355 0 0 1-3.266-3.204c-.785-1.388-1.178-3.001-1.178-4.838ZM64.299.5v23.712h-4.714V.5h4.714Zm11.888 24c-1.796 0-3.412-.374-4.849-1.122a8.64 8.64 0 0 1-3.4-3.236c-.808-1.388-1.212-2.99-1.212-4.806 0-1.816.415-3.418 1.246-4.807a8.59 8.59 0 0 1 3.467-3.204c1.46-.769 3.087-1.153 4.882-1.153 1.796 0 3.423.384 4.882 1.153a8.363 8.363 0 0 1 3.435 3.204c.853 1.389 1.279 2.991 1.279 4.807 0 1.815-.438 3.418-1.313 4.806-.853 1.389-2.02 2.468-3.502 3.236-1.459.748-3.097 1.122-4.915 1.122Zm0-3.91c.853 0 1.65-.192 2.39-.576a4.489 4.489 0 0 0 1.818-1.794c.45-.79.674-1.752.674-2.884 0-1.688-.472-2.98-1.414-3.877-.92-.919-2.054-1.378-3.401-1.378s-2.48.46-3.4 1.378c-.898.897-1.347 2.19-1.347 3.877 0 1.687.437 2.99 1.313 3.909.898.897 2.02 1.346 3.367 1.346Zm10.923-5.318c0-1.795.37-3.386 1.112-4.775.763-1.388 1.784-2.456 3.063-3.204 1.302-.748 2.75-1.121 4.344-1.121 1.391 0 2.603.267 3.636.8 1.055.535 1.897 1.208 2.525 2.02V6.46h4.747v17.752h-4.747v-2.596c-.606.833-1.448 1.527-2.525 2.083-1.055.534-2.278.801-3.67.801-1.571 0-3.008-.384-4.31-1.154-1.28-.769-2.3-1.847-3.064-3.236-.74-1.41-1.11-3.023-1.11-4.838Zm14.68.064c0-1.09-.224-2.019-.673-2.788-.449-.79-1.055-1.389-1.819-1.794a4.95 4.95 0 0 0-2.457-.641c-.876 0-1.684.203-2.425.609-.74.405-1.346 1.004-1.818 1.794-.448.769-.673 1.688-.673 2.756 0 1.068.224 2.008.673 2.82.472.79 1.078 1.399 1.819 1.826a4.89 4.89 0 0 0 2.424.64c.875 0 1.694-.202 2.457-.608a4.773 4.773 0 0 0 1.819-1.794c.449-.79.673-1.73.673-2.82Zm19.342 8.876-6.329-7.563v7.563h-4.714V.5h4.714v13.49l6.262-7.53h6.128l-8.216 8.908 8.283 8.844h-6.128Zm24.906-9.26c0 .64-.045 1.217-.134 1.73h-13.636c.112 1.281.583 2.285 1.414 3.012.83.726 1.852 1.089 3.064 1.089 1.751 0 2.996-.716 3.737-2.147h5.084c-.539 1.71-1.571 3.119-3.098 4.23-1.526 1.09-3.4 1.634-5.622 1.634-1.796 0-3.412-.374-4.849-1.122a8.464 8.464 0 0 1-3.333-3.236c-.785-1.388-1.178-2.99-1.178-4.806 0-1.837.393-3.45 1.178-4.839a8.028 8.028 0 0 1 3.3-3.204c1.414-.748 3.041-1.121 4.882-1.121 1.773 0 3.355.363 4.747 1.089 1.414.726 2.503 1.762 3.266 3.108.786 1.325 1.178 2.852 1.178 4.582Zm-4.882-1.282c-.022-1.154-.46-2.072-1.313-2.756-.853-.705-1.896-1.058-3.131-1.058-1.167 0-2.155.342-2.963 1.026-.785.662-1.268 1.591-1.448 2.788h8.855Zm6.059 1.602c0-1.795.37-3.386 1.111-4.775.763-1.388 1.795-2.456 3.097-3.204 1.302-.748 2.75-1.121 4.344-1.121 1.212 0 2.368.256 3.467.769 1.1.49 1.976 1.153 2.627 1.986V.5h4.781v23.712h-4.781v-2.628c-.584.876-1.403 1.58-2.458 2.115-1.055.534-2.278.801-3.67.801-1.571 0-3.008-.384-4.31-1.154-1.302-.769-2.334-1.847-3.097-3.236-.741-1.41-1.111-3.023-1.111-4.838Zm14.679.064c0-1.09-.224-2.019-.673-2.788-.449-.79-1.055-1.389-1.818-1.794a4.952 4.952 0 0 0-2.458-.641c-.875 0-1.683.203-2.424.609-.741.405-1.347 1.004-1.818 1.794-.449.769-.674 1.688-.674 2.756 0 1.068.225 2.008.674 2.82.471.79 1.077 1.399 1.818 1.826.763.427 1.571.64 2.424.64.875 0 1.695-.202 2.458-.608a4.775 4.775 0 0 0 1.818-1.794c.449-.79.673-1.73.673-2.82ZM170.134.5c.212 0 .402.047.57.14.168.09.3.216.395.378.095.16.142.34.142.54s-.047.382-.142.544c-.095.162-.227.29-.395.384a1.19 1.19 0 0 1-.57.134c-.216 0-.408-.045-.576-.134a1.025 1.025 0 0 1-.395-.384 1.059 1.059 0 0 1-.143-.544c0-.2.048-.38.143-.54a.989.989 0 0 1 .395-.378c.168-.093.36-.14.576-.14Zm0 1.913c.263 0 .475-.08.636-.238a.822.822 0 0 0 .247-.617.822.822 0 0 0-.247-.617c-.161-.16-.373-.239-.636-.239-.267 0-.481.08-.642.239a.84.84 0 0 0-.236.617.84.84 0 0 0 .236.617c.161.159.375.238.642.238Zm.493-1.073a.33.33 0 0 1-.071.212.363.363 0 0 1-.187.12l.308.43-.346.005-.263-.415h-.093v.415h-.286V.993h.527c.124 0 .223.03.296.093a.309.309 0 0 1 .115.254Zm-.652.13h.224a.15.15 0 0 0 .099-.032.102.102 0 0 0 .044-.088.09.09 0 0 0-.044-.083.15.15 0 0 0-.099-.03h-.224v.232Z"/></svg>