<svg xmlns="http://www.w3.org/2000/svg" width="500" height="105" viewBox="0 0 500 105"><g style="fill:#e60012;fill-opacity:1"><path d="M0 0c0-2.127.986-4.546 2.96-6.024l-.004.001.001-.001-2.647.001v-5.073h18.474v5.072H8.272c-1.892 0-3.903 1.467-3.903 4.183 0 2.099 1.46 4.271 3.903 4.271h10.512v5.073H7.332C3.083 7.503 0 4.463 0 0" style="fill:#e60012;fill-opacity:1;fill-rule:nonzero;stroke:none" transform="matrix(0 4.20229 4.20229 0 209.967 23.33)"/></g><g style="fill:#e60012;fill-opacity:1"><path d="m0 0 12.584-4.586L0-9.172v-5.795l18.468 7.601v5.559L0 5.794V0Z" style="fill:#e60012;fill-opacity:1;fill-rule:nonzero;stroke:none" transform="matrix(0 4.20229 4.20229 0 393.01 24.636)"/></g><g style="fill:#e60012;fill-opacity:1"><path d="M0 0c-1.16.864-1.841 2.24-1.841 3.902 0 1.828 1.044 3.215 2.585 3.932l3.677-8.863C2.534-1.271 1.058-.788 0 0m7.228 9.746c1.58-2.135 1.957-3.355 1.957-5.302 0-1.752-.544-3.124-1.498-4.091l-5.38 12.969c-2.005-.283-3.796-1.044-5.158-2.215C-4.83 9.403-5.877 6.881-5.877 3.81c0-5.578 4.115-9.784 9.55-9.784 5.576 0 9.549 4.216 9.549 10.343 0 3.433-1.627 6.943-3.528 8.585L7.228 9.746Z" style="fill:#e60012;fill-opacity:1;fill-rule:nonzero;stroke:none" transform="matrix(0 4.20229 4.20229 0 99.697 48.023)"/></g><g style="fill:#e60012;fill-opacity:1"><path d="M0 0v-11.53h-19.341v-5.142H4.658V0H0Z" style="fill:#e60012;fill-opacity:1;fill-rule:nonzero;stroke:none" transform="matrix(0 4.20229 4.20229 0 72.56 82.691)"/></g><g style="fill:#e60012;fill-opacity:1"><path d="M0 0c0-2.833 2.147-4.89 5.201-4.89 2.916 0 5.201 2.179 5.201 4.958 0 2.834-2.206 4.89-5.201 4.89C2.285 4.958 0 2.78 0 0m14.749 0c0-5.548-4.133-9.895-9.548-9.895-5.354 0-9.548 4.377-9.548 9.963 0 5.548 4.133 9.894 9.548 9.894 5.353 0 9.548-4.376 9.548-9.962" style="fill:#e60012;fill-opacity:1;fill-rule:nonzero;stroke:none" transform="matrix(0 4.20229 4.20229 0 455.637 41.594)"/></g><g style="fill:#e60012;fill-opacity:1"><path d="M0 0c0-2.833 2.147-4.889 5.201-4.889 2.916 0 5.201 2.178 5.201 4.958 0 2.833-2.206 4.889-5.201 4.889C2.285 4.958 0 2.78 0 0m14.749 0c0-5.548-4.133-9.894-9.548-9.894-5.354 0-9.548 4.376-9.548 9.963 0 5.547 4.133 9.894 9.548 9.894 5.353 0 9.548-4.377 9.548-9.963" style="fill:#e60012;fill-opacity:1;fill-rule:nonzero;stroke:none" transform="matrix(0 4.20229 4.20229 0 291.508 41.594)"/></g></svg>