<svg xmlns="http://www.w3.org/2000/svg" width="484" height="73" fill="none"><g clip-path="url(#a)"><g clip-path="url(#b)"><path fill="url(#c)" d="m81.84 57.203-13.29 14.23a3.128 3.128 0 0 1-2.26 1h-63a1.55 1.55 0 0 1-1.13-2.6l13.29-14.25a3.131 3.131 0 0 1 2.26-1h63a1.55 1.55 0 0 1 1.13 2.62Zm-13.29-28.7a3.099 3.099 0 0 0-2.26-1h-63a1.54 1.54 0 0 0-1.13 2.59l13.29 14.27a3.1 3.1 0 0 0 2.26 1h63a1.54 1.54 0 0 0 1.13-2.59l-13.29-14.27ZM3.29 18.263h63a3.13 3.13 0 0 0 2.26-1l13.29-14.23a1.55 1.55 0 0 0-1.13-2.6h-63a3.13 3.13 0 0 0-2.26 1L2.16 15.663a1.55 1.55 0 0 0 1.13 2.6Z"/><path fill="#000" d="M158.23 30.833h-33.68v-11.2H167v-11.2h-42.53a11.12 11.12 0 0 0-11.12 11.12v11.36a11.117 11.117 0 0 0 3.257 7.863 11.12 11.12 0 0 0 7.863 3.257h33.68v11.2h-44v11.2h44.08a11.12 11.12 0 0 0 11.12-11.12v-11.36a11.117 11.117 0 0 0-11.12-11.12ZM223.41 8.433h-33.77a11.12 11.12 0 0 0-11.12 11.12v33.76a11.122 11.122 0 0 0 11.12 11.12h33.77a11.112 11.112 0 0 0 11.11-11.12v-33.76a11.111 11.111 0 0 0-11.11-11.12Zm-.09 44.8h-33.6v-33.6h33.6v33.6ZM341.74 8.433h-33a11.118 11.118 0 0 0-11.12 11.12v44.88h11.2v-18.4h32.8v18.4h11.2v-44.88a11.12 11.12 0 0 0-11.08-11.12Zm-.08 26.4h-32.8v-15.2h32.8v15.2ZM472.88 8.433h-33a11.119 11.119 0 0 0-11.08 11.12v44.88H440v-18.4h32.8v18.4H484v-44.88a11.117 11.117 0 0 0-6.865-10.273 11.118 11.118 0 0 0-4.255-.847Zm-.08 26.4H440v-15.2h32.8v15.2ZM407.63 53.233h-4.48l-16-40.14a7.43 7.43 0 0 0-6.94-4.66h-10a7.412 7.412 0 0 0-7.41 7.41v48.59H374v-44.8h4.48l16.06 40.14a7.409 7.409 0 0 0 6.91 4.66h10a7.407 7.407 0 0 0 6.846-4.574 7.417 7.417 0 0 0 .564-2.836V8.433h-11.2l-.03 44.8ZM255.69 8.433h-11.2v44.88a11.122 11.122 0 0 0 11.12 11.12h33.68v-11.2h-33.6v-44.8Z"/></g></g><defs><clipPath id="a"><path fill="#fff" d="M0 .433h484v72H0z"/></clipPath><clipPath id="b"><path fill="#fff" d="M0 .433h484v72H0z"/></clipPath><linearGradient id="c" x1="8.54" x2="74.61" y1="74.153" y2="-.327" gradientUnits="userSpaceOnUse"><stop offset=".08" stop-color="#9945FF"/><stop offset=".3" stop-color="#8752F3"/><stop offset=".5" stop-color="#5497D5"/><stop offset=".6" stop-color="#43B4CA"/><stop offset=".72" stop-color="#28E0B9"/><stop offset=".97" stop-color="#19FB9B"/></linearGradient></defs></svg>