<svg xmlns="http://www.w3.org/2000/svg" width="511.937" height="94.734" viewBox="0 0 511.937 94.734">
  <g id="_1" data-name="1" transform="translate(-0.06 -0.009)">
    <path id="Path_1" data-name="Path 1" d="M42.383,77.162a26.354,26.354,0,0,0,5.742-.583,13.613,13.613,0,0,0,4.823-1.974,9.846,9.846,0,0,0,3.33-3.711A12.872,12.872,0,0,0,57.5,64.867c0-4.792-1.349-8.2-4.029-10.261-2.687-2.037-6.271-3.051-10.678-3.051H20.533V77.162Zm-1.13-39.583a14.807,14.807,0,0,0,9.008-2.61c2.355-1.716,3.5-4.558,3.5-8.457a11.046,11.046,0,0,0-1.144-5.339,8.441,8.441,0,0,0-3.153-3.234,12.715,12.715,0,0,0-4.509-1.631,27.305,27.305,0,0,0-5.265-.459H20.533v21.73ZM43.9.009A57.225,57.225,0,0,1,56.03,1.189a26.4,26.4,0,0,1,9.392,3.838,17.96,17.96,0,0,1,6.07,7.09,25.008,25.008,0,0,1,2.129,10.911,20.373,20.373,0,0,1-3.189,11.716,23.123,23.123,0,0,1-9.488,7.669c5.724,1.645,9.961,4.544,12.772,8.662A25.825,25.825,0,0,1,77.923,66a25.782,25.782,0,0,1-2.7,12.189,23.735,23.735,0,0,1-7.355,8.422,32.343,32.343,0,0,1-10.579,4.823A47.209,47.209,0,0,1,45.13,93H.06V.009Z" fill="#a8aabc"/>
    <path id="Path_2" data-name="Path 2" d="M128.36,41.478c-2.2-2.433-5.921-3.75-10.462-3.75a15.889,15.889,0,0,0-7.359,1.511,14.811,14.811,0,0,0-4.682,3.711,13.261,13.261,0,0,0-2.482,4.742,21.333,21.333,0,0,0-.844,4.439h30.091a18,18,0,0,0-4.262-10.653ZM107.11,76.852c2.769,2.7,6.773,4.068,11.96,4.068a16.49,16.49,0,0,0,9.657-2.825c2.68-1.875,4.312-3.884,4.944-5.967h16.285c-2.617,8.1-6.589,13.891-12.009,17.373-5.353,3.5-11.886,5.244-19.5,5.244a38.832,38.832,0,0,1-14.361-2.549,30.569,30.569,0,0,1-10.875-7.242A33.138,33.138,0,0,1,86.38,73.734,41.144,41.144,0,0,1,83.961,59.38a39.577,39.577,0,0,1,2.486-14.085,32.642,32.642,0,0,1,17.962-18.789,34.975,34.975,0,0,1,14.043-2.74,31.853,31.853,0,0,1,14.961,3.33,29.813,29.813,0,0,1,10.5,8.919,36.6,36.6,0,0,1,5.918,12.779,47.769,47.769,0,0,1,1.286,14.993H102.531c0,5.321,1.8,10.36,4.579,13.065Z" fill="#a8aabc"/>
    <path id="Path_3" data-name="Path 3" d="M177.385.009V35.072h.424a21.185,21.185,0,0,1,8.969-8.5,24.27,24.27,0,0,1,10.663-2.648,31.432,31.432,0,0,1,12.147,1.988,18.256,18.256,0,0,1,7.5,5.6,22.129,22.129,0,0,1,3.814,8.732,54.525,54.525,0,0,1,1.108,11.37V93H203.426V54.98c0-5.544-.865-9.71-2.588-12.436s-4.791-4.1-9.212-4.1c-5,0-8.616,1.515-10.855,4.506-2.281,2.991-3.386,7.913-3.386,14.763V93H158.808V.009h18.577" fill="#a8aabc"/>
    <path id="Path_4" data-name="Path 4" d="M271.614,61.721a35.539,35.539,0,0,1-3.739.982c-1.356.258-2.772.466-4.241.65s-2.952.378-4.4.639a32.891,32.891,0,0,0-4.086,1.052A11.791,11.791,0,0,0,251.66,66.8a8.508,8.508,0,0,0-2.411,2.8,9.223,9.223,0,0,0-.911,4.3,8.935,8.935,0,0,0,.911,4.174,6.919,6.919,0,0,0,2.457,2.666,10.433,10.433,0,0,0,3.634,1.367,21.9,21.9,0,0,0,4.279.378c3.637,0,6.441-.6,8.439-1.815a12.1,12.1,0,0,0,4.421-4.368,13.36,13.36,0,0,0,1.716-5.127,31.2,31.2,0,0,0,.354-4.181V60.076a8.105,8.105,0,0,1-2.935,1.645Zm-36.4-26.2a21.831,21.831,0,0,1,7.26-6.917,31.244,31.244,0,0,1,9.957-3.722,55.017,55.017,0,0,1,11.137-1.116,75.731,75.731,0,0,1,10.3.713,31.308,31.308,0,0,1,9.485,2.807,18.446,18.446,0,0,1,7.005,5.823c1.833,2.44,2.762,5.745,2.762,9.841V78.041a74.821,74.821,0,0,0,.508,8.725,15.108,15.108,0,0,0,2.214,6.278L276.946,93a9.186,9.186,0,0,1-1.229-3.164,26.454,26.454,0,0,1-.455-3.312,23.928,23.928,0,0,1-10.41,6.405,42,42,0,0,1-12.224,1.815,32.976,32.976,0,0,1-8.969-1.19,20.85,20.85,0,0,1-7.267-3.64,17.145,17.145,0,0,1-4.869-6.264,21.389,21.389,0,0,1-1.766-9.011,19.511,19.511,0,0,1,2.048-9.463A16.427,16.427,0,0,1,237,59.242a22.7,22.7,0,0,1,7.3-3.326,77.866,77.866,0,0,1,8.238-1.769c2.786-.427,5.5-.773,8.206-1.042a48.679,48.679,0,0,0,7.168-1.172,12.6,12.6,0,0,0,4.95-2.292,5.061,5.061,0,0,0,1.692-4.371,10.055,10.055,0,0,0-.993-4.767,7.246,7.246,0,0,0-2.574-2.726,10.322,10.322,0,0,0-3.736-1.317,32,32,0,0,0-4.594-.325c-3.619,0-6.483.805-8.513,2.352-2.087,1.592-3.287,4.213-3.658,7.871H231.929a21.269,21.269,0,0,1,3.284-10.837Z" fill="#a8aabc"/>
    <path id="Path_5" data-name="Path 5" d="M320.851,25.687v9.385h.413a20.917,20.917,0,0,1,9.11-8.5,26.461,26.461,0,0,1,11.476-2.648,31.488,31.488,0,0,1,12.179,1.988,17.813,17.813,0,0,1,7.5,5.6,21.4,21.4,0,0,1,3.863,8.732,53.241,53.241,0,0,1,1.119,11.37V93H347.916V54.98c0-5.544-.872-9.71-2.606-12.436-1.758-2.729-4.791-4.481-9.244-4.481-5.032,0-8.7,1.9-10.95,4.887s-3.389,7.913-3.389,14.763V93h-18.39V25.687h17.514" fill="#a8aabc"/>
    <path id="Path_6" data-name="Path 6" d="M407.658,37.728a12.687,12.687,0,0,0-7.4,2.02,16,16,0,0,0-4.919,5.219,22.865,22.865,0,0,0-2.673,7.041,39.521,39.521,0,0,0-.787,7.638,37.978,37.978,0,0,0,.787,7.447,23.966,23.966,0,0,0,2.542,6.854,15.039,15.039,0,0,0,4.771,5.01,12.92,12.92,0,0,0,7.277,1.963c4.453,0,7.864-1.243,10.255-3.7a17.7,17.7,0,0,0,4.473-9.968h17.86q-1.837,13.4-10.416,20.455c-5.738,4.672-13.086,7.041-22.034,7.041a37.068,37.068,0,0,1-13.887-2.549,31.028,31.028,0,0,1-10.781-7.115,32.932,32.932,0,0,1-6.935-10.893,38.042,38.042,0,0,1-2.468-13.891A45.056,45.056,0,0,1,375.61,45.74a32.166,32.166,0,0,1,6.737-11.592A30.643,30.643,0,0,1,393.2,26.506a36.726,36.726,0,0,1,14.587-2.74,43.679,43.679,0,0,1,11.542,1.55,30.375,30.375,0,0,1,9.891,4.76A25.557,25.557,0,0,1,436.333,38a25.873,25.873,0,0,1,3.122,11.25H421.319q-1.8-11.525-13.661-11.518" fill="#a8aabc"/>
    <path id="Path_7" data-name="Path 7" d="M98.749,6.248h37.694v9.177H98.749Z" fill="#a8aabc"/>
    <path id="Path_8" data-name="Path 8" d="M489.129,41.478c-2.228-2.433-5.978-3.75-10.462-3.75a16.167,16.167,0,0,0-7.4,1.511,15.25,15.25,0,0,0-4.845,3.711,13.942,13.942,0,0,0-2.511,4.742,23.342,23.342,0,0,0-.826,4.439h30.318c-.495-4.717-2.07-8.2-4.277-10.653ZM467.65,76.852c2.779,2.7,6.974,4.068,12.2,4.068a16.372,16.372,0,0,0,9.626-2.825c2.687-1.875,4.353-3.884,4.947-5.967h16.285Q506.8,84.283,498.723,89.5q-8.061,5.249-19.516,5.244a38.654,38.654,0,0,1-14.36-2.549,30.419,30.419,0,0,1-10.858-7.242,32.6,32.6,0,0,1-6.858-11.218,41.157,41.157,0,0,1-2.4-14.354A39.5,39.5,0,0,1,447.2,45.295a33.2,33.2,0,0,1,7.07-11.282,33.558,33.558,0,0,1,10.882-7.507,35.153,35.153,0,0,1,14.057-2.74A31.639,31.639,0,0,1,494.14,27.1a29.559,29.559,0,0,1,10.508,8.919,36.443,36.443,0,0,1,5.929,12.779,48.427,48.427,0,0,1,1.31,14.993h-48.8c0,5.321,1.776,10.36,4.562,13.065Z" fill="#a8aabc"/>
  </g>
</svg>
