<svg id="_2" data-name="2" xmlns="http://www.w3.org/2000/svg" width="512" height="82.069" viewBox="0 0 512 82.069">
  <path id="Path_9" data-name="Path 9" d="M45.8,66.727q-14.1,0-28.2,0a10.692,10.692,0,0,1-1.318-.039c-.759-.1-1.041-.394-1.145-1.155a6.151,6.151,0,0,1-.028-.838q0-6,0-12a5.452,5.452,0,0,1,.033-.839c.115-.739.43-1.016,1.2-1.063.359-.022.72-.008,1.08-.008h24c.32,0,.64,0,.96-.01a.787.787,0,0,0,.835-.827c.024-.359.027-.72.027-1.079q0-4.86,0-9.719c0-1.942,0-1.946-1.9-1.946q-11.817,0-23.636,0c-.44,0-.883.017-1.319-.024-.885-.085-1.175-.392-1.259-1.294-.029-.318-.018-.64-.018-.96q0-5.638,0-11.278c0-2.157.163-2.32,2.316-2.32q13.619,0,27.236,0c.4,0,.8,0,1.2-.024a.677.677,0,0,0,.706-.671c.031-.358.035-.719.035-1.078q0-5.1,0-10.2c0-1.91,0-1.912-1.925-1.912H12.768c-.44,0-.88.012-1.319.021A11.923,11.923,0,0,0,.38,16.523a16.32,16.32,0,0,0-.361,3.8C-.01,29.844,0,39.363,0,48.881Q0,63.76,0,78.637c0,.44,0,.88.029,1.319a.778.778,0,0,0,.834.824q.36.009.72.009c11.519,0,23.037.017,34.555-.023a18.971,18.971,0,0,0,4.271-.515A9.173,9.173,0,0,0,47.652,73.5a13.73,13.73,0,0,0,.309-4.763C47.823,66.857,47.68,66.727,45.8,66.727Zm64.98-40.945a5.752,5.752,0,0,0-.958-.03h-9.477c-.96,0-1.92.02-2.879,0a1.077,1.077,0,0,0-1.175.805c-.088.265-.187.527-.279.791Q89.671,45.561,83.325,63.778A7.824,7.824,0,0,1,82.9,64.9c-.119.223-.421.567-.533.53a1.268,1.268,0,0,1-.642-.582,8.343,8.343,0,0,1-.459-1.233Q76.01,48.5,70.758,33.394a18.459,18.459,0,0,0-2.384-4.684c-4.023-5.662-10.561-4.82-14.728-2.176a1.1,1.1,0,0,0-.473,1.448c.1.263.2.521.3.782q3.168,8.283,6.337,16.566,6.555,17.122,13.115,34.243c.457,1.192.491,1.214,1.734,1.217,2.48.006,4.959,0,7.438,0q3.66,0,7.318,0c1.36,0,1.415-.038,1.907-1.328q9.879-25.86,19.753-51.72a8.016,8.016,0,0,0,.357-1.017A.711.711,0,0,0,110.784,25.782Zm17.54,31.472c.319-.015.64-.005.96-.005h14.4c5,0,10-.027,15,.01,2.92.022,4.975-1.949,4.786-4.751-.129-1.912-.132-3.835-.3-5.743a31.591,31.591,0,0,0-2.691-10.632,18.581,18.581,0,0,0-12.447-10.6,30.42,30.42,0,0,0-13.893-.521A24.219,24.219,0,0,0,115.778,39.3a34.148,34.148,0,0,0-1.77,23.881A23.985,23.985,0,0,0,127.6,79.189a31,31,0,0,0,11.341,2.777,48.019,48.019,0,0,0,13.113-.936,18.552,18.552,0,0,0,6.962-2.779c4.131-2.912,4.436-7.749,2.316-11.625-.47-.86-.731-.941-1.652-.526a40.229,40.229,0,0,1-14.117,3.459,20.8,20.8,0,0,1-12.015-2.526,12.919,12.919,0,0,1-5.5-5.848,13.384,13.384,0,0,1-.857-2.484C126.945,57.657,127.268,57.3,128.324,57.253Zm-1.018-9.725c.866-3.813,2.474-7.209,5.91-9.365a11.343,11.343,0,0,1,10.242-.991,8.987,8.987,0,0,1,5.607,6.142,22.572,22.572,0,0,1,.747,3.5c.21,1.382-.13,1.742-1.511,1.746-3.276.009-6.553,0-9.83,0q-4.734,0-9.47,0a5.982,5.982,0,0,1-.957-.031C127.459,48.442,127.173,48.112,127.306,47.528ZM222.191,38.1A16.318,16.318,0,0,0,211.5,26.239a30.134,30.134,0,0,0-9.037-1.674,74.659,74.659,0,0,0-21.722,2.41c-2.088.528-4.142,1.2-6.195,1.854-1.065.34-1.154.532-1.185,1.655-.01.36,0,.72,0,1.08v23.4q0,11.938,0,23.877c0,1.95,0,1.95,2,1.95q5.28,0,10.559,0c1.965,0,1.966,0,1.966-2.011q0-18.9,0-37.8c0-1.556.22-1.928,1.732-2.246a49.544,49.544,0,0,1,6.247-1.06,23.7,23.7,0,0,1,5.608.2,7.571,7.571,0,0,1,6.617,6.233,15.6,15.6,0,0,1,.342,3.328c.029,7.4-.013,14.8.038,22.2a21.022,21.022,0,0,0,.51,4.508,9.5,9.5,0,0,0,4.671,6.53,12.352,12.352,0,0,0,8.615,1.068,1,1,0,0,0,.862-1.007c.018-.279.014-.56.014-.84,0-11.358.021-22.717-.015-34.076A30.421,30.421,0,0,0,222.191,38.1Zm47.533,28.631c-.7.282-1.393.61-2.109.858a15.683,15.683,0,0,1-8.127.883,5.937,5.937,0,0,1-4.9-4.226,13.671,13.671,0,0,1-.608-4.253q-.027-10.02-.006-20.04a6.776,6.776,0,0,1,.051-1.077,1.043,1.043,0,0,1,1.107-1.034c.317-.031.639-.014.959-.014h11.761q.48,0,.96-.006c.572-.008.919-.282.92-.87q.011-5.22,0-10.44a.7.7,0,0,0-.757-.75c-.319-.015-.64-.015-.959-.015H256.251c-2.142,0-2.277-.137-2.279-2.336,0-3.48,0-6.96-.005-10.441,0-1.393-.088-1.476-1.515-1.478q-5.76-.012-11.521,0c-1.4,0-1.5.111-1.5,1.5q-.006,5.16,0,10.32c0,2.433,0,2.433-2.375,2.434-1.52,0-3.04-.008-4.56,0-1.185.009-1.292.111-1.3,1.317-.017,1.8,0,3.6-.006,5.4,0,1.24,0,2.48,0,3.72.007,1.6.042,1.634,1.588,1.639.6,0,1.2.037,1.8,0a4.616,4.616,0,0,1,4.884,4.856c-.115,3.676-.029,7.359-.029,11.039,0,3.36-.052,6.721.022,10.08a31.591,31.591,0,0,0,.486,5.36c1.137,5.8,4.438,9.828,10.137,11.694a25.83,25.83,0,0,0,13.5.511,13.841,13.841,0,0,0,5.955-2.688A8.828,8.828,0,0,0,271.5,67.294C271.016,66.423,270.7,66.345,269.724,66.733Zm52.553-39.914a29.234,29.234,0,0,0-12.51-2.309,28.557,28.557,0,0,0-10.408,2.008c-1.428.589-1.543.52-1.545-1.05,0-3.919.044-7.838-.024-11.756a21.083,21.083,0,0,0-.508-4.39,9.493,9.493,0,0,0-6.835-7.486,13.854,13.854,0,0,0-5.115-.353c-1.964.16-2.061.262-2.061,2.235q0,17.994,0,35.989V64.42q0,5.519,0,11.036c0,2.724.1,2.847,2.744,3.688a62.646,62.646,0,0,0,21.03,2.869,39.56,39.56,0,0,0,12.216-2.174c8.505-3.046,14.272-8.8,16.9-17.49a33.863,33.863,0,0,0,.479-18.464A24.315,24.315,0,0,0,322.277,26.819Zm-.386,31.666c-1.7,5.954-5.749,9.421-11.74,10.7a23.391,23.391,0,0,1-10.22-.236c-1.719-.394-2.111-.88-2.115-2.647-.009-4.079,0-8.157,0-12.236,0-4.038.029-8.077-.022-12.115a2.013,2.013,0,0,1,1.219-2.094c5.568-2.722,11.186-3.247,16.756-.138a13.293,13.293,0,0,1,6.712,9.989A19.848,19.848,0,0,1,321.891,58.485Zm54.468-32.711a15.717,15.717,0,0,0-5.592-1.213,48.489,48.489,0,0,0-9.207.445,53.95,53.95,0,0,0-13.016,3.58,2.439,2.439,0,0,0-1.721,2.624c.058,7.918.028,15.837.028,23.756v.84q0,11.638,0,23.277c0,1.666.045,1.705,1.657,1.706,3.48,0,6.959.011,10.439,0,2.2-.009,2.468.482,2.463-2.515q-.036-18.3-.01-36.6c0-.36-.008-.72,0-1.08.032-.967.172-1.221,1.091-1.455a27.523,27.523,0,0,1,3.747-.784,32.337,32.337,0,0,1,13.034,1.216c1.036.314,1.247.22,1.613-.781a14.016,14.016,0,0,0,.771-5.3A8.137,8.137,0,0,0,376.359,25.774Zm28.735.844a.81.81,0,0,0-.822-.851c-.318-.022-.639-.018-.959-.018q-5.516,0-11.033,0c-1.707,0-1.714,0-1.714,1.753q0,21.168.013,42.336a19.741,19.741,0,0,0,.327,3.69,9.744,9.744,0,0,0,5.185,7.362,12.2,12.2,0,0,0,7.479.982c1.469-.219,1.536-.377,1.536-1.885q0-13.133,0-26.265,0-13.012,0-26.025C405.106,27.337,405.113,26.977,405.094,26.618ZM397.751,0a8.63,8.63,0,0,0-8.768,8.848,8.768,8.768,0,0,0,17.533.03A8.669,8.669,0,0,0,397.751,0Zm54.664,66.789c-.924.378-1.842.783-2.8,1.071a15.006,15.006,0,0,1-7.331.6,5.737,5.737,0,0,1-4.81-4.152,15.2,15.2,0,0,1-.624-4c-.061-6.839-.029-13.679-.027-20.519a6.226,6.226,0,0,1,.037-.957,1.057,1.057,0,0,1,1.027-.991c.319-.025.64-.018.959-.018h11.76c2.022,0,2.023,0,2.023-2.081v-8.04c0-.24.006-.48,0-.72-.032-1.006-.212-1.2-1.179-1.237-.279-.012-.56,0-.84,0q-5.939,0-11.879,0c-1.645,0-1.9-.248-1.9-1.854-.009-1.84,0-3.68,0-5.52,0-1.92.012-3.84-.01-5.759-.01-.911-.162-1.045-1.034-1.113-.238-.018-.479-.011-.719-.011q-5.52,0-11.04,0c-.28,0-.56.005-.839.018a.8.8,0,0,0-.863.914c.008.319,0,.639,0,.959,0,3.52.005,7.04,0,10.56,0,1.529-.284,1.8-1.836,1.8-1.639.008-3.279,0-4.919,0-1.518,0-1.6.09-1.605,1.656q-.006,3.72,0,7.44c0,3.4-.261,2.955,2.923,2.984.24,0,.48,0,.72,0a4.491,4.491,0,0,1,4.71,4.663c.038,3.88.009,7.76.009,11.64h0c0,2.08-.03,4.16.007,6.239.044,2.476.013,4.962.247,7.422a14.83,14.83,0,0,0,11.772,13.491,27.278,27.278,0,0,0,10.36.409,16.126,16.126,0,0,0,6.739-2.346c4.472-2.94,5.049-7.654,3.061-11.788C453.947,66.4,453.587,66.314,452.415,66.793Zm55.549-.593a37.587,37.587,0,0,1-8.318,2.643,30.653,30.653,0,0,1-11.784.354,16.611,16.611,0,0,1-9.255-4.935,11.973,11.973,0,0,1-2.884-5.45c-.273-1.168.043-1.526,1.248-1.561.32-.009.64,0,.96,0h14.276c4.959,0,9.918-.042,14.876.017,2.672.032,5.129-1.57,4.9-5.009-.118-1.794-.138-3.6-.295-5.384a31.787,31.787,0,0,0-2.71-10.748A18.651,18.651,0,0,0,496.416,25.5a30.458,30.458,0,0,0-12.122-.738c-9.477,1.272-16.312,6.257-20.2,14.98a34.229,34.229,0,0,0-1.611,23.331,23.91,23.91,0,0,0,10.479,14.4,30.068,30.068,0,0,0,14.618,4.5,47.094,47.094,0,0,0,11.7-.689,21.906,21.906,0,0,0,7.659-2.628c4.612-2.848,5.051-7.724,3.078-11.723C509.425,65.73,509.192,65.66,507.964,66.2ZM475.827,47.481a17.166,17.166,0,0,1,.61-2.189,13.2,13.2,0,0,1,4.451-6.539,11.292,11.292,0,0,1,11.569-1.371c3.014,1.221,4.581,3.744,5.387,6.778a20.87,20.87,0,0,1,.5,2.826c.151,1.231-.178,1.573-1.458,1.578-3.317.01-6.634,0-9.951,0h-9.351a6.931,6.931,0,0,1-.958-.024C475.972,48.453,475.694,48.119,475.827,47.481Z" fill="#a8aabc"/>
</svg>
