<svg id="_3" data-name="3" xmlns="http://www.w3.org/2000/svg" width="484.324" height="122.726" viewBox="0 0 484.324 122.726">
  <path id="Path_10" data-name="Path 10" d="M0,19.164H18.93V88.12H53.984v17.468H0V19.164" transform="translate(0 -1.013)" fill="#a8aabc"/>
  <path id="Path_11" data-name="Path 11" d="M74.842,17.811a10.55,10.55,0,1,1-10.55,10.551,10.559,10.559,0,0,1,10.55-10.551Zm-9.1,29.115h18.2v58.568h-18.2Z" transform="translate(-3.399 -0.942)" fill="#a8aabc"/>
  <path id="Path_12" data-name="Path 12" d="M95.662,48.477h17.467v8.005h.242c2.425-4.608,8.37-9.458,17.225-9.458,18.44,0,21.835,12.127,21.835,27.893v32.121h-18.2V78.562c0-6.8-.125-15.528-9.466-15.528-9.459,0-10.912,7.4-10.912,15.041v28.964h-18.2V48.477" transform="translate(-5.057 -2.486)" fill="#a8aabc"/>
  <path id="Path_13" data-name="Path 13" d="M165.344,19.158h18.19V70.81l20.607-23.839h22.3L202.577,74.087l23.367,31.5H203.076l-19.3-28.951h-.238v28.951h-18.19V19.158" transform="translate(-8.741 -1.013)" fill="#a8aabc"/>
  <path id="Path_14" data-name="Path 14" d="M283.336,96.877c-5.828,7.4-15.4,11.652-24.868,11.652-18.192,0-32.749-12.137-32.749-30.938s14.557-30.928,32.749-30.928c16.992,0,27.66,12.127,27.66,30.928v5.7H243.915c1.445,6.915,6.668,11.4,13.705,11.4,5.946,0,9.946-3.034,12.98-7.16l12.735,9.34Zm-15.4-25.953a10.908,10.908,0,0,0-11.167-11.16c-8,0-12.371,5.459-12.852,11.16Z" transform="translate(-11.932 -2.467)" fill="#a8aabc"/>
  <path id="Path_15" data-name="Path 15" d="M358.992,105.555H342.246V97.789h-.236c-2.8,4.244-9.827,9.22-18.079,9.22-17.473,0-28.995-12.611-28.995-30.445,0-16.379,10.189-31.419,26.927-31.419,7.527,0,14.562,2.062,18.688,7.761h.239V19.158h18.2v86.4Zm-31.309-44.4c-9.091,0-14.548,6.071-14.548,14.918,0,8.864,5.457,14.921,14.548,14.921,9.107,0,14.564-6.057,14.564-14.921,0-8.847-5.457-14.918-14.564-14.918Z" transform="translate(-15.592 -1.013)" fill="#a8aabc"/>
  <path id="Path_16" data-name="Path 16" d="M495.421,0H390.837a8.958,8.958,0,0,0-9.058,8.846V113.869a8.964,8.964,0,0,0,9.058,8.856H495.421a8.982,8.982,0,0,0,9.085-8.856V8.846A8.976,8.976,0,0,0,495.421,0" transform="translate(-20.182)" fill="#a8aabc"/>
  <path id="Path_17" data-name="Path 17" d="M410.014,17.839A10.554,10.554,0,1,1,399.459,28.39a10.557,10.557,0,0,1,10.555-10.551Zm-9.1,29.114h18.2v58.568h-18.2Z" transform="translate(-21.117 -0.943)" fill="#fff"/>
  <path id="Path_18" data-name="Path 18" d="M432.263,48.5h17.461v8h.242c2.429-4.6,8.367-9.459,17.223-9.459,18.432,0,21.835,12.13,21.835,27.9v32.126h-18.19V78.583c0-6.8-.125-15.531-9.459-15.531-9.473,0-10.923,7.4-10.923,15.039v28.974h-18.19V48.5" transform="translate(-22.851 -2.487)" fill="#fff"/>
</svg>
