<svg id="_4" data-name="4" xmlns="http://www.w3.org/2000/svg" width="447.133" height="110.734" viewBox="0 0 447.133 110.734">
  <path id="Path_19" data-name="Path 19" d="M14.584,0H96.063a14.61,14.61,0,0,1,14.584,14.584V96.15a14.61,14.61,0,0,1-14.584,14.584H14.584A14.61,14.61,0,0,1,0,96.15V14.5A14.593,14.593,0,0,1,14.584,0Z" fill="#a8aabc"/>
  <path id="Path_20" data-name="Path 20" d="M60.03,30.29A31.308,31.308,0,1,0,91.294,61.641,31.308,31.308,0,0,0,60.03,30.29Zm0,53.359A22.007,22.007,0,1,1,82.037,61.641,22.007,22.007,0,0,1,60.03,83.648Zm0-39.56V60.506a.716.716,0,0,0,.961.611l14.584-7.6a.62.62,0,0,0,.262-.873,18.217,18.217,0,0,0-15.108-9.17.672.672,0,0,0-.7.611ZM39.594,32.036l-1.921-1.921a4.742,4.742,0,0,0-6.812,0l-2.271,2.271a4.742,4.742,0,0,0,0,6.812l1.921,1.921a.725.725,0,0,0,1.048-.087,43.034,43.034,0,0,1,3.668-4.279,28.609,28.609,0,0,1,4.367-3.668.716.716,0,0,0,0-1.048Zm30.74-4.978V23.3a4.847,4.847,0,0,0-4.8-4.8H54.353a4.847,4.847,0,0,0-4.8,4.8v3.93a.681.681,0,0,0,.873.611,36.259,36.259,0,0,1,9.781-1.4,34.163,34.163,0,0,1,9.432,1.31.751.751,0,0,0,.7-.7Z" transform="translate(-3.44 -2.344)" fill="#fff"/>
  <path id="Path_21" data-name="Path 21" d="M297.5,85.2c0,8.995-2.271,15.545-6.9,19.649s-11.615,6.288-21.047,6.288a94.885,94.885,0,0,1-16.418-1.921l2.1-10.392a77.262,77.262,0,0,0,14.5,1.31c5.24,0,8.995-1.048,11.266-3.231s3.319-5.327,3.319-9.606V85.117a36.387,36.387,0,0,1-5.152,1.921,26.2,26.2,0,0,1-7.336.961,27.2,27.2,0,0,1-9.868-1.747,20.033,20.033,0,0,1-7.685-5.065,23.579,23.579,0,0,1-4.978-8.3c-1.223-3.319-1.747-9.257-1.747-13.623A39.289,39.289,0,0,1,249.469,46.6a24.75,24.75,0,0,1,5.5-8.82,25.142,25.142,0,0,1,8.82-5.676,31.972,31.972,0,0,1,11.877-2.271,75.27,75.27,0,0,1,12.052,1.135c3.842.611,7.074,1.31,9.781,2.009V85.2ZM261,59.267c0,5.5,1.223,11.615,3.668,14.147a12.375,12.375,0,0,0,9.344,3.843,18.793,18.793,0,0,0,5.938-.873,20.165,20.165,0,0,0,4.541-2.009V41.714a53.194,53.194,0,0,0-8.646-1.135,12.837,12.837,0,0,0-10.916,4.978C262.219,48.7,261,54.115,261,59.267Zm98.77,0a31.771,31.771,0,0,1-1.921,11.44,26.749,26.749,0,0,1-5.5,9.344,24.924,24.924,0,0,1-8.558,6.026,29.264,29.264,0,0,1-22.182,0,24.924,24.924,0,0,1-8.558-6.026,29.239,29.239,0,0,1-5.589-9.344,31.763,31.763,0,0,1-2.009-11.44,36.444,36.444,0,0,1,1.921-12.314,26.583,26.583,0,0,1,5.676-9.344,25.177,25.177,0,0,1,8.558-5.938,27.946,27.946,0,0,1,10.916-2.1,28.706,28.706,0,0,1,11,2.1,23.92,23.92,0,0,1,8.558,5.938,29.238,29.238,0,0,1,5.589,9.344A34.363,34.363,0,0,1,359.767,59.267Zm-13.449,0c0-5.676-1.223-10.392-3.668-13.711a12.794,12.794,0,0,0-20.261,0c-2.445,3.319-3.581,8.034-3.581,13.711s1.223,9.606,3.668,12.925a12.794,12.794,0,0,0,20.261,0c2.445-3.319,3.581-7.161,3.581-12.925Zm42.7,28.994c-21.483.087-21.483-17.379-21.483-20.173V6l13.1-2.1V65.555c0,1.572,0,11.615,8.471,11.615Zm23.142,0H398.978V31.584l13.187-2.1Zm-6.637-64.973a7.991,7.991,0,1,0-8.034-7.947,8.052,8.052,0,0,0,8.034,7.947ZM445,29.575a32.443,32.443,0,0,1,10.916,1.572,17.1,17.1,0,0,1,7.074,4.541,18.505,18.505,0,0,1,3.755,7.248,33.185,33.185,0,0,1,1.135,9.082v33.8q-3.013.655-9.17,1.572a94.884,94.884,0,0,1-13.8.873,43.9,43.9,0,0,1-9.344-.961,18.863,18.863,0,0,1-7.248-3.144,15.17,15.17,0,0,1-4.628-5.589,20.8,20.8,0,0,1-1.659-8.908,13.527,13.527,0,0,1,1.921-7.51,16.078,16.078,0,0,1,5.152-5.414,22.27,22.27,0,0,1,7.51-3.057,42.793,42.793,0,0,1,8.908-.873,40.75,40.75,0,0,1,4.541.262,38.539,38.539,0,0,1,5.065.873V51.757a16.9,16.9,0,0,0-.524-4.279,8.9,8.9,0,0,0-1.921-3.581,8.995,8.995,0,0,0-3.581-2.445,14.488,14.488,0,0,0-5.589-1.048,47.822,47.822,0,0,0-8.3.786,43.456,43.456,0,0,0-6.2,1.485l-1.572-10.742a52.226,52.226,0,0,1,7.248-1.747,94.824,94.824,0,0,1,10.3-.611Zm1.048,47.682a56.52,56.52,0,0,0,9.082-.611V63.2a25,25,0,0,0-3.144-.611,35.578,35.578,0,0,0-4.541-.349,24.539,24.539,0,0,0-4.367.349,14.322,14.322,0,0,0-4.017,1.135,7.86,7.86,0,0,0-2.882,2.445,4.794,4.794,0,0,0-1.048,3.231c0,3.057,1.048,4.89,3.057,6.026A15.6,15.6,0,0,0,446.048,77.257ZM186.766,29.924A32.443,32.443,0,0,1,197.682,31.5a17.1,17.1,0,0,1,7.074,4.541,18.505,18.505,0,0,1,3.755,7.248,33.185,33.185,0,0,1,1.135,9.082v33.8q-3.013.655-9.17,1.572a94.885,94.885,0,0,1-13.8.873,43.9,43.9,0,0,1-9.344-.961,18.863,18.863,0,0,1-7.248-3.144,15.169,15.169,0,0,1-4.628-5.589,20.8,20.8,0,0,1-1.659-8.908,13.527,13.527,0,0,1,1.921-7.51,16.077,16.077,0,0,1,5.152-5.414,22.269,22.269,0,0,1,7.51-3.057,42.791,42.791,0,0,1,8.908-.873,40.748,40.748,0,0,1,4.541.262,38.539,38.539,0,0,1,5.065.873V52.106a16.9,16.9,0,0,0-.524-4.279,8.9,8.9,0,0,0-1.921-3.581A9,9,0,0,0,190.87,41.8a14.488,14.488,0,0,0-5.589-1.048,47.822,47.822,0,0,0-8.3.786,43.456,43.456,0,0,0-6.2,1.485l-1.572-10.742a52.223,52.223,0,0,1,7.248-1.747,97.56,97.56,0,0,1,10.3-.611ZM187.9,77.606A56.521,56.521,0,0,0,196.984,77V63.546a25,25,0,0,0-3.144-.611,35.578,35.578,0,0,0-4.541-.349,24.54,24.54,0,0,0-4.366.349,14.322,14.322,0,0,0-4.017,1.135,6.585,6.585,0,0,0-2.882,2.445,4.794,4.794,0,0,0-1.048,3.231c0,3.057,1.048,4.89,3.057,6.026A15.6,15.6,0,0,0,187.9,77.606Zm53.271,10.654c-21.483.087-21.483-17.379-21.483-20.173V6l13.1-2.1V65.555c0,1.572,0,11.615,8.471,11.615V88.261Z" transform="translate(-20.752 -0.494)" fill="#a8aabc"/>
</svg>
