<?xml version="1.0" encoding="utf-8" ?>
<svg xmlns="http://www.w3.org/2000/svg" xmlns:xlink="http://www.w3.org/1999/xlink" width="695" height="496">
	<path fill="#F7F7F5" transform="scale(0.484658 0.484375)" d="M0 0L1432.77 0C1433.55 1.35287 1433.84 2.273 1433.92 3.82991C1434.39 14.2948 1434 24.9358 1434 35.4235L1434 96.5893L1434.01 282.797L1434 835.994L1434 973.892C1434.01 983.184 1435.15 1015.65 1433.74 1021.9C1433.56 1022.7 1433.19 1023.31 1432.77 1024L0 1024L0 0Z"/>
	<path fill="#751D1F" transform="scale(0.484658 0.484375)" d="M101.345 520.574C103.59 520.41 106.167 520.21 108.355 520.775C110.795 521.404 113.68 523.257 114.919 525.504C115.583 526.709 115.678 528.033 115.212 529.328C114.247 532.009 111.755 533.378 109.351 534.551C107.057 534.833 104.269 534.958 102 534.483C99.6857 533.999 96.9004 532.163 95.7313 530.079C95.0461 528.857 94.9544 527.506 95.3998 526.184C96.3757 523.288 98.855 521.96 101.345 520.574Z"/>
	<path fill="#751D1F" transform="scale(0.484658 0.484375)" d="M399.726 410.314L408.543 410.342L408.387 483.975L399.708 483.976L399.726 410.314Z"/>
	<path fill="#78BB6D" transform="scale(0.484658 0.484375)" d="M670.338 78.4964C673.232 78.2717 676.053 78.2709 678.826 79.2295Q679.231 79.3652 679.628 79.5218Q680.025 79.6783 680.414 79.8553Q680.802 80.0323 681.181 80.2293Q681.56 80.4263 681.928 80.6427Q682.296 80.8592 682.653 81.0944Q683.009 81.3297 683.353 81.5832Q683.696 81.8367 684.026 82.1077Q684.356 82.3787 684.672 82.6666Q684.987 82.9544 685.287 83.2582Q685.587 83.5621 685.871 83.8811Q686.155 84.2001 686.422 84.5335Q686.689 84.8669 686.938 85.2137Q687.187 85.5605 687.418 85.9198Q687.649 86.2791 687.86 86.6499Q688.072 87.0207 688.265 87.4021Q688.457 87.7834 688.629 88.1742C690.404 92.134 690.352 96.7783 688.807 100.791C686.632 106.442 682.222 109.094 676.874 111.288C673.663 111.523 670.447 111.48 667.443 110.181C663.378 108.423 660.275 105.159 658.608 101.074Q658.446 100.668 658.305 100.255Q658.165 99.8416 658.046 99.4215Q657.927 99.0013 657.829 98.5756Q657.732 98.1498 657.657 97.7196Q657.582 97.2894 657.53 96.8559Q657.477 96.4224 657.447 95.9867Q657.417 95.551 657.409 95.1144Q657.402 94.6777 657.417 94.2413Q657.432 93.8049 657.47 93.3698Q657.508 92.9347 657.568 92.5022Q657.628 92.0697 657.711 91.6408Q657.793 91.212 657.898 90.788Q658.002 90.3641 658.129 89.9461Q658.255 89.5281 658.403 89.1172Q658.551 88.7063 658.72 88.3037Q658.889 87.901 659.079 87.5077C661.492 82.6061 665.383 80.285 670.338 78.4964Z"/>
	<path fill="#751D1F" transform="scale(0.484658 0.484375)" d="M96.7014 542.776L114.112 542.726L114.133 598.286L96.643 598.265L96.7014 542.776Z"/>
	<path fill="#751D1F" transform="scale(0.484658 0.484375)" d="M336.879 440.29Q338.421 438.501 340.066 436.807C345.309 431.506 351.4 429.273 358.805 429.339C364.684 429.391 370.306 430.825 374.497 435.179C384.176 445.237 380.969 470.7 380.876 483.919L371.87 483.952Q372.081 466.779 371.784 449.607C371.001 446.342 369.777 443.163 367.382 440.726C364.212 437.499 359.016 436.949 354.688 436.972C350.311 436.995 346.001 438.369 342.926 441.607C334.905 450.049 337.766 472.901 337.805 483.897L328.65 484.059C328.851 468.052 327.319 445.858 329.092 430.64C330.989 429.476 332.652 429.68 334.822 429.576L336.284 430.096C337.395 433.024 336.905 437.151 336.879 440.29Z"/>
	<path fill="#751D1F" transform="scale(0.484658 0.484375)" d="M239.119 541.61C240.414 541.524 241.712 541.568 243.009 541.579L244.294 542.943C245.669 547.473 244.686 553.034 244.445 557.78C238.881 557.91 233.081 557.29 228.83 561.663C223.754 566.885 226.098 590.437 226.065 598.111L208.713 598.108Q208.579 570.111 209.044 542.118C213.739 542.224 220.178 540.578 224.242 543.016C225.528 545.343 225.183 547.002 225.165 549.604C229.889 545.536 233.052 543.092 239.119 541.61Z"/>
	<path fill="#4F2043" transform="scale(0.484658 0.484375)" d="M1370.62 919.869C1377.25 920.569 1383.8 925.242 1387.83 930.488C1389.1 932.138 1390.48 934.434 1390.19 936.62C1388.89 946.337 1361.33 969.828 1353.18 975.228C1350.09 977.276 1345 980.295 1341.15 979.416C1339.84 979.116 1338.81 978.421 1338.08 977.279C1337.06 975.689 1336.9 973.47 1337.43 971.693C1338.18 969.156 1340.14 967.138 1341.9 965.252C1351.21 955.323 1355.31 948.559 1353.33 934.464C1354.12 934.745 1354.94 934.939 1355.75 935.159L1356.12 933.588C1359.58 932.793 1363.9 931.986 1366.91 930.053C1369 928.707 1369.64 927.478 1370.23 925.218C1371.28 925.043 1371.31 925.017 1372.05 924.239C1372.15 922.41 1371.51 921.425 1370.62 919.869Z"/>
	<path fill="#4F2043" transform="scale(0.484658 0.484375)" d="M1238.43 960.377L1238.81 962.166C1238.92 962.681 1238.97 963.207 1239.05 963.729C1239.35 965.691 1242.7 969.246 1244.35 970.365C1246.39 971.757 1248.13 971.816 1250.49 971.252C1251.23 971.073 1251 971.148 1251.63 970.73L1254.02 970.971C1255.1 970.164 1256.1 969.429 1257.39 968.973C1257.69 968.865 1258 968.765 1258.31 968.66C1259.02 968.98 1259.75 969.278 1260.35 969.79C1262.36 971.503 1263.38 974.857 1263.76 977.382C1264.44 981.835 1263.3 986.837 1260.47 990.387C1258.07 993.385 1254.43 995.188 1250.63 995.553C1247.1 995.893 1243.43 995.267 1239.86 995.322C1229.81 995.48 1205.81 997.926 1198.26 991.009C1196.79 989.668 1196.48 988.369 1196.41 986.449C1199.1 979.402 1214.73 977.824 1221.29 974.519C1227.51 971.382 1231.82 967.777 1237.09 963.361L1237.29 961.079L1238.43 960.377Z"/>
	<path fill="#751D1F" transform="scale(0.484658 0.484375)" d="M270.637 429.658C272.66 429.547 274.623 429.581 276.645 429.69C280.149 432.426 290.497 466.541 292.771 473.211C298.382 458.783 303.449 444.104 308.706 429.544L316.995 430.023C313.659 439.734 301.605 476.771 296.61 483.293C294.297 483.77 292.358 483.679 290.036 483.434C285.442 479.501 277.649 453.047 275.111 445.604C274.651 444.28 274.68 443.493 273.448 442.724C268.573 456.543 263.583 470.227 258.224 483.868L250.081 483.91C243.875 466.041 235.972 448.289 230.904 430.098L239.312 429.771C245.031 443.753 249.273 458.557 254.514 472.768C260.613 458.666 264.872 443.884 270.637 429.658Z"/>
	<path fill="#751D1F" transform="scale(0.484658 0.484375)" d="M508.538 429.487C510.687 429.331 512.846 429.174 515 429.144C521.069 429.061 527.16 430.534 531.541 434.967C540.761 444.295 537.761 470.757 537.819 483.768C535.243 483.878 532.596 484.269 530.184 483.219C528.578 481.025 529.011 477.659 528.962 475.023C524.067 480.11 518.694 483.673 511.512 484.35C504.546 485.007 498.36 482.875 493.047 478.431C490.438 475.172 488.962 470.708 488.762 466.534C488.63 463.777 489.984 461.177 491.866 459.244C500.433 450.444 516.218 451.903 527.509 451.739L528.232 450.871C528.416 447.699 526.789 443.18 524.753 440.686C522.591 438.038 519.348 436.733 516.041 436.259C508.959 435.244 502.355 438.012 496.808 442.139L492.137 436.31C497.625 432.756 502.128 430.793 508.538 429.487Z"/>
	<path fill="#F7F7F5" transform="scale(0.484658 0.484375)" d="M507.919 458.206C514.698 457.747 521.5 458.011 528.287 458.14C528.352 460.785 528.558 463.648 527.917 466.233C526.588 471.598 522.753 474.078 518.294 476.648C514.335 477.382 510.247 478.11 506.32 476.755C502.989 475.606 499.641 473.304 498.294 469.932C497.627 468.265 497.539 466.286 498.322 464.642C500.14 460.826 504.159 459.33 507.919 458.206Z"/>
	<path fill="#F64055" transform="scale(0.484658 0.484375)" d="M203.406 139.556C208.853 139.177 213.395 139.322 218.369 141.773C224.538 144.811 229.191 150.517 231.233 157.054Q231.421 157.653 231.579 158.26Q231.736 158.868 231.863 159.482Q231.99 160.097 232.086 160.717Q232.182 161.337 232.247 161.962Q232.312 162.586 232.345 163.213Q232.379 163.839 232.381 164.467Q232.383 165.094 232.353 165.721Q232.323 166.348 232.262 166.973Q232.201 167.598 232.109 168.218Q232.017 168.839 231.894 169.455Q231.77 170.07 231.616 170.678Q231.462 171.287 231.278 171.887Q231.093 172.487 230.879 173.076Q230.665 173.666 230.421 174.245Q230.178 174.823 229.906 175.389Q229.633 175.954 229.333 176.505C225.628 183.338 219.822 186.921 212.556 189.069C207.179 189.733 202.107 189.394 197.172 187.012Q196.608 186.741 196.059 186.442Q195.51 186.143 194.976 185.816Q194.443 185.49 193.926 185.137Q193.41 184.784 192.912 184.406Q192.414 184.027 191.936 183.624Q191.458 183.221 191.001 182.794Q190.543 182.367 190.108 181.918Q189.673 181.468 189.261 180.998Q188.849 180.527 188.462 180.036Q188.074 179.545 187.712 179.035Q187.349 178.525 187.013 177.998Q186.677 177.47 186.368 176.926Q186.059 176.382 185.778 175.824Q185.496 175.265 185.244 174.693Q184.991 174.12 184.767 173.536Q184.544 172.952 184.35 172.357Q184.154 171.748 183.989 171.13Q183.824 170.512 183.69 169.887Q183.556 169.261 183.453 168.63Q183.349 167.999 183.278 167.363Q183.206 166.728 183.166 166.089Q183.126 165.451 183.118 164.811Q183.109 164.172 183.133 163.533Q183.156 162.893 183.211 162.256Q183.266 161.619 183.353 160.985Q183.44 160.352 183.558 159.723Q183.676 159.094 183.825 158.472Q183.974 157.85 184.153 157.236Q184.333 156.622 184.543 156.018Q184.753 155.414 184.993 154.821Q185.232 154.228 185.501 153.648Q185.77 153.067 186.067 152.501C189.898 145.33 195.894 141.917 203.406 139.556Z"/>
	<path fill="#751D1F" transform="scale(0.484658 0.484375)" d="M443.083 541.606C445.106 541.493 447.156 541.373 449.182 541.439C455.853 541.655 462.63 544.272 467.167 549.257C473.877 556.631 473.579 565.514 473.175 574.807C462.061 575.15 450.934 574.782 439.81 575.194L439.445 574.436C438.717 576.273 437.498 574.582 436.416 575.779C436.458 577.584 436.713 578.884 437.787 580.381C440.561 584.246 448.189 587.525 452.913 586.995C456.668 586.575 461.907 582.624 465.074 583.247L466.48 585.825C467.877 588.538 469.217 591.283 470.579 594.014C466.853 596.063 462.965 597.585 458.807 598.499C449.304 600.587 438.366 599.76 430.09 594.28C423.716 590.059 419.576 583.528 418.13 576.053C416.662 568.465 417.802 560.218 422.234 553.774C427.276 546.444 434.575 543.153 443.083 541.606Z"/>
	<path fill="#F7F7F5" transform="scale(0.484658 0.484375)" d="M442.374 552.639C443.986 552.584 445.611 552.535 447.223 552.627C450.693 552.827 454.999 555.74 457.084 558.44C458.273 559.981 458.495 560.808 458.348 562.685C456.552 564.205 455.431 563.873 453.201 563.927L434.526 563.875C436.527 559.011 437.823 555.574 442.374 552.639Z"/>
	<path fill="#4F2043" transform="scale(0.484658 0.484375)" d="M590.783 641.194C590.554 641.111 590.323 641.03 590.095 640.944C585.533 639.236 581.379 636.695 579.271 632.084Q579.02 631.545 578.824 630.984Q578.629 630.423 578.49 629.845Q578.352 629.267 578.273 628.678Q578.194 628.089 578.175 627.495Q578.155 626.901 578.196 626.308Q578.236 625.715 578.336 625.129Q578.436 624.543 578.595 623.971Q578.754 623.398 578.969 622.844C580.383 619.107 583.33 616.491 586.963 614.976C598.204 610.289 606.698 619.242 617.279 620.481C625.177 621.406 633.424 617.97 640.981 621.465C644.949 623.3 647.61 626.73 648.989 630.811C652.491 641.166 648.812 653.901 644.082 663.265C640.74 669.881 635.138 678.61 627.697 681.113C625.427 681.876 622.774 681.718 620.418 681.436C619.906 680.158 618.423 678.676 617.544 677.567C618.945 673.028 619.989 668.8 622.237 664.572C624.173 660.929 629.316 661.09 631.932 657.736C633.703 655.463 634.106 652.359 633.765 649.579C633.167 648.75 633.066 648.276 632.049 647.939C628.83 646.871 625.067 649.348 622.395 650.873C620.877 648.778 619.709 646.415 618.054 644.412C612.998 638.291 600.326 642.179 591.965 641.332L591.466 640.348L590.783 641.194Z"/>
	<path fill="#751D1F" transform="scale(0.484658 0.484375)" d="M191.866 429.468C198.443 429.099 204.232 429.65 210.123 432.802C216.597 436.266 221.555 442.124 223.553 449.228Q223.733 449.891 223.88 450.563Q224.027 451.234 224.142 451.912Q224.256 452.59 224.338 453.272Q224.419 453.955 224.467 454.64Q224.515 455.326 224.53 456.013Q224.545 456.7 224.526 457.387Q224.508 458.074 224.456 458.76Q224.404 459.445 224.319 460.127Q224.233 460.809 224.115 461.486Q223.997 462.163 223.846 462.834Q223.695 463.504 223.511 464.167Q223.328 464.829 223.112 465.482Q222.897 466.134 222.65 466.776Q222.403 467.417 222.125 468.046Q221.848 468.674 221.54 469.289Q221.232 469.903 220.894 470.502C216.627 478.061 210.163 481.706 202.023 483.915C194.732 484.932 187.701 484.394 181.235 480.591C174.961 476.901 170.718 470.935 168.933 463.914Q168.756 463.237 168.614 462.551Q168.471 461.866 168.363 461.174Q168.255 460.482 168.182 459.786Q168.108 459.09 168.07 458.391Q168.031 457.692 168.028 456.992Q168.024 456.292 168.056 455.592Q168.087 454.893 168.154 454.196Q168.22 453.499 168.321 452.806Q168.422 452.114 168.558 451.427Q168.694 450.74 168.864 450.061Q169.033 449.382 169.237 448.712Q169.441 448.042 169.677 447.383Q169.914 446.725 170.184 446.078Q170.453 445.432 170.754 444.8Q171.056 444.169 171.388 443.553Q171.721 442.937 172.084 442.338C176.704 434.843 183.573 431.449 191.866 429.468Z"/>
	<path fill="#F7F7F5" transform="scale(0.484658 0.484375)" d="M191.237 437.255C195.368 436.83 199.314 436.379 203.288 437.945C208.36 439.943 212.242 443.699 214.283 448.775C216.359 453.941 216.373 459.96 214.155 465.085C211.602 470.984 207.211 474.126 201.371 476.356C197.224 477.152 192.949 477.194 188.979 475.621C184.196 473.726 180.57 469.961 178.628 465.22C176.462 459.935 176.256 453.578 178.547 448.297C181.109 442.39 185.458 439.613 191.237 437.255Z"/>
	<path fill="#751D1F" transform="scale(0.484658 0.484375)" d="M445.199 429.473C452.355 428.933 458.912 429.256 465.358 432.68C471.781 436.093 476.575 441.763 478.6 448.78C480.64 455.849 479.933 463.847 476.356 470.31C472.139 477.931 465.056 481.636 456.974 483.932C450.281 485.166 442.76 483.991 436.777 480.752Q436.175 480.43 435.59 480.079Q435.005 479.728 434.439 479.347Q433.873 478.967 433.326 478.558Q432.779 478.15 432.254 477.714Q431.729 477.279 431.226 476.818Q430.723 476.356 430.244 475.87Q429.765 475.384 429.312 474.874Q428.858 474.365 428.43 473.833Q428.003 473.301 427.602 472.749Q427.202 472.196 426.83 471.624Q426.458 471.052 426.115 470.462Q425.772 469.872 425.46 469.265Q425.147 468.658 424.865 468.037Q424.584 467.415 424.334 466.78Q424.084 466.145 423.866 465.499Q423.648 464.852 423.463 464.195C421.437 457.112 422.261 449.063 425.956 442.658C430.282 435.16 437.062 431.575 445.199 429.473Z"/>
	<path fill="#F7F7F5" transform="scale(0.484658 0.484375)" d="M448.649 436.481C452.682 436.455 456.487 436.869 460.1 438.791C464.726 441.252 468.056 445.458 469.634 450.429C471.327 455.761 470.891 461.788 468.17 466.705C465.071 472.306 460.321 474.895 454.411 476.727C449.934 477.099 445.704 476.613 441.743 474.352C436.923 471.601 433.615 466.991 432.271 461.628C430.909 456.192 431.689 450.06 434.704 445.299C438.04 440.032 442.763 437.875 448.649 436.481Z"/>
	<path fill="#751D1F" transform="scale(0.484658 0.484375)" d="M597.308 409.005L606.424 409.002L606.465 483.588L597.91 483.732L597.893 474.654C594.649 478.318 590.948 481.148 586.312 482.821C578.281 485.719 570.464 484.148 562.948 480.607C560.755 479.049 558.66 477.463 556.915 475.398C551.925 469.496 549.96 462.073 550.619 454.431C551.265 446.932 554.451 439.79 560.34 434.969C565.873 430.44 573.164 428.452 580.248 429.167C587.835 429.932 592.564 433.63 597.289 439.34L597.308 409.005Z"/>
	<path fill="#F7F7F5" transform="scale(0.484658 0.484375)" d="M576.064 436.463C579.439 436.318 582.697 436.521 585.845 437.872Q586.313 438.076 586.77 438.303Q587.227 438.531 587.672 438.782Q588.117 439.033 588.548 439.306Q588.979 439.58 589.395 439.875Q589.812 440.171 590.213 440.487Q590.613 440.803 590.997 441.14Q591.381 441.477 591.747 441.833Q592.113 442.189 592.46 442.564Q592.807 442.938 593.134 443.33Q593.462 443.722 593.768 444.13Q594.075 444.539 594.36 444.962Q594.645 445.386 594.908 445.823Q595.171 446.261 595.411 446.712Q595.652 447.163 595.868 447.625Q596.085 448.088 596.277 448.561Q596.469 449.034 596.637 449.516C598.519 454.789 598.446 460.975 595.933 466.034C593.011 471.912 588.566 474.383 582.562 476.424C578.018 476.802 573.96 476.532 569.874 474.301Q569.443 474.066 569.024 473.81Q568.604 473.554 568.199 473.277Q567.793 473 567.402 472.702Q567.011 472.405 566.635 472.089Q566.259 471.772 565.9 471.438Q565.541 471.103 565.199 470.75Q564.857 470.397 564.533 470.028Q564.209 469.659 563.904 469.274Q563.599 468.888 563.314 468.488Q563.029 468.088 562.764 467.674Q562.5 467.261 562.256 466.834Q562.012 466.407 561.791 465.969Q561.569 465.53 561.37 465.081Q561.17 464.632 560.994 464.174Q560.817 463.715 560.664 463.249Q560.511 462.782 560.381 462.308C558.875 456.951 559.413 450.662 562.302 445.842C565.593 440.352 570.042 438.051 576.064 436.463Z"/>
	<path fill="#751D1F" transform="scale(0.484658 0.484375)" d="M280.585 541.716C287.545 541.005 296.154 543.879 301.586 548.235Q302.139 548.683 302.67 549.157Q303.2 549.632 303.707 550.132Q304.214 550.632 304.695 551.156Q305.177 551.681 305.632 552.228Q306.087 552.776 306.514 553.345Q306.942 553.914 307.341 554.503Q307.74 555.093 308.11 555.701Q308.479 556.31 308.819 556.935Q309.158 557.561 309.466 558.203Q309.774 558.845 310.051 559.501Q310.327 560.157 310.571 560.826Q310.814 561.495 311.025 562.175Q311.235 562.855 311.412 563.545Q311.589 564.234 311.731 564.932Q311.874 565.63 311.982 566.333Q312.091 567.037 312.164 567.745C312.971 575.193 310.99 582.635 306.191 588.438C300.201 595.679 292.017 598.308 282.959 599.156C274.535 599.153 266.854 597.74 260.18 592.235Q259.642 591.792 259.128 591.323Q258.614 590.853 258.124 590.358Q257.634 589.863 257.17 589.344Q256.706 588.824 256.269 588.282Q255.832 587.74 255.423 587.176Q255.014 586.612 254.634 586.028Q254.255 585.444 253.905 584.842Q253.555 584.24 253.237 583.62Q252.918 583.001 252.631 582.366Q252.345 581.731 252.091 581.083Q251.836 580.434 251.616 579.774Q251.395 579.113 251.208 578.442Q251.021 577.771 250.868 577.092Q250.715 576.412 250.598 575.726Q250.48 575.039 250.397 574.347Q250.314 573.656 250.266 572.961Q250.204 572.247 250.178 571.532Q250.151 570.816 250.161 570.1Q250.171 569.383 250.216 568.669Q250.262 567.954 250.344 567.242Q250.425 566.531 250.543 565.824Q250.66 565.117 250.813 564.417Q250.965 563.718 251.153 563.026Q251.34 562.335 251.563 561.654Q251.785 560.973 252.041 560.304Q252.297 559.635 252.586 558.98Q252.875 558.325 253.197 557.685Q253.519 557.045 253.873 556.422Q254.227 555.799 254.611 555.195Q254.996 554.591 255.41 554.007Q255.825 553.423 256.268 552.86Q256.711 552.298 257.182 551.758C263.514 544.608 271.368 542.365 280.585 541.716Z"/>
	<path fill="#F7F7F5" transform="scale(0.484658 0.484375)" d="M278.043 554.75C280.283 554.632 282.488 554.663 284.666 555.276C288.178 556.265 291.301 558.87 293.013 562.08C295.254 566.282 295.524 571.438 293.978 575.92C292.167 581.172 289.003 583.623 284.242 585.932C281.847 586.271 279.368 586.328 277.047 585.536C273.469 584.317 270.666 581.496 269.094 578.101C267.141 573.884 267.047 568.707 268.6 564.354C270.36 559.42 273.458 556.878 278.043 554.75Z"/>
	<path fill="#751D1F" transform="scale(0.484658 0.484375)" d="M317.942 542.205L334.249 542.032C337.393 554.47 341.005 567.051 345.157 579.19Q351.969 560.779 358.287 542.193L374.011 542.104C377.372 554.884 381.573 567.511 385.297 580.197C390.109 567.765 394.282 554.879 398.364 542.183L413.1 542.141L408.266 556.039C403.4 570.199 399.31 584.631 393.987 598.633L376.408 598.567Q370.454 581.029 364.708 563.422L353.108 598.267L334.955 598.443L317.942 542.205Z"/>
	<path fill="#751D1F" transform="scale(0.484658 0.484375)" d="M94.2418 413.245C111.683 413.069 132.329 410.294 146.755 422.171C153.894 428.048 157.329 436.403 158.099 445.492C159.034 456.513 155.352 465.422 148.404 473.764C132.813 486.99 113.52 484.172 94.4814 484.006Q94.636 448.625 94.2418 413.245Z"/>
	<path fill="#F7F7F5" transform="scale(0.484658 0.484375)" d="M103.553 420.853C115.522 420.801 129.481 419.253 139.407 427.287C144.991 431.808 148.229 438.481 148.943 445.578C149.824 454.342 146.923 461.559 141.529 468.299C131.015 477.844 116.628 476.403 103.457 476.376L103.553 420.853Z"/>
	<path fill="#751D1F" transform="scale(0.484658 0.484375)" d="M131.113 524.623C145.039 524.592 163.583 522.852 176.822 526.04C182.017 527.291 187.248 529.777 189.991 534.614C192.241 538.582 192.689 544.376 191.296 548.727C189.498 554.34 184.113 557.038 179.194 559.373Q180.901 559.782 182.583 560.282C187.286 561.706 191.561 565.052 193.755 569.498C196.203 574.458 195.725 580.044 194.165 585.162C193.187 586.822 191.938 588.579 190.582 589.956C179.033 601.688 147.017 598.255 131.088 598.201Q131.288 561.412 131.113 524.623Z"/>
	<path fill="#F7F7F5" transform="scale(0.484658 0.484375)" d="M148.766 537.376C155.557 537.247 167.022 535.876 172.826 540.16C173.699 540.804 174.754 542.119 174.938 543.219C175.464 546.358 174.258 548.908 172.466 551.405C165.607 555.437 156.383 554.264 148.735 554.204L148.766 537.376Z"/>
	<path fill="#F7F7F5" transform="scale(0.484658 0.484375)" d="M148.972 566.762C156.711 566.656 167.767 565.38 174.605 569.848C176.094 570.82 177.408 572.314 177.67 574.133C178.077 576.952 176.601 579.854 174.921 581.986C167.371 586.032 157.191 584.885 148.92 584.862L148.972 566.762Z"/>
	<path fill="#32122C" transform="scale(0.484658 0.484375)" d="M1282.77 857.181L1281.87 856.344C1280.91 848.932 1284.36 838.377 1284.64 830.495C1285.1 817.726 1278.24 795.504 1282.78 785.199C1282.98 786.536 1283.25 787.862 1284.12 788.935C1287.59 793.159 1292.37 796.893 1296.31 800.754C1303.44 807.73 1310.37 815.583 1316.19 823.686C1330.19 843.168 1334.03 866.009 1345.12 886.668C1349.98 895.715 1357.28 904.465 1363.87 912.315C1365.92 914.766 1368.95 917.233 1370.62 919.869C1371.51 921.425 1372.15 922.41 1372.05 924.239C1371.31 925.017 1371.28 925.043 1370.23 925.218C1369.64 927.478 1369 928.707 1366.91 930.053C1363.9 931.986 1359.58 932.793 1356.12 933.588L1355.75 935.159C1354.94 934.939 1354.12 934.745 1353.33 934.464C1353.28 934.161 1353.28 933.841 1353.17 933.554C1350.82 927.483 1289.51 861.765 1282.77 857.181Z"/>
	<path fill="#F7F7F5" transform="scale(0.484658 0.484375)" d="M1342.42 887.624C1347.9 891.379 1354.12 903.106 1358.61 908.738C1361.83 912.774 1365.44 916.442 1368.73 920.405C1370.3 922.293 1370.48 922.877 1370.23 925.218C1369.64 927.478 1369 928.707 1366.91 930.053C1363.9 931.986 1359.58 932.793 1356.12 933.588C1349.36 929.453 1336.42 906.991 1325.67 899.848C1326.56 899.551 1327.39 899.231 1328.24 898.815C1332.6 896.671 1340.75 892.508 1342.42 887.624Z"/>
	<path fill="#32122C" transform="scale(0.484658 0.484375)" d="M1214.57 506.389L1216.44 505.637C1219.25 511.403 1220.62 521.571 1227.41 524.21C1230.19 525.289 1237.61 522.85 1240.4 521.577C1241.64 521.011 1242.11 520.047 1242.67 518.884C1243.99 524.688 1237.74 527.098 1235.6 531.877C1235.73 533.922 1235.94 534.168 1237.07 535.767C1241.65 538.514 1248.96 536.904 1253.87 535.651C1260.05 534.076 1267.79 530.926 1271.17 525.18C1271.17 524.965 1271.2 524.748 1271.18 524.535C1270.78 521.082 1266.18 517.204 1263.82 514.782C1265.83 514.72 1266.41 515.119 1267.82 516.629C1268.52 517.374 1269.09 518.29 1269.66 519.137C1276.19 520.34 1294.27 524.425 1297.91 529.797C1298 529.928 1298.06 530.078 1298.13 530.219L1297.38 531.201C1292.69 526.792 1279.38 521.823 1272.95 522.001L1272.39 522.565C1272.84 523.704 1273.69 524.91 1273.2 526.07C1271.15 530.89 1262.97 534.411 1258.36 535.992C1252.79 537.904 1241.82 540.47 1236.37 537.32C1235.2 536.645 1234.37 535.519 1234.07 534.219C1233.67 532.487 1233.95 531.28 1234.93 529.8C1236.17 527.935 1238.8 525.611 1238.87 523.324C1238.74 523.4 1238.61 523.479 1238.48 523.552C1225.27 531.063 1217.57 527.207 1212.21 545.876C1209.46 555.465 1208.86 568.257 1213.05 577.5C1214.36 580.387 1216.94 584 1217.29 587.142C1218.9 590.989 1217.91 598.722 1217.94 603.106C1218.03 615.396 1218.32 657.918 1221.92 667.172C1223.03 670.026 1224.91 671.636 1227.7 672.78C1229.86 673.663 1232.09 674.445 1234.29 675.223C1233.35 689.975 1234.42 705.149 1235.26 719.889C1235.99 732.772 1242.98 818.679 1241.4 823.297C1241.23 823.767 1240.85 824.125 1240.58 824.539L1239.13 825.207L1239.7 822.279C1239.46 821.302 1239.27 820.68 1238.58 819.911C1233.03 813.681 1226.42 808.241 1220.62 802.208C1216.73 798.169 1213.39 793.187 1209.41 789.411C1210.9 783.742 1210.44 776.469 1210.72 770.56Q1211.53 754.538 1212.54 738.527C1214.22 712.142 1217.74 685.5 1218.28 659.082C1218.44 651.45 1217.98 620.444 1215.29 614.995L1213.44 615.663C1213.19 618.59 1212.15 621.187 1212.26 624.147L1213.07 625.375C1213.08 627.284 1213.14 627.183 1211.84 628.569C1206.7 630.923 1183.77 630.624 1177.8 629.187C1172.28 627.859 1173.48 622.409 1171.15 618.32C1169.61 618.718 1167.05 619.647 1165.54 618.995C1158.83 616.103 1150.22 600.683 1147.59 593.887C1146.72 591.645 1146.01 589.6 1147.02 587.287L1148.3 586.818C1149.97 587.589 1151.36 588.413 1153.23 588.243L1153.51 587.26L1151.66 584.94C1151 578.576 1143.14 573.447 1142.32 566.722C1142.17 565.494 1142.41 563.724 1143.29 562.814C1146.92 559.053 1168.57 560.851 1174.29 561.111C1175.38 561.194 1176.79 561.099 1177.74 561.63C1177.98 561.703 1178.21 561.772 1178.44 561.849C1183.56 563.551 1187.64 573.565 1190.07 578.253C1193.92 579.873 1197.74 581.078 1200.07 584.774C1205.75 575.485 1206.88 544.992 1215.02 534.825C1217.93 531.191 1222 529.814 1225.21 526.884C1225.36 526.744 1225.51 526.601 1225.66 526.459C1222.1 518.671 1218.15 517.118 1214.57 506.389Z"/>
	<path fill="#4F2043" transform="scale(0.484658 0.484375)" d="M1174.29 561.111C1175.38 561.194 1176.79 561.099 1177.74 561.63C1178.1 562.851 1179.99 564.321 1180.92 565.233L1180.56 565.751C1179.53 565.184 1149.58 565.7 1145.16 565.426L1144.73 564.511C1148.09 560.279 1168.58 563.819 1174.8 562.333L1174.29 561.111Z"/>
	<path fill="#FD6AFE" transform="scale(0.484658 0.484375)" d="M1206.42 560.691C1207.1 561.501 1207.75 562.415 1208.1 563.429C1209.67 568.009 1210.31 573.206 1211.8 577.924C1212.77 581.032 1214.98 584.086 1215.21 587.301C1215.39 587.643 1215.71 588.217 1215.83 588.62C1217.04 592.57 1216.79 611.511 1215.29 614.995L1213.44 615.663C1212.71 615.313 1211.43 615.687 1210.83 615.355C1204.27 611.746 1197.13 587.18 1190.57 580.439C1194.93 581.996 1198.13 584.289 1201.59 587.309L1203.17 586.278L1202.95 588.004C1203.41 584.845 1203.44 581.628 1204 578.489C1205.01 572.831 1208.03 566.392 1206.42 560.691Z"/>
	<path fill="#4F2043" transform="scale(0.484658 0.484375)" d="M1144.53 567.693C1154.45 567.603 1175.15 565.79 1183.27 569.184C1187.2 575.075 1209.67 618.217 1211.2 623.66L1212.09 624.225L1212.26 624.147L1213.07 625.375C1213.08 627.284 1213.14 627.183 1211.84 628.569C1206.7 630.923 1183.77 630.624 1177.8 629.187C1172.28 627.859 1173.48 622.409 1171.15 618.32C1169.61 618.718 1167.05 619.647 1165.54 618.995C1158.83 616.103 1150.22 600.683 1147.59 593.887C1146.72 591.645 1146.01 589.6 1147.02 587.287L1148.3 586.818C1149.97 587.589 1151.36 588.413 1153.23 588.243L1153.51 587.26L1151.66 584.94L1152.63 583.11C1150.15 577.987 1147.54 572.522 1144.53 567.693Z"/>
	<path fill="#F7F7F5" transform="scale(0.484658 0.484375)" d="M1156.33 588.692C1158.42 588.251 1160.13 587.793 1162.1 588.784L1162.36 589.966C1160.71 593.816 1156.17 597.188 1152.79 599.565C1157.43 598.527 1161.19 595.658 1165.62 593.967C1167.1 594.279 1167.37 594.521 1168.53 595.528L1168.47 597.282C1166.17 601.387 1162.06 603.973 1158.16 606.396C1162.58 605.36 1166.72 601.816 1171.1 601.812C1172.64 602.569 1172.77 602.524 1173.5 604.059C1172.23 606.471 1168.03 608.787 1165.75 610.417C1166.05 610.6 1166.37 610.811 1166.7 610.916C1169 611.629 1171.44 609.146 1173.64 608.363C1175.01 607.876 1175.18 607.927 1176.42 608.511L1176.77 609.722C1174.58 613.449 1170.34 616.942 1166.35 618.618C1163.65 612.595 1151.21 605.357 1151 596.329C1150.92 592.685 1153.57 591.597 1155.77 589.291L1156.33 588.692Z"/>
	<path fill="#751D1F" transform="scale(0.484658 0.484375)" d="M495.318 788.54C497.979 787.795 497.774 785.868 499.692 784.518C501.746 783.072 519.581 792.671 522.479 794.308C524.044 795.193 525.622 795.926 526.644 797.461C528.02 807.273 529.471 812.89 536.955 819.97C530.66 824.861 517.565 835.588 514.55 843.06L515.012 843.599C522.663 835.227 544.376 811.024 556.403 810.563C556.793 810.548 557.184 810.554 557.574 810.558C560.865 812.081 564.179 813.545 567.299 815.4C567.738 817.291 568.708 818.864 568.83 820.825L569.573 820.279C569.446 823.503 568.963 826.993 570.071 830.081C571.395 831.479 572.005 832.065 574.034 831.977C575.87 831.897 577.981 830.991 579.664 830.275C583.876 830.83 627.351 804.783 635.204 804.162C636.781 804.038 637.641 805.254 638.769 806.202C641.081 809.614 642.323 814.265 643.4 818.231C644.198 828.135 641.468 837.117 634.956 844.715C625.972 855.198 610.142 861.788 596.563 862.793C586.566 863.533 570.741 861.62 561.395 857.699C562.192 865.414 574.979 881.437 574.483 886.151C574.356 887.36 573.063 889.04 572.415 890.038C571.968 890.726 572.124 890.444 571.857 891.318L571.022 891.93C567.831 891.763 559.626 898.338 556.679 900.409L555.642 900.911C553.725 901.248 551.371 901.96 549.45 901.855C547.191 893.982 539.248 885.501 534.185 879.158Q545.728 866.684 557.998 854.924C559.914 853.439 564.064 850.952 565.087 848.886C555.367 850.433 528.538 883.867 521.714 893.076C521.697 893.778 521.529 893.983 522.001 894.537C518.876 898.883 515.054 905.404 510.738 908.482L509.937 908.46C499.88 921.433 496.158 929.143 479.259 933.611C478.667 933.768 478.899 933.665 478.418 934.008C474.843 933.828 471.745 933.025 468.396 931.816L468.553 931.021C466.497 930.136 463.506 928.333 461.276 928.747C459.898 925.539 461.448 922.803 462.608 919.79C462.873 919.683 463.163 919.623 463.404 919.468C464.905 918.507 465.109 916.74 465.378 915.141C466.565 906.146 502.556 857.474 510.213 847.639C503.506 835.832 494.937 822.326 492.207 808.881C490.799 801.946 491.388 794.585 495.318 788.54Z"/>
	<path fill="#541014" transform="scale(0.484658 0.484375)" d="M590.783 641.194L591.466 640.348L591.965 641.332C600.326 642.179 612.998 638.291 618.054 644.412C619.709 646.415 620.877 648.778 622.395 650.873C625.067 649.348 628.83 646.871 632.049 647.939C633.066 648.276 633.167 648.75 633.765 649.579C634.106 652.359 633.703 655.463 631.932 657.736C629.316 661.09 624.173 660.929 622.237 664.572C619.989 668.8 618.945 673.028 617.544 677.567C618.423 678.676 619.906 680.158 620.418 681.436L619.329 682.545C619.797 684.436 620.907 685.408 622.535 686.414C626.076 688.603 630.143 690.134 633.991 691.685C638.784 690.56 642.548 689.805 646.983 692.672C652.317 696.12 654.424 702.289 655.466 708.243C658.316 724.521 657.346 741.387 656.893 757.813C656.681 762.126 657.74 770.354 656.077 774.138L655.176 773.937C655.097 774.246 655.013 774.553 654.939 774.862C651.701 788.304 655.64 788.518 642.543 797.324L643.553 798.639C641.259 799.858 639.401 800.415 637.994 802.656C638.165 803.919 638.335 804.993 638.769 806.202C637.641 805.254 636.781 804.038 635.204 804.162C627.351 804.783 583.876 830.83 579.664 830.275C577.981 830.991 575.87 831.897 574.034 831.977C572.005 832.065 571.395 831.479 570.071 830.081C568.963 826.993 569.446 823.503 569.573 820.279L568.83 820.825C568.708 818.864 567.738 817.291 567.299 815.4C564.179 813.545 560.865 812.081 557.574 810.558C557.184 810.554 556.793 810.548 556.403 810.563C544.376 811.024 522.663 835.227 515.012 843.599L514.55 843.06C517.565 835.588 530.66 824.861 536.955 819.97C529.471 812.89 528.02 807.273 526.644 797.461C525.622 795.926 524.044 795.193 522.479 794.308C519.581 792.671 501.746 783.072 499.692 784.518C497.774 785.868 497.979 787.795 495.318 788.54C496.241 786.454 497.725 784.685 499.079 782.863C496.483 781.504 491.685 779.555 490.278 776.851C488.346 773.137 480.661 719.23 481.783 716.058C482.467 714.123 483.617 713.727 485.287 712.875C490.109 712.524 538.795 737.413 547.853 741.714C553.91 726.356 559.609 708.865 568.577 695.001C577.574 681.092 588.348 680.992 603.157 677.863C600.515 676.952 597.822 676.712 595.085 676.227C592.388 675.749 589.966 675.036 588.429 672.596C584.269 665.994 588.843 648.421 590.783 641.194Z"/>
	<path fill="#F7F7F5" transform="scale(0.484658 0.484375)" d="M569.573 820.279C570.501 819.8 570.741 819.468 571.802 819.604C574.444 819.944 576.604 820.231 578.792 818.425C579.155 818.126 579.491 817.796 579.843 817.483C580.067 817.283 580.298 817.092 580.523 816.893C580.658 816.773 580.789 816.649 580.921 816.527C583.352 819.362 585.715 822.346 588.611 824.72L579.664 830.275C577.981 830.991 575.87 831.897 574.034 831.977C572.005 832.065 571.395 831.479 570.071 830.081C568.963 826.993 569.446 823.503 569.573 820.279Z"/>
	<path fill="#751D1F" transform="scale(0.484658 0.484375)" d="M593.454 801.688L593.139 801.352C592.046 801.429 591.857 801.523 590.97 802.095C588.678 803.573 586.393 805.138 584.014 806.47C582.638 807.24 581.708 808.03 580.14 807.576C578.419 801.353 576.415 782.911 575.838 775.989C582.035 776.613 586.908 782.006 593.118 782.711C597.493 783.207 601.651 784.878 606.008 785.358C608.92 785.678 612.372 784.669 615.071 785.79C613.892 788.664 611.535 788.155 609.849 790.488C609.651 790.762 609.469 791.048 609.279 791.329C605.333 795.397 598.384 798.795 593.454 801.688Z"/>
	<path fill="#78BB6D" transform="scale(0.484658 0.484375)" d="M588.233 682.28L588.849 682.448C588.977 683.876 580.498 695.755 578.919 698.264C569.632 713.014 563.349 730.175 559.64 747.14L555.015 745.062C554.285 744.776 553.528 744.503 552.828 744.146C551.353 743.393 550.599 743.151 550.132 741.564C553.447 728.7 562.528 709.005 569.153 697.133C573.661 689.054 579.406 684.739 588.233 682.28Z"/>
	<path fill="#F7F7F5" transform="scale(0.484658 0.484375)" d="M591.965 641.332C600.326 642.179 612.998 638.291 618.054 644.412C619.709 646.415 620.877 648.778 622.395 650.873C625.067 649.348 628.83 646.871 632.049 647.939C633.066 648.276 633.167 648.75 633.765 649.579C634.106 652.359 633.703 655.463 631.932 657.736C629.316 661.09 624.173 660.929 622.237 664.572C619.989 668.8 618.945 673.028 617.544 677.567C617.492 678.362 617.443 679.154 617.441 679.952C617.431 683.818 619.89 685.707 622.44 688.274C618.219 692.023 614.419 695.53 608.912 697.235C605.155 698.398 600.318 698.618 596.823 696.618C595.522 695.873 594.586 694.741 594.209 693.278C593.5 690.532 594.833 687.545 596.192 685.208C598.526 681.196 601.326 677.307 606.055 676.099C607.967 675.61 609.688 675.021 611.53 674.315L611.591 673.775C607.043 673.721 602.502 675.549 597.935 675.227C595.196 675.034 592.291 674.275 590.473 672.06C585.148 665.574 590.907 649.162 591.965 641.332Z"/>
	<path fill="#78BB6D" transform="scale(0.484658 0.484375)" d="M631.732 777.315Q628.391 763.065 627.113 748.485C625.779 734.368 622.769 706.141 632.821 694.867C634.414 693.08 636.51 691.966 638.923 691.876C642.527 691.741 646.249 693.536 648.708 696.106C659.277 707.158 655.421 758.236 655.176 773.937C655.097 774.246 655.013 774.553 654.939 774.862C651.701 788.304 655.64 788.518 642.543 797.324C625.673 807.431 607.46 815.661 589.538 823.726C586.27 820.621 581.589 817.288 581.026 812.589C582.404 807.301 589.898 805.261 593.454 801.688C598.384 798.795 605.333 795.397 609.279 791.329C616.821 787.854 625.069 782.285 631.732 777.315Z"/>
	<path fill="#78BB6D" transform="scale(0.484658 0.484375)" d="M595.761 680.666C596.208 683.5 593.192 687.024 593.012 690.223C592.865 692.819 593.632 695.872 595.422 697.818C597.034 699.57 599.397 700.03 601.683 700.074C610.574 700.243 617.484 694.905 623.614 689.151C626.875 690.309 629.928 691.492 632.952 693.182C631.757 694.586 630.528 696.015 629.544 697.578C619.074 714.203 625.43 757.997 629.893 776.712C626.139 779.192 622.368 781.494 618.414 783.641C602.274 784.059 589.224 780.969 575.128 773.015C574.507 768.288 574.352 762.592 572.762 758.1C570.619 752.042 566.467 750.158 561.078 747.563Q562.968 739.468 565.612 731.588Q568.256 723.707 571.629 716.11C575.657 706.872 586.5 684.284 595.761 680.666Z"/>
	<path fill="#F7F7F5" transform="scale(0.484658 0.484375)" d="M557.574 810.558C549.045 806.032 495.353 779.741 492.722 777.056C492.068 776.389 491.546 774.577 491.262 773.641C489.105 766.522 481.973 719.502 483.549 715.338C486.917 714.046 491.452 716.265 494.554 717.661C508.266 723.838 521.672 731.029 535.294 737.479C545.134 742.138 556.571 746.203 565.686 752.029C567.99 753.502 569.456 754.754 570.44 757.403C574.251 767.656 575.744 788.16 577.284 799.781C577.797 803.652 578.874 807.649 579.065 811.527C579.15 813.254 579.024 814.629 578.316 816.22C578.003 816.924 577.09 817.406 576.478 817.873C573.005 818.515 570.327 816.859 567.299 815.4C564.179 813.545 560.865 812.081 557.574 810.558Z"/>
	<path fill="#C62F2E" transform="scale(0.484658 0.484375)" d="M522.302 754.955C524.405 754.87 526.451 754.976 528.362 755.959C531.26 757.448 533.656 760.196 534.621 763.316C535.815 767.178 535.343 770.065 533.455 773.552C530.792 773.962 528.973 774.079 526.563 772.74C523.63 771.109 521.581 768.472 520.684 765.242C519.589 761.297 520.261 758.366 522.302 754.955Z"/>
	<path fill="#32122C" transform="scale(0.484658 0.484375)" d="M522.001 894.537C521.529 893.983 521.697 893.778 521.714 893.076C528.538 883.867 555.367 850.433 565.087 848.886C564.064 850.952 559.914 853.439 557.998 854.924Q545.728 866.684 534.185 879.158C539.248 885.501 547.191 893.982 549.45 901.855C551.371 901.96 553.725 901.248 555.642 900.911L556.679 900.409C559.626 898.338 567.831 891.763 571.022 891.93L571.857 891.318L577.4 900.962C583.203 903.905 585.936 906.327 588.89 912.309Q614.183 898.695 639.701 885.511C648.046 881.132 656.348 876.169 664.938 872.314C675.127 878.539 764.326 933.974 767.248 937.861C767.167 939.617 766.941 940.268 765.546 941.423C761.013 945.177 670.01 989.098 661.417 991.972C652.504 987.018 643.417 981.786 634.964 976.08C619.237 983.842 603.467 992.521 587.289 999.25L514.27 954.452C503.299 947.776 492.288 940.279 480.858 934.455L472.651 943.969C475.926 946.803 477.606 948.173 478.346 952.622C478.682 955.267 478.735 957.431 477.013 959.632C473.674 963.9 466.567 964.899 461.53 965.293C456.363 965.698 447.371 966.397 442.571 964.683C438.729 964.577 434.855 963.968 431.124 963.066C426.544 961.959 421.124 960.364 418.533 956.108C418.471 954.949 418.256 954.613 418.903 953.579C422.939 947.133 442.211 946.719 449.417 944.727L450.232 944.496C452.599 939.766 456.392 935.949 459.882 932.029C456.808 929.675 453.42 927.653 450.169 925.547C455.172 921.987 460.311 918.608 465.378 915.141C465.109 916.74 464.905 918.507 463.404 919.468C463.163 919.623 462.873 919.683 462.608 919.79C461.448 922.803 459.898 925.539 461.276 928.747C463.506 928.333 466.497 930.136 468.553 931.021L468.396 931.816C471.745 933.025 474.843 933.828 478.418 934.008C478.899 933.665 478.667 933.768 479.259 933.611C496.158 929.143 499.88 921.433 509.937 908.46L510.738 908.482C515.054 905.404 518.876 898.883 522.001 894.537Z"/>
	<path fill="#F7F7F5" transform="scale(0.484658 0.484375)" d="M453.372 925.13C456.257 922.982 459.419 921.427 462.608 919.79C461.448 922.803 459.898 925.539 461.276 928.747L460.456 929.723C457.778 929.037 455.523 926.81 453.372 925.13Z"/>
	<path fill="#F7F7F5" transform="scale(0.484658 0.484375)" d="M456.756 938.54C458.347 936.58 460.322 933.475 462.336 932.052C464.357 930.624 466.197 931.404 468.396 931.816C471.745 933.025 474.843 933.828 478.418 934.008C477.487 937.989 472.933 941.398 470.019 944.09Q463.443 941.181 456.756 938.54Z"/>
	<path fill="#F7F7F5" transform="scale(0.484658 0.484375)" d="M556.679 900.409C559.626 898.338 567.831 891.763 571.022 891.93C572.501 895.175 575.748 900.017 574.238 903.568C572.904 906.703 567.783 908.148 564.775 909.237Q564.058 909.495 563.337 909.741C561.328 906.363 559.253 903.381 556.679 900.409Z"/>
	<path fill="#F7F7F5" transform="scale(0.484658 0.484375)" d="M529.769 905.973C533.002 904.54 542.948 898.791 546.124 899.835C547.338 900.234 548.433 901.103 549.45 901.855C551.371 901.96 553.725 901.248 555.642 900.911C557.38 904.017 559.317 906.945 561.313 909.89C560.783 915.005 560.317 919.865 558.732 924.793Q544.382 915.18 529.769 905.973Z"/>
	<path fill="#F7F7F5" transform="scale(0.484658 0.484375)" d="M522.001 894.537L533.268 880.225C537.416 885.495 541.713 890.679 545.242 896.393C534.144 902.666 521.719 907.649 509.709 911.912L509.304 911.546L510.738 908.482C515.054 905.404 518.876 898.883 522.001 894.537Z"/>
	<path fill="#4F2043" transform="scale(0.484658 0.484375)" d="M562.608 911.695C566.85 910.103 577.677 902.975 580.903 904.411C584.457 905.992 586.803 911.666 588.515 914.959C582.593 922.189 563.553 939.433 554.135 940.54C552.154 940.773 551.619 940.134 550.272 938.927C550.06 937.892 549.933 937.041 549.999 935.984L550.638 935.546C553.763 934.461 557.485 928.99 558.999 926.036C561.477 921.201 562.362 917.086 562.608 911.695Z"/>
	<path fill="#4F2043" transform="scale(0.484658 0.484375)" d="M456.61 939.885C461.92 942.698 467.762 944.095 473.05 946.766C475.133 947.818 476.415 950.129 477.152 952.252C477.201 952.394 477.246 952.537 477.293 952.68L478.346 952.622C478.682 955.267 478.735 957.431 477.013 959.632C473.674 963.9 466.567 964.899 461.53 965.293C456.363 965.698 447.371 966.397 442.571 964.683L442.57 963.503C433.383 962.417 426.613 960.689 418.752 955.623L419.487 955.055C428.735 947.815 439.617 948.738 450.494 945.989L456.61 939.885Z"/>
	<path fill="#F7F7F5" transform="scale(0.484658 0.484375)" d="M660.522 910.398C665.69 909.895 700.45 933.636 707.058 938.126C684.048 950.466 660.261 961.666 636.75 973.023L634.832 973.485C629.95 971.679 625.145 968.022 620.694 965.295Q605.332 955.949 590.233 946.184Q625.018 927.584 660.522 910.398Z"/>
	<path fill="#F7F7F5" transform="scale(0.484658 0.484375)" d="M483.999 934.074C495.505 929.957 498.83 922.298 508.022 915.598C513.896 911.315 521.043 909.095 527.78 906.549C536.785 913.761 547.703 919.643 557.22 926.31C554.737 929.269 552.628 932.236 550.638 935.546L549.999 935.984C549.187 937.046 548.387 938.125 547.772 939.317C546.396 941.981 546.22 944.246 547.142 947.069C547.708 947.543 548.198 948.159 548.932 948.309C556.583 949.874 567.927 941.9 574.176 937.763C580.079 942.875 587.254 946.858 593.863 950.995Q613.331 963.042 632.977 974.795Q610.413 986.333 587.553 997.275C552.394 977.35 519.207 953.926 483.999 934.074Z"/>
	<path fill="#F7F7F5" transform="scale(0.484658 0.484375)" d="M664.434 874.737C668.973 875.532 756.124 932.162 766.242 938.847C755.55 945.745 742.726 950.894 731.254 956.518Q696.734 973.739 661.805 990.114C653.545 985.274 645.26 980.497 637.316 975.147C648.92 968.971 660.949 963.406 672.703 957.502C683.419 951.943 695.609 947.668 705.715 941.141C707.346 940.088 708.346 939.493 708.758 937.581C706.127 933.545 668.809 911.624 661.916 907.694C637.833 918.399 611.359 932.351 588.204 945.138C583.825 942.5 579.644 939.806 575.546 936.734Q579.75 932.929 583.885 929.049C586.732 926.35 589.418 923.546 589.5 919.412C589.527 918.014 589.642 916.628 589.733 915.233C591.633 911.186 655.489 879.367 664.434 874.737Z"/>
	<path fill="#78BB6D" transform="scale(0.484658 0.484375)" d="M1238.54 36.0702C1241.43 35.5826 1245.04 35.0944 1247.89 35.886C1252.13 37.0661 1256.63 39.9706 1258.76 43.8634C1260.28 46.6306 1261.33 51.1422 1260.44 54.1888C1271.6 52.983 1287.93 51.2449 1297.87 57.1149C1299.27 55.7213 1299.98 54.1607 1300.9 52.4262C1304.71 45.2393 1307.11 43.7749 1314.37 40.2547C1314.84 40.2975 1315.32 40.3393 1315.78 40.402C1321.9 41.2177 1327.36 43.5175 1331.03 48.7036Q1331.49 49.3415 1331.88 50.0228Q1332.27 50.704 1332.59 51.4214Q1332.91 52.1389 1333.15 52.8851Q1333.4 53.6313 1333.56 54.3985Q1333.73 55.1658 1333.82 55.946Q1333.91 56.7263 1333.92 57.5115Q1333.92 58.2967 1333.85 59.0787Q1333.78 59.8607 1333.63 60.6313C1332.72 65.4083 1328.88 71.0558 1324.78 73.6832C1326.66 74.7682 1328.29 76.4464 1329.75 78.0357C1334.82 83.5455 1343.62 96.2455 1343.28 103.98C1348.18 102.376 1353.46 100.325 1358.69 100.961Q1359.46 101.052 1360.22 101.222Q1360.97 101.392 1361.71 101.639Q1362.44 101.885 1363.15 102.206Q1363.85 102.526 1364.52 102.918Q1365.19 103.309 1365.82 103.767Q1366.44 104.224 1367.02 104.744Q1367.59 105.263 1368.11 105.839Q1368.63 106.415 1369.09 107.041C1371.84 110.797 1372.81 115.616 1372.05 120.182Q1371.91 121.026 1371.69 121.852Q1371.46 122.678 1371.15 123.476Q1370.85 124.275 1370.46 125.038Q1370.07 125.801 1369.61 126.521Q1369.14 127.24 1368.61 127.909Q1368.08 128.578 1367.48 129.188Q1366.88 129.799 1366.22 130.346Q1365.56 130.892 1364.85 131.369C1359.12 135.17 1353.79 134.292 1347.41 133.031C1347.71 134.223 1347.86 135.28 1347.81 136.509C1347.43 146.216 1342.93 161.41 1335.66 168.175C1337.42 168.985 1339.2 169.803 1340.79 170.917C1344.68 173.651 1347.55 177.418 1348.29 182.226Q1348.41 183.062 1348.45 183.906Q1348.48 184.75 1348.43 185.593Q1348.39 186.436 1348.26 187.271Q1348.12 188.105 1347.91 188.922Q1347.7 189.739 1347.4 190.531Q1347.11 191.323 1346.74 192.081Q1346.36 192.84 1345.92 193.557Q1345.47 194.275 1344.96 194.945C1342.25 198.502 1338.35 200.862 1333.87 201.302C1323.65 202.306 1320.93 195.517 1314.27 190.066C1314.14 189.961 1314.01 189.86 1313.88 189.758C1311.42 192.949 1305.46 195.266 1301.68 196.464C1297.83 199.403 1290.32 200.077 1285.67 200.647C1287.01 205.512 1287.06 211.267 1284.58 215.749Q1284.38 216.123 1284.15 216.487Q1283.93 216.85 1283.68 217.201Q1283.44 217.552 1283.18 217.89Q1282.92 218.228 1282.64 218.552Q1282.36 218.875 1282.07 219.184Q1281.78 219.493 1281.47 219.787Q1281.16 220.08 1280.83 220.357Q1280.51 220.633 1280.17 220.893Q1279.83 221.152 1279.48 221.393Q1279.12 221.635 1278.76 221.858Q1278.4 222.08 1278.02 222.284Q1277.65 222.487 1277.26 222.671Q1276.88 222.855 1276.48 223.018Q1276.09 223.182 1275.69 223.324Q1275.28 223.467 1274.87 223.588Q1274.46 223.71 1274.05 223.81C1269.65 224.916 1264.71 224.313 1260.88 221.812C1249.68 214.499 1256 207.431 1254.12 199.027C1254.08 198.891 1254.05 198.758 1254.01 198.624C1250.63 195.991 1244.09 194.481 1239.99 192.347C1235.16 189.837 1230.9 186.773 1226.28 183.959C1225.94 185.702 1223.26 187.934 1221.86 189.052C1218.06 192.083 1213.59 193.117 1208.8 192.398C1204.03 191.681 1199.63 188.811 1196.8 184.925C1194.34 181.539 1193.15 177.427 1193.95 173.267C1195.66 164.374 1201.58 163.571 1207.83 159.17L1208.41 158.755C1208.79 154.398 1204.43 148.137 1203.43 143.616C1202.16 137.868 1203.75 129.865 1200.98 124.778C1197.65 124.009 1194.06 123.36 1191.05 121.679C1186.44 119.106 1182.53 115.329 1181.22 110.044C1180.14 105.682 1180.99 101.224 1183.27 97.4055C1185.64 93.4243 1189.86 90.4233 1194.39 89.4827C1200.12 88.2908 1204.79 90.0966 1209.52 93.1704C1212.02 91.4988 1216.81 82.9691 1219.22 80.0979C1223.15 75.4059 1228.77 71.4784 1232.27 66.786C1231.93 65.7948 1231.62 65.0352 1231.03 64.1587C1230.54 63.4277 1230.04 62.7122 1229.6 61.9485C1227.63 58.5208 1224.93 51.8071 1226.2 47.9152C1227.94 42.5438 1233.89 38.6032 1238.54 36.0702Z"/>
	<path fill="#F7F7F5" transform="scale(0.484658 0.484375)" d="M1267.17 82.2973C1279.92 80.8497 1291.62 82.9407 1302.09 90.7372Q1303.01 91.421 1303.89 92.1495Q1304.78 92.878 1305.62 93.6495Q1306.47 94.421 1307.28 95.2336Q1308.09 96.0461 1308.85 96.8977Q1309.62 97.7493 1310.34 98.6379Q1311.07 99.5265 1311.74 100.45Q1312.42 101.373 1313.05 102.329Q1313.68 103.285 1314.27 104.271Q1314.85 105.257 1315.39 106.271Q1315.92 107.285 1316.4 108.324Q1316.89 109.363 1317.32 110.424Q1317.75 111.486 1318.12 112.568Q1318.5 113.649 1318.83 114.749Q1319.15 115.848 1319.42 116.962Q1319.69 118.075 1319.9 119.201Q1320.11 120.327 1320.27 121.462Q1320.42 122.627 1320.51 123.799Q1320.61 124.97 1320.64 126.145Q1320.68 127.32 1320.66 128.495Q1320.63 129.67 1320.55 130.842Q1320.47 132.015 1320.34 133.182Q1320.2 134.349 1320 135.508Q1319.81 136.666 1319.55 137.814Q1319.3 138.962 1318.99 140.096Q1318.69 141.23 1318.32 142.348Q1317.96 143.465 1317.54 144.563Q1317.12 145.661 1316.65 146.737Q1316.18 147.814 1315.65 148.865Q1315.13 149.917 1314.55 150.941Q1313.98 151.966 1313.35 152.961Q1312.73 153.956 1312.05 154.919Q1311.38 155.882 1310.66 156.81C1303.49 165.934 1292.25 171.725 1280.81 173.089C1280.5 173.201 1280.21 173.347 1279.89 173.425C1272.35 175.286 1262.38 172.303 1255.7 168.879C1244.4 163.083 1235.64 153.327 1231.78 141.146Q1231.45 140.091 1231.17 139.02Q1230.89 137.95 1230.67 136.867Q1230.44 135.785 1230.27 134.692Q1230.09 133.6 1229.98 132.5Q1229.86 131.401 1229.79 130.297Q1229.72 129.193 1229.71 128.087Q1229.7 126.981 1229.74 125.876Q1229.78 124.771 1229.88 123.669Q1229.98 122.567 1230.13 121.471Q1230.28 120.375 1230.48 119.288Q1230.68 118.201 1230.94 117.125Q1231.19 116.049 1231.5 114.987Q1231.81 113.924 1232.17 112.878Q1232.52 111.832 1232.93 110.805Q1233.34 109.778 1233.8 108.772Q1234.26 107.765 1234.77 106.783C1241.69 93.5129 1253.39 86.743 1267.17 82.2973Z"/>
	<path fill="#78BB6D" transform="scale(0.484658 0.484375)" d="M1267.19 94.2043C1277.26 92.771 1286.41 93.7046 1294.85 99.8098Q1295.52 100.295 1296.17 100.812Q1296.81 101.33 1297.43 101.879Q1298.05 102.428 1298.64 103.007Q1299.23 103.586 1299.79 104.193Q1300.35 104.801 1300.88 105.436Q1301.41 106.071 1301.91 106.731Q1302.41 107.391 1302.88 108.076Q1303.34 108.76 1303.77 109.466Q1304.2 110.173 1304.6 110.9Q1304.99 111.627 1305.35 112.373Q1305.71 113.119 1306.03 113.882Q1306.35 114.644 1306.63 115.422Q1306.91 116.2 1307.16 116.99Q1307.4 117.781 1307.6 118.583Q1307.81 119.385 1307.97 120.196Q1308.14 121.007 1308.26 121.825C1309.68 131.1 1307.78 141.446 1302.07 149.026C1296.77 156.065 1289.32 159.924 1280.71 161.152C1275.42 163.162 1266.43 161.321 1261.36 159.091C1253.12 155.462 1246.54 148.305 1243.35 139.903C1240.15 131.482 1240.71 121.922 1244.46 113.771C1249.15 103.578 1256.95 98.0275 1267.19 94.2043Z"/>
	<path fill="#78BB6D" transform="scale(0.484658 0.484375)" d="M745.701 117.759C749.221 118.491 752.743 119.549 756.162 120.666C809.479 138.095 844.345 175.675 870.916 223.887C875.031 231.353 878.179 239.204 882.031 246.785C875.669 263.274 867.988 279.41 861 295.656L818.113 395.139C811.23 411.033 803.921 426.769 797.342 442.79C781.93 429.196 769.499 415.041 759.618 396.943C730.282 343.214 722.982 257.786 729.254 197.469C732.073 170.359 737.994 143.863 745.701 117.759Z"/>
	<path fill="#4F2043" transform="scale(0.484658 0.484375)" d="M1214.57 506.389C1215.33 499.368 1216 492.028 1215.04 485.007C1212.73 468.099 1205.2 455.162 1221.34 442.101C1226.71 437.759 1233.29 435.428 1240.22 436.171C1248.15 437.022 1254.12 442.856 1261.58 445.097C1266.9 446.694 1272.76 445.026 1278.13 446.913C1280.87 447.875 1283.42 449.369 1285.26 451.66C1291.61 459.599 1286.88 471.204 1290.88 479.966C1294.94 488.846 1307.1 491.569 1306.57 502.883C1306.26 509.34 1303.9 515.929 1306.69 522.16C1311.34 532.582 1335.27 539.297 1333.87 549.344C1333.18 554.353 1320.16 575.957 1316.44 578.929C1316.28 579.055 1316.09 579.148 1315.92 579.257C1327.78 628.978 1326.53 655.893 1307.95 703.58C1303.9 713.967 1315.6 723.993 1299.74 731.527C1298.11 732.303 1296.25 732.693 1294.49 733.105C1293.59 739.431 1285.33 782.554 1282.78 785.199C1278.24 795.504 1285.1 817.726 1284.64 830.495C1284.36 838.377 1280.91 848.932 1281.87 856.344L1282.77 857.181C1281.54 864.485 1273.05 903.628 1269.3 906.441C1268.63 906.944 1267.9 907.373 1267.18 907.796C1264.03 919.613 1263.71 932.932 1261.81 945.089C1260.74 951.917 1258.1 959.84 1257.9 966.588C1257.88 967.392 1258.06 967.907 1258.31 968.66C1258 968.765 1257.69 968.865 1257.39 968.973C1256.1 969.429 1255.1 970.164 1254.02 970.971L1251.63 970.73C1251 971.148 1251.23 971.073 1250.49 971.252C1248.13 971.816 1246.39 971.757 1244.35 970.365C1242.7 969.246 1239.35 965.691 1239.05 963.729C1238.97 963.207 1238.92 962.681 1238.81 962.166L1238.43 960.377L1237.29 961.079C1240.5 949.935 1243.62 918.539 1241.54 907.474C1238.45 891.111 1242.59 833.465 1239.13 825.207L1240.58 824.539C1240.85 824.125 1241.23 823.767 1241.4 823.297C1242.98 818.679 1235.99 732.772 1235.26 719.889C1234.42 705.149 1233.35 689.975 1234.29 675.223C1232.09 674.445 1229.86 673.663 1227.7 672.78C1224.91 671.636 1223.03 670.026 1221.92 667.172C1218.32 657.918 1218.03 615.396 1217.94 603.106C1217.91 598.722 1218.9 590.989 1217.29 587.142C1216.94 584 1214.36 580.387 1213.05 577.5C1208.86 568.257 1209.46 555.465 1212.21 545.876C1217.57 527.207 1225.27 531.063 1238.48 523.552C1238.61 523.479 1238.74 523.4 1238.87 523.324C1238.8 525.611 1236.17 527.935 1234.93 529.8C1233.95 531.28 1233.67 532.487 1234.07 534.219C1234.37 535.519 1235.2 536.645 1236.37 537.32C1241.82 540.47 1252.79 537.904 1258.36 535.992C1262.97 534.411 1271.15 530.89 1273.2 526.07C1273.69 524.91 1272.84 523.704 1272.39 522.565L1272.95 522.001C1279.38 521.823 1292.69 526.792 1297.38 531.201L1298.13 530.219C1298.06 530.078 1298 529.928 1297.91 529.797C1294.27 524.425 1276.19 520.34 1269.66 519.137C1269.09 518.29 1268.52 517.374 1267.82 516.629C1266.41 515.119 1265.83 514.72 1263.82 514.782C1266.18 517.204 1270.78 521.082 1271.18 524.535C1271.2 524.748 1271.17 524.965 1271.17 525.18C1267.79 530.926 1260.05 534.076 1253.87 535.651C1248.96 536.904 1241.65 538.514 1237.07 535.767C1235.94 534.168 1235.73 533.922 1235.6 531.877C1237.74 527.098 1243.99 524.688 1242.67 518.884C1242.11 520.047 1241.64 521.011 1240.4 521.577C1237.61 522.85 1230.19 525.289 1227.41 524.21C1220.62 521.571 1219.25 511.403 1216.44 505.637L1214.57 506.389Z"/>
	<path fill="#F7F7F5" transform="scale(0.484658 0.484375)" d="M1289.57 702.16C1294.27 701.846 1299.39 702.77 1304.09 703.206C1304.36 703.605 1304.45 703.695 1304.65 704.209C1306.75 709.549 1307.64 717.873 1305.49 723.326C1304.24 726.486 1302.13 728.394 1299.07 729.717C1298.03 730.571 1296.49 731.15 1295.14 731.041C1292.37 730.818 1288.53 729.399 1286.74 727.242C1280.35 719.516 1289.07 710.133 1289.54 702.988C1289.56 702.713 1289.56 702.436 1289.57 702.16Z"/>
	<path fill="#F7F7F5" transform="scale(0.484658 0.484375)" d="M1243.33 906.717C1250.39 907.313 1257.29 907.798 1264.38 907.479C1265.9 912.726 1257.61 963.151 1254.92 968.108C1254.15 969.525 1253.1 970.121 1251.63 970.73C1251 971.148 1251.23 971.073 1250.49 971.252C1248.13 971.816 1246.39 971.757 1244.35 970.365C1242.7 969.246 1239.35 965.691 1239.05 963.729C1238.97 963.207 1238.92 962.681 1238.81 962.166L1238.43 960.377C1242.74 955.518 1244.65 917.45 1244.26 910.159C1244.19 908.823 1244.05 907.889 1243.33 906.717Z"/>
	<path fill="#F7F7F5" transform="scale(0.484658 0.484375)" d="M1254.66 503.309C1254.02 503.774 1253.41 504.193 1252.72 504.583C1246.98 507.806 1237.6 512.012 1230.91 509.871C1227.41 508.753 1224.76 505.817 1223.31 502.527C1220.01 495.073 1223.75 470.302 1226.93 462.954C1227.58 461.46 1227.6 461.24 1229.09 460.655C1235.62 462.291 1239.95 469.421 1246.12 471.3C1252.33 473.19 1263.96 470.999 1268.58 474.824C1269.01 476.243 1269.39 476.965 1268.96 478.482C1267.91 482.162 1264.1 484.986 1260.89 486.741L1260.23 487.1C1260.77 489.466 1260.39 492.196 1260.38 494.637C1260.33 502.093 1261.07 507.86 1263.82 514.782C1266.18 517.204 1270.78 521.082 1271.18 524.535C1271.2 524.748 1271.17 524.965 1271.17 525.18C1267.79 530.926 1260.05 534.076 1253.87 535.651C1248.96 536.904 1241.65 538.514 1237.07 535.767C1235.94 534.168 1235.73 533.922 1235.6 531.877C1237.74 527.098 1243.99 524.688 1242.67 518.884C1243.29 518.301 1243.56 517.856 1243.9 517.054C1244.78 514.939 1244.42 512.385 1243.65 510.307C1246.12 509.587 1248.76 508.522 1251.04 507.332C1253.21 506.202 1253.91 505.515 1254.66 503.309Z"/>
	<path fill="#FD6AFE" transform="scale(0.484658 0.484375)" d="M1238.87 523.324C1238.8 525.611 1236.17 527.935 1234.93 529.8C1233.95 531.28 1233.67 532.487 1234.07 534.219C1234.37 535.519 1235.2 536.645 1236.37 537.32C1241.82 540.47 1252.79 537.904 1258.36 535.992C1262.97 534.411 1271.15 530.89 1273.2 526.07C1273.69 524.91 1272.84 523.704 1272.39 522.565L1272.95 522.001C1279.38 521.823 1292.69 526.792 1297.38 531.201C1306.68 537.22 1309.68 556.193 1311.9 566.515C1312.67 570.102 1314.7 576.44 1313.87 579.925C1316.73 585.827 1317.5 593.828 1318.59 600.265C1323.28 628.097 1323.53 653.621 1314.25 680.591C1312.64 685.263 1309.3 698.163 1306.39 701.374C1300.26 701.069 1294.19 700.422 1288.08 700.021C1290.53 694.891 1289.58 680.936 1289.7 674.781C1289.93 661.789 1290.8 648.529 1290.33 635.557C1289.42 610.432 1282.87 585.244 1274.76 561.539C1274.41 560.503 1274 559.481 1273.59 558.468L1272.81 558.102C1271.93 560.747 1284.14 600.096 1285.7 608.437C1289.44 628.379 1290.15 650.379 1287.45 670.522C1272.49 677.911 1250.57 675.497 1234.29 675.223C1232.09 674.445 1229.86 673.663 1227.7 672.78C1224.91 671.636 1223.03 670.026 1221.92 667.172C1218.32 657.918 1218.03 615.396 1217.94 603.106C1217.91 598.722 1218.9 590.989 1217.29 587.142C1216.94 584 1214.36 580.387 1213.05 577.5C1208.86 568.257 1209.46 555.465 1212.21 545.876C1217.57 527.207 1225.27 531.063 1238.48 523.552C1238.61 523.479 1238.74 523.4 1238.87 523.324Z"/>
	<path fill="#1A4252" transform="scale(0.484658 0.484375)" d="M882.031 246.785L929.399 138.263C934.995 125.372 944.599 99.6096 951.63 88.9644C953.802 85.6755 957.343 83.1457 961.016 81.786C966.147 79.887 970.478 80.635 975.248 82.9309C985.804 88.0116 996.109 95.3474 1006.08 101.546L1072.36 143.188L1153.51 193.513C1167.04 201.894 1182.15 209.842 1194.76 219.497C1199.29 222.96 1202.23 227.024 1204.01 232.444Q1204.36 233.498 1204.63 234.579Q1204.89 235.659 1205.07 236.758Q1205.24 237.857 1205.32 238.967Q1205.4 240.076 1205.38 241.188Q1205.37 242.301 1205.26 243.408Q1205.16 244.515 1204.96 245.609Q1204.76 246.704 1204.47 247.778Q1204.18 248.851 1203.8 249.897C1199.8 261.085 1194.27 272.06 1189.53 282.976Q1175.15 316.454 1160.43 349.786L1076.3 542.938L953.201 823.937C939.105 855.62 925.44 887.534 911.016 919.064C906.746 928.399 903.068 938.397 898.381 947.473C895.666 952.731 891.882 956.896 886.062 958.683C880.305 960.452 875.324 959.767 870.08 956.88C851.409 946.601 833.45 934.757 815.387 923.449L737.024 874.558L683.768 841.187C674.245 835.242 652.164 823.429 645.491 815.484L643.4 818.231C642.323 814.265 641.081 809.614 638.769 806.202C638.335 804.993 638.165 803.919 637.994 802.656C639.401 800.415 641.259 799.858 643.553 798.639L642.543 797.324C655.64 788.518 651.701 788.304 654.939 774.862C655.013 774.553 655.097 774.246 655.176 773.937L656.077 774.138C657.74 770.354 656.681 762.126 656.893 757.813C662.269 749.815 665.902 738.502 669.847 729.592L694.209 675.56Q746.894 559.671 797.342 442.79C803.921 426.769 811.23 411.033 818.113 395.139L861 295.656C867.988 279.41 875.669 263.274 882.031 246.785Z"/>
	<path fill="#78BB6D" transform="scale(0.484658 0.484375)" d="M643.553 798.639C645.035 801.113 645.096 811.83 645.491 815.484L643.4 818.231C642.323 814.265 641.081 809.614 638.769 806.202C638.335 804.993 638.165 803.919 637.994 802.656C639.401 800.415 641.259 799.858 643.553 798.639Z"/>
	<path fill="#F7F7F5" transform="scale(0.484658 0.484375)" d="M1053.42 146.69C1054.5 146.607 1055.37 146.502 1056.42 146.849C1060.55 148.217 1084.39 164.288 1088.61 167.464C1088.54 169.14 1087.73 169.428 1086.55 170.559C1080.49 166.968 1059.24 154.272 1054.79 150.167C1053.31 148.797 1053.48 148.639 1053.42 146.69Z"/>
	<path fill="#F7F7F5" transform="scale(0.484658 0.484375)" d="M964.406 104.589C964.896 104.686 964.917 104.677 965.471 104.867C971.704 107.01 978.464 112.135 984.129 115.559L1030.9 144.446L1125.27 202.856C1143.5 214.156 1162.03 225.227 1179.89 237.089C1182.41 238.759 1185.88 240.784 1187.27 243.535C1186.28 249.742 1181.35 257.558 1178.77 263.435L1156.39 314.64L1091.46 462.784L947.731 790.529L898.51 901.753C893.099 913.753 888.37 926.094 882.578 937.914C881.659 938.209 880.597 938.561 879.622 938.441C876.933 938.11 873.385 935.57 871.079 934.189C836.817 913.665 803.409 891.634 769.423 870.644L716.372 837.572C700.052 827.578 683.259 817.83 667.43 807.092C664.799 805.307 662.323 803.481 660.24 801.062C659.893 798.863 659.816 796.932 660.528 794.789C662.295 789.473 665.347 784.062 667.619 778.885L684.92 739.752L743.579 610.267C795.452 494.899 845.167 378.443 895.49 262.387Q917.374 210.917 939.83 159.694C947.732 141.436 954.919 122.073 964.406 104.589Z"/>
	<path fill="#F64055" transform="scale(0.484658 0.484375)" d="M983.486 342.019C971.095 326.481 967.655 302.744 969.309 283.406C970.172 273.304 972.442 257.662 980.931 251.015C982.81 249.544 984.252 248.984 986.611 249.278C987.404 249.764 988.045 250.164 988.543 250.974C992.768 257.846 987.354 265.734 985.714 272.622C980.988 292.466 983.588 310.716 994.219 328.03C990.523 332.478 986.644 337.179 983.486 342.019Z"/>
	<path fill="#FAA02E" transform="scale(0.484658 0.484375)" d="M994.219 328.03C1000.54 335.058 1007.58 341.461 1017.54 341.888C1026.72 342.282 1035.55 337.816 1042.16 331.702C1047.36 326.894 1052.32 315.906 1059.23 314.119C1061.02 314.47 1061.95 314.637 1063.11 316.257C1064.8 318.63 1065.5 321.32 1064.89 324.166C1062.46 335.463 1050.04 348.154 1040.42 353.857C1030.57 359.698 1019.19 361.418 1008.09 358.487C997.693 355.739 990.647 349.672 983.486 342.019C986.644 337.179 990.523 332.478 994.219 328.03Z"/>
	<path fill="#21A3F4" transform="scale(0.484658 0.484375)" d="M1019.4 220.058C1023.15 219.705 1026.92 219.49 1030.67 220.002C1042.17 221.572 1052.15 228.663 1059.05 237.758C1071.54 254.225 1076.37 278.617 1073.22 299.043C1072.78 301.906 1071.13 306.014 1068.51 307.56C1067.27 308.292 1066.02 308.512 1064.63 308.134C1055.4 305.621 1062.18 294.459 1058.93 288.913C1059.27 288.309 1059.43 288.076 1059.67 287.474C1062.24 280.906 1057.45 266.779 1054.73 260.304C1051.11 251.704 1044.99 243.459 1036.09 239.896C1023.46 234.842 1015.57 239.881 1004.24 244.656C1001.95 245.62 998.977 246.551 996.61 245.403C995.346 244.79 994.486 243.719 994.034 242.39C993.329 240.323 992.898 235.707 994.001 233.743C997.748 227.071 1012.33 221.844 1019.4 220.058Z"/>
	<path fill="#FAA02E" transform="scale(0.484658 0.484375)" d="M789.343 755.331Q812.313 770.807 834.021 788.009C842.219 793.906 851.116 801.667 860.163 806.035C852.285 811.175 845.169 818.155 837.488 823.719C825.004 815.519 813.048 806.417 800.654 798.055C790.883 791.462 777.049 783.532 768.506 776.015C767.564 775.186 767.297 774.672 766.948 773.497C774.167 767.107 781.719 761.221 789.343 755.331Z"/>
	<path fill="#21A3F4" transform="scale(0.484658 0.484375)" d="M760.037 740.765C776.087 726.674 792.854 713.422 809.472 700.017C816.056 694.706 822.518 688.138 829.698 683.724C829.896 696.031 829.305 709.251 831.049 721.411C818.274 733.861 802.616 743.389 789.343 755.331C781.719 761.221 774.167 767.107 766.948 773.497C765.368 762.682 762.919 751.31 760.037 740.765Z"/>
	<path fill="#E8E7E6" transform="scale(0.484658 0.484375)" d="M873.542 346.399C879.33 348.319 886.096 353.682 891.388 356.881L940.237 386.628L1023.06 436.824C1038.63 446.207 1054.7 455.24 1069.86 465.256C1072.81 467.2 1076.46 469.855 1078.15 473.044C1079.22 475.064 1078.93 476.355 1078.2 478.325C1076.66 479.822 1075.52 480.184 1073.43 480.563C1071.95 480.288 1070.56 479.698 1069.25 478.967C1055.41 471.223 1042.03 462.289 1028.44 454.072Q981.663 426.079 935.33 397.357L891.353 370.799C883.969 366.29 876.212 362.054 869.38 356.732C868.642 355.388 867.841 354.057 868.139 352.468C868.662 349.68 871.439 347.997 873.542 346.399Z"/>
	<path fill="#E8E7E6" transform="scale(0.484658 0.484375)" d="M784.108 557.408C791.436 559.753 798.803 565.185 805.438 569.156C823.939 580.23 842.027 591.896 860.318 603.307L938.478 652.468C955.132 662.975 973.767 673.104 988.499 686.198C986.716 689.157 984.852 691.965 982.802 694.745C970.62 688.035 958.903 679.847 947.138 672.394L870.571 623.663L808.846 585.307C801.696 580.894 783.537 571.414 778.47 565.842C778.654 561.9 781.384 559.944 784.108 557.408Z"/>
	<path fill="#F64055" transform="scale(0.484658 0.484375)" d="M829.698 683.724C837.571 688.696 846.29 693.455 853.414 699.443L858.213 770.571C858.877 779.872 861.471 797.771 860.163 806.035C851.116 801.667 842.219 793.906 834.021 788.009Q812.313 770.807 789.343 755.331C802.616 743.389 818.274 733.861 831.049 721.411C829.305 709.251 829.896 696.031 829.698 683.724Z"/>
	<path fill="#F7F7F5" transform="scale(0.484658 0.484375)" d="M789.343 755.331C802.616 743.389 818.274 733.861 831.049 721.411L834.021 788.009Q812.313 770.807 789.343 755.331Z"/>
	<path fill="#F6552E" transform="scale(0.484658 0.484375)" d="M871.669 432.768C873.025 432.655 874.482 432.543 875.812 432.895C881.844 434.487 909.891 452.676 912.357 457.926C915.794 465.245 911.494 473.637 917.363 480.497C922.033 485.957 931.093 490.242 937.209 494.059L978.365 519.702C986.426 524.674 995.056 529.34 1002.66 534.962C1004.72 536.49 1007.09 538.478 1008.32 540.77C1009.92 543.755 1008.12 548.486 1007.03 551.46C1003.86 560.089 999.515 568.433 995.894 576.894C991.959 586.091 989.038 598.101 982.969 606.051C980.719 608.998 978.07 610.317 974.793 611.81C973.117 612.169 971.456 612.361 969.736 612.324C967.108 612.267 964.471 611.367 962.169 610.128C946.097 601.476 930.695 590.149 915.282 580.271L873.819 553.841C862.154 546.446 848.213 539.243 838.841 529.036C837.916 526.203 838.158 523.243 838.661 520.345C841.037 506.662 847.612 492.789 852.137 479.656C856.795 466.134 860.492 449.866 867.154 437.39C868.269 435.301 869.766 434.097 871.669 432.768Z"/>
	<path fill="#F7F7F5" transform="scale(0.484658 0.484375)" d="M861.239 511.684C862.64 511.984 863.989 512.332 865.277 512.98C869.728 515.216 876.163 518.869 877.61 524.029C878.36 526.704 877.067 528.64 875.703 530.845C871.449 530.049 866.107 526.897 862.814 524.067C860.78 522.318 858.642 519.724 858.544 516.921C858.465 514.677 859.845 513.273 861.239 511.684Z"/>
	<path fill="#F7F7F5" transform="scale(0.484658 0.484375)" d="M881.571 488.97C883.456 488.843 885.323 488.724 887.184 489.133C891.417 490.063 895.246 493.065 897.514 496.73C899.826 500.465 900.762 504.909 899.716 509.225C898.702 513.404 896.173 515.42 892.7 517.51C891.548 517.593 890.387 517.672 889.232 517.635C885.301 517.508 881.398 514.741 878.956 511.801C875.931 508.158 874.301 503.267 874.975 498.538C875.618 494.027 878.102 491.529 881.571 488.97Z"/>
	<path fill="#F7F7F5" transform="scale(0.484658 0.484375)" d="M889.897 529.929C891.771 530.066 893.341 530.56 895.005 531.403C902.047 534.97 940.86 559.339 942.149 564.312C942.765 566.691 941.447 568.197 940.202 570.103C938.39 569.905 936.829 569.285 935.276 568.359C928.223 564.152 889.202 540.684 887.799 535.251C887.885 533 888.699 531.797 889.897 529.929Z"/>
	<path fill="#F7F7F5" transform="scale(0.484658 0.484375)" d="M913.721 513.753C914.678 514.002 915.538 514.304 916.443 514.708C925.076 518.562 933.567 525.485 941.575 530.596C952.697 537.695 964.925 544.269 975.346 552.351C976.754 553.444 977.687 554.31 978.329 556.019C978.308 558.359 977.308 559.574 976.014 561.418C974.717 561.068 973.487 560.583 972.292 559.972C962.668 555.051 953.569 548.27 944.404 542.512C934.698 536.413 922.739 530.502 914.153 522.958C912.932 521.885 912.253 520.889 911.746 519.35C911.705 516.98 912.534 515.717 913.721 513.753Z"/>
</svg>
