<svg xmlns="http://www.w3.org/2000/svg" viewBox="0 0 129 40" fill="none"><path fill="url(#paint0_linear_14234_5907)" fill-rule="evenodd" d="m33.3 9.58.94-2.3S33.05 6 31.6 4.55c-1.45-1.44-4.51-.6-4.51-.6L23.59 0H11.33l-3.5 3.96s-3.07-.85-4.51.6C1.87 6 .67 7.27.67 7.27l.94 2.3-1.2 3.4s3.52 13.27 3.93 14.9c.8 3.19 1.36 4.42 3.66 6.04 2.3 1.61 6.48 4.42 7.16 4.85.68.42 1.53 1.15 2.3 1.15.77 0 1.62-.73 2.3-1.15.68-.43 4.86-3.24 7.16-4.85 2.3-1.62 2.85-2.85 3.66-6.05.41-1.62 3.92-14.89 3.92-14.89l-1.2-3.4Z" clip-rule="evenodd"/><path fill="#fff" d="M21.8 7.2c.52 0 4.3-.73 4.3-.73s4.5 5.42 4.5 6.58c0 .96-.39 1.34-.84 1.78l-.3.3-3.36 3.57-.11.1c-.34.35-.83.84-.48 1.67l.07.17c.38.9.85 2 .25 3.12-.64 1.19-1.74 1.98-2.44 1.85-.7-.13-2.35-1-2.96-1.39-.6-.39-2.53-1.97-2.53-2.58 0-.5 1.38-1.35 2.06-1.76l.3-.18.32-.21c.62-.38 1.73-1.07 1.75-1.37.04-.38.03-.49-.47-1.42l-.35-.63c-.48-.8-1-1.71-.89-2.36.14-.73 1.29-1.15 2.26-1.51a38.56 38.56 0 0 0 1.37-.51c.97-.37 2.05-.77 2.23-.85.25-.12.18-.22-.57-.3l-.36-.03c-.92-.1-2.63-.28-3.46-.05l-.53.15c-.94.25-2.08.56-2.19.74l-.05.08c-.1.15-.18.24-.06.88l.2 1.02c.25 1.34.65 3.43.7 3.9l.02.2c.07.52.11.87-.5 1l-.16.04c-.69.16-1.7.4-2.06.4a15.24 15.24 0 0 1-2.22-.43c-.61-.14-.57-.5-.5-1.02l.02-.19c.05-.47.45-2.57.7-3.91l.2-1.01c.12-.64.05-.73-.06-.88l-.05-.08c-.11-.18-1.25-.5-2.19-.74l-.53-.15c-.83-.23-2.54-.05-3.46.05l-.37.04c-.74.07-.8.17-.56.29.18.08 1.26.48 2.23.85l1.02.38.35.13c.97.36 2.12.78 2.26 1.5.11.66-.41 1.56-.89 2.37l-.35.63c-.5.93-.5 1.04-.47 1.42.02.3 1.13.99 1.74 1.37l.33.2.3.2c.68.4 2.06 1.24 2.06 1.75 0 .6-1.92 2.2-2.53 2.58-.6.4-2.26 1.26-2.96 1.4-.7.12-1.8-.67-2.44-1.86-.6-1.12-.13-2.23.25-3.12l.07-.17c.35-.83-.14-1.32-.48-1.66l-.1-.11-3.38-3.58-.29-.29c-.46-.44-.84-.82-.84-1.78 0-1.16 4.5-6.58 4.5-6.58s3.78.72 4.3.72c.4 0 1.19-.27 2.01-.55l.63-.21a6.04 6.04 0 0 1 1.7-.35s.68 0 1.7.35l.63.2c.82.3 1.6.56 2.02.56Z"/><path fill="#fff" d="M21.15 26.38c.8.42 1.37.7 1.59.84.28.18.1.5-.15.68-.25.18-3.65 2.82-3.98 3.1l-.14.13c-.32.28-.72.65-1.01.65-.29 0-.7-.37-1.01-.65L16.3 31c-.33-.3-3.73-2.93-3.98-3.1-.26-.18-.43-.51-.15-.69.22-.13.78-.42 1.59-.84l.76-.39c1.2-.62 2.7-1.15 2.93-1.15.23 0 1.73.53 2.93 1.15l.76.4Z"/><path fill="#F3F5F7" d="M49.87 13.47a7.34 7.34 0 0 1 3.48-.8 7.76 7.76 0 0 1 7.03 4.31 10.25 10.25 0 0 1 1.07 4.79c0 1.82-.35 3.42-1.07 4.82a8.1 8.1 0 0 1-2.91 3.26A7.6 7.6 0 0 1 53.35 31a7.35 7.35 0 0 1-3.48-.78c-1-.53-1.79-1.2-2.38-2.04v2.53H43V7h4.49v8.56a6.38 6.38 0 0 1 2.38-2.09ZM56.22 19a4.57 4.57 0 0 0-8.07.05c-.44.79-.66 1.72-.66 2.79 0 1.06.22 2 .66 2.79.43.79 1.01 1.39 1.73 1.8a4.49 4.49 0 0 0 4.6 0 4.74 4.74 0 0 0 1.74-1.83c.44-.8.66-1.73.66-2.82 0-1.1-.22-2-.66-2.77V19ZM69.55 13.5c.93-.53 1.99-.8 3.19-.8v4.71h-1.2c-1.4 0-2.46.33-3.18 1-.71.66-1.07 1.81-1.07 3.45v8.85H62.8V12.96h4.49v2.75a6.3 6.3 0 0 1 2.26-2.21ZM74.38 17a7.84 7.84 0 0 1 2.92-3.2 7.77 7.77 0 0 1 4.12-1.13 7.22 7.22 0 0 1 5.86 2.82v-2.53h4.52V30.7h-4.52v-2.6a6.64 6.64 0 0 1-2.39 2.07 7.31 7.31 0 0 1-3.5.82c-1.5 0-2.86-.39-4.1-1.16a8.06 8.06 0 0 1-2.9-3.25c-.72-1.4-1.08-3-1.08-4.82 0-1.82.36-3.39 1.07-4.78Zm12.26 2.03a4.51 4.51 0 0 0-4.07-2.42A4.57 4.57 0 0 0 78.55 19c-.44.78-.66 1.7-.66 2.77s.22 2 .66 2.8c.44.8 1.01 1.42 1.73 1.85a4.4 4.4 0 0 0 2.29.64c.8 0 1.61-.21 2.34-.63a4.51 4.51 0 0 0 1.73-1.8c.42-.77.64-1.7.64-2.8 0-1.08-.22-2.02-.64-2.8ZM102.3 26.58l4.5-13.62h4.77L105 30.7h-5.45L93 12.96h4.8l4.5 13.62ZM128.55 23.18h-12.97c.1 1.28.55 2.29 1.34 3.01a4.14 4.14 0 0 0 2.92 1.1c1.66 0 2.85-.72 3.55-2.16h4.84a8.07 8.07 0 0 1-2.94 4.22 8.6 8.6 0 0 1-5.36 1.65c-1.7 0-3.24-.38-4.6-1.14a8 8 0 0 1-3.17-3.22 9.86 9.86 0 0 1-1.13-4.8c0-1.82.37-3.46 1.12-4.84a7.8 7.8 0 0 1 3.14-3.2 9.41 9.41 0 0 1 4.64-1.13c1.75 0 3.2.36 4.54 1.1a7.68 7.68 0 0 1 3.1 3.08 9.38 9.38 0 0 1 1.11 4.6c0 .64-.04 1.22-.13 1.73Zm-4.52-3.01a3.55 3.55 0 0 0-1.25-2.77 4.42 4.42 0 0 0-2.97-1.04c-1.12 0-2.05.33-2.8 1a4.42 4.42 0 0 0-1.4 2.8h8.43Z"/><defs><linearGradient id="paint0_linear_14234_5907" x1=".42" x2="34.5" y1="40.2" y2="40.2" gradientUnits="userSpaceOnUse"><stop stop-color="#FF5601"/><stop offset=".5" stop-color="#FF4000"/><stop offset="1" stop-color="#FF1F01"/></linearGradient></defs></svg>