<svg xmlns="http://www.w3.org/2000/svg" xmlns:xlink="http://www.w3.org/1999/xlink" viewBox="0 0 322 188"><defs><path id="a" d="M184.573 185.138c-32.173-10.66-56.386-13.402-72.64-8.227-24.383 7.763-63.274 7.051-82.845-23.75-19.572-30.8-42.5-71.315-17.508-111.314C36.572 1.848 71.64-12.764 84.983 14.04c13.343 26.803 49.42 9.805 63.542-6.45 14.123-16.255 97.876 1.332 85.181 50.75-12.694 49.416 9.254 62.195-.559 97.928-6.542 23.821-22.734 33.445-48.574 28.87z"/><path id="b" d="M0 7.835C0 3.508 3.515 0 7.836 0h38.218a7.839 7.839 0 017.836 7.835v7.05c0 4.327-3.515 7.835-7.836 7.835H7.836A7.839 7.839 0 010 14.885v-7.05z"/><path id="i" fill="#F2F2F2" fill-rule="nonzero" d="M8.786 4.393h37.341V6.59H8.786zm0 5.491h26.358v2.197H8.786zm0 5.492h31.85v2.197H8.786z"/></defs><defs><filter id="f" width="259.6%" height="456.6%" x="-79.8%" y="-129.4%" filterUnits="objectBoundingBox"><feOffset dy="10" in="SourceAlpha" result="shadowOffsetOuter1"/><feGaussianBlur in="shadowOffsetOuter1" result="shadowBlurOuter1" stdDeviation="10.5"/><feColorMatrix in="shadowBlurOuter1" values="0 0 0 0 0.152941176 0 0 0 0 0.180392157 0 0 0 0 0.250980392 0 0 0 0.2 0"/></filter><filter id="h" width="235.5%" height="421.3%" x="-67.7%" y="-116.6%" filterUnits="objectBoundingBox"><feOffset dy="10" in="SourceAlpha" result="shadowOffsetOuter1"/><feGaussianBlur in="shadowOffsetOuter1" result="shadowBlurOuter1" stdDeviation="10.5"/><feColorMatrix in="shadowBlurOuter1" values="0 0 0 0 0.152941176 0 0 0 0 0.180392157 0 0 0 0 0.250980392 0 0 0 0.2 0"/></filter><filter id="k" width="314.4%" height="421.3%" x="-107.2%" y="-116.6%" filterUnits="objectBoundingBox"><feOffset dy="10" in="SourceAlpha" result="shadowOffsetOuter1"/><feGaussianBlur in="shadowOffsetOuter1" result="shadowBlurOuter1" stdDeviation="10.5"/><feColorMatrix in="shadowBlurOuter1" values="0 0 0 0 0.152941176 0 0 0 0 0.180392157 0 0 0 0 0.250980392 0 0 0 0.2 0"/></filter><filter id="m" width="103.8%" height="104.8%" x="-1.9%" y="-2.4%" filterUnits="objectBoundingBox"><feGaussianBlur in="SourceAlpha" result="shadowBlurInner1" stdDeviation="4.5"/><feOffset in="shadowBlurInner1" result="shadowOffsetInner1"/><feComposite in="shadowOffsetInner1" in2="SourceAlpha" k2="-1" k3="1" operator="arithmetic" result="shadowInnerInner1"/><feColorMatrix in="shadowInnerInner1" values="0 0 0 0 0.866666667 0 0 0 0 0.866666667 0 0 0 0 0.866666667 0 0 0 0.2 0"/></filter><filter id="o" width="142.1%" height="271.1%" x="-21%" y="-62.1%" filterUnits="objectBoundingBox"><feOffset dy="10" in="SourceAlpha" result="shadowOffsetOuter1"/><feGaussianBlur in="shadowOffsetOuter1" result="shadowBlurOuter1" stdDeviation="10.5"/><feColorMatrix in="shadowBlurOuter1" values="0 0 0 0 0.152941176 0 0 0 0 0.180392157 0 0 0 0 0.250980392 0 0 0 0.2 0"/></filter><filter id="r" width="254.4%" height="271.1%" x="-77.2%" y="-62.1%" filterUnits="objectBoundingBox"><feOffset dy="10" in="SourceAlpha" result="shadowOffsetOuter1"/><feGaussianBlur in="shadowOffsetOuter1" result="shadowBlurOuter1" stdDeviation="10.5"/><feColorMatrix in="shadowBlurOuter1" values="0 0 0 0 0.152941176 0 0 0 0 0.180392157 0 0 0 0 0.250980392 0 0 0 0.2 0"/></filter><filter id="u" width="145.5%" height="271.1%" x="-22.8%" y="-62.1%" filterUnits="objectBoundingBox"><feOffset dy="10" in="SourceAlpha" result="shadowOffsetOuter1"/><feGaussianBlur in="shadowOffsetOuter1" result="shadowBlurOuter1" stdDeviation="10.5"/><feColorMatrix in="shadowBlurOuter1" values="0 0 0 0 0.152941176 0 0 0 0 0.180392157 0 0 0 0 0.250980392 0 0 0 0.2 0"/></filter><filter id="x" width="235.5%" height="421.3%" x="-67.7%" y="-116.6%" filterUnits="objectBoundingBox"><feOffset dy="10" in="SourceAlpha" result="shadowOffsetOuter1"/><feGaussianBlur in="shadowOffsetOuter1" result="shadowBlurOuter1" stdDeviation="10.5"/><feColorMatrix in="shadowBlurOuter1" values="0 0 0 0 0.152941176 0 0 0 0 0.180392157 0 0 0 0 0.250980392 0 0 0 0.2 0"/></filter><filter id="z" width="284.6%" height="456.6%" x="-92.3%" y="-129.4%" filterUnits="objectBoundingBox"><feOffset dy="10" in="SourceAlpha" result="shadowOffsetOuter1"/><feGaussianBlur in="shadowOffsetOuter1" result="shadowBlurOuter1" stdDeviation="10.5"/><feColorMatrix in="shadowBlurOuter1" values="0 0 0 0 0.152941 0 0 0 0 0.180392 0 0 0 0 0.25098 0 0 0 0.2 0"/></filter><filter id="B" width="246.5%" height="295.4%" x="-73.3%" y="-63.5%" filterUnits="objectBoundingBox"><feOffset dy="7" in="SourceAlpha" result="shadowOffsetOuter1"/><feGaussianBlur in="shadowOffsetOuter1" result="shadowBlurOuter1" stdDeviation="5.5"/><feColorMatrix in="shadowBlurOuter1" values="0 0 0 0 0.152941176 0 0 0 0 0.180392157 0 0 0 0 0.250980392 0 0 0 0.2 0"/></filter><filter id="D" width="246.5%" height="295.4%" x="-73.3%" y="-63.5%" filterUnits="objectBoundingBox"><feOffset dy="7" in="SourceAlpha" result="shadowOffsetOuter1"/><feGaussianBlur in="shadowOffsetOuter1" result="shadowBlurOuter1" stdDeviation="5.5"/><feColorMatrix in="shadowBlurOuter1" values="0 0 0 0 0.152941176 0 0 0 0 0.180392157 0 0 0 0 0.250980392 0 0 0 0.2 0"/></filter><filter id="F" width="380.2%" height="380.2%" x="-140.1%" y="-91.1%" filterUnits="objectBoundingBox"><feOffset dy="7" in="SourceAlpha" result="shadowOffsetOuter1"/><feGaussianBlur in="shadowOffsetOuter1" result="shadowBlurOuter1" stdDeviation="5.5"/><feColorMatrix in="shadowBlurOuter1" values="0 0 0 0 0.152941 0 0 0 0 0.180392 0 0 0 0 0.25098 0 0 0 0.2 0"/></filter><filter id="H" width="231.8%" height="295.4%" x="-65.9%" y="-63.5%" filterUnits="objectBoundingBox"><feOffset dy="7" in="SourceAlpha" result="shadowOffsetOuter1"/><feGaussianBlur in="shadowOffsetOuter1" result="shadowBlurOuter1" stdDeviation="5.5"/><feColorMatrix in="shadowBlurOuter1" values="0 0 0 0 0.152941176 0 0 0 0 0.180392157 0 0 0 0 0.250980392 0 0 0 0.2 0"/></filter><filter id="J" width="117%" height="217.7%" x="-8.5%" y="-40%" filterUnits="objectBoundingBox"><feOffset dy="8" in="SourceAlpha" result="shadowOffsetOuter1"/><feGaussianBlur in="shadowOffsetOuter1" result="shadowBlurOuter1" stdDeviation="7"/><feColorMatrix in="shadowBlurOuter1" values="0 0 0 0 0.152941176 0 0 0 0 0.180392157 0 0 0 0 0.250980392 0 0 0 0.2 0"/></filter><filter id="L" width="336.6%" height="336.6%" x="-118.3%" y="-70%" filterUnits="objectBoundingBox"><feOffset dy="10" in="SourceAlpha" result="shadowOffsetOuter1"/><feGaussianBlur in="shadowOffsetOuter1" result="shadowBlurOuter1" stdDeviation="6.5"/><feColorMatrix in="shadowBlurOuter1" values="0 0 0 0 0.152941 0 0 0 0 0.180392 0 0 0 0 0.25098 0 0 0 0.2 0"/></filter><path id="j" d="M73.156 174.771c0-4.327 3.515-7.835 7.832-7.835H99.37c4.326 0 7.832 3.513 7.832 7.835v7.05c0 4.328-3.515 7.836-7.832 7.836H80.988c-4.325 0-7.832-3.513-7.832-7.835v-7.05z"/><path id="n" d="M110.694 51.337a7.843 7.843 0 017.85-7.848H276.37a7.846 7.846 0 017.85 7.848v26.958a7.843 7.843 0 01-7.85 7.848H118.544a7.846 7.846 0 01-7.85-7.848V51.337z"/><path id="q" d="M227 95.848c0-4.334 3.516-7.848 7.835-7.848h31.619c4.327 0 7.835 3.509 7.835 7.848v26.957c0 4.335-3.516 7.849-7.835 7.849h-31.619c-4.327 0-7.835-3.51-7.835-7.849V95.848z"/><path id="t" d="M18.44 99.661c0-4.334 3.517-7.848 7.843-7.848h144.69a7.843 7.843 0 017.844 7.848v26.957c0 4.335-3.518 7.849-7.844 7.849H26.283a7.843 7.843 0 01-7.844-7.849V99.661z"/><path id="y" d="M23.93 15.089c0-4.331 3.51-7.842 7.836-7.842h23.867c4.327 0 7.835 3.52 7.835 7.842v4.789c0 4.331-3.508 7.842-7.835 7.842H31.766c-4.328 0-7.835-3.52-7.835-7.842v-4.789z"/><path id="I" d="M0 7.843C0 3.51 3.509 0 7.83 0h278.526c4.325 0 7.831 3.513 7.831 7.843v26.803c0 4.332-3.509 7.843-7.83 7.843H7.83c-4.324 0-7.83-3.513-7.83-7.843V7.843z"/><linearGradient id="c" x1="5.709%" x2="98.47%" y1="-3.224%" y2="108.103%"><stop offset="0%" stop-color="#F0F0F0"/><stop offset="100%" stop-color="#F2EDFD"/></linearGradient><linearGradient id="g" x1="0%" y1="50.706%" y2="50.706%"><stop offset="0%" stop-color="#FB542B"/><stop offset="100%" stop-color="#E3380E"/></linearGradient><linearGradient id="p" x1="-1.869%" x2="181.13%" y1="-18.786%" y2="141.149%"><stop offset="0%" stop-color="#392DD1"/><stop offset="100%" stop-color="#FF4343"/></linearGradient><linearGradient id="s" x1="35.192%" x2="146.327%" y1="0%" y2="222.965%"><stop offset="0%" stop-color="#392DD1"/><stop offset="100%" stop-color="#FF4343"/></linearGradient><linearGradient id="v" x1="-9.435%" x2="113.092%" y1="25.65%" y2="75.297%"><stop offset="0%" stop-color="#FB542B"/><stop offset="100%" stop-color="#E3380E"/></linearGradient><rect id="e" width="45.734" height="20.474" x="-18" y="45.029" rx="7.841"/><rect id="A" width="27.298" height="20.474" x="114" y="127" rx="7.841"/><rect id="C" width="27.298" height="20.474" x="214" rx="7.841"/><rect id="G" width="30.358" height="20.474" x="155" y="30" rx="7.841"/><rect id="K" width="20.709" height="20.709" x="193.064" y="97.156" rx="7.841"/><use xlink:href="#a" id="l"/><use xlink:href="#b" id="w"/><circle id="E" cx="55.446" cy="158.197" r="7.139"/></defs><g fill="none" fill-rule="evenodd"><g transform="translate(31.769)"><mask id="d" fill="#fff"><use xlink:href="#a"/></mask><use xlink:href="#a" fill="url(#c)" fill-rule="nonzero"/><g mask="url(#d)"><use xlink:href="#e" fill="#000" filter="url(#f)"/><use xlink:href="#e" fill="url(#g)"/></g><g mask="url(#d)"><g transform="translate(184.08 148.266)"><use xlink:href="#b" fill="#000" filter="url(#h)"/><use xlink:href="#b" fill="#FFF"/><use xlink:href="#i" fill-rule="nonzero"/></g></g><g mask="url(#d)"><use xlink:href="#j" fill="#000" filter="url(#k)"/><use xlink:href="#j" fill="#FFF"/></g><use xlink:href="#l" fill="#000" fill-rule="nonzero" filter="url(#m)"/></g><g transform="translate(14 4.834)"><use xlink:href="#n" fill="#000" filter="url(#o)"/><use xlink:href="#n" fill="url(#p)"/><use xlink:href="#q" fill="#000" filter="url(#r)"/><use xlink:href="#q" fill="url(#s)"/><use xlink:href="#t" fill="#000" filter="url(#u)"/><use xlink:href="#t" fill="url(#v)"/><g transform="translate(54.897 20.364)"><use xlink:href="#w" fill="#000" filter="url(#x)"/><use xlink:href="#w" fill="#FFF"/><use xlink:href="#i" fill-rule="nonzero"/></g><use xlink:href="#y" fill="#000" filter="url(#z)"/><use xlink:href="#y" fill="url(#s)"/><use xlink:href="#A" fill="#000" filter="url(#B)"/><use xlink:href="#A" fill="url(#s)"/><use xlink:href="#C" fill="#000" filter="url(#D)"/><use xlink:href="#C" fill="url(#s)"/><g fill-rule="nonzero"><use xlink:href="#E" fill="#000" filter="url(#F)"/><use xlink:href="#E" fill="#FFF"/></g><use xlink:href="#G" fill="#000" filter="url(#H)"/><use xlink:href="#G" fill="url(#g)"/><g transform="translate(0 68)"><use xlink:href="#I" fill="#000" filter="url(#J)"/><use xlink:href="#I" fill="#FFF"/><path fill="url(#s)" d="M17.08 18.922a5.71 5.71 0 015.703-5.705 5.71 5.71 0 015.704 5.705 5.71 5.71 0 01-5.704 5.702 5.71 5.71 0 01-5.703-5.702m17.686 10.83l-6.259-6.26a7.29 7.29 0 001.61-4.57c0-4.044-3.29-7.334-7.334-7.334-4.042 0-7.332 3.29-7.332 7.334 0 4.043 3.29 7.332 7.332 7.332a7.29 7.29 0 004.572-1.61l6.26 6.26a.813.813 0 001.151 0 .814.814 0 000-1.152"/><path stroke="#C9C9C9" stroke-linecap="round" stroke-linejoin="round" stroke-width="1.931" d="M49.42 8v25.87"/></g><use xlink:href="#K" fill="#000" filter="url(#L)"/><use xlink:href="#K" fill="url(#g)"/></g></g></svg>