<svg width="325" height="240" viewBox="0 0 325 240" fill="none" xmlns="http://www.w3.org/2000/svg">
<path d="M219.734 200.181C188.366 191.164 145.965 195.804 130.117 200.181C106.344 206.748 87.2175 199.187 68.1347 173.132C49.052 147.077 23.3957 129.985 46.7802 82.4828C70.1647 34.9801 141.292 54.5676 184.588 49.9903C227.884 45.413 280.017 51.1175 267.64 92.9199C255.263 134.722 276.663 145.532 267.095 175.759C260.716 195.91 244.929 204.051 219.734 200.181Z" fill="url(#paint0_linear_1790_1249)"/>
<g filter="url(#filter0_i_1790_1249)">
<path d="M219.734 200.181C188.366 191.164 145.965 195.804 130.117 200.181C106.344 206.748 87.2175 199.187 68.1347 173.132C49.052 147.077 23.3957 129.985 46.7802 82.4828C70.1647 34.9801 141.292 54.5676 184.588 49.9903C227.884 45.413 280.017 51.1175 267.64 92.9199C255.263 134.722 276.663 145.532 267.095 175.759C260.716 195.91 244.929 204.051 219.734 200.181Z" fill="black" fill-opacity="0.01"/>
</g>
<mask id="mask0_1790_1249" style="mask-type:alpha" maskUnits="userSpaceOnUse" x="37" y="48" width="233" height="155">
<path d="M219.734 200.181C188.366 191.164 145.965 195.804 130.117 200.181C106.344 206.748 87.2175 199.187 68.1347 173.132C49.052 147.077 23.3957 129.985 46.7802 82.4828C70.1647 34.9801 141.292 54.5676 184.588 49.9903C227.884 45.413 280.017 51.1175 267.64 92.9199C255.263 134.722 276.663 145.532 267.095 175.759C260.716 195.91 244.929 204.051 219.734 200.181Z" fill="white"/>
</mask>
<g mask="url(#mask0_1790_1249)">
</g>
<path d="M254.95 121.303C254.679 119.879 254.304 118.476 253.827 117.107C252.944 114.513 251.727 112.045 250.206 109.766L217.103 59.9868C214.535 56.1291 210.815 53.1801 206.473 51.5596C202.131 49.9391 197.388 49.7297 192.92 50.9612L176.495 55.4542L165.196 58.5596L164.681 58.6984L156.976 60.7995L155.047 61.3347L136.282 66.4884L125.334 69.4617L86.1459 80.2713C81.3098 81.6008 77.0657 84.5272 74.1039 88.5748C71.142 92.6223 69.6366 97.5528 69.8324 102.564L69.9447 105.353L70.1627 111.035L70.9358 130.646V130.989L71.9599 157.207L72.211 163.563L72.6603 175.08C72.7907 177.185 73.3743 179.237 74.3711 181.096C75.368 182.954 76.7547 184.576 78.4362 185.849C80.1177 187.122 82.0544 188.016 84.1138 188.472C86.1731 188.927 88.3065 188.932 90.368 188.486L98.0853 186.815L123.656 181.284L145.103 176.659L158.615 173.739L166.088 172.12L177.38 169.675L181.78 168.724L182.732 168.519L188.064 167.356L195.676 165.711L197.658 165.275L201.047 164.541L202.851 164.151L231.091 158.04C239.026 156.153 245.928 151.278 250.359 144.43C254.79 137.582 256.409 129.288 254.877 121.276L254.95 121.303ZM116.619 110.777L116.143 111.749L113.824 116.678L113.599 116.889L115.852 111.887L116.355 110.764C116.355 110.718 116.784 108.894 117.432 105.921C118 103.278 118.753 99.8224 119.625 95.8646C120.656 95.6664 122.103 95.6202 123.233 95.488L116.348 110.771L116.619 110.777Z" fill="#EBEAF7"/>
<path d="M89.6484 192.213C89.1565 192.212 88.6775 192.055 88.2811 191.764C87.8847 191.472 87.5916 191.062 87.4442 190.593C87.2969 190.124 87.303 189.62 87.4617 189.154C87.6205 188.688 87.9236 188.285 88.327 188.004C103.775 177.254 121.291 165.07 141.404 161.257C157.05 158.284 172.822 160.537 188.065 162.711L243.738 170.64C244.345 170.727 244.893 171.053 245.26 171.544C245.628 172.035 245.785 172.652 245.697 173.26C245.609 173.867 245.284 174.414 244.793 174.782C244.302 175.149 243.684 175.306 243.077 175.219L187.404 167.29C172.531 165.169 157.156 162.975 142.263 165.797C123.101 169.431 106.035 181.311 90.9633 191.797C90.5789 192.069 90.1193 192.214 89.6484 192.213V192.213ZM62.076 174.518C61.6015 174.51 61.1406 174.358 60.7546 174.082C60.2588 173.725 59.9254 173.185 59.8275 172.581C59.7296 171.978 59.8753 171.361 60.2326 170.865V170.865C71.399 155.384 86.9923 143.048 105.334 135.185C123.676 127.322 143.359 124.514 162.27 127.091C176.211 128.981 189.664 133.612 202.68 138.086C206.195 139.295 209.829 140.543 213.404 141.72C228.667 146.721 246.645 151.505 264.214 149.047C264.821 148.959 265.438 149.117 265.93 149.484C266.421 149.851 266.746 150.399 266.834 151.006C266.922 151.613 266.764 152.231 266.397 152.722C266.03 153.213 265.482 153.538 264.875 153.626C246.374 156.216 227.748 151.28 211.983 146.113C208.376 144.931 204.715 143.675 201.193 142.46C188.395 138.059 175.154 133.507 161.668 131.67C124.892 126.668 85.6179 143.464 63.9525 173.56C63.738 173.857 63.456 174.099 63.1297 174.265C62.8035 174.432 62.4423 174.519 62.076 174.518V174.518ZM40.3643 142.856C39.7493 142.856 39.1594 142.612 38.7244 142.177C38.2895 141.742 38.0452 141.152 38.0452 140.537C38.0456 140.111 38.1621 139.693 38.3821 139.328C48.9539 122.149 66.6219 105.63 85.6642 95.1511C107.601 83.0927 130.594 79.6437 150.317 85.4581C163.624 89.3763 175.161 97.3513 186.32 105.095C189.128 107.044 192.042 109.06 194.91 110.962C219.826 127.481 239.562 136.354 266.705 133.005C267.007 132.947 267.318 132.95 267.619 133.014C267.92 133.078 268.205 133.201 268.458 133.377C268.711 133.552 268.926 133.776 269.091 134.036C269.256 134.296 269.367 134.586 269.419 134.889C269.47 135.193 269.461 135.503 269.391 135.803C269.32 136.103 269.191 136.385 269.011 136.634C268.83 136.883 268.601 137.094 268.338 137.253C268.075 137.413 267.783 137.518 267.478 137.564H267.273C238.71 141.098 218.174 131.888 192.359 114.795C189.439 112.859 186.512 110.83 183.677 108.848C172.835 101.375 161.602 93.605 149.048 89.8983C130.753 84.5133 108.479 87.9161 87.9305 99.208C69.5621 109.311 52.5284 125.214 42.3399 141.753C42.1328 142.09 41.8423 142.369 41.4963 142.562C41.1504 142.756 40.7606 142.857 40.3643 142.856V142.856ZM250.9 121.779C225.859 121.779 211.547 108.339 202.865 98.0583C201.2 96.0761 199.561 94.0477 197.916 92.1117C190.734 83.3372 183.307 74.2719 173.879 68.1403C158.305 57.965 136.541 55.7714 114.254 62.0682C91.6967 68.4707 72.8724 77.8994 58.3165 90.1163C57.8451 90.4959 57.2438 90.6756 56.6415 90.6169C56.0392 90.5581 55.4839 90.2656 55.0948 89.8022C54.7057 89.3387 54.5138 88.7412 54.5602 88.1378C54.6066 87.5344 54.8877 86.9733 55.3432 86.5748C70.4211 73.935 89.8004 64.1759 112.992 57.6413C136.567 50.9745 159.673 53.3795 176.422 64.2486C186.459 70.77 194.117 80.1062 201.53 89.1582C203.129 91.1404 204.788 93.1226 206.433 95.1048C214.804 105.016 228.805 118.092 253.57 117.127C254.183 117.103 254.781 117.323 255.232 117.739C255.683 118.155 255.95 118.734 255.975 119.347C255.999 119.96 255.779 120.558 255.363 121.009C254.946 121.461 254.368 121.728 253.755 121.752V121.752C252.783 121.759 251.825 121.779 250.9 121.779Z" fill="url(#paint1_linear_1790_1249)"/>
<path d="M173.112 96.552C172.782 94.3566 172.114 92.2256 171.13 90.2354C170.219 88.3381 168.949 86.6351 167.39 85.2204C166.023 83.9649 164.373 83.0582 162.58 82.5775C160.973 82.1415 159.278 82.1415 157.671 82.5775C156.016 83.036 154.495 83.8806 153.231 85.042C151.788 86.3792 150.619 87.9836 149.788 89.7663L139.137 112.172C138.259 114.037 137.688 116.032 137.446 118.079C137.2 120.164 137.236 122.273 137.551 124.349C137.862 126.403 138.456 128.404 139.316 130.296C140.149 132.124 141.283 133.799 142.672 135.251C143.909 136.532 145.408 137.53 147.066 138.178C148.539 138.74 150.132 138.911 151.691 138.674C153.288 138.409 154.79 137.738 156.052 136.725C157.519 135.536 158.712 134.044 159.547 132.351L171.189 109.694C172.204 107.7 172.875 105.549 173.172 103.331C173.489 101.081 173.469 98.7962 173.112 96.552V96.552Z" fill="url(#paint2_linear_1790_1249)"/>
<path d="M144.423 83.9981L155.054 61.335L155.477 60.4297L156.693 57.8331L153.012 56.69C152.871 56.638 152.725 56.5982 152.576 56.5711L152.14 56.4852L151.711 56.4257H151.275L140.994 56.1284L135.047 55.9566H135.172C134.732 55.9236 134.289 55.9369 133.851 55.9962C132.936 56.1233 132.059 56.4407 131.274 56.9279C130.417 57.4572 129.655 58.1274 129.021 58.9101C128.962 58.9827 128.895 59.062 128.843 59.1413C128.215 59.9541 127.691 60.8419 127.283 61.7843C127.184 62.0089 127.092 62.2402 126.999 62.445C126.907 62.6498 126.827 62.9273 126.748 63.1718C126.669 63.4163 126.596 63.6739 126.523 63.925C126.451 64.1761 126.391 64.447 126.338 64.7113C126.015 66.2046 125.678 67.7903 125.314 69.4488C124.654 72.4815 123.947 75.7588 123.226 79.0822C122.942 80.4037 122.652 81.7252 122.361 83.0863C122.004 84.7249 121.654 86.39 121.304 87.9625C120.848 90.0768 120.398 92.1449 119.982 94.1205C119.857 94.702 119.731 95.2768 119.612 95.845L117.419 105.901C116.758 108.875 116.361 110.698 116.342 110.745L123.22 95.4684C123.442 95.4574 123.663 95.4286 123.881 95.3825L116.612 110.725L132.516 109.403L142.441 88.2929L144.423 83.9981Z" fill="url(#paint3_linear_1790_1249)"/>
<path d="M204.371 134.63C204.483 134.386 204.589 134.135 204.695 133.884L203.638 136.705C203.833 136.191 203.996 135.666 204.127 135.133L204.371 134.63Z" fill="#A78AFE"/>
<path d="M205.706 129.404V129.866C205.693 129.712 205.693 129.558 205.706 129.404Z" fill="#A78AFE"/>
<path d="M106.887 130.025C106.86 130.575 106.86 131.124 106.887 131.67L106.748 128.314V128.201C106.757 128.809 106.803 129.417 106.887 130.025Z" fill="#A78AFE"/>
<path d="M204.695 133.884L203.638 136.705C203.833 136.191 203.996 135.666 204.127 135.133L204.365 134.644C204.483 134.386 204.589 134.135 204.695 133.884Z" fill="#D9CDFE"/>
<path d="M205.706 129.404V129.866C205.693 129.712 205.693 129.558 205.706 129.404Z" fill="#D9CDFE"/>
<path d="M106.867 131.67L106.728 128.314V128.201C106.754 128.809 106.807 129.417 106.887 130.025C106.856 130.575 106.849 131.124 106.867 131.67Z" fill="#D9CDFE"/>
<path d="M211.712 59.0092C211.48 58.1869 211.079 57.4219 210.536 56.7628C209.881 55.9313 209.132 55.1795 208.302 54.5229C206.392 53.0003 204.226 51.8281 201.906 51.0606L205.963 43.3433C208.297 44.1204 210.477 45.2988 212.406 46.8253C213.244 47.4808 214.004 48.2301 214.672 49.0586C215.219 49.7111 215.626 50.469 215.868 51.2853L211.712 59.0092Z" fill="#D9CDFE"/>
<path d="M211.732 60.3773C211.764 60.2766 211.784 60.1723 211.791 60.0668C211.804 59.9571 211.804 59.8461 211.791 59.7364C211.798 59.6176 211.798 59.4985 211.791 59.3796C211.782 59.2538 211.758 59.1295 211.719 59.0096L215.868 51.2856C215.901 51.4112 215.927 51.5367 215.947 51.6557C215.96 51.772 215.96 51.8895 215.947 52.0058C215.96 52.1134 215.96 52.2221 215.947 52.3296C215.939 52.4324 215.922 52.5341 215.894 52.6335L211.732 60.3773Z" fill="#D9CDFE"/>
<path d="M201.906 51.0603C201.063 50.7809 200.196 50.5775 199.316 50.4524C198.601 50.3434 197.876 50.3234 197.156 50.3929C196.588 50.4394 196.034 50.5941 195.524 50.8488C195.109 51.0589 194.766 51.3879 194.539 51.7937L198.603 43.9904C198.814 43.5767 199.152 43.2411 199.567 43.0324C200.078 42.789 200.629 42.6433 201.193 42.6029C201.916 42.5366 202.644 42.5632 203.36 42.6822C204.244 42.8251 205.112 43.0462 205.957 43.3429L201.906 51.0603Z" fill="#D9CDFE"/>
<path d="M211.269 50.6251L207.133 58.3887C207.133 58.3293 207.186 58.2698 207.206 58.2103C207.226 58.1509 207.206 58.0782 207.239 58.0121C207.245 57.9396 207.245 57.8666 207.239 57.7941C207.232 57.7177 207.216 57.6423 207.193 57.5694C207.088 57.1776 206.901 56.8127 206.644 56.499C206.333 56.099 205.974 55.7394 205.574 55.4286C205.131 55.065 204.653 54.7463 204.147 54.4772C203.625 54.187 203.076 53.948 202.508 53.7636C202.108 53.6317 201.696 53.5366 201.279 53.4795C200.937 53.4332 200.59 53.4332 200.248 53.4795C199.979 53.503 199.717 53.577 199.475 53.6975C199.282 53.798 199.122 53.9516 199.013 54.1402L203.103 46.3502C203.21 46.1621 203.371 46.0103 203.565 45.9141C203.805 45.7978 204.065 45.7282 204.332 45.7093C204.675 45.676 205.022 45.6893 205.362 45.7489C205.783 45.8073 206.197 45.9069 206.598 46.0462C207.716 46.3966 208.763 46.9425 209.69 47.6584C210.094 47.9673 210.456 48.3271 210.767 48.7288C211.03 49.039 211.224 49.4016 211.335 49.7926C211.355 49.8683 211.369 49.9457 211.375 50.0238V50.2419C211.375 50.3078 211.361 50.3729 211.335 50.4335C211.326 50.501 211.303 50.566 211.269 50.6251V50.6251Z" fill="white"/>
<path d="M198.946 54.9264L198.907 54.7018V54.497C198.918 54.3679 198.954 54.2423 199.012 54.127L203.102 46.3369C203.076 46.3926 203.054 46.45 203.036 46.5087L202.997 46.6937C202.99 46.764 202.99 46.8348 202.997 46.9051L203.036 47.1232L198.946 54.9264Z" fill="#D9CDFE"/>
<path d="M207.133 58.3879C207.024 58.5763 206.863 58.7298 206.67 58.8306C206.429 58.9468 206.17 59.0206 205.904 59.0486C205.564 59.0883 205.22 59.0883 204.88 59.0486C204.466 58.9862 204.057 58.8912 203.657 58.7645L207.8 50.9613C208.202 51.0877 208.613 51.1848 209.029 51.252C209.369 51.2915 209.713 51.2915 210.053 51.252C210.317 51.2306 210.575 51.1612 210.813 51.0472C211.008 50.957 211.168 50.8064 211.269 50.6177L207.133 58.3879Z" fill="#D9CDFE"/>
<path d="M203.657 58.7388C203.086 58.5464 202.532 58.3077 201.999 58.0252C201.501 57.7446 201.028 57.4218 200.585 57.0605C200.193 56.7364 199.834 56.3733 199.515 55.9769C199.265 55.6577 199.083 55.2914 198.979 54.8999L203.076 47.0967C203.187 47.4858 203.374 47.8494 203.624 48.1671C203.947 48.5631 204.31 48.9241 204.708 49.2441C205.164 49.607 205.65 49.9298 206.162 50.2087C206.697 50.4995 207.256 50.7427 207.833 50.9355L203.657 58.7388Z" fill="#D9CDFE"/>
<path d="M206.604 46.0059C207.723 46.3691 208.767 46.9284 209.69 47.6577C210.093 47.9666 210.455 48.3264 210.767 48.7281C211.03 49.0383 211.223 49.4009 211.335 49.7919C211.38 49.9333 211.396 50.0825 211.381 50.2303C211.367 50.378 211.322 50.5212 211.249 50.6508C211.095 50.8896 210.861 51.0654 210.589 51.1464C210.202 51.2536 209.799 51.2894 209.399 51.2521C208.875 51.2085 208.357 51.1111 207.853 50.9614C207.276 50.7685 206.716 50.5253 206.181 50.2346C205.67 49.9556 205.184 49.6329 204.728 49.2699C204.33 48.95 203.967 48.589 203.644 48.1929C203.393 47.8753 203.207 47.5116 203.096 47.1225C203.056 46.982 203.044 46.8349 203.061 46.6898C203.078 46.5446 203.124 46.4043 203.195 46.2768C203.364 46.0344 203.615 45.861 203.902 45.7878C204.291 45.6815 204.697 45.6501 205.098 45.6953C205.611 45.7381 206.116 45.8423 206.604 46.0059V46.0059Z" fill="#FF3902"/>
<path d="M205.957 43.3428C208.291 44.12 210.471 45.2983 212.399 46.8249C213.237 47.4803 213.998 48.2296 214.666 49.0581C215.212 49.7107 215.619 50.4685 215.861 51.2848C215.96 51.5801 215.997 51.8922 215.971 52.2024C215.945 52.5125 215.856 52.814 215.71 53.0886C215.38 53.6086 214.869 53.9877 214.276 54.1524C213.467 54.3843 212.622 54.4627 211.785 54.3837C210.661 54.2957 209.552 54.0739 208.481 53.7229C207.259 53.3211 206.076 52.8103 204.946 52.1966C203.877 51.6035 202.86 50.9205 201.907 50.155C201.066 49.4833 200.303 48.7186 199.634 47.8754C199.099 47.2153 198.71 46.4498 198.491 45.6289C198.409 45.333 198.388 45.0235 198.428 44.7192C198.469 44.4149 198.571 44.122 198.729 43.8582C199.095 43.3578 199.626 43.0022 200.229 42.8539C201.045 42.6376 201.894 42.5748 202.733 42.6689C203.83 42.769 204.912 42.9951 205.957 43.3428V43.3428ZM207.801 50.9611C208.312 51.126 208.839 51.2367 209.373 51.2914C209.773 51.3287 210.176 51.2929 210.562 51.1857C210.835 51.1048 211.069 50.929 211.223 50.6902C211.296 50.5605 211.341 50.4174 211.355 50.2696C211.37 50.1218 211.354 49.9726 211.309 49.8312C211.197 49.4403 211.004 49.0776 210.741 48.7674C210.44 48.3538 210.087 47.9807 209.69 47.6574C208.769 46.9234 207.724 46.3596 206.605 45.9923C206.101 45.8139 205.577 45.7007 205.045 45.6554C204.644 45.6102 204.239 45.6416 203.849 45.7479C203.563 45.821 203.312 45.9945 203.142 46.2368C203.071 46.3643 203.025 46.5047 203.008 46.6498C202.991 46.7949 203.003 46.942 203.043 47.0826C203.155 47.4717 203.341 47.8353 203.592 48.1529C203.914 48.549 204.277 48.91 204.675 49.2299C205.131 49.5929 205.617 49.9157 206.129 50.1946C206.664 50.4853 207.223 50.7285 207.801 50.9214" fill="white"/>
<path d="M215.736 53.0428L211.567 60.7932C211.342 61.1873 211.007 61.5067 210.602 61.7116C210.102 61.9626 209.56 62.1172 209.003 62.1675C208.292 62.238 207.576 62.2225 206.869 62.1212C205.997 61.996 205.137 61.797 204.299 61.5266C203.085 61.1331 201.911 60.6288 200.79 60.0201C199.714 59.4323 198.692 58.749 197.738 57.9784C196.904 57.304 196.151 56.537 195.491 55.6923C194.968 55.0236 194.588 54.2544 194.374 53.4326C194.343 53.28 194.321 53.1255 194.308 52.9701C194.308 52.8247 194.308 52.6794 194.308 52.5406C194.321 52.4083 194.348 52.2777 194.388 52.1508C194.426 52.0289 194.472 51.9097 194.526 51.794L198.603 43.9907C198.543 44.0993 198.497 44.2147 198.464 44.3343C198.43 44.4622 198.406 44.5925 198.392 44.7241C198.392 44.8607 198.392 44.9994 198.392 45.1404C198.406 45.2938 198.43 45.446 198.464 45.5963C198.683 46.4172 199.073 47.1827 199.607 47.8428C200.285 48.6874 201.056 49.4522 201.907 50.1223C202.871 50.8894 203.899 51.5725 204.979 52.164C206.109 52.7777 207.292 53.2885 208.514 53.6903C209.354 53.9666 210.216 54.1722 211.091 54.3048C211.797 54.4125 212.514 54.4347 213.225 54.3708C213.781 54.3329 214.324 54.187 214.824 53.9414C215.211 53.7395 215.528 53.4265 215.736 53.0428Z" fill="white"/>
<path d="M205.078 39.7293C207.111 40.4036 209.079 41.2594 210.959 42.2863C212.764 43.2634 214.48 44.3976 216.086 45.6758C217.524 46.79 218.828 48.0672 219.971 49.4817C220.923 50.6046 221.637 51.9081 222.073 53.3139C222.246 53.8226 222.317 54.3607 222.282 54.897C222.247 55.4334 222.106 55.9575 221.868 56.4392C221.324 57.3457 220.458 58.0135 219.443 58.3091C218.054 58.7254 216.598 58.8712 215.155 58.7385C213.201 58.5774 211.274 58.1848 209.413 57.569C207.29 56.8736 205.233 55.989 203.268 54.9261C201.39 53.8949 199.608 52.6987 197.943 51.3515C196.486 50.1873 195.172 48.8568 194.024 47.3871C193.112 46.2485 192.452 44.9287 192.088 43.5153C191.952 43.0041 191.923 42.4703 192.002 41.9472C192.082 41.4242 192.269 40.9233 192.551 40.4759C193.203 39.6134 194.139 39.0096 195.194 38.7712C196.605 38.415 198.07 38.321 199.515 38.4937C201.411 38.692 203.277 39.1066 205.078 39.7293V39.7293ZM208.475 53.6905C209.546 54.0415 210.655 54.2634 211.778 54.3513C212.616 54.4303 213.461 54.3519 214.269 54.12C214.863 53.9553 215.373 53.5762 215.703 53.0562C215.85 52.7816 215.938 52.4801 215.965 52.17C215.991 51.8599 215.953 51.5477 215.855 51.2524C215.613 50.4362 215.206 49.6783 214.659 49.0258C213.991 48.1973 213.231 47.4479 212.393 46.7925C210.464 45.2659 208.284 44.0876 205.951 43.3104C204.894 42.9495 203.798 42.7122 202.687 42.6034C201.848 42.5094 200.999 42.5721 200.182 42.7884C199.58 42.9368 199.049 43.2923 198.683 43.7928C198.525 44.0565 198.423 44.3494 198.382 44.6538C198.341 44.9581 198.363 45.2676 198.445 45.5635C198.663 46.3844 199.053 47.1499 199.588 47.81C200.257 48.6532 201.019 49.4179 201.861 50.0895C202.825 50.8566 203.853 51.5397 204.933 52.1312C206.063 52.7449 207.246 53.2557 208.468 53.6575" fill="url(#paint4_linear_1790_1249)"/>
<path d="M221.867 56.4457L218.94 61.9694C218.553 62.6334 217.982 63.1705 217.295 63.5156C216.441 63.9459 215.513 64.2105 214.56 64.2952C213.339 64.4164 212.108 64.392 210.893 64.2225C209.397 64.0144 207.922 63.6761 206.486 63.2116C204.37 62.5241 202.324 61.6392 200.374 60.5687C198.508 59.5512 196.739 58.3658 195.088 57.0272C193.643 55.8657 192.343 54.5346 191.216 53.0628C190.325 51.9154 189.69 50.5907 189.353 49.1776C189.307 48.9218 189.274 48.6638 189.254 48.4046C189.234 48.1671 189.234 47.9284 189.254 47.691C189.277 47.4672 189.322 47.246 189.386 47.0303C189.443 46.824 189.523 46.6246 189.624 46.4356L192.352 40.8062C192.258 40.9925 192.18 41.1872 192.121 41.3876C192.062 41.6042 192.02 41.8252 191.996 42.0483C191.976 42.2814 191.976 42.5157 191.996 42.7487C192.014 43.0062 192.05 43.2622 192.101 43.5152C192.447 44.9237 193.086 46.2432 193.978 47.3871C195.125 48.8567 196.44 50.1872 197.896 51.3515C199.564 52.6979 201.349 53.8941 203.228 54.926C205.193 55.9889 207.25 56.8735 209.373 57.569C210.817 58.0381 212.298 58.3872 213.8 58.6129C215.014 58.7921 216.244 58.8298 217.467 58.7252C218.415 58.6533 219.341 58.4022 220.196 57.9852C220.894 57.6498 221.476 57.1138 221.867 56.4457V56.4457Z" fill="#FF3401"/>
<path d="M205.646 126.595V126.331C205.63 126.418 205.63 126.508 205.646 126.595V126.595Z" fill="#D9CDFE"/>
<path d="M218.583 95.8912C218.294 94.0244 217.698 92.2182 216.819 90.5459C215.973 88.9231 214.82 87.4802 213.423 86.2973L171.718 51.4965C171.339 51.18 170.937 50.8929 170.515 50.6376C170.118 50.3978 169.703 50.1901 169.273 50.0165C168.862 49.8499 168.438 49.7194 168.004 49.6267C167.583 49.5347 167.154 49.4794 166.722 49.4615L150.468 48.7148H150.812C150.921 48.7211 151.029 48.7344 151.136 48.7545L151.565 48.8272H151.691L152.015 48.9065C152.16 48.9461 152.312 48.9924 152.457 49.0452L152.649 49.1113C152.954 49.2158 153.25 49.3439 153.534 49.4945C153.665 49.5522 153.791 49.6207 153.911 49.6993C154.139 49.8195 154.36 49.9541 154.572 50.1024C154.71 50.1949 154.843 50.2874 154.975 50.3931C155.107 50.4988 155.285 50.631 155.437 50.7631L197.605 86.859C199.035 88.0888 200.211 89.5858 201.067 91.2661C201.965 93.0088 202.574 94.8853 202.871 96.8228C203.182 98.7929 203.182 100.799 202.871 102.769C202.581 104.731 201.95 106.627 201.008 108.372L183.505 140.325L171.011 163.227L169.451 166.068L152.114 197.717C152.041 197.856 151.962 197.988 151.882 198.113C151.803 198.239 151.77 198.298 151.711 198.384C151.571 198.614 151.416 198.835 151.248 199.045C151.197 199.116 151.142 199.185 151.083 199.25C150.922 199.463 150.743 199.662 150.548 199.844C150.475 199.932 150.393 200.011 150.303 200.082C150.211 200.175 150.112 200.261 150.013 200.346C149.801 200.525 149.583 200.697 149.352 200.862L149.299 200.895L149.015 201.073L148.922 201.126L148.79 201.199L148.526 201.331C148.387 201.397 148.242 201.463 148.103 201.516L147.687 201.668L163.247 197.281C163.704 197.145 164.146 196.966 164.569 196.745C165.011 196.51 165.429 196.231 165.817 195.913C166.226 195.572 166.602 195.194 166.941 194.783C167.307 194.338 167.633 193.861 167.912 193.356L180.466 171.096L182.078 168.235L196.422 142.856L204.351 128.829L205.613 126.595V126.331C205.607 126.418 205.618 126.506 205.646 126.589L214.46 111.048L216.753 106.992C217.689 105.32 218.318 103.494 218.61 101.6C218.909 99.708 218.9 97.7802 218.583 95.8912V95.8912Z" fill="url(#paint5_linear_1790_1249)"/>
<path d="M205.726 129.086C205.732 129.192 205.732 129.298 205.726 129.403C205.731 129.558 205.72 129.713 205.693 129.866C205.693 130.223 205.607 130.586 205.541 130.943C205.508 131.154 205.468 131.372 205.422 131.604C205.375 131.835 205.296 132.126 205.223 132.383C205.151 132.641 205.078 132.886 204.999 133.137C204.92 133.388 204.814 133.652 204.715 133.91C204.616 134.167 204.503 134.412 204.391 134.656L204.153 135.145C204.353 134.372 204.488 133.583 204.556 132.786C204.675 131.477 204.622 130.157 204.398 128.862L205.66 126.628L205.699 127.018C205.699 127.177 205.699 127.342 205.739 127.501C205.778 127.659 205.739 127.732 205.739 127.851C205.761 128.262 205.756 128.675 205.726 129.086V129.086Z" fill="url(#paint6_linear_1790_1249)"/>
<path d="M203.083 99.0958C203.09 99.0675 203.09 99.0381 203.083 99.0099V98.435C203.09 98.3735 203.09 98.3115 203.083 98.25V98.0188C203.087 97.8676 203.072 97.7166 203.037 97.5695C202.991 97.4175 202.977 97.1202 202.944 96.9087C202.647 94.9712 202.038 93.0947 201.141 91.352C200.289 89.6681 199.118 88.1666 197.692 86.9317L164.655 58.6985L163.994 58.1171L155.471 50.849C155.319 50.7169 155.167 50.5913 155.008 50.479L154.605 50.1883L154.228 49.9438L153.951 49.7852H153.898C153.796 49.7177 153.688 49.6601 153.574 49.6135C153.29 49.4628 152.994 49.3347 152.689 49.2302L152.497 49.1642C152.352 49.1113 152.2 49.0651 152.055 49.0254L151.592 48.9197L151.156 48.847H151.031C150.951 48.8259 150.869 48.8148 150.786 48.814H150.442C149.472 48.7662 148.501 48.903 147.582 49.217C146.229 49.7004 145.003 50.4817 143.994 51.5032C143.225 52.2786 142.559 53.149 142.012 54.0932C141.719 54.5866 141.454 55.0961 141.219 55.6195L140.961 56.201L139.851 58.6589L136.283 66.5877L128.995 82.6765L126.835 87.4735L123.227 95.4816L116.349 110.778L115.847 111.901L113.593 116.903L107.112 131.287L105.387 135.119L102.48 141.581L102.235 142.116C101.621 143.525 101.229 145.021 101.073 146.55C100.748 149.752 101.232 152.985 102.48 155.952C103.079 157.369 103.893 158.686 104.892 159.857L109.47 165.083L114.32 170.627L114.743 171.109L117.875 174.69L123.663 181.298L138.523 198.305C139.519 199.466 140.728 200.425 142.084 201.133C143.242 201.728 144.529 202.025 145.831 201.998C146.453 201.98 147.069 201.873 147.661 201.681C147.8 201.635 147.938 201.589 148.077 201.529L148.5 201.344C148.639 201.278 148.771 201.212 148.896 201.139C149.022 201.067 149.187 200.968 149.326 200.875C149.465 200.783 149.775 200.538 149.987 200.36C150.086 200.274 150.185 200.188 150.277 200.095C150.561 199.841 150.822 199.562 151.057 199.263C151.116 199.198 151.171 199.13 151.222 199.058C151.39 198.848 151.545 198.627 151.685 198.397C151.744 198.311 151.804 198.219 151.856 198.126C151.909 198.034 152.015 197.869 152.088 197.73L166.102 172.146L169.406 166.081L169.947 165.09L170.965 163.24L172.372 160.676L183.473 140.411L185.243 137.18L187.51 133.038L196.099 117.299L198.326 113.229L200.969 108.458C201.911 106.713 202.542 104.817 202.832 102.855C202.98 101.887 203.053 100.908 203.05 99.9283V99.8556C203.092 99.6046 203.103 99.3494 203.083 99.0958V99.0958ZM160.017 131.472L159.561 132.357C158.725 134.049 157.533 135.539 156.065 136.725C154.808 137.752 153.305 138.435 151.704 138.707C150.146 138.944 148.552 138.773 147.079 138.211C145.408 137.556 143.901 136.541 142.666 135.238C142.355 134.921 142.064 134.577 141.787 134.253L141.622 134.055L141.463 133.85C141.338 133.692 141.212 133.527 141.093 133.355C140.974 133.183 140.769 132.892 140.617 132.654C140.525 132.516 140.432 132.37 140.346 132.225C140.261 132.08 140.168 131.934 140.089 131.782C140.01 131.63 139.884 131.412 139.785 131.227C139.62 130.917 139.461 130.6 139.316 130.282C139.17 129.965 139.104 129.82 139.005 129.582C138.906 129.344 138.814 129.106 138.721 128.868L138.549 128.379C138.463 128.135 138.378 127.884 138.305 127.633C138.232 127.382 138.14 127.098 138.074 126.827V126.714C137.869 125.928 137.704 125.129 137.578 124.329C137.261 122.253 137.228 120.144 137.479 118.059C137.716 116.011 138.285 114.016 139.164 112.152L149.683 90.1164L149.848 89.7728C149.934 89.5944 150.02 89.4226 150.112 89.2508C150.205 89.079 150.244 88.9932 150.317 88.8676C150.449 88.6298 150.588 88.3919 150.727 88.1672L150.819 88.0219C150.925 87.8435 151.044 87.6651 151.163 87.4933C151.282 87.3215 151.255 87.3545 151.301 87.2951C151.348 87.2356 151.467 87.0638 151.553 86.9581C151.638 86.8524 151.731 86.7136 151.83 86.5947C151.929 86.4758 152.114 86.2511 152.26 86.0859C152.405 85.9207 152.596 85.7225 152.768 85.5507L152.92 85.3988C153.039 85.2732 153.165 85.1609 153.29 85.0486C154.52 83.8778 156.01 83.0152 157.638 82.5312C159.246 82.1017 160.939 82.1017 162.547 82.5312C164.34 83.0126 165.99 83.9192 167.357 85.1741C168.912 86.5923 170.181 88.2945 171.097 90.1891C171.209 90.4203 171.322 90.6516 171.427 90.8895C171.427 90.9489 171.48 91.0018 171.5 91.0546L171.573 91.2264C171.573 91.2859 171.705 91.5304 171.764 91.6823C171.949 92.1382 172.115 92.6074 172.267 93.0831C172.319 93.2351 172.366 93.387 172.405 93.5456C172.409 93.5528 172.411 93.5607 172.411 93.5687C172.411 93.5767 172.409 93.5847 172.405 93.5919C172.459 93.7195 172.498 93.8524 172.524 93.9883C172.656 94.4706 172.769 94.9596 172.874 95.4551V95.5212C172.914 95.7392 172.96 95.9573 172.993 96.1819C173.004 96.2935 173.024 96.404 173.053 96.5123C173.285 97.9714 173.376 99.4495 173.324 100.926C173.332 101.187 173.316 101.448 173.277 101.706C173.284 101.752 173.284 101.798 173.277 101.844C173.277 102.066 173.257 102.287 173.218 102.505C173.207 102.769 173.176 103.032 173.125 103.291C173.046 103.853 172.947 104.401 172.822 104.95C172.762 105.227 172.696 105.498 172.623 105.769C172.485 106.311 172.319 106.846 172.134 107.368C172.042 107.632 171.943 107.89 171.837 108.148C171.731 108.405 171.685 108.518 171.599 108.703C171.513 108.888 171.493 108.954 171.434 109.079C171.375 109.205 171.249 109.463 171.15 109.654L162.263 127.071L160.017 131.472Z" fill="url(#paint7_linear_1790_1249)"/>
<path d="M115.846 111.921L113.593 116.923C111.608 118.707 109.957 120.83 108.717 123.193C107.644 125.321 107.021 127.647 106.887 130.025C106.807 129.418 106.754 128.81 106.728 128.202V126.596C106.721 126.432 106.735 126.268 106.768 126.107C106.807 125.942 106.807 125.665 106.84 125.447C106.873 125.229 106.88 125.149 106.906 124.997C106.933 124.845 106.946 124.733 106.972 124.601C106.999 124.469 107.032 124.277 107.072 124.119C107.111 123.96 107.144 123.788 107.184 123.63C107.223 123.471 107.309 123.141 107.382 122.896C107.455 122.652 107.468 122.605 107.514 122.46C107.633 122.083 107.772 121.713 107.917 121.343C107.99 121.158 108.069 120.973 108.149 120.795C108.28 120.475 108.428 120.162 108.591 119.857C108.67 119.692 108.756 119.533 108.842 119.381C108.928 119.229 108.974 119.13 109.047 119.004C109.12 118.879 109.285 118.595 109.411 118.397C109.536 118.198 109.781 117.822 109.979 117.538C110.078 117.392 110.184 117.24 110.296 117.095C110.481 116.837 110.679 116.58 110.891 116.328C110.929 116.273 110.971 116.22 111.016 116.17L111.419 115.694C111.631 115.443 111.855 115.199 112.08 114.954C112.205 114.815 112.338 114.683 112.476 114.544L112.708 114.313L113.368 113.653C113.606 113.441 113.851 113.223 114.095 112.992L114.24 112.873C114.498 112.655 114.762 112.45 115.033 112.212C115.054 112.188 115.079 112.168 115.106 112.153C115.342 112.045 115.591 111.967 115.846 111.921Z" fill="url(#paint8_linear_1790_1249)"/>
<path d="M219.178 151.023C217.479 152.98 215.549 154.724 213.43 156.216C211.064 157.875 208.53 159.281 205.871 160.412C202.886 161.688 199.79 162.686 196.621 163.391L195.412 166.504C198.542 165.786 201.601 164.784 204.55 163.51C207.182 162.378 209.685 160.967 212.016 159.302C214.12 157.808 216.035 156.064 217.718 154.108C219.274 152.308 220.583 150.308 221.61 148.162L223.05 145.069C222.032 147.218 220.729 149.22 219.178 151.023V151.023Z" fill="url(#paint9_linear_1790_1249)"/>
<path d="M200.585 174.518C200.236 174.779 199.838 174.97 199.416 175.08C199.199 175.133 198.978 175.166 198.755 175.179C198.513 175.199 198.27 175.199 198.028 175.179C197.772 175.146 197.518 175.098 197.268 175.033C196.998 174.953 196.733 174.856 196.476 174.743L168.064 161.938C167.679 161.764 167.317 161.542 166.987 161.277C166.695 161.027 166.441 160.735 166.234 160.411C166.051 160.112 165.921 159.784 165.851 159.44C165.785 159.115 165.785 158.78 165.851 158.456L165.104 161.647C165.038 161.972 165.038 162.307 165.104 162.631C165.169 162.973 165.297 163.3 165.481 163.596C165.683 163.918 165.93 164.209 166.214 164.462C166.539 164.726 166.897 164.948 167.278 165.122L195.214 177.822C195.464 177.936 195.722 178.031 195.987 178.106C196.234 178.173 196.485 178.222 196.74 178.251C197.201 178.289 197.665 178.253 198.114 178.145C198.342 178.094 198.563 178.018 198.775 177.921C198.963 177.824 199.142 177.711 199.31 177.584C199.624 177.334 199.873 177.012 200.037 176.646L201.358 173.573C201.283 173.759 201.181 173.933 201.054 174.089C200.914 174.248 200.757 174.392 200.585 174.518V174.518Z" fill="url(#paint10_linear_1790_1249)"/>
<path d="M159.891 169.299C159.659 170.35 159.428 171.407 159.23 172.464C159.147 172.858 158.999 173.235 158.794 173.581C158.592 173.944 158.333 174.272 158.027 174.552C157.713 174.852 157.36 175.108 156.977 175.312C156.561 175.536 156.116 175.703 155.655 175.808H155.147C154.301 175.933 153.448 176.039 152.596 176.131C150.918 176.323 149.233 176.455 147.528 176.521C146.335 176.583 145.139 176.609 143.94 176.6C140.123 176.626 136.31 176.372 132.53 175.841C129.859 175.431 127.213 174.879 124.601 174.189C123.563 173.925 122.533 173.634 121.515 173.317C117.968 172.22 114.511 170.85 111.175 169.22C107.619 167.489 104.238 165.421 101.079 163.042C98.237 160.908 95.6361 158.471 93.3217 155.774C91.2358 153.324 89.4604 150.625 88.0359 147.74C86.7335 145.076 85.8042 142.246 85.274 139.329L85.2145 139.018C85.2218 138.914 85.206 138.811 85.1683 138.714C85.1363 138.614 85.1207 138.509 85.122 138.403C85.1233 138.3 85.1077 138.198 85.0758 138.1L84.6265 134.796C84.6727 135.179 84.7388 135.562 84.8049 135.946C85.3513 138.842 86.2916 141.65 87.5998 144.291C89.0393 147.189 90.835 149.897 92.9451 152.352C95.2939 155.077 97.9326 157.538 100.814 159.692C104.024 162.096 107.453 164.191 111.056 165.949C114.449 167.593 117.963 168.974 121.568 170.079C121.846 170.165 122.123 170.251 122.401 170.324C125.81 171.333 129.285 172.108 132.801 172.643C136.614 173.224 140.466 173.527 144.324 173.548C145.995 173.548 147.627 173.548 149.312 173.416C150.997 173.284 152.735 173.158 154.426 172.947L155.748 172.775H156.263C156.428 172.735 156.587 172.696 156.739 172.643H156.858L157.301 172.471C157.413 172.425 157.512 172.372 157.618 172.319H157.637C157.825 172.227 158.004 172.118 158.173 171.995L158.437 171.79C158.519 171.733 158.594 171.667 158.662 171.592C158.866 171.415 159.048 171.213 159.203 170.991C159.29 170.887 159.366 170.774 159.428 170.654V170.654C159.501 170.527 159.567 170.397 159.626 170.264C159.686 170.125 159.739 169.987 159.785 169.841C159.844 169.491 159.871 169.398 159.891 169.299Z" fill="url(#paint11_linear_1790_1249)"/>
<path d="M225.442 135.476C225.338 138.861 224.523 142.186 223.05 145.235C222.925 145.493 222.799 145.744 222.667 145.995L222.621 146.081C222.535 146.253 222.436 146.431 222.337 146.603C222.237 146.775 222.165 146.907 222.072 147.059C221.98 147.211 221.821 147.488 221.689 147.72C221.678 147.744 221.663 147.767 221.643 147.786C221.517 147.99 221.392 148.189 221.253 148.38C221.035 148.711 220.81 149.041 220.592 149.358L220.546 149.418C220.407 149.616 220.262 149.801 220.11 149.992L220.07 150.039L220.037 150.078C219.865 150.303 219.687 150.521 219.495 150.739L219.462 150.785L219.416 150.838C219.33 150.944 219.238 151.056 219.139 151.162C219.04 151.268 218.947 151.38 218.855 151.486L218.471 151.902C218.339 152.047 218.2 152.186 218.062 152.331C217.824 152.583 217.573 152.82 217.322 153.065C217.071 153.309 216.859 153.508 216.621 153.726C216.383 153.944 216.331 153.99 216.179 154.115L215.65 154.565C215.452 154.737 215.254 154.902 215.049 155.06L214.791 155.265L214.659 155.364L214.527 155.463C214.414 155.556 214.309 155.635 214.196 155.714L213.681 156.091C213.311 156.355 212.941 156.613 212.558 156.864L212.498 156.904C212.287 157.049 212.069 157.188 211.838 157.32C211.606 157.452 211.243 157.697 210.932 157.875C210.622 158.053 210.318 158.238 210.001 158.41C209.393 158.754 208.765 159.084 208.118 159.401L208.025 159.448L207.054 159.903L206.836 160.009L206.023 160.366C205.673 160.518 205.316 160.663 204.953 160.809C204.688 160.921 204.424 161.02 204.153 161.119H204.107L203.757 161.251L203.585 161.317L202.739 161.621H202.653L201.596 161.972C201.213 162.097 200.823 162.223 200.427 162.335L199.237 162.679L198.768 162.804L198.028 162.996C197.619 163.101 197.209 163.2 196.793 163.293L198.187 165.731L201.167 170.944C201.416 171.344 201.57 171.797 201.616 172.266C201.653 172.673 201.585 173.082 201.418 173.455V173.455L201.378 173.528C201.353 173.588 201.322 173.645 201.286 173.7C201.24 173.777 201.189 173.852 201.134 173.924C201.072 173.995 201.006 174.067 200.935 174.142C200.863 174.215 200.783 174.281 200.704 174.347C200.537 174.475 200.358 174.585 200.169 174.677C199.97 174.771 199.762 174.844 199.548 174.895C199.331 174.948 199.11 174.983 198.887 175.001C198.645 175.021 198.402 175.021 198.16 175.001C197.904 174.972 197.65 174.923 197.401 174.856C197.131 174.777 196.866 174.682 196.608 174.572L182.085 168.242L180.103 167.357L170.971 163.24L168.328 162.051L167.998 161.899C167.546 161.698 167.131 161.423 166.769 161.086C166.47 160.805 166.222 160.474 166.036 160.108L165.996 160.036V159.983C165.996 159.983 165.956 159.897 165.943 159.857L165.903 159.732L165.844 159.527V159.487C165.849 159.417 165.838 159.347 165.811 159.282V158.886C165.804 158.807 165.804 158.727 165.811 158.648C165.811 158.582 165.811 158.516 165.844 158.456C165.899 158.225 165.986 158.003 166.102 157.796L176.977 139.236C177.065 139.082 177.174 138.942 177.301 138.819C177.426 138.695 177.566 138.586 177.717 138.496C177.873 138.398 178.039 138.318 178.213 138.258C178.389 138.194 178.57 138.145 178.755 138.112C179.17 138.046 179.594 138.046 180.01 138.112C180.448 138.152 180.878 138.256 181.285 138.423C181.453 138.487 181.616 138.562 181.774 138.648C182.01 138.76 182.232 138.9 182.435 139.064C182.775 139.324 183.061 139.65 183.274 140.022L183.538 140.478L186.921 146.424C189.424 145.937 191.863 145.163 194.189 144.119C194.976 143.755 195.729 143.372 196.442 142.956C197.024 142.625 197.579 142.275 198.108 141.905C200.637 140.214 202.704 137.918 204.12 135.225C203.989 135.759 203.826 136.284 203.631 136.798L204.688 133.976C204.788 133.719 204.88 133.468 204.973 133.203C205.065 132.939 205.131 132.701 205.197 132.45C205.263 132.199 205.336 131.935 205.395 131.67C205.455 131.406 205.481 131.247 205.514 131.01C205.58 130.653 205.633 130.289 205.666 129.933V129.47C205.673 129.364 205.673 129.259 205.666 129.153C205.693 128.733 205.693 128.311 205.666 127.891V127.541C205.671 127.379 205.658 127.217 205.627 127.058C205.607 126.927 205.607 126.793 205.627 126.662L214.461 111.049C215.686 112.279 216.838 113.581 217.91 114.947C219.53 116.981 220.947 119.17 222.138 121.482C223.268 123.669 224.135 125.982 224.722 128.373C225.288 130.696 225.531 133.087 225.442 135.476V135.476Z" fill="url(#paint12_linear_1790_1249)"/>
<path d="M159.97 168.717C159.952 169.013 159.901 169.305 159.818 169.589V169.589C159.772 169.735 159.719 169.874 159.659 170.012C159.6 170.145 159.534 170.276 159.461 170.402V170.402C159.399 170.522 159.323 170.635 159.236 170.739C159.081 170.961 158.899 171.163 158.695 171.34C158.627 171.415 158.552 171.481 158.47 171.539L158.206 171.743C158.037 171.867 157.858 171.975 157.67 172.067H157.637L157.32 172.219L156.878 172.391H156.759C156.607 172.444 156.448 172.483 156.283 172.523H155.768L154.446 172.695C152.755 172.906 151.05 173.058 149.332 173.164C147.614 173.27 146.028 173.303 144.343 173.296C140.486 173.275 136.634 172.973 132.82 172.391C132.318 172.318 131.816 172.232 131.314 172.146L130.184 171.942C129.305 171.783 128.433 171.598 127.541 171.406L126.22 171.102L125.367 170.898L125.195 170.851C124.753 170.739 124.303 170.62 123.874 170.495L122.381 170.072C122.103 169.999 121.826 169.913 121.548 169.827C120.59 169.53 119.639 169.219 118.694 168.889C118.112 168.684 117.538 168.473 116.963 168.228L116.586 168.083C116.011 167.865 115.443 167.634 114.875 167.422L113.342 166.761L112.562 166.411C112.047 166.18 111.538 165.936 111.036 165.691L110.071 165.354L109.483 165.05C108.697 164.641 107.924 164.224 107.171 163.795L106.47 163.385C105.935 163.075 105.413 162.724 104.898 162.434L104.845 162.401L103.907 161.799C103.378 161.449 102.856 161.099 102.347 160.742L101.647 160.24L100.814 159.692C97.9349 157.537 95.2985 155.076 92.9517 152.351C92.1852 151.446 91.4584 150.527 90.7911 149.589C90.6061 149.331 90.4211 149.074 90.2493 148.809L90.1369 148.651L90.0973 148.591C89.8859 148.281 89.6877 147.97 89.4894 147.653C89.2912 147.336 89.1194 147.058 88.941 146.761L88.8551 146.609C88.7098 146.371 88.571 146.127 88.4389 145.882C88.3662 145.757 88.3001 145.625 88.2274 145.492C88.0689 145.202 87.9169 144.904 87.7715 144.607C87.7121 144.501 87.6592 144.396 87.6063 144.29C86.2905 141.624 85.3499 138.789 84.8114 135.866L84.7123 135.291C84.6956 135.098 84.6692 134.906 84.633 134.716C84.633 134.524 84.5802 134.339 84.567 134.154C84.3159 131.994 84.3159 129.813 84.567 127.653C84.633 127.058 84.7189 126.47 84.8313 125.882C84.9436 125.294 85.0163 124.897 85.1418 124.408C85.3004 123.708 85.4986 123.021 85.7166 122.334C85.9347 121.647 86.2452 120.807 86.5558 120.054C86.9291 119.15 87.3526 118.268 87.8244 117.411L88.1481 116.823C88.538 116.163 88.9542 115.456 89.3969 114.788C89.7471 114.266 90.1105 113.751 90.4937 113.242C91.062 112.493 91.6566 111.764 92.2777 111.055C92.661 110.619 93.064 110.19 93.4737 109.734L93.6719 109.535C94.2071 108.98 94.7753 108.439 95.3633 107.903L96.0968 107.243C98.2435 105.395 100.555 103.747 103.001 102.32C103.286 102.155 103.57 101.99 103.86 101.831C106.097 100.568 108.42 99.464 110.811 98.5276C113.582 97.454 116.423 96.5732 119.315 95.8912L119.599 95.8384L117.405 105.895C116.745 108.868 116.348 110.692 116.328 110.738L115.826 111.861C115.595 111.939 115.373 112.043 115.166 112.172C115.138 112.187 115.114 112.208 115.093 112.231C114.822 112.436 114.558 112.641 114.3 112.859L114.155 112.978C113.91 113.183 113.666 113.401 113.428 113.639L112.767 114.299L112.536 114.531C112.463 114.61 112.265 114.801 112.139 114.94C111.907 115.175 111.686 115.422 111.479 115.68L111.076 116.156C111.031 116.206 110.989 116.259 110.95 116.315C110.739 116.566 110.54 116.823 110.355 117.081C110.243 117.226 110.137 117.378 110.038 117.524C109.84 117.808 109.648 118.092 109.47 118.383C109.292 118.673 109.226 118.786 109.107 118.99C108.988 119.195 108.968 119.242 108.902 119.367C108.836 119.493 108.73 119.678 108.651 119.843C108.492 120.153 108.347 120.464 108.208 120.781C108.129 120.959 108.049 121.144 107.977 121.329C107.831 121.699 107.693 122.069 107.574 122.446C107.527 122.591 107.481 122.737 107.442 122.882C107.402 123.028 107.303 123.371 107.243 123.616C107.184 123.86 107.164 123.939 107.131 124.105C107.098 124.27 107.058 124.422 107.032 124.587C107.005 124.752 106.986 124.851 106.966 124.983C106.946 125.115 106.92 125.281 106.9 125.433C106.88 125.585 106.847 125.875 106.827 126.093C106.826 126.257 106.813 126.421 106.787 126.582C106.761 127.111 106.761 127.646 106.787 128.188V128.267L106.926 131.624C106.9 131.073 106.9 130.525 106.926 129.978C106.986 130.401 107.058 130.831 107.151 131.26C107.243 131.69 107.309 131.921 107.409 132.298C107.574 132.886 107.765 133.467 107.983 134.035L108.049 134.214C108.547 135.469 109.157 136.677 109.873 137.821C109.952 137.954 110.038 138.079 110.131 138.211C110.857 139.362 111.67 140.455 112.562 141.482C115.329 144.446 118.591 146.905 122.202 148.75C126.226 150.815 130.525 152.293 134.968 153.137C139.631 154.024 144.395 154.246 149.121 153.798C150.421 153.666 151.732 153.906 152.9 154.492C153.442 154.758 153.937 155.111 154.367 155.536C154.784 155.939 155.118 156.419 155.351 156.95L156.6 159.844L156.785 160.273L158.596 164.475L158.873 165.136L159.626 166.887C159.791 167.268 159.898 167.671 159.943 168.083C159.973 168.293 159.982 168.505 159.97 168.717V168.717Z" fill="url(#paint13_linear_1790_1249)"/>
<path d="M79.8693 115.171C79.7622 115.467 79.6847 115.772 79.6381 116.083C79.6117 116.342 79.6117 116.603 79.6381 116.863C79.6667 117.074 79.7291 117.279 79.8231 117.47C79.912 117.631 80.0391 117.767 80.1931 117.867L73.0638 113.592C72.9118 113.492 72.787 113.356 72.7004 113.195C72.6103 113.004 72.5523 112.798 72.5286 112.588C72.5022 112.328 72.5022 112.067 72.5286 111.808C72.5806 111.497 72.6602 111.192 72.7665 110.896L79.8561 115.171L72.7665 110.896C72.9213 110.478 73.116 110.075 73.3479 109.694C73.5765 109.334 73.8398 108.997 74.1342 108.689C74.4027 108.407 74.7096 108.165 75.046 107.969C75.3097 107.793 75.6104 107.68 75.9248 107.639L82.9748 111.96C82.66 112 82.3578 112.108 82.0894 112.277C81.7652 112.471 81.4695 112.709 81.2106 112.984C80.6136 113.612 80.1525 114.357 79.8561 115.171H79.8693Z" fill="#D9CDFE"/>
<path d="M80.1732 117.867L73.0637 113.592L73.2091 113.658C73.3153 113.697 73.4266 113.719 73.5394 113.724C73.6009 113.731 73.663 113.731 73.7245 113.724L80.8472 118.013H80.4838L80.3252 117.966L80.1732 117.867Z" fill="white"/>
<path d="M92.0136 102.637C91.6941 102.687 91.3882 102.801 91.115 102.974C90.7937 103.175 90.5004 103.417 90.2428 103.694C89.9499 104.006 89.6867 104.345 89.4565 104.705C89.2259 105.085 89.0313 105.485 88.8751 105.901L81.7854 101.52C82.0812 100.692 82.5496 99.9348 83.1597 99.3004C83.421 99.0058 83.7211 98.7479 84.0517 98.534C84.3296 98.3621 84.64 98.2496 84.9635 98.2036L92.0136 102.637Z" fill="#D9CDFE"/>
<path d="M81.7855 101.521L88.8488 105.902L86.86 111.564L79.7571 107.217L81.7855 101.521Z" fill="#D9CDFE"/>
<path d="M83.9329 106.747L91.0688 111.141L86.86 111.564L79.7571 107.216L83.9329 106.747Z" fill="white"/>
<path d="M85.9677 101.012L93.0639 105.432L91.0685 111.141L83.9326 106.747L85.9677 101.012Z" fill="white"/>
<path d="M87.897 106.305L95.0528 110.732L91.0685 111.141L83.9326 106.747L87.897 106.305Z" fill="#D9CDFE"/>
<path d="M88.6372 106.464L95.793 110.897C95.7459 110.86 95.692 110.833 95.6344 110.818C95.5787 110.789 95.5182 110.771 95.456 110.765H95.053L87.8972 106.338H88.1087C88.1723 106.331 88.2366 106.331 88.3003 106.338L88.4787 106.391C88.5349 106.407 88.5883 106.431 88.6372 106.464V106.464Z" fill="#D9CDFE"/>
<path d="M92.7537 102.783C92.7051 102.749 92.6516 102.722 92.5951 102.703L92.4167 102.651C92.353 102.644 92.2888 102.644 92.2251 102.651H92.0137L84.957 98.2237C85.0274 98.2171 85.0981 98.2171 85.1685 98.2237C85.2322 98.2171 85.2964 98.2171 85.3601 98.2237C85.4223 98.2302 85.4828 98.2481 85.5385 98.2766C85.5929 98.295 85.6442 98.3217 85.6904 98.3559L92.7537 102.783Z" fill="#D9CDFE"/>
<path d="M85.6838 98.3628L92.7537 102.783C92.9104 102.878 93.0366 103.015 93.1171 103.18C93.216 103.364 93.2767 103.566 93.2955 103.774C93.3286 104.029 93.3286 104.286 93.2955 104.541C93.2526 104.844 93.1795 105.143 93.0774 105.433L85.968 101.012C86.0774 100.722 86.155 100.421 86.1992 100.114C86.2323 99.8593 86.2323 99.6017 86.1992 99.3473C86.1835 99.1385 86.1226 98.9356 86.0208 98.7526C85.9542 98.5893 85.8358 98.4524 85.6838 98.3628V98.3628Z" fill="white"/>
<path d="M77.5632 113.335L84.7124 117.656L80.8471 118.006L73.7178 113.718L77.5632 113.335Z" fill="white"/>
<path d="M77.5632 113.335L84.7123 117.656L82.6839 123.391L75.5083 119.103L77.5632 113.335Z" fill="#D9CDFE"/>
<path d="M83.0207 126.173L75.8121 121.891C75.6524 121.789 75.5207 121.648 75.4289 121.482C75.3246 121.275 75.2617 121.051 75.2439 120.821C75.211 120.553 75.211 120.282 75.2439 120.015C75.2981 119.693 75.3799 119.377 75.4884 119.07L82.6706 123.358C82.5581 123.661 82.4784 123.976 82.4327 124.296C82.4063 124.564 82.4063 124.834 82.4327 125.102C82.4583 125.333 82.5254 125.557 82.6309 125.763C82.725 125.93 82.8589 126.071 83.0207 126.173V126.173Z" fill="#D9CDFE"/>
<path d="M81.7459 112.919L88.9083 117.273L84.7126 117.656L77.5635 113.335L81.7459 112.919Z" fill="white"/>
<path d="M81.7453 112.919L88.9077 117.273L86.8858 123.055L79.6772 118.727L81.7453 112.919Z" fill="white"/>
<path d="M83.0209 126.173L75.8123 121.891L75.9576 121.964L76.1096 122.01H76.4664C76.7872 121.97 77.0958 121.862 77.3716 121.693C77.6994 121.511 78.0035 121.289 78.2768 121.032C78.5766 120.716 78.8444 120.371 79.0763 120.001C79.3192 119.615 79.5186 119.203 79.6709 118.772L86.8795 123.094C86.5856 123.932 86.112 124.697 85.492 125.334C85.2251 125.614 84.9205 125.857 84.5868 126.054C84.3088 126.215 84.0008 126.319 83.6816 126.358H83.3248L83.1662 126.311L83.0209 126.173Z" fill="white"/>
<path d="M85.71 112.521L92.8988 116.915L88.908 117.272L81.7456 112.918L85.71 112.521Z" fill="white"/>
<path d="M87.9964 89.68C89.6925 89.3711 91.4432 89.6583 92.9519 90.4927C94.3703 91.3616 95.4442 92.6946 95.9912 94.2655C96.7174 96.2508 97.0103 98.3685 96.8502 100.476C96.6638 103.228 96.0899 105.94 95.1455 108.531C94.1186 111.465 92.7621 114.274 91.1018 116.902C89.527 119.438 87.684 121.797 85.6045 123.939C83.7765 125.843 81.6982 127.49 79.4267 128.835C77.581 129.959 75.5054 130.653 73.3545 130.863C71.6604 131.039 69.9602 130.593 68.5708 129.608C67.2581 128.557 66.3101 127.119 65.8618 125.498C65.295 123.469 65.1201 121.35 65.3464 119.254C65.6038 116.602 66.1989 113.993 67.1172 111.491C69.1163 106.064 72.1907 101.098 76.156 96.8886C77.9025 95.0259 79.8759 93.3899 82.03 92.019C83.8388 90.8414 85.8691 90.0455 87.9964 89.68V89.68ZM85.7036 112.522C86.0309 112.483 86.345 112.37 86.622 112.191C86.9614 111.991 87.2706 111.744 87.5405 111.458C87.8486 111.145 88.1211 110.8 88.3532 110.427C88.596 110.04 88.7955 109.628 88.9478 109.198C89.0912 108.814 89.1801 108.411 89.2121 108.002C89.2392 107.682 89.1987 107.36 89.0932 107.057C89.0193 106.809 88.8566 106.596 88.6361 106.46C88.4156 106.323 88.1527 106.272 87.8973 106.317L83.9329 106.76L85.9679 101.025C86.1125 100.65 86.1994 100.256 86.2256 99.8553C86.2604 99.5451 86.2242 99.231 86.1199 98.9368C86.0515 98.6933 85.8938 98.4846 85.6782 98.3523C85.4626 98.22 85.2051 98.1739 84.957 98.2233C84.6363 98.2722 84.3299 98.3893 84.0584 98.5668C83.7321 98.7737 83.4325 99.0201 83.1664 99.3003C82.5563 99.9347 82.0879 100.691 81.7921 101.52L79.757 107.216L75.9116 107.639C75.5972 107.68 75.2965 107.793 75.0328 107.969C74.7082 108.168 74.4125 108.41 74.154 108.689C73.8597 108.997 73.5963 109.334 73.3677 109.694C73.1358 110.075 72.9411 110.478 72.7863 110.896C72.6489 111.269 72.5601 111.657 72.522 112.052C72.4944 112.361 72.5235 112.672 72.6079 112.971C72.6811 113.204 72.8241 113.409 73.0176 113.559C73.2235 113.702 73.4757 113.764 73.7245 113.731L77.5634 113.347L75.5085 119.116C75.3686 119.499 75.2776 119.899 75.2376 120.305C75.2123 120.623 75.2436 120.943 75.3301 121.25C75.4036 121.494 75.5515 121.709 75.753 121.864C75.9671 122.001 76.2201 122.063 76.4732 122.043C76.794 122.002 77.1026 121.894 77.3784 121.726C77.7055 121.522 78.0052 121.278 78.2704 120.999C78.5702 120.682 78.838 120.337 79.0699 119.968C79.3127 119.581 79.5122 119.169 79.6645 118.739L81.7326 112.925L85.697 112.528L85.7036 112.522Z" fill="url(#paint14_linear_1790_1249)"/>
<path d="M84.9568 98.2239C85.2041 98.1722 85.4618 98.2155 85.6786 98.3453C85.8953 98.4751 86.0552 98.6819 86.1263 98.9243C86.2288 99.2235 86.2627 99.5419 86.2254 99.856C86.1992 100.257 86.1124 100.651 85.9677 101.025L83.9327 106.761L79.7502 107.23L81.7853 101.534C82.0811 100.705 82.5495 99.9486 83.1596 99.3142C83.4217 99.0165 83.7216 98.7544 84.0516 98.5345C84.329 98.3704 84.6371 98.2647 84.9568 98.2239Z" fill="white"/>
<path d="M96.1894 111.287C96.1015 111.119 95.9688 110.98 95.8061 110.883L94.5441 110.097C93.7149 112.175 92.7206 114.184 91.5708 116.103L92.8923 116.916C93.218 116.879 93.5315 116.77 93.8107 116.599C94.1501 116.399 94.4593 116.152 94.7291 115.865C95.0344 115.554 95.3026 115.208 95.5286 114.835C95.7779 114.454 95.9777 114.043 96.1233 113.612C96.2307 113.315 96.306 113.007 96.3479 112.694C96.381 112.433 96.381 112.169 96.3479 111.908C96.336 111.692 96.2821 111.481 96.1894 111.287V111.287ZM88.8817 106.675L88.842 106.628L88.8817 106.675ZM88.7958 106.582L88.7495 106.542L88.7958 106.582ZM89.0336 107.005C89.0402 107.024 89.0402 107.045 89.0336 107.064V107.064V107.005ZM89.0336 107.005V106.952V107.005ZM89.0336 106.873L89.0006 106.827L89.0336 106.873ZM88.994 106.813C89.0006 106.796 89.0006 106.778 88.994 106.761H88.9609L88.994 106.813Z" fill="white"/>
<path d="M87.8975 106.305C88.153 106.26 88.4159 106.311 88.6364 106.447C88.8569 106.584 89.0196 106.796 89.0935 107.045C89.199 107.348 89.2395 107.67 89.2124 107.99C89.1804 108.399 89.0914 108.801 88.9481 109.186C88.7958 109.616 88.5963 110.028 88.3535 110.415C88.1246 110.794 87.8518 111.144 87.5408 111.459C87.2709 111.745 86.9617 111.992 86.6223 112.192C86.3453 112.371 86.0312 112.484 85.7039 112.522L81.7395 112.919L77.5571 113.335L73.7248 113.732C73.4777 113.766 73.2265 113.71 73.0178 113.573C72.8244 113.423 72.6814 113.218 72.6082 112.985C72.5238 112.687 72.4947 112.375 72.5223 112.067C72.5604 111.671 72.6492 111.283 72.7866 110.91C72.9414 110.492 73.1361 110.089 73.368 109.708C73.5966 109.348 73.86 109.012 74.1543 108.703C74.4166 108.419 74.7167 108.172 75.0463 107.97C75.31 107.794 75.6107 107.681 75.9251 107.64L79.7705 107.217L83.953 106.748L87.8975 106.305Z" fill="white"/>
<path d="M82.9945 111.953L86.8597 111.563L79.7569 107.216L75.9048 107.639L82.9945 111.953Z" fill="white"/>
<path d="M75.5016 119.103L77.5565 113.335L81.7389 112.919L79.6708 118.733C79.5185 119.164 79.319 119.576 79.0761 119.962C78.8422 120.34 78.5723 120.694 78.2701 121.02C78.0032 121.3 77.6985 121.543 77.3648 121.74C77.089 121.908 76.7805 122.017 76.4596 122.057C76.2065 122.078 75.9536 122.015 75.7394 121.878C75.5379 121.723 75.3901 121.508 75.3166 121.264C75.2301 120.957 75.1988 120.637 75.2241 120.319C75.263 119.904 75.3563 119.495 75.5016 119.103Z" fill="white"/>
<path d="M93.1565 90.606L100.206 95.1122C101.222 95.7722 102.05 96.6824 102.612 97.7551C103.273 99.0046 103.695 100.367 103.854 101.772C104.064 103.489 104.046 105.227 103.801 106.939C103.517 109.005 103.026 111.037 102.334 113.005C101.332 115.919 100.002 118.71 98.3697 121.323C96.8038 123.834 94.9645 126.163 92.8856 128.268C91.0615 130.155 88.9846 131.781 86.7143 133.098C84.857 134.21 82.7721 134.888 80.6158 135.08C80.222 135.106 79.8268 135.106 79.433 135.08C79.0694 135.056 78.7075 135.009 78.3494 134.941C78.0059 134.863 77.6682 134.761 77.3385 134.637C77.0215 134.508 76.7126 134.361 76.4135 134.195L69.1785 129.986C69.4675 130.156 69.7703 130.302 70.0837 130.422C70.4105 130.546 70.7462 130.645 71.088 130.719C71.8325 130.876 72.5958 130.925 73.3543 130.864C75.5052 130.654 77.5808 129.96 79.4264 128.836C81.7026 127.492 83.7854 125.845 85.6175 123.94C87.6923 121.798 89.5309 119.438 91.1016 116.903C92.7618 114.275 94.1184 111.466 95.1453 108.532C95.8529 106.557 96.3598 104.516 96.6584 102.44C96.9045 100.707 96.9244 98.9506 96.7178 97.2133C96.5704 95.8296 96.1671 94.4853 95.5285 93.2489C94.9823 92.1758 94.1645 91.2646 93.1565 90.606V90.606Z" fill="#402FCD"/>
<defs>
<filter id="filter0_i_1790_1249" x="37.449" y="48.6685" width="232.191" height="153.75" filterUnits="userSpaceOnUse" color-interpolation-filters="sRGB">
<feFlood flood-opacity="0" result="BackgroundImageFix"/>
<feBlend mode="normal" in="SourceGraphic" in2="BackgroundImageFix" result="shape"/>
<feColorMatrix in="SourceAlpha" type="matrix" values="0 0 0 0 0 0 0 0 0 0 0 0 0 0 0 0 0 0 127 0" result="hardAlpha"/>
<feOffset/>
<feGaussianBlur stdDeviation="2.5"/>
<feComposite in2="hardAlpha" operator="arithmetic" k2="-1" k3="1"/>
<feColorMatrix type="matrix" values="0 0 0 0 0.866337 0 0 0 0 0.866337 0 0 0 0 0.866337 0 0 0 0.5 0"/>
<feBlend mode="normal" in2="shape" result="effect1_innerShadow_1790_1249"/>
</filter>
<linearGradient id="paint0_linear_1790_1249" x1="-78.5404" y1="115.022" x2="44.1237" y2="337.343" gradientUnits="userSpaceOnUse">
<stop stop-color="#F0F0F0"/>
<stop offset="1" stop-color="#F2EDFD"/>
</linearGradient>
<linearGradient id="paint1_linear_1790_1249" x1="47.236" y1="94.6622" x2="259.179" y2="176.078" gradientUnits="userSpaceOnUse">
<stop stop-color="#F2ECFB"/>
<stop offset="1" stop-color="#CBC8D4"/>
</linearGradient>
<linearGradient id="paint2_linear_1790_1249" x1="146.96" y1="86.1917" x2="163.637" y2="134.656" gradientUnits="userSpaceOnUse">
<stop stop-color="white"/>
<stop offset="1" stop-color="white"/>
</linearGradient>
<linearGradient id="paint3_linear_1790_1249" x1="5579.86" y1="12015.1" x2="7270.36" y2="8396.87" gradientUnits="userSpaceOnUse">
<stop stop-color="#100871"/>
<stop offset="1" stop-color="#5732BD"/>
</linearGradient>
<linearGradient id="paint4_linear_1790_1249" x1="207.125" y1="38.4097" x2="207.125" y2="58.786" gradientUnits="userSpaceOnUse">
<stop stop-color="#FF4B01"/>
<stop offset="1" stop-color="#FF2101"/>
</linearGradient>
<linearGradient id="paint5_linear_1790_1249" x1="16647.4" y1="36601.5" x2="9069.86" y2="20457.9" gradientUnits="userSpaceOnUse">
<stop stop-color="#8E8E8E"/>
<stop offset="1" stop-color="#8E8E8E"/>
</linearGradient>
<linearGradient id="paint6_linear_1790_1249" x1="321.553" y1="1213.04" x2="718.872" y2="1130.02" gradientUnits="userSpaceOnUse">
<stop stop-color="#B72100"/>
<stop offset="1" stop-color="#FA2C00"/>
</linearGradient>
<linearGradient id="paint7_linear_1790_1249" x1="152.034" y1="48.8047" x2="152.034" y2="202" gradientUnits="userSpaceOnUse">
<stop stop-color="#212121"/>
<stop offset="1" stop-color="#545454"/>
</linearGradient>
<linearGradient id="paint8_linear_1790_1249" x1="774.474" y1="2421.28" x2="2571.36" y2="1416.68" gradientUnits="userSpaceOnUse">
<stop stop-color="#B72100"/>
<stop offset="1" stop-color="#FA2C00"/>
</linearGradient>
<linearGradient id="paint9_linear_1790_1249" x1="2219.1" y1="2879.21" x2="4564.12" y2="-476.776" gradientUnits="userSpaceOnUse">
<stop stop-color="#B72100"/>
<stop offset="1" stop-color="#FA2C00"/>
</linearGradient>
<linearGradient id="paint10_linear_1790_1249" x1="2823.23" y1="2685.44" x2="4651" y2="-1032.08" gradientUnits="userSpaceOnUse">
<stop stop-color="#B72100"/>
<stop offset="1" stop-color="#FA2C00"/>
</linearGradient>
<linearGradient id="paint11_linear_1790_1249" x1="5595.46" y1="5467.61" x2="9494.4" y2="-2322.76" gradientUnits="userSpaceOnUse">
<stop stop-color="#B72100"/>
<stop offset="1" stop-color="#FA2C00"/>
</linearGradient>
<linearGradient id="paint12_linear_1790_1249" x1="8914.05" y1="12502.8" x2="16362.5" y2="4793.55" gradientUnits="userSpaceOnUse">
<stop stop-color="#FF2101"/>
<stop offset="1" stop-color="#FF5401"/>
</linearGradient>
<linearGradient id="paint13_linear_1790_1249" x1="6522.94" y1="10810.7" x2="15519.7" y2="1066.48" gradientUnits="userSpaceOnUse">
<stop stop-color="#FF4101"/>
<stop offset="1" stop-color="#FF2901"/>
</linearGradient>
<linearGradient id="paint14_linear_1790_1249" x1="81.0716" y1="89.5591" x2="81.0716" y2="130.901" gradientUnits="userSpaceOnUse">
<stop stop-color="#412FCB"/>
<stop offset="1" stop-color="#7F35A0"/>
</linearGradient>
</defs>
</svg>
